M48
; DRILL file {KiCad (6.0.4)} date Thu Mar 24 17:43:11 2022
; FORMAT={-:-/ absolute / metric / decimal}
; #@! TF.CreationDate,2022-03-24T17:43:11+01:00
; #@! TF.GenerationSoftware,Kicad,Pcbnew,(6.0.4)
; #@! TF.FileFunction,Plated,1,2,PTH
FMAT,2
METRIC
; #@! TA.AperFunction,Plated,PTH,ViaDrill
T1C0.400
; #@! TA.AperFunction,Plated,PTH,ComponentDrill
T2C1.000
%
G90
G05
T1
X148.5Y-87.6
X148.5Y-90.6
X148.5Y-93.6
X148.5Y-96.6
X148.5Y-99.6
X148.5Y-102.6
X151.75Y-105.75
X153.75Y-103.298
X154.75Y-104.076
X154.8Y-87.6
X154.8Y-90.6
X154.8Y-93.6
X154.8Y-96.6
X154.8Y-99.6
X157.75Y-105.75
X168.9Y-104.4
X174.0Y-100.1
T2
X148.83Y-84.28
X151.37Y-84.28
X153.91Y-84.28
X156.45Y-84.28
X158.99Y-84.28
X161.53Y-84.28
X163.83Y-107.696
X163.83Y-110.236
X166.37Y-107.696
X166.37Y-110.236
X168.91Y-107.696
X168.91Y-110.236
X171.45Y-107.696
X171.45Y-110.236
X173.99Y-107.696
X173.99Y-110.236
X176.53Y-107.696
X176.53Y-110.236
T2
X148.9Y-109.1G85X148.9Y-110.6
G05
X160.6Y-109.1G85X160.6Y-110.6
G05
T0
M30
