G04 #@! TF.GenerationSoftware,KiCad,Pcbnew,(6.0.4)*
G04 #@! TF.CreationDate,2022-03-24T17:43:08+01:00*
G04 #@! TF.ProjectId,MT32pi-MiSTer,4d543332-7069-42d4-9d69-535465722e6b,rev?*
G04 #@! TF.SameCoordinates,Original*
G04 #@! TF.FileFunction,Copper,L1,Top*
G04 #@! TF.FilePolarity,Positive*
%FSLAX46Y46*%
G04 Gerber Fmt 4.6, Leading zero omitted, Abs format (unit mm)*
G04 Created by KiCad (PCBNEW (6.0.4)) date 2022-03-24 17:43:08*
%MOMM*%
%LPD*%
G01*
G04 APERTURE LIST*
G04 #@! TA.AperFunction,SMDPad,CuDef*
%ADD10R,0.700000X1.800000*%
G04 #@! TD*
G04 #@! TA.AperFunction,ComponentPad*
%ADD11O,1.600000X4.000000*%
G04 #@! TD*
G04 #@! TA.AperFunction,ComponentPad*
%ADD12R,1.700000X1.700000*%
G04 #@! TD*
G04 #@! TA.AperFunction,ComponentPad*
%ADD13O,1.700000X1.700000*%
G04 #@! TD*
G04 #@! TA.AperFunction,ViaPad*
%ADD14C,0.800000*%
G04 #@! TD*
G04 #@! TA.AperFunction,Conductor*
%ADD15C,0.250000*%
G04 #@! TD*
G04 #@! TA.AperFunction,Conductor*
%ADD16C,0.700000*%
G04 #@! TD*
G04 APERTURE END LIST*
D10*
X157750000Y-107400000D03*
X155750000Y-107400000D03*
X153750000Y-107400000D03*
X151750000Y-107400000D03*
X150750000Y-107400000D03*
X152750000Y-107400000D03*
X154750000Y-107400000D03*
X156750000Y-107400000D03*
X158750000Y-107400000D03*
D11*
X160600000Y-109850000D03*
X148900000Y-109850000D03*
D12*
X176530000Y-107696000D03*
D13*
X176530000Y-110236000D03*
X173990000Y-107696000D03*
X173990000Y-110236000D03*
X171450000Y-107696000D03*
X171450000Y-110236000D03*
X168910000Y-107696000D03*
X168910000Y-110236000D03*
X166370000Y-107696000D03*
X166370000Y-110236000D03*
X163830000Y-107696000D03*
X163830000Y-110236000D03*
D12*
X161530000Y-84280000D03*
D13*
X158990000Y-84280000D03*
X156450000Y-84280000D03*
X153910000Y-84280000D03*
X151370000Y-84280000D03*
X148830000Y-84280000D03*
D14*
X157750000Y-105750000D03*
X154750000Y-104076000D03*
X154800000Y-87600000D03*
X168900000Y-104400000D03*
X154800000Y-93600000D03*
X154800000Y-96600000D03*
X174000000Y-100100000D03*
X148500000Y-87600000D03*
X151750000Y-105750000D03*
X148500000Y-96600000D03*
X148500000Y-102600000D03*
X154800000Y-90600000D03*
X148500000Y-90600000D03*
X153750000Y-103298000D03*
X148500000Y-93600000D03*
X154800000Y-99600000D03*
X148500000Y-99600000D03*
D15*
X154750000Y-107400000D02*
X154750000Y-104076000D01*
X153750000Y-103298000D02*
X153750000Y-103044000D01*
X158990000Y-86092000D02*
X158990000Y-84280000D01*
X154750000Y-103822000D02*
X155448000Y-103124000D01*
D16*
X151750000Y-107400000D02*
X151750000Y-105750000D01*
D15*
X176530000Y-110236000D02*
X175260000Y-108966000D01*
X156718000Y-97536000D02*
X156718000Y-88392000D01*
X175768000Y-98298000D02*
X157480000Y-98298000D01*
X170180000Y-103886000D02*
X170180000Y-108966000D01*
D16*
X157750000Y-107400000D02*
X157750000Y-105750000D01*
D15*
X155956000Y-98298000D02*
X155956000Y-87630000D01*
X156718000Y-86868000D02*
X158242000Y-86868000D01*
X175260000Y-99822000D02*
X174498000Y-99060000D01*
X154432000Y-102362000D02*
X170688000Y-102362000D01*
X159004000Y-86106000D02*
X158990000Y-86092000D01*
X156718000Y-99060000D02*
X155956000Y-98298000D01*
X176530000Y-99060000D02*
X175768000Y-98298000D01*
X161544000Y-86868000D02*
X161530000Y-86854000D01*
X160782000Y-87630000D02*
X161544000Y-86868000D01*
X170688000Y-102362000D02*
X171450000Y-103124000D01*
X169418000Y-103124000D02*
X170180000Y-103886000D01*
X155448000Y-103124000D02*
X169418000Y-103124000D01*
X171450000Y-103124000D02*
X171450000Y-107696000D01*
X157480000Y-87630000D02*
X160782000Y-87630000D01*
X158242000Y-86868000D02*
X159004000Y-86106000D01*
X153750000Y-107400000D02*
X153750000Y-103298000D01*
X174498000Y-99060000D02*
X156718000Y-99060000D01*
X155956000Y-87630000D02*
X156718000Y-86868000D01*
X175260000Y-108966000D02*
X175260000Y-99822000D01*
X170180000Y-108966000D02*
X171450000Y-110236000D01*
X156718000Y-88392000D02*
X157480000Y-87630000D01*
X157480000Y-98298000D02*
X156718000Y-97536000D01*
X161530000Y-86854000D02*
X161530000Y-84280000D01*
X153750000Y-103044000D02*
X154432000Y-102362000D01*
X176530000Y-107696000D02*
X176530000Y-99060000D01*
X154750000Y-104076000D02*
X154750000Y-103822000D01*
X171958000Y-101600000D02*
X172720000Y-102362000D01*
X172720000Y-102362000D02*
X172720000Y-108966000D01*
X173228000Y-100838000D02*
X173990000Y-101600000D01*
X153416000Y-101600000D02*
X171958000Y-101600000D01*
X155750000Y-104600000D02*
X156464000Y-103886000D01*
X167735489Y-109061489D02*
X168910000Y-110236000D01*
X152750000Y-102266000D02*
X153416000Y-101600000D01*
X152750000Y-107400000D02*
X152750000Y-102266000D01*
X150750000Y-101472000D02*
X151384000Y-100838000D01*
X158750000Y-106172000D02*
X159512000Y-105410000D01*
X166624000Y-103886000D02*
X167735489Y-104997489D01*
X165100000Y-106172000D02*
X165100000Y-108966000D01*
X164338000Y-105410000D02*
X165100000Y-106172000D01*
X173990000Y-101600000D02*
X173990000Y-107696000D01*
X166370000Y-105410000D02*
X166370000Y-107696000D01*
X165608000Y-104648000D02*
X166370000Y-105410000D01*
X156750000Y-105378000D02*
X157480000Y-104648000D01*
X158750000Y-107400000D02*
X158750000Y-106172000D01*
X150750000Y-107400000D02*
X150750000Y-101472000D01*
X151384000Y-100838000D02*
X173228000Y-100838000D01*
X172720000Y-108966000D02*
X173990000Y-110236000D01*
X167735489Y-104997489D02*
X167735489Y-109061489D01*
X156750000Y-107400000D02*
X156750000Y-105378000D01*
X156464000Y-103886000D02*
X166624000Y-103886000D01*
X159512000Y-105410000D02*
X164338000Y-105410000D01*
X165100000Y-108966000D02*
X163830000Y-110236000D01*
X155750000Y-107400000D02*
X155750000Y-104600000D01*
X157480000Y-104648000D02*
X165608000Y-104648000D01*
G04 #@! TA.AperFunction,Conductor*
G36*
X149026121Y-84046002D02*
G01*
X149072614Y-84099658D01*
X149084000Y-84152000D01*
X149084000Y-85598517D01*
X149088064Y-85612359D01*
X149101478Y-85614393D01*
X149108184Y-85613534D01*
X149118262Y-85611392D01*
X149322255Y-85550191D01*
X149331842Y-85546433D01*
X149523095Y-85452739D01*
X149531945Y-85447464D01*
X149705328Y-85323792D01*
X149713200Y-85317139D01*
X149864052Y-85166812D01*
X149870730Y-85158965D01*
X149998022Y-84981819D01*
X149999279Y-84982722D01*
X150046373Y-84939362D01*
X150116311Y-84927145D01*
X150181751Y-84954678D01*
X150209579Y-84986511D01*
X150269987Y-85085088D01*
X150416250Y-85253938D01*
X150588126Y-85396632D01*
X150781000Y-85509338D01*
X150989692Y-85589030D01*
X150994760Y-85590061D01*
X150994763Y-85590062D01*
X151089862Y-85609410D01*
X151208597Y-85633567D01*
X151213772Y-85633757D01*
X151213774Y-85633757D01*
X151426673Y-85641564D01*
X151426677Y-85641564D01*
X151431837Y-85641753D01*
X151436957Y-85641097D01*
X151436959Y-85641097D01*
X151648288Y-85614025D01*
X151648289Y-85614025D01*
X151653416Y-85613368D01*
X151658366Y-85611883D01*
X151862429Y-85550661D01*
X151862434Y-85550659D01*
X151867384Y-85549174D01*
X152067994Y-85450896D01*
X152249860Y-85321173D01*
X152408096Y-85163489D01*
X152538453Y-84982077D01*
X152539776Y-84983028D01*
X152586645Y-84939857D01*
X152656580Y-84927625D01*
X152722026Y-84955144D01*
X152749875Y-84986994D01*
X152809987Y-85085088D01*
X152956250Y-85253938D01*
X153128126Y-85396632D01*
X153321000Y-85509338D01*
X153529692Y-85589030D01*
X153534760Y-85590061D01*
X153534763Y-85590062D01*
X153629862Y-85609410D01*
X153748597Y-85633567D01*
X153753772Y-85633757D01*
X153753774Y-85633757D01*
X153966673Y-85641564D01*
X153966677Y-85641564D01*
X153971837Y-85641753D01*
X153976957Y-85641097D01*
X153976959Y-85641097D01*
X154188288Y-85614025D01*
X154188289Y-85614025D01*
X154193416Y-85613368D01*
X154198366Y-85611883D01*
X154402429Y-85550661D01*
X154402434Y-85550659D01*
X154407384Y-85549174D01*
X154607994Y-85450896D01*
X154789860Y-85321173D01*
X154948096Y-85163489D01*
X155078453Y-84982077D01*
X155079776Y-84983028D01*
X155126645Y-84939857D01*
X155196580Y-84927625D01*
X155262026Y-84955144D01*
X155289875Y-84986994D01*
X155349987Y-85085088D01*
X155496250Y-85253938D01*
X155668126Y-85396632D01*
X155861000Y-85509338D01*
X156069692Y-85589030D01*
X156074760Y-85590061D01*
X156074763Y-85590062D01*
X156169862Y-85609410D01*
X156288597Y-85633567D01*
X156293772Y-85633757D01*
X156293774Y-85633757D01*
X156506673Y-85641564D01*
X156506677Y-85641564D01*
X156511837Y-85641753D01*
X156516957Y-85641097D01*
X156516959Y-85641097D01*
X156728288Y-85614025D01*
X156728289Y-85614025D01*
X156733416Y-85613368D01*
X156738366Y-85611883D01*
X156942429Y-85550661D01*
X156942434Y-85550659D01*
X156947384Y-85549174D01*
X157147994Y-85450896D01*
X157329860Y-85321173D01*
X157488096Y-85163489D01*
X157618453Y-84982077D01*
X157619776Y-84983028D01*
X157666645Y-84939857D01*
X157736580Y-84927625D01*
X157802026Y-84955144D01*
X157829875Y-84986994D01*
X157889987Y-85085088D01*
X158036250Y-85253938D01*
X158208126Y-85396632D01*
X158212593Y-85399242D01*
X158294070Y-85446853D01*
X158342794Y-85498491D01*
X158356500Y-85555641D01*
X158356500Y-85805405D01*
X158336498Y-85873526D01*
X158319595Y-85894501D01*
X158016499Y-86197596D01*
X157954187Y-86231621D01*
X157927404Y-86234500D01*
X156796768Y-86234500D01*
X156785585Y-86233973D01*
X156778092Y-86232298D01*
X156770166Y-86232547D01*
X156770165Y-86232547D01*
X156710002Y-86234438D01*
X156706044Y-86234500D01*
X156678144Y-86234500D01*
X156674154Y-86235004D01*
X156662320Y-86235936D01*
X156618111Y-86237326D01*
X156610497Y-86239538D01*
X156610492Y-86239539D01*
X156598659Y-86242977D01*
X156579296Y-86246988D01*
X156559203Y-86249526D01*
X156551836Y-86252443D01*
X156551831Y-86252444D01*
X156518092Y-86265802D01*
X156506865Y-86269646D01*
X156464407Y-86281982D01*
X156457581Y-86286019D01*
X156446972Y-86292293D01*
X156429224Y-86300988D01*
X156410383Y-86308448D01*
X156403967Y-86313110D01*
X156403966Y-86313110D01*
X156374613Y-86334436D01*
X156364693Y-86340952D01*
X156333465Y-86359420D01*
X156333462Y-86359422D01*
X156326638Y-86363458D01*
X156312317Y-86377779D01*
X156297284Y-86390619D01*
X156280893Y-86402528D01*
X156257305Y-86431041D01*
X156252712Y-86436593D01*
X156244722Y-86445374D01*
X155563742Y-87126353D01*
X155555463Y-87133887D01*
X155548982Y-87138000D01*
X155502357Y-87187651D01*
X155499602Y-87190493D01*
X155479865Y-87210230D01*
X155477385Y-87213427D01*
X155469682Y-87222447D01*
X155439414Y-87254679D01*
X155435595Y-87261625D01*
X155435593Y-87261628D01*
X155429652Y-87272434D01*
X155418801Y-87288953D01*
X155406386Y-87304959D01*
X155403241Y-87312228D01*
X155403238Y-87312232D01*
X155388826Y-87345537D01*
X155383609Y-87356187D01*
X155362305Y-87394940D01*
X155360334Y-87402615D01*
X155360334Y-87402616D01*
X155357267Y-87414562D01*
X155350863Y-87433266D01*
X155342819Y-87451855D01*
X155341580Y-87459678D01*
X155341577Y-87459688D01*
X155335901Y-87495524D01*
X155333495Y-87507144D01*
X155322500Y-87549970D01*
X155322500Y-87570224D01*
X155320949Y-87589934D01*
X155317780Y-87609943D01*
X155318526Y-87617835D01*
X155321941Y-87653961D01*
X155322500Y-87665819D01*
X155322500Y-98219233D01*
X155321973Y-98230416D01*
X155320298Y-98237909D01*
X155320547Y-98245835D01*
X155320547Y-98245836D01*
X155322438Y-98305986D01*
X155322500Y-98309945D01*
X155322500Y-98337856D01*
X155322997Y-98341790D01*
X155322997Y-98341791D01*
X155323005Y-98341856D01*
X155323938Y-98353693D01*
X155325327Y-98397889D01*
X155330978Y-98417339D01*
X155334987Y-98436700D01*
X155337526Y-98456797D01*
X155340445Y-98464168D01*
X155340445Y-98464170D01*
X155353804Y-98497912D01*
X155357649Y-98509142D01*
X155369982Y-98551593D01*
X155374015Y-98558412D01*
X155374017Y-98558417D01*
X155380293Y-98569028D01*
X155388988Y-98586776D01*
X155396448Y-98605617D01*
X155401110Y-98612033D01*
X155401110Y-98612034D01*
X155422436Y-98641387D01*
X155428952Y-98651307D01*
X155439202Y-98668638D01*
X155451458Y-98689362D01*
X155465779Y-98703683D01*
X155478619Y-98718716D01*
X155490528Y-98735107D01*
X155520321Y-98759754D01*
X155524593Y-98763288D01*
X155533374Y-98771278D01*
X156214353Y-99452258D01*
X156221887Y-99460537D01*
X156226000Y-99467018D01*
X156233231Y-99473808D01*
X156275651Y-99513643D01*
X156278493Y-99516398D01*
X156298230Y-99536135D01*
X156301427Y-99538615D01*
X156310447Y-99546318D01*
X156342679Y-99576586D01*
X156349625Y-99580405D01*
X156349628Y-99580407D01*
X156360434Y-99586348D01*
X156376953Y-99597199D01*
X156392959Y-99609614D01*
X156400228Y-99612759D01*
X156400232Y-99612762D01*
X156433537Y-99627174D01*
X156444187Y-99632391D01*
X156482940Y-99653695D01*
X156490615Y-99655666D01*
X156490616Y-99655666D01*
X156502562Y-99658733D01*
X156521267Y-99665137D01*
X156539855Y-99673181D01*
X156547678Y-99674420D01*
X156547688Y-99674423D01*
X156583524Y-99680099D01*
X156595144Y-99682505D01*
X156630289Y-99691528D01*
X156637970Y-99693500D01*
X156658224Y-99693500D01*
X156677934Y-99695051D01*
X156697943Y-99698220D01*
X156705835Y-99697474D01*
X156741961Y-99694059D01*
X156753819Y-99693500D01*
X174183405Y-99693500D01*
X174251526Y-99713502D01*
X174272501Y-99730405D01*
X174589596Y-100047501D01*
X174623621Y-100109813D01*
X174626500Y-100136596D01*
X174626500Y-101036405D01*
X174606498Y-101104526D01*
X174552842Y-101151019D01*
X174482568Y-101161123D01*
X174417988Y-101131629D01*
X174411404Y-101125500D01*
X173731647Y-100445742D01*
X173724113Y-100437463D01*
X173720000Y-100430982D01*
X173670348Y-100384356D01*
X173667507Y-100381602D01*
X173647770Y-100361865D01*
X173644573Y-100359385D01*
X173635551Y-100351680D01*
X173622116Y-100339064D01*
X173603321Y-100321414D01*
X173596375Y-100317595D01*
X173596372Y-100317593D01*
X173585566Y-100311652D01*
X173569047Y-100300801D01*
X173568583Y-100300441D01*
X173553041Y-100288386D01*
X173545772Y-100285241D01*
X173545768Y-100285238D01*
X173512463Y-100270826D01*
X173501813Y-100265609D01*
X173463060Y-100244305D01*
X173443437Y-100239267D01*
X173424734Y-100232863D01*
X173413420Y-100227967D01*
X173413419Y-100227967D01*
X173406145Y-100224819D01*
X173398322Y-100223580D01*
X173398312Y-100223577D01*
X173362476Y-100217901D01*
X173350856Y-100215495D01*
X173315711Y-100206472D01*
X173315710Y-100206472D01*
X173308030Y-100204500D01*
X173287776Y-100204500D01*
X173268065Y-100202949D01*
X173265534Y-100202548D01*
X173248057Y-100199780D01*
X173240165Y-100200526D01*
X173204039Y-100203941D01*
X173192181Y-100204500D01*
X151462763Y-100204500D01*
X151451579Y-100203973D01*
X151444091Y-100202299D01*
X151436168Y-100202548D01*
X151376033Y-100204438D01*
X151372075Y-100204500D01*
X151344144Y-100204500D01*
X151340229Y-100204995D01*
X151340225Y-100204995D01*
X151340167Y-100205003D01*
X151340138Y-100205006D01*
X151328296Y-100205939D01*
X151284110Y-100207327D01*
X151266744Y-100212372D01*
X151264658Y-100212978D01*
X151245306Y-100216986D01*
X151233068Y-100218532D01*
X151233066Y-100218533D01*
X151225203Y-100219526D01*
X151184086Y-100235806D01*
X151172885Y-100239641D01*
X151130406Y-100251982D01*
X151123587Y-100256015D01*
X151123582Y-100256017D01*
X151112971Y-100262293D01*
X151095221Y-100270990D01*
X151076383Y-100278448D01*
X151069967Y-100283109D01*
X151069966Y-100283110D01*
X151040625Y-100304428D01*
X151030701Y-100310947D01*
X150999460Y-100329422D01*
X150999455Y-100329426D01*
X150992637Y-100333458D01*
X150978313Y-100347782D01*
X150963281Y-100360621D01*
X150946893Y-100372528D01*
X150918712Y-100406593D01*
X150910722Y-100415373D01*
X150357747Y-100968348D01*
X150349461Y-100975888D01*
X150342982Y-100980000D01*
X150337557Y-100985777D01*
X150296357Y-101029651D01*
X150293602Y-101032493D01*
X150273865Y-101052230D01*
X150271385Y-101055427D01*
X150263682Y-101064447D01*
X150233414Y-101096679D01*
X150229595Y-101103625D01*
X150229593Y-101103628D01*
X150223652Y-101114434D01*
X150212801Y-101130953D01*
X150200386Y-101146959D01*
X150197241Y-101154228D01*
X150197238Y-101154232D01*
X150182826Y-101187537D01*
X150177609Y-101198187D01*
X150156305Y-101236940D01*
X150154334Y-101244615D01*
X150154334Y-101244616D01*
X150151267Y-101256562D01*
X150144863Y-101275266D01*
X150136819Y-101293855D01*
X150135580Y-101301678D01*
X150135577Y-101301688D01*
X150129901Y-101337524D01*
X150127495Y-101349144D01*
X150116500Y-101391970D01*
X150116500Y-101412224D01*
X150114949Y-101431934D01*
X150111780Y-101451943D01*
X150112526Y-101459835D01*
X150115941Y-101495961D01*
X150116500Y-101507819D01*
X150116500Y-106013934D01*
X150096498Y-106082055D01*
X150066068Y-106114758D01*
X150036739Y-106136739D01*
X149949385Y-106253295D01*
X149898255Y-106389684D01*
X149891500Y-106451866D01*
X149891500Y-107505439D01*
X149871498Y-107573560D01*
X149817842Y-107620053D01*
X149747568Y-107630157D01*
X149693229Y-107608652D01*
X149561007Y-107516069D01*
X149551511Y-107510586D01*
X149354053Y-107418510D01*
X149343761Y-107414764D01*
X149171497Y-107368606D01*
X149157401Y-107368942D01*
X149154000Y-107376884D01*
X149154000Y-109577885D01*
X149158475Y-109593124D01*
X149159865Y-109594329D01*
X149167548Y-109596000D01*
X150189885Y-109596000D01*
X150205124Y-109591525D01*
X150206329Y-109590135D01*
X150208000Y-109582452D01*
X150208000Y-108933300D01*
X150228002Y-108865179D01*
X150281658Y-108818686D01*
X150345045Y-108808454D01*
X150345072Y-108807947D01*
X150347403Y-108808073D01*
X150347618Y-108808039D01*
X150351866Y-108808500D01*
X151148134Y-108808500D01*
X151152056Y-108808074D01*
X151156133Y-108807631D01*
X151210316Y-108801745D01*
X151217716Y-108798971D01*
X151221942Y-108797966D01*
X151280239Y-108797966D01*
X151297646Y-108802105D01*
X151348514Y-108807631D01*
X151355328Y-108808000D01*
X151477885Y-108808000D01*
X151493124Y-108803525D01*
X151494329Y-108802135D01*
X151496000Y-108794452D01*
X151496000Y-108661553D01*
X151516002Y-108593432D01*
X151521174Y-108585988D01*
X151545229Y-108553891D01*
X151550615Y-108546705D01*
X151601745Y-108410316D01*
X151608500Y-108348134D01*
X151608500Y-106451866D01*
X151601745Y-106389684D01*
X151550615Y-106253295D01*
X151521174Y-106214012D01*
X151496326Y-106147506D01*
X151496000Y-106138447D01*
X151496000Y-106010116D01*
X151491525Y-105994877D01*
X151490135Y-105993672D01*
X151482718Y-105992059D01*
X151420406Y-105958035D01*
X151386380Y-105895723D01*
X151383500Y-105868938D01*
X151383500Y-101786594D01*
X151403502Y-101718473D01*
X151420405Y-101697499D01*
X151609499Y-101508405D01*
X151671811Y-101474379D01*
X151698594Y-101471500D01*
X152344405Y-101471500D01*
X152412526Y-101491502D01*
X152459019Y-101545158D01*
X152469123Y-101615432D01*
X152439629Y-101680012D01*
X152433500Y-101686595D01*
X152357747Y-101762348D01*
X152349461Y-101769888D01*
X152342982Y-101774000D01*
X152337557Y-101779777D01*
X152296357Y-101823651D01*
X152293602Y-101826493D01*
X152273865Y-101846230D01*
X152271385Y-101849427D01*
X152263682Y-101858447D01*
X152233414Y-101890679D01*
X152229595Y-101897625D01*
X152229593Y-101897628D01*
X152223652Y-101908434D01*
X152212801Y-101924953D01*
X152200386Y-101940959D01*
X152197241Y-101948228D01*
X152197238Y-101948232D01*
X152182826Y-101981537D01*
X152177609Y-101992187D01*
X152156305Y-102030940D01*
X152154334Y-102038615D01*
X152154334Y-102038616D01*
X152151267Y-102050562D01*
X152144863Y-102069266D01*
X152136819Y-102087855D01*
X152135580Y-102095678D01*
X152135577Y-102095688D01*
X152129901Y-102131524D01*
X152127495Y-102143144D01*
X152116500Y-102185970D01*
X152116500Y-102206224D01*
X152114949Y-102225934D01*
X152111780Y-102245943D01*
X152112526Y-102253835D01*
X152115941Y-102289961D01*
X152116500Y-102301819D01*
X152116500Y-105869964D01*
X152096498Y-105938085D01*
X152042842Y-105984578D01*
X152025998Y-105990860D01*
X152006876Y-105996475D01*
X152005671Y-105997865D01*
X152004000Y-106005548D01*
X152004000Y-106138447D01*
X151983998Y-106206568D01*
X151978826Y-106214012D01*
X151949385Y-106253295D01*
X151898255Y-106389684D01*
X151891500Y-106451866D01*
X151891500Y-108348134D01*
X151898255Y-108410316D01*
X151949385Y-108546705D01*
X151954771Y-108553891D01*
X151978826Y-108585988D01*
X152003674Y-108652494D01*
X152004000Y-108661553D01*
X152004000Y-108789882D01*
X152006806Y-108799438D01*
X152006806Y-108870434D01*
X151968423Y-108930161D01*
X151945064Y-108946188D01*
X151916847Y-108961191D01*
X151916845Y-108961192D01*
X151911401Y-108964087D01*
X151892678Y-108979357D01*
X151755311Y-109091390D01*
X151755308Y-109091393D01*
X151750536Y-109095285D01*
X151746608Y-109100033D01*
X151746607Y-109100034D01*
X151671891Y-109190350D01*
X151618217Y-109255230D01*
X151615288Y-109260647D01*
X151615286Y-109260650D01*
X151522416Y-109432410D01*
X151522414Y-109432415D01*
X151519486Y-109437830D01*
X151458102Y-109636129D01*
X151457458Y-109642254D01*
X151457458Y-109642255D01*
X151444001Y-109770297D01*
X151436404Y-109842575D01*
X151455218Y-110049303D01*
X151456956Y-110055209D01*
X151456957Y-110055213D01*
X151498853Y-110197562D01*
X151513827Y-110248440D01*
X151609999Y-110432400D01*
X151740071Y-110594177D01*
X151744788Y-110598135D01*
X151744790Y-110598137D01*
X151793007Y-110638596D01*
X151899089Y-110727609D01*
X151904481Y-110730573D01*
X151904485Y-110730576D01*
X151987888Y-110776427D01*
X152080995Y-110827613D01*
X152278861Y-110890379D01*
X152284978Y-110891065D01*
X152284982Y-110891066D01*
X152361598Y-110899659D01*
X152440413Y-110908500D01*
X152552237Y-110908500D01*
X152555293Y-110908200D01*
X152555300Y-110908200D01*
X152700466Y-110893966D01*
X152700469Y-110893965D01*
X152706592Y-110893365D01*
X152848186Y-110850616D01*
X152899407Y-110835152D01*
X152899410Y-110835151D01*
X152905315Y-110833368D01*
X152912635Y-110829476D01*
X153083153Y-110738809D01*
X153083155Y-110738808D01*
X153088599Y-110735913D01*
X153195870Y-110648425D01*
X153244689Y-110608610D01*
X153244692Y-110608607D01*
X153249464Y-110604715D01*
X153381783Y-110444770D01*
X153385876Y-110437201D01*
X153477584Y-110267590D01*
X153477586Y-110267585D01*
X153480514Y-110262170D01*
X153541898Y-110063871D01*
X153543429Y-110049303D01*
X153562952Y-109863554D01*
X153562952Y-109863552D01*
X153563596Y-109857425D01*
X153544782Y-109650697D01*
X153542298Y-109642255D01*
X153487912Y-109457469D01*
X153486173Y-109451560D01*
X153390001Y-109267600D01*
X153259929Y-109105823D01*
X153255211Y-109101864D01*
X153255205Y-109101858D01*
X153157678Y-109020023D01*
X153118351Y-108960914D01*
X153117225Y-108889926D01*
X153154656Y-108829599D01*
X153207321Y-108802070D01*
X153210316Y-108801745D01*
X153217713Y-108798972D01*
X153220855Y-108798225D01*
X153279146Y-108798225D01*
X153282285Y-108798971D01*
X153289684Y-108801745D01*
X153343867Y-108807631D01*
X153347945Y-108808074D01*
X153351866Y-108808500D01*
X154148134Y-108808500D01*
X154152056Y-108808074D01*
X154156133Y-108807631D01*
X154210316Y-108801745D01*
X154217715Y-108798971D01*
X154220854Y-108798225D01*
X154279146Y-108798225D01*
X154282285Y-108798971D01*
X154289684Y-108801745D01*
X154343867Y-108807631D01*
X154347945Y-108808074D01*
X154351866Y-108808500D01*
X155148134Y-108808500D01*
X155152056Y-108808074D01*
X155156133Y-108807631D01*
X155210316Y-108801745D01*
X155217715Y-108798971D01*
X155220854Y-108798225D01*
X155279146Y-108798225D01*
X155282285Y-108798971D01*
X155289684Y-108801745D01*
X155343867Y-108807631D01*
X155347945Y-108808074D01*
X155351866Y-108808500D01*
X156148134Y-108808500D01*
X156152056Y-108808074D01*
X156156133Y-108807631D01*
X156210316Y-108801745D01*
X156217715Y-108798971D01*
X156220854Y-108798225D01*
X156279142Y-108798224D01*
X156282285Y-108798971D01*
X156289684Y-108801745D01*
X156292711Y-108802074D01*
X156352488Y-108836221D01*
X156385310Y-108899175D01*
X156378886Y-108969880D01*
X156341334Y-109021232D01*
X156255311Y-109091390D01*
X156255308Y-109091393D01*
X156250536Y-109095285D01*
X156246608Y-109100033D01*
X156246607Y-109100034D01*
X156171891Y-109190350D01*
X156118217Y-109255230D01*
X156115288Y-109260647D01*
X156115286Y-109260650D01*
X156022416Y-109432410D01*
X156022414Y-109432415D01*
X156019486Y-109437830D01*
X155958102Y-109636129D01*
X155957458Y-109642254D01*
X155957458Y-109642255D01*
X155944001Y-109770297D01*
X155936404Y-109842575D01*
X155955218Y-110049303D01*
X155956956Y-110055209D01*
X155956957Y-110055213D01*
X155998853Y-110197562D01*
X156013827Y-110248440D01*
X156109999Y-110432400D01*
X156240071Y-110594177D01*
X156244788Y-110598135D01*
X156244790Y-110598137D01*
X156293007Y-110638596D01*
X156399089Y-110727609D01*
X156404481Y-110730573D01*
X156404485Y-110730576D01*
X156487888Y-110776427D01*
X156580995Y-110827613D01*
X156778861Y-110890379D01*
X156784978Y-110891065D01*
X156784982Y-110891066D01*
X156861598Y-110899659D01*
X156940413Y-110908500D01*
X157052237Y-110908500D01*
X157055293Y-110908200D01*
X157055300Y-110908200D01*
X157200466Y-110893966D01*
X157200469Y-110893965D01*
X157206592Y-110893365D01*
X157348186Y-110850616D01*
X157399407Y-110835152D01*
X157399410Y-110835151D01*
X157405315Y-110833368D01*
X157412635Y-110829476D01*
X157583153Y-110738809D01*
X157583155Y-110738808D01*
X157588599Y-110735913D01*
X157695870Y-110648425D01*
X157744689Y-110608610D01*
X157744692Y-110608607D01*
X157749464Y-110604715D01*
X157881783Y-110444770D01*
X157885876Y-110437201D01*
X157977584Y-110267590D01*
X157977586Y-110267585D01*
X157980514Y-110262170D01*
X158041898Y-110063871D01*
X158043429Y-110049303D01*
X158062952Y-109863554D01*
X158062952Y-109863552D01*
X158063596Y-109857425D01*
X158044782Y-109650697D01*
X158042298Y-109642255D01*
X157987912Y-109457469D01*
X157986173Y-109451560D01*
X157890001Y-109267600D01*
X157759929Y-109105823D01*
X157755211Y-109101864D01*
X157755205Y-109101858D01*
X157670785Y-109031021D01*
X157631458Y-108971912D01*
X157630332Y-108900924D01*
X157667763Y-108840597D01*
X157731868Y-108810083D01*
X157751776Y-108808500D01*
X158148134Y-108808500D01*
X158152056Y-108808074D01*
X158156133Y-108807631D01*
X158210316Y-108801745D01*
X158217715Y-108798971D01*
X158220854Y-108798225D01*
X158279146Y-108798225D01*
X158282285Y-108798971D01*
X158289684Y-108801745D01*
X158343867Y-108807631D01*
X158347945Y-108808074D01*
X158351866Y-108808500D01*
X159148134Y-108808500D01*
X159152382Y-108808039D01*
X159152581Y-108808074D01*
X159154928Y-108807947D01*
X159154958Y-108808500D01*
X159222263Y-108820559D01*
X159274284Y-108868875D01*
X159292000Y-108933300D01*
X159292000Y-109577885D01*
X159296475Y-109593124D01*
X159297865Y-109594329D01*
X159305548Y-109596000D01*
X160327885Y-109596000D01*
X160343124Y-109591525D01*
X160344329Y-109590135D01*
X160346000Y-109582452D01*
X160346000Y-109577885D01*
X160854000Y-109577885D01*
X160858475Y-109593124D01*
X160859865Y-109594329D01*
X160867548Y-109596000D01*
X161889885Y-109596000D01*
X161905124Y-109591525D01*
X161906329Y-109590135D01*
X161908000Y-109582452D01*
X161908000Y-108595635D01*
X161907762Y-108590170D01*
X161893528Y-108427481D01*
X161891625Y-108416688D01*
X161835236Y-108206239D01*
X161831490Y-108195947D01*
X161739414Y-107998489D01*
X161733931Y-107988993D01*
X161608972Y-107810533D01*
X161601916Y-107802125D01*
X161447875Y-107648084D01*
X161439467Y-107641028D01*
X161261007Y-107516069D01*
X161251511Y-107510586D01*
X161054053Y-107418510D01*
X161043761Y-107414764D01*
X160871497Y-107368606D01*
X160857401Y-107368942D01*
X160854000Y-107376884D01*
X160854000Y-109577885D01*
X160346000Y-109577885D01*
X160346000Y-107382033D01*
X160342027Y-107368502D01*
X160333478Y-107367273D01*
X160156239Y-107414764D01*
X160145947Y-107418510D01*
X159948489Y-107510586D01*
X159938993Y-107516069D01*
X159806771Y-107608652D01*
X159739497Y-107631340D01*
X159670636Y-107614055D01*
X159622052Y-107562285D01*
X159608500Y-107505439D01*
X159608500Y-106451866D01*
X159604714Y-106417016D01*
X159602598Y-106397534D01*
X159602598Y-106397532D01*
X159601745Y-106389684D01*
X159582907Y-106339433D01*
X159577724Y-106268629D01*
X159611794Y-106206111D01*
X159737500Y-106080405D01*
X159799812Y-106046379D01*
X159826595Y-106043500D01*
X164023405Y-106043500D01*
X164091526Y-106063502D01*
X164112500Y-106080405D01*
X164177000Y-106144905D01*
X164211026Y-106207217D01*
X164205961Y-106278032D01*
X164163414Y-106334868D01*
X164096894Y-106359679D01*
X164065809Y-106358047D01*
X163963373Y-106339800D01*
X163963367Y-106339799D01*
X163958284Y-106338894D01*
X163884452Y-106337992D01*
X163740081Y-106336228D01*
X163740079Y-106336228D01*
X163734911Y-106336165D01*
X163514091Y-106369955D01*
X163301756Y-106439357D01*
X163228757Y-106477358D01*
X163177836Y-106503866D01*
X163103607Y-106542507D01*
X163099474Y-106545610D01*
X163099471Y-106545612D01*
X163027972Y-106599295D01*
X162924965Y-106676635D01*
X162770629Y-106838138D01*
X162644743Y-107022680D01*
X162550688Y-107225305D01*
X162490989Y-107440570D01*
X162467251Y-107662695D01*
X162480110Y-107885715D01*
X162481247Y-107890761D01*
X162481248Y-107890767D01*
X162492031Y-107938614D01*
X162529222Y-108103639D01*
X162613266Y-108310616D01*
X162729987Y-108501088D01*
X162876250Y-108669938D01*
X162973426Y-108750615D01*
X163043094Y-108808454D01*
X163048126Y-108812632D01*
X163118595Y-108853811D01*
X163121445Y-108855476D01*
X163170169Y-108907114D01*
X163183240Y-108976897D01*
X163156509Y-109042669D01*
X163116055Y-109076027D01*
X163103607Y-109082507D01*
X163099474Y-109085610D01*
X163099471Y-109085612D01*
X162975567Y-109178642D01*
X162924965Y-109216635D01*
X162770629Y-109378138D01*
X162767715Y-109382410D01*
X162767714Y-109382411D01*
X162688458Y-109498596D01*
X162644743Y-109562680D01*
X162550688Y-109765305D01*
X162490989Y-109980570D01*
X162467251Y-110202695D01*
X162467548Y-110207848D01*
X162467548Y-110207851D01*
X162470203Y-110253899D01*
X162480110Y-110425715D01*
X162481247Y-110430761D01*
X162481248Y-110430767D01*
X162484404Y-110444770D01*
X162529222Y-110643639D01*
X162567461Y-110737811D01*
X162603926Y-110827613D01*
X162613266Y-110850616D01*
X162664019Y-110933438D01*
X162727291Y-111036688D01*
X162729987Y-111041088D01*
X162876250Y-111209938D01*
X163048126Y-111352632D01*
X163241000Y-111465338D01*
X163449692Y-111545030D01*
X163454760Y-111546061D01*
X163454763Y-111546062D01*
X163549862Y-111565410D01*
X163668597Y-111589567D01*
X163673772Y-111589757D01*
X163673774Y-111589757D01*
X163886673Y-111597564D01*
X163886677Y-111597564D01*
X163891837Y-111597753D01*
X163896957Y-111597097D01*
X163896959Y-111597097D01*
X164108288Y-111570025D01*
X164108289Y-111570025D01*
X164113416Y-111569368D01*
X164118366Y-111567883D01*
X164322429Y-111506661D01*
X164322434Y-111506659D01*
X164327384Y-111505174D01*
X164527994Y-111406896D01*
X164709860Y-111277173D01*
X164714531Y-111272519D01*
X164864435Y-111123137D01*
X164868096Y-111119489D01*
X164927594Y-111036689D01*
X164998453Y-110938077D01*
X164999640Y-110938930D01*
X165046960Y-110895362D01*
X165116897Y-110883145D01*
X165182338Y-110910678D01*
X165210166Y-110942511D01*
X165267694Y-111036388D01*
X165273777Y-111044699D01*
X165413213Y-111205667D01*
X165420580Y-111212883D01*
X165584434Y-111348916D01*
X165592881Y-111354831D01*
X165776756Y-111462279D01*
X165786042Y-111466729D01*
X165985001Y-111542703D01*
X165994899Y-111545579D01*
X166098250Y-111566606D01*
X166112299Y-111565410D01*
X166116000Y-111555065D01*
X166116000Y-110108000D01*
X166136002Y-110039879D01*
X166189658Y-109993386D01*
X166242000Y-109982000D01*
X166498000Y-109982000D01*
X166566121Y-110002002D01*
X166612614Y-110055658D01*
X166624000Y-110108000D01*
X166624000Y-111554517D01*
X166628064Y-111568359D01*
X166641478Y-111570393D01*
X166648184Y-111569534D01*
X166658262Y-111567392D01*
X166862255Y-111506191D01*
X166871842Y-111502433D01*
X167063095Y-111408739D01*
X167071945Y-111403464D01*
X167245328Y-111279792D01*
X167253200Y-111273139D01*
X167404052Y-111122812D01*
X167410730Y-111114965D01*
X167538022Y-110937819D01*
X167539279Y-110938722D01*
X167586373Y-110895362D01*
X167656311Y-110883145D01*
X167721751Y-110910678D01*
X167749579Y-110942511D01*
X167809987Y-111041088D01*
X167956250Y-111209938D01*
X168128126Y-111352632D01*
X168321000Y-111465338D01*
X168529692Y-111545030D01*
X168534760Y-111546061D01*
X168534763Y-111546062D01*
X168629862Y-111565410D01*
X168748597Y-111589567D01*
X168753772Y-111589757D01*
X168753774Y-111589757D01*
X168966673Y-111597564D01*
X168966677Y-111597564D01*
X168971837Y-111597753D01*
X168976957Y-111597097D01*
X168976959Y-111597097D01*
X169188288Y-111570025D01*
X169188289Y-111570025D01*
X169193416Y-111569368D01*
X169198366Y-111567883D01*
X169402429Y-111506661D01*
X169402434Y-111506659D01*
X169407384Y-111505174D01*
X169607994Y-111406896D01*
X169789860Y-111277173D01*
X169794531Y-111272519D01*
X169944435Y-111123137D01*
X169948096Y-111119489D01*
X170007594Y-111036689D01*
X170078453Y-110938077D01*
X170079776Y-110939028D01*
X170126645Y-110895857D01*
X170196580Y-110883625D01*
X170262026Y-110911144D01*
X170289875Y-110942994D01*
X170349987Y-111041088D01*
X170496250Y-111209938D01*
X170668126Y-111352632D01*
X170861000Y-111465338D01*
X171069692Y-111545030D01*
X171074760Y-111546061D01*
X171074763Y-111546062D01*
X171169862Y-111565410D01*
X171288597Y-111589567D01*
X171293772Y-111589757D01*
X171293774Y-111589757D01*
X171506673Y-111597564D01*
X171506677Y-111597564D01*
X171511837Y-111597753D01*
X171516957Y-111597097D01*
X171516959Y-111597097D01*
X171728288Y-111570025D01*
X171728289Y-111570025D01*
X171733416Y-111569368D01*
X171738366Y-111567883D01*
X171942429Y-111506661D01*
X171942434Y-111506659D01*
X171947384Y-111505174D01*
X172147994Y-111406896D01*
X172329860Y-111277173D01*
X172334531Y-111272519D01*
X172484435Y-111123137D01*
X172488096Y-111119489D01*
X172547594Y-111036689D01*
X172618453Y-110938077D01*
X172619776Y-110939028D01*
X172666645Y-110895857D01*
X172736580Y-110883625D01*
X172802026Y-110911144D01*
X172829875Y-110942994D01*
X172889987Y-111041088D01*
X173036250Y-111209938D01*
X173208126Y-111352632D01*
X173401000Y-111465338D01*
X173609692Y-111545030D01*
X173614760Y-111546061D01*
X173614763Y-111546062D01*
X173709862Y-111565410D01*
X173828597Y-111589567D01*
X173833772Y-111589757D01*
X173833774Y-111589757D01*
X174046673Y-111597564D01*
X174046677Y-111597564D01*
X174051837Y-111597753D01*
X174056957Y-111597097D01*
X174056959Y-111597097D01*
X174268288Y-111570025D01*
X174268289Y-111570025D01*
X174273416Y-111569368D01*
X174278366Y-111567883D01*
X174482429Y-111506661D01*
X174482434Y-111506659D01*
X174487384Y-111505174D01*
X174687994Y-111406896D01*
X174869860Y-111277173D01*
X174874531Y-111272519D01*
X175024435Y-111123137D01*
X175028096Y-111119489D01*
X175087594Y-111036689D01*
X175158453Y-110938077D01*
X175159776Y-110939028D01*
X175206645Y-110895857D01*
X175276580Y-110883625D01*
X175342026Y-110911144D01*
X175369875Y-110942994D01*
X175429987Y-111041088D01*
X175576250Y-111209938D01*
X175748126Y-111352632D01*
X175941000Y-111465338D01*
X176149692Y-111545030D01*
X176154760Y-111546061D01*
X176154763Y-111546062D01*
X176249862Y-111565410D01*
X176368597Y-111589567D01*
X176373772Y-111589757D01*
X176373774Y-111589757D01*
X176586673Y-111597564D01*
X176586677Y-111597564D01*
X176591837Y-111597753D01*
X176596957Y-111597097D01*
X176596959Y-111597097D01*
X176808288Y-111570025D01*
X176808289Y-111570025D01*
X176813416Y-111569368D01*
X176818366Y-111567883D01*
X177022429Y-111506661D01*
X177022434Y-111506659D01*
X177027384Y-111505174D01*
X177227994Y-111406896D01*
X177409860Y-111277173D01*
X177414531Y-111272519D01*
X177564435Y-111123137D01*
X177568096Y-111119489D01*
X177627594Y-111036689D01*
X177695435Y-110942277D01*
X177698453Y-110938077D01*
X177711995Y-110910678D01*
X177752543Y-110828634D01*
X177800657Y-110776427D01*
X177869358Y-110758520D01*
X177936834Y-110780598D01*
X177981662Y-110835652D01*
X177991500Y-110884461D01*
X177991500Y-111865500D01*
X177971498Y-111933621D01*
X177917842Y-111980114D01*
X177865500Y-111991500D01*
X161779571Y-111991500D01*
X161711450Y-111971498D01*
X161664957Y-111917842D01*
X161654853Y-111847568D01*
X161676358Y-111793229D01*
X161733931Y-111711006D01*
X161739414Y-111701511D01*
X161831490Y-111504053D01*
X161835236Y-111493761D01*
X161891625Y-111283312D01*
X161893528Y-111272519D01*
X161907762Y-111109830D01*
X161908000Y-111104365D01*
X161908000Y-110122115D01*
X161903525Y-110106876D01*
X161902135Y-110105671D01*
X161894452Y-110104000D01*
X159310115Y-110104000D01*
X159294876Y-110108475D01*
X159293671Y-110109865D01*
X159292000Y-110117548D01*
X159292000Y-111104365D01*
X159292238Y-111109830D01*
X159306472Y-111272519D01*
X159308375Y-111283312D01*
X159364764Y-111493761D01*
X159368510Y-111504053D01*
X159460586Y-111701511D01*
X159466069Y-111711006D01*
X159523642Y-111793229D01*
X159546330Y-111860503D01*
X159529045Y-111929363D01*
X159477276Y-111977948D01*
X159420429Y-111991500D01*
X150079571Y-111991500D01*
X150011450Y-111971498D01*
X149964957Y-111917842D01*
X149954853Y-111847568D01*
X149976358Y-111793229D01*
X150033931Y-111711006D01*
X150039414Y-111701511D01*
X150131490Y-111504053D01*
X150135236Y-111493761D01*
X150191625Y-111283312D01*
X150193528Y-111272519D01*
X150207762Y-111109830D01*
X150208000Y-111104365D01*
X150208000Y-110122115D01*
X150203525Y-110106876D01*
X150202135Y-110105671D01*
X150194452Y-110104000D01*
X148772000Y-110104000D01*
X148703879Y-110083998D01*
X148657386Y-110030342D01*
X148646000Y-109978000D01*
X148646000Y-107382033D01*
X148642027Y-107368502D01*
X148633478Y-107367273D01*
X148456239Y-107414764D01*
X148445947Y-107418510D01*
X148248489Y-107510586D01*
X148238996Y-107516068D01*
X148206770Y-107538632D01*
X148139496Y-107561319D01*
X148070636Y-107544034D01*
X148022052Y-107492264D01*
X148008500Y-107435418D01*
X148008500Y-85592461D01*
X148028502Y-85524340D01*
X148082158Y-85477847D01*
X148152432Y-85467743D01*
X148198070Y-85483673D01*
X148236756Y-85506279D01*
X148246042Y-85510729D01*
X148445001Y-85586703D01*
X148454899Y-85589579D01*
X148558250Y-85610606D01*
X148572299Y-85609410D01*
X148576000Y-85599065D01*
X148576000Y-84152000D01*
X148596002Y-84083879D01*
X148649658Y-84037386D01*
X148702000Y-84026000D01*
X148958000Y-84026000D01*
X149026121Y-84046002D01*
G37*
G04 #@! TD.AperFunction*
G04 #@! TA.AperFunction,Conductor*
G36*
X169171526Y-103777502D02*
G01*
X169192501Y-103794405D01*
X169509596Y-104111501D01*
X169543621Y-104173813D01*
X169546500Y-104200596D01*
X169546500Y-106302402D01*
X169526498Y-106370523D01*
X169472842Y-106417016D01*
X169402568Y-106427120D01*
X169378440Y-106421175D01*
X169262959Y-106380280D01*
X169252988Y-106377646D01*
X169181837Y-106364972D01*
X169168540Y-106366432D01*
X169164000Y-106380989D01*
X169164000Y-107824000D01*
X169143998Y-107892121D01*
X169090342Y-107938614D01*
X169038000Y-107950000D01*
X168782000Y-107950000D01*
X168713879Y-107929998D01*
X168667386Y-107876342D01*
X168656000Y-107824000D01*
X168656000Y-106379102D01*
X168652082Y-106365758D01*
X168637806Y-106363771D01*
X168599324Y-106369660D01*
X168589288Y-106372051D01*
X168534134Y-106390078D01*
X168463170Y-106392229D01*
X168402308Y-106355673D01*
X168370872Y-106292015D01*
X168368989Y-106270313D01*
X168368989Y-105076256D01*
X168369516Y-105065073D01*
X168371191Y-105057580D01*
X168369051Y-104989489D01*
X168368989Y-104985532D01*
X168368989Y-104957633D01*
X168368485Y-104953642D01*
X168367552Y-104941800D01*
X168366412Y-104905525D01*
X168366163Y-104897600D01*
X168363951Y-104889986D01*
X168363950Y-104889981D01*
X168360512Y-104878148D01*
X168356501Y-104858784D01*
X168354956Y-104846553D01*
X168353963Y-104838692D01*
X168351046Y-104831325D01*
X168351045Y-104831320D01*
X168337687Y-104797581D01*
X168333843Y-104786354D01*
X168323719Y-104751511D01*
X168321507Y-104743896D01*
X168311196Y-104726461D01*
X168302501Y-104708713D01*
X168295041Y-104689872D01*
X168269053Y-104654102D01*
X168262537Y-104644182D01*
X168244069Y-104612954D01*
X168244067Y-104612951D01*
X168240031Y-104606127D01*
X168225710Y-104591806D01*
X168212869Y-104576772D01*
X168205620Y-104566795D01*
X168200961Y-104560382D01*
X168194857Y-104555332D01*
X168194852Y-104555327D01*
X168166891Y-104532196D01*
X168158110Y-104524206D01*
X167606500Y-103972595D01*
X167572475Y-103910283D01*
X167577540Y-103839467D01*
X167620087Y-103782632D01*
X167686607Y-103757821D01*
X167695596Y-103757500D01*
X169103405Y-103757500D01*
X169171526Y-103777502D01*
G37*
G04 #@! TD.AperFunction*
M02*
