%FSLAX45Y45*%
G04 Gerber Fmt 4.5, Leading zero omitted, Abs format (unit mm)*
G04 Created by KiCad (PCBNEW (6.0.4)) date 2022-03-24 17:43:12*
%MOMM*%
%LPD*%
G01*
G04 APERTURE LIST*
%TA.AperFunction,Profile*%
%ADD10C,0.100000*%
%TD*%
%ADD11C,0.200000*%
%ADD12C,0.110000*%
G04 APERTURE END LIST*
D10*
X14750000Y-10750000D02*
X14750000Y-11250000D01*
X14750000Y-10350000D02*
X14750000Y-9110000D01*
X16280000Y-8250000D02*
X14750000Y-8250000D01*
X15950000Y-9750000D02*
X17850000Y-9750000D01*
X15950000Y-8840000D02*
X16280000Y-8840000D01*
X16280000Y-8840000D02*
X16280000Y-8250000D01*
X15950000Y-8840000D02*
G75*
G03*
X15750000Y-9040000I0J-200000D01*
G01*
X14750000Y-11250000D02*
X17850000Y-11250000D01*
X17850000Y-11250000D02*
X17850000Y-9750000D01*
X15750000Y-9040000D02*
X15750000Y-9550000D01*
X15750000Y-9550000D02*
G75*
G03*
X15950000Y-9750000I200000J0D01*
G01*
X14750000Y-8710000D02*
X14750000Y-8250000D01*
X14750000Y-8710000D02*
X14750000Y-9110000D01*
X14750000Y-10350000D02*
X14750000Y-10750000D01*
D11*
D12*
X15195000Y-10930000D02*
X15305000Y-11040000D01*
X15305000Y-10930000D02*
X15195000Y-11040000D01*
X15645000Y-10930000D02*
X15755000Y-11040000D01*
X15755000Y-10930000D02*
X15645000Y-11040000D01*
D11*
X15002619Y-11565476D02*
X15002619Y-11365476D01*
X15050238Y-11365476D01*
X15078809Y-11375000D01*
X15097857Y-11394048D01*
X15107381Y-11413095D01*
X15116905Y-11451190D01*
X15116905Y-11479762D01*
X15107381Y-11517857D01*
X15097857Y-11536905D01*
X15078809Y-11555952D01*
X15050238Y-11565476D01*
X15002619Y-11565476D01*
X15202619Y-11565476D02*
X15202619Y-11432143D01*
X15202619Y-11470238D02*
X15212143Y-11451190D01*
X15221667Y-11441667D01*
X15240714Y-11432143D01*
X15259762Y-11432143D01*
X15326428Y-11565476D02*
X15326428Y-11432143D01*
X15326428Y-11365476D02*
X15316905Y-11375000D01*
X15326428Y-11384524D01*
X15335952Y-11375000D01*
X15326428Y-11365476D01*
X15326428Y-11384524D01*
X15450238Y-11565476D02*
X15431190Y-11555952D01*
X15421667Y-11536905D01*
X15421667Y-11365476D01*
X15555000Y-11565476D02*
X15535952Y-11555952D01*
X15526428Y-11536905D01*
X15526428Y-11365476D01*
X15783571Y-11565476D02*
X15783571Y-11365476D01*
X15850238Y-11508333D01*
X15916905Y-11365476D01*
X15916905Y-11565476D01*
X16097857Y-11565476D02*
X16097857Y-11460714D01*
X16088333Y-11441667D01*
X16069286Y-11432143D01*
X16031190Y-11432143D01*
X16012143Y-11441667D01*
X16097857Y-11555952D02*
X16078809Y-11565476D01*
X16031190Y-11565476D01*
X16012143Y-11555952D01*
X16002619Y-11536905D01*
X16002619Y-11517857D01*
X16012143Y-11498809D01*
X16031190Y-11489286D01*
X16078809Y-11489286D01*
X16097857Y-11479762D01*
X16193095Y-11432143D02*
X16193095Y-11632143D01*
X16193095Y-11441667D02*
X16212143Y-11432143D01*
X16250238Y-11432143D01*
X16269286Y-11441667D01*
X16278809Y-11451190D01*
X16288333Y-11470238D01*
X16288333Y-11527381D01*
X16278809Y-11546428D01*
X16269286Y-11555952D01*
X16250238Y-11565476D01*
X16212143Y-11565476D01*
X16193095Y-11555952D01*
X16374048Y-11546428D02*
X16383571Y-11555952D01*
X16374048Y-11565476D01*
X16364524Y-11555952D01*
X16374048Y-11546428D01*
X16374048Y-11565476D01*
X16374048Y-11441667D02*
X16383571Y-11451190D01*
X16374048Y-11460714D01*
X16364524Y-11451190D01*
X16374048Y-11441667D01*
X16374048Y-11460714D01*
D12*
X14635000Y-11840000D02*
X14745000Y-11950000D01*
X14745000Y-11840000D02*
X14635000Y-11950000D01*
D11*
X15107381Y-11985476D02*
X14993095Y-11985476D01*
X15050238Y-11985476D02*
X15050238Y-11785476D01*
X15031190Y-11814048D01*
X15012143Y-11833095D01*
X14993095Y-11842619D01*
X15193095Y-11966428D02*
X15202619Y-11975952D01*
X15193095Y-11985476D01*
X15183571Y-11975952D01*
X15193095Y-11966428D01*
X15193095Y-11985476D01*
X15393095Y-11985476D02*
X15278809Y-11985476D01*
X15335952Y-11985476D02*
X15335952Y-11785476D01*
X15316905Y-11814048D01*
X15297857Y-11833095D01*
X15278809Y-11842619D01*
X15516905Y-11785476D02*
X15535952Y-11785476D01*
X15555000Y-11795000D01*
X15564524Y-11804524D01*
X15574048Y-11823571D01*
X15583571Y-11861667D01*
X15583571Y-11909286D01*
X15574048Y-11947381D01*
X15564524Y-11966428D01*
X15555000Y-11975952D01*
X15535952Y-11985476D01*
X15516905Y-11985476D01*
X15497857Y-11975952D01*
X15488333Y-11966428D01*
X15478809Y-11947381D01*
X15469286Y-11909286D01*
X15469286Y-11861667D01*
X15478809Y-11823571D01*
X15488333Y-11804524D01*
X15497857Y-11795000D01*
X15516905Y-11785476D01*
X15707381Y-11785476D02*
X15726428Y-11785476D01*
X15745476Y-11795000D01*
X15755000Y-11804524D01*
X15764524Y-11823571D01*
X15774048Y-11861667D01*
X15774048Y-11909286D01*
X15764524Y-11947381D01*
X15755000Y-11966428D01*
X15745476Y-11975952D01*
X15726428Y-11985476D01*
X15707381Y-11985476D01*
X15688333Y-11975952D01*
X15678809Y-11966428D01*
X15669286Y-11947381D01*
X15659762Y-11909286D01*
X15659762Y-11861667D01*
X15669286Y-11823571D01*
X15678809Y-11804524D01*
X15688333Y-11795000D01*
X15707381Y-11785476D01*
X15859762Y-11985476D02*
X15859762Y-11852143D01*
X15859762Y-11871190D02*
X15869286Y-11861667D01*
X15888333Y-11852143D01*
X15916905Y-11852143D01*
X15935952Y-11861667D01*
X15945476Y-11880714D01*
X15945476Y-11985476D01*
X15945476Y-11880714D02*
X15955000Y-11861667D01*
X15974048Y-11852143D01*
X16002619Y-11852143D01*
X16021667Y-11861667D01*
X16031190Y-11880714D01*
X16031190Y-11985476D01*
X16126428Y-11985476D02*
X16126428Y-11852143D01*
X16126428Y-11871190D02*
X16135952Y-11861667D01*
X16155000Y-11852143D01*
X16183571Y-11852143D01*
X16202619Y-11861667D01*
X16212143Y-11880714D01*
X16212143Y-11985476D01*
X16212143Y-11880714D02*
X16221667Y-11861667D01*
X16240714Y-11852143D01*
X16269286Y-11852143D01*
X16288333Y-11861667D01*
X16297857Y-11880714D01*
X16297857Y-11985476D01*
X16688333Y-11775952D02*
X16516905Y-12033095D01*
X16945476Y-11785476D02*
X16964524Y-11785476D01*
X16983571Y-11795000D01*
X16993095Y-11804524D01*
X17002619Y-11823571D01*
X17012143Y-11861667D01*
X17012143Y-11909286D01*
X17002619Y-11947381D01*
X16993095Y-11966428D01*
X16983571Y-11975952D01*
X16964524Y-11985476D01*
X16945476Y-11985476D01*
X16926429Y-11975952D01*
X16916905Y-11966428D01*
X16907381Y-11947381D01*
X16897857Y-11909286D01*
X16897857Y-11861667D01*
X16907381Y-11823571D01*
X16916905Y-11804524D01*
X16926429Y-11795000D01*
X16945476Y-11785476D01*
X17097857Y-11966428D02*
X17107381Y-11975952D01*
X17097857Y-11985476D01*
X17088333Y-11975952D01*
X17097857Y-11966428D01*
X17097857Y-11985476D01*
X17231190Y-11785476D02*
X17250238Y-11785476D01*
X17269286Y-11795000D01*
X17278810Y-11804524D01*
X17288333Y-11823571D01*
X17297857Y-11861667D01*
X17297857Y-11909286D01*
X17288333Y-11947381D01*
X17278810Y-11966428D01*
X17269286Y-11975952D01*
X17250238Y-11985476D01*
X17231190Y-11985476D01*
X17212143Y-11975952D01*
X17202619Y-11966428D01*
X17193095Y-11947381D01*
X17183571Y-11909286D01*
X17183571Y-11861667D01*
X17193095Y-11823571D01*
X17202619Y-11804524D01*
X17212143Y-11795000D01*
X17231190Y-11785476D01*
X17469286Y-11852143D02*
X17469286Y-11985476D01*
X17421667Y-11775952D02*
X17374048Y-11918809D01*
X17497857Y-11918809D01*
X17555000Y-11785476D02*
X17678810Y-11785476D01*
X17612143Y-11861667D01*
X17640714Y-11861667D01*
X17659762Y-11871190D01*
X17669286Y-11880714D01*
X17678810Y-11899762D01*
X17678810Y-11947381D01*
X17669286Y-11966428D01*
X17659762Y-11975952D01*
X17640714Y-11985476D01*
X17583571Y-11985476D01*
X17564524Y-11975952D01*
X17555000Y-11966428D01*
X17745476Y-11785476D02*
X17869286Y-11785476D01*
X17802619Y-11861667D01*
X17831190Y-11861667D01*
X17850238Y-11871190D01*
X17859762Y-11880714D01*
X17869286Y-11899762D01*
X17869286Y-11947381D01*
X17859762Y-11966428D01*
X17850238Y-11975952D01*
X17831190Y-11985476D01*
X17774048Y-11985476D01*
X17755000Y-11975952D01*
X17745476Y-11966428D01*
X17945476Y-11785476D02*
X17945476Y-11823571D01*
X18021667Y-11785476D02*
X18021667Y-11823571D01*
X18316905Y-12061667D02*
X18307381Y-12052143D01*
X18288333Y-12023571D01*
X18278810Y-12004524D01*
X18269286Y-11975952D01*
X18259762Y-11928333D01*
X18259762Y-11890238D01*
X18269286Y-11842619D01*
X18278810Y-11814048D01*
X18288333Y-11795000D01*
X18307381Y-11766428D01*
X18316905Y-11756905D01*
X18383571Y-11804524D02*
X18393095Y-11795000D01*
X18412143Y-11785476D01*
X18459762Y-11785476D01*
X18478810Y-11795000D01*
X18488333Y-11804524D01*
X18497857Y-11823571D01*
X18497857Y-11842619D01*
X18488333Y-11871190D01*
X18374048Y-11985476D01*
X18497857Y-11985476D01*
X18735952Y-11985476D02*
X18735952Y-11785476D01*
X18821667Y-11985476D02*
X18821667Y-11880714D01*
X18812143Y-11861667D01*
X18793095Y-11852143D01*
X18764524Y-11852143D01*
X18745476Y-11861667D01*
X18735952Y-11871190D01*
X18945476Y-11985476D02*
X18926429Y-11975952D01*
X18916905Y-11966428D01*
X18907381Y-11947381D01*
X18907381Y-11890238D01*
X18916905Y-11871190D01*
X18926429Y-11861667D01*
X18945476Y-11852143D01*
X18974048Y-11852143D01*
X18993095Y-11861667D01*
X19002619Y-11871190D01*
X19012143Y-11890238D01*
X19012143Y-11947381D01*
X19002619Y-11966428D01*
X18993095Y-11975952D01*
X18974048Y-11985476D01*
X18945476Y-11985476D01*
X19126429Y-11985476D02*
X19107381Y-11975952D01*
X19097857Y-11956905D01*
X19097857Y-11785476D01*
X19278810Y-11975952D02*
X19259762Y-11985476D01*
X19221667Y-11985476D01*
X19202619Y-11975952D01*
X19193095Y-11956905D01*
X19193095Y-11880714D01*
X19202619Y-11861667D01*
X19221667Y-11852143D01*
X19259762Y-11852143D01*
X19278810Y-11861667D01*
X19288333Y-11880714D01*
X19288333Y-11899762D01*
X19193095Y-11918809D01*
X19364524Y-11975952D02*
X19383571Y-11985476D01*
X19421667Y-11985476D01*
X19440714Y-11975952D01*
X19450238Y-11956905D01*
X19450238Y-11947381D01*
X19440714Y-11928333D01*
X19421667Y-11918809D01*
X19393095Y-11918809D01*
X19374048Y-11909286D01*
X19364524Y-11890238D01*
X19364524Y-11880714D01*
X19374048Y-11861667D01*
X19393095Y-11852143D01*
X19421667Y-11852143D01*
X19440714Y-11861667D01*
X19516905Y-12061667D02*
X19526429Y-12052143D01*
X19545476Y-12023571D01*
X19555000Y-12004524D01*
X19564524Y-11975952D01*
X19574048Y-11928333D01*
X19574048Y-11890238D01*
X19564524Y-11842619D01*
X19555000Y-11814048D01*
X19545476Y-11795000D01*
X19526429Y-11766428D01*
X19516905Y-11756905D01*
X19878810Y-12061667D02*
X19869286Y-12052143D01*
X19850238Y-12023571D01*
X19840714Y-12004524D01*
X19831190Y-11975952D01*
X19821667Y-11928333D01*
X19821667Y-11890238D01*
X19831190Y-11842619D01*
X19840714Y-11814048D01*
X19850238Y-11795000D01*
X19869286Y-11766428D01*
X19878810Y-11756905D01*
X19955000Y-11852143D02*
X19955000Y-11985476D01*
X19955000Y-11871190D02*
X19964524Y-11861667D01*
X19983571Y-11852143D01*
X20012143Y-11852143D01*
X20031190Y-11861667D01*
X20040714Y-11880714D01*
X20040714Y-11985476D01*
X20164524Y-11985476D02*
X20145476Y-11975952D01*
X20135952Y-11966428D01*
X20126429Y-11947381D01*
X20126429Y-11890238D01*
X20135952Y-11871190D01*
X20145476Y-11861667D01*
X20164524Y-11852143D01*
X20193095Y-11852143D01*
X20212143Y-11861667D01*
X20221667Y-11871190D01*
X20231190Y-11890238D01*
X20231190Y-11947381D01*
X20221667Y-11966428D01*
X20212143Y-11975952D01*
X20193095Y-11985476D01*
X20164524Y-11985476D01*
X20288333Y-11852143D02*
X20364524Y-11852143D01*
X20316905Y-11785476D02*
X20316905Y-11956905D01*
X20326429Y-11975952D01*
X20345476Y-11985476D01*
X20364524Y-11985476D01*
X20583571Y-11852143D02*
X20583571Y-12052143D01*
X20583571Y-11861667D02*
X20602619Y-11852143D01*
X20640714Y-11852143D01*
X20659762Y-11861667D01*
X20669286Y-11871190D01*
X20678810Y-11890238D01*
X20678810Y-11947381D01*
X20669286Y-11966428D01*
X20659762Y-11975952D01*
X20640714Y-11985476D01*
X20602619Y-11985476D01*
X20583571Y-11975952D01*
X20793095Y-11985476D02*
X20774048Y-11975952D01*
X20764524Y-11956905D01*
X20764524Y-11785476D01*
X20955000Y-11985476D02*
X20955000Y-11880714D01*
X20945476Y-11861667D01*
X20926429Y-11852143D01*
X20888333Y-11852143D01*
X20869286Y-11861667D01*
X20955000Y-11975952D02*
X20935952Y-11985476D01*
X20888333Y-11985476D01*
X20869286Y-11975952D01*
X20859762Y-11956905D01*
X20859762Y-11937857D01*
X20869286Y-11918809D01*
X20888333Y-11909286D01*
X20935952Y-11909286D01*
X20955000Y-11899762D01*
X21021667Y-11852143D02*
X21097857Y-11852143D01*
X21050238Y-11785476D02*
X21050238Y-11956905D01*
X21059762Y-11975952D01*
X21078810Y-11985476D01*
X21097857Y-11985476D01*
X21240714Y-11975952D02*
X21221667Y-11985476D01*
X21183571Y-11985476D01*
X21164524Y-11975952D01*
X21155000Y-11956905D01*
X21155000Y-11880714D01*
X21164524Y-11861667D01*
X21183571Y-11852143D01*
X21221667Y-11852143D01*
X21240714Y-11861667D01*
X21250238Y-11880714D01*
X21250238Y-11899762D01*
X21155000Y-11918809D01*
X21421667Y-11985476D02*
X21421667Y-11785476D01*
X21421667Y-11975952D02*
X21402619Y-11985476D01*
X21364524Y-11985476D01*
X21345476Y-11975952D01*
X21335952Y-11966428D01*
X21326429Y-11947381D01*
X21326429Y-11890238D01*
X21335952Y-11871190D01*
X21345476Y-11861667D01*
X21364524Y-11852143D01*
X21402619Y-11852143D01*
X21421667Y-11861667D01*
X21497857Y-12061667D02*
X21507381Y-12052143D01*
X21526429Y-12023571D01*
X21535952Y-12004524D01*
X21545476Y-11975952D01*
X21555000Y-11928333D01*
X21555000Y-11890238D01*
X21545476Y-11842619D01*
X21535952Y-11814048D01*
X21526429Y-11795000D01*
X21507381Y-11766428D01*
X21497857Y-11756905D01*
M02*
