G04 #@! TF.GenerationSoftware,KiCad,Pcbnew,(6.0.4)*
G04 #@! TF.CreationDate,2022-03-24T17:43:08+01:00*
G04 #@! TF.ProjectId,MT32pi-MiSTer,4d543332-7069-42d4-9d69-535465722e6b,rev?*
G04 #@! TF.SameCoordinates,Original*
G04 #@! TF.FileFunction,Legend,Top*
G04 #@! TF.FilePolarity,Positive*
%FSLAX46Y46*%
G04 Gerber Fmt 4.6, Leading zero omitted, Abs format (unit mm)*
G04 Created by KiCad (PCBNEW (6.0.4)) date 2022-03-24 17:43:08*
%MOMM*%
%LPD*%
G01*
G04 APERTURE LIST*
%ADD10C,0.150000*%
%ADD11C,0.120000*%
G04 APERTURE END LIST*
D10*
X154416666Y-109452380D02*
X154416666Y-110166666D01*
X154369047Y-110309523D01*
X154273809Y-110404761D01*
X154130952Y-110452380D01*
X154035714Y-110452380D01*
X155369047Y-109452380D02*
X154892857Y-109452380D01*
X154845238Y-109928571D01*
X154892857Y-109880952D01*
X154988095Y-109833333D01*
X155226190Y-109833333D01*
X155321428Y-109880952D01*
X155369047Y-109928571D01*
X155416666Y-110023809D01*
X155416666Y-110261904D01*
X155369047Y-110357142D01*
X155321428Y-110404761D01*
X155226190Y-110452380D01*
X154988095Y-110452380D01*
X154892857Y-110404761D01*
X154845238Y-110357142D01*
X169916666Y-104702380D02*
X169916666Y-105416666D01*
X169869047Y-105559523D01*
X169773809Y-105654761D01*
X169630952Y-105702380D01*
X169535714Y-105702380D01*
X170821428Y-105035714D02*
X170821428Y-105702380D01*
X170583333Y-104654761D02*
X170345238Y-105369047D01*
X170964285Y-105369047D01*
X154916666Y-86202380D02*
X154916666Y-86916666D01*
X154869047Y-87059523D01*
X154773809Y-87154761D01*
X154630952Y-87202380D01*
X154535714Y-87202380D01*
X155916666Y-87202380D02*
X155345238Y-87202380D01*
X155630952Y-87202380D02*
X155630952Y-86202380D01*
X155535714Y-86345238D01*
X155440476Y-86440476D01*
X155345238Y-86488095D01*
D11*
X159360000Y-107750000D02*
X160040000Y-107750000D01*
X160810000Y-112490000D02*
X160810000Y-112090000D01*
X150140000Y-107750000D02*
X149460000Y-107750000D01*
X148690000Y-112490000D02*
X148690000Y-112090000D01*
X157450000Y-106240000D02*
X158050000Y-106240000D01*
X177860000Y-108966000D02*
X177860000Y-111566000D01*
X177860000Y-111566000D02*
X162500000Y-111566000D01*
X176530000Y-106366000D02*
X177860000Y-106366000D01*
X175260000Y-106366000D02*
X175260000Y-108966000D01*
X177860000Y-106366000D02*
X177860000Y-107696000D01*
X175260000Y-106366000D02*
X162500000Y-106366000D01*
X162500000Y-106366000D02*
X162500000Y-111566000D01*
X175260000Y-108966000D02*
X177860000Y-108966000D01*
X160260000Y-85610000D02*
X147500000Y-85610000D01*
X161530000Y-82950000D02*
X162860000Y-82950000D01*
X162860000Y-82950000D02*
X162860000Y-84280000D01*
X147500000Y-82950000D02*
X147500000Y-85610000D01*
X160260000Y-82950000D02*
X160260000Y-85610000D01*
X160260000Y-82950000D02*
X147500000Y-82950000D01*
M02*
