M48
; DRILL file {KiCad (6.0.4)} date Thu Mar 24 17:42:49 2022
; FORMAT={-:-/ absolute / metric / decimal}
; #@! TF.CreationDate,2022-03-24T17:42:49+01:00
; #@! TF.GenerationSoftware,Kicad,Pcbnew,(6.0.4)
; #@! TF.FileFunction,Plated,1,2,PTH
FMAT,2
METRIC
; #@! TA.AperFunction,Plated,PTH,ViaDrill
T1C0.400
; #@! TA.AperFunction,Plated,PTH,ComponentDrill
T2C1.000
%
G90
G05
T1
X81.0Y-60.0
X81.0Y-65.0
X81.0Y-70.0
X90.0Y-79.0
X93.9Y-66.7
X93.9Y-68.6
X95.0Y-79.0
X96.0Y-57.0
X96.0Y-64.1
X98.6Y-57.0
X100.0Y-79.0
X103.9Y-66.7
X103.9Y-68.6
X105.0Y-79.0
X106.0Y-61.7
X106.0Y-64.1
X106.2Y-57.0
X110.0Y-79.0
X111.2Y-57.0
X113.9Y-66.7
X113.9Y-68.6
X115.0Y-79.0
X116.0Y-61.7
X116.0Y-64.1
X116.2Y-57.0
X120.0Y-79.0
X120.1Y-67.55
X120.1Y-68.45
X121.2Y-57.0
X125.0Y-79.0
X126.2Y-57.0
X129.2Y-62.9
X130.0Y-79.0
X131.2Y-57.0
X135.0Y-79.0
X136.2Y-57.0
X136.9Y-59.1
X136.9Y-62.1
X136.9Y-65.1
X136.9Y-68.1
X144.0Y-60.0
X144.0Y-65.0
X144.0Y-70.0
T2
X88.4Y-52.25
X88.4Y-54.79
X90.94Y-52.25
X90.94Y-54.79
X93.48Y-52.25
X93.48Y-54.79
X96.02Y-52.25
X96.02Y-54.79
X98.56Y-52.25
X98.56Y-54.79
X101.1Y-52.25
X101.1Y-54.79
X103.64Y-52.25
X103.64Y-54.79
X106.18Y-52.25
X106.18Y-54.79
X108.72Y-52.25
X108.72Y-54.79
X111.26Y-52.25
X111.26Y-54.79
X113.8Y-52.25
X113.8Y-54.79
X116.34Y-52.25
X116.34Y-54.79
X118.88Y-52.25
X118.88Y-54.79
X121.42Y-52.25
X121.42Y-54.79
X121.58Y-65.45
X121.58Y-67.99
X123.96Y-52.25
X123.96Y-54.79
X124.12Y-65.45
X124.12Y-67.99
X126.5Y-52.25
X126.5Y-54.79
X126.66Y-65.45
X126.66Y-67.99
X129.04Y-52.25
X129.04Y-54.79
X129.2Y-65.45
X129.2Y-67.99
X131.58Y-52.25
X131.58Y-54.79
X131.74Y-65.45
X131.74Y-67.99
X134.12Y-52.25
X134.12Y-54.79
X134.28Y-65.45
X134.28Y-67.99
X136.66Y-52.25
X136.66Y-54.79
T0
M30
