G04 #@! TF.GenerationSoftware,KiCad,Pcbnew,(6.0.4)*
G04 #@! TF.CreationDate,2022-03-24T17:42:47+01:00*
G04 #@! TF.ProjectId,MT32pi-MiSTer,4d543332-7069-42d4-9d69-535465722e6b,rev?*
G04 #@! TF.SameCoordinates,Original*
G04 #@! TF.FileFunction,Legend,Bot*
G04 #@! TF.FilePolarity,Positive*
%FSLAX46Y46*%
G04 Gerber Fmt 4.6, Leading zero omitted, Abs format (unit mm)*
G04 Created by KiCad (PCBNEW (6.0.4)) date 2022-03-24 17:42:47*
%MOMM*%
%LPD*%
G01*
G04 APERTURE LIST*
%ADD10C,0.300000*%
%ADD11C,0.150000*%
%ADD12C,0.120000*%
G04 APERTURE END LIST*
D10*
X112228571Y-74478571D02*
X112228571Y-75550000D01*
X112300000Y-75764285D01*
X112442857Y-75907142D01*
X112657142Y-75978571D01*
X112800000Y-75978571D01*
X110800000Y-75978571D02*
X111514285Y-75978571D01*
X111514285Y-74478571D01*
X109442857Y-75835714D02*
X109514285Y-75907142D01*
X109728571Y-75978571D01*
X109871428Y-75978571D01*
X110085714Y-75907142D01*
X110228571Y-75764285D01*
X110300000Y-75621428D01*
X110371428Y-75335714D01*
X110371428Y-75121428D01*
X110300000Y-74835714D01*
X110228571Y-74692857D01*
X110085714Y-74550000D01*
X109871428Y-74478571D01*
X109728571Y-74478571D01*
X109514285Y-74550000D01*
X109442857Y-74621428D01*
X108371428Y-74478571D02*
X108371428Y-75550000D01*
X108442857Y-75764285D01*
X108585714Y-75907142D01*
X108800000Y-75978571D01*
X108942857Y-75978571D01*
X106942857Y-75978571D02*
X107657142Y-75978571D01*
X107657142Y-74478571D01*
X105585714Y-75835714D02*
X105657142Y-75907142D01*
X105871428Y-75978571D01*
X106014285Y-75978571D01*
X106228571Y-75907142D01*
X106371428Y-75764285D01*
X106442857Y-75621428D01*
X106514285Y-75335714D01*
X106514285Y-75121428D01*
X106442857Y-74835714D01*
X106371428Y-74692857D01*
X106228571Y-74550000D01*
X106014285Y-74478571D01*
X105871428Y-74478571D01*
X105657142Y-74550000D01*
X105585714Y-74621428D01*
X104514285Y-74478571D02*
X104514285Y-75550000D01*
X104585714Y-75764285D01*
X104728571Y-75907142D01*
X104942857Y-75978571D01*
X105085714Y-75978571D01*
X103085714Y-75978571D02*
X103800000Y-75978571D01*
X103800000Y-74478571D01*
X101728571Y-75835714D02*
X101800000Y-75907142D01*
X102014285Y-75978571D01*
X102157142Y-75978571D01*
X102371428Y-75907142D01*
X102514285Y-75764285D01*
X102585714Y-75621428D01*
X102657142Y-75335714D01*
X102657142Y-75121428D01*
X102585714Y-74835714D01*
X102514285Y-74692857D01*
X102371428Y-74550000D01*
X102157142Y-74478571D01*
X102014285Y-74478571D01*
X101800000Y-74550000D01*
X101728571Y-74621428D01*
X100657142Y-74478571D02*
X100657142Y-75550000D01*
X100728571Y-75764285D01*
X100871428Y-75907142D01*
X101085714Y-75978571D01*
X101228571Y-75978571D01*
X99228571Y-75978571D02*
X99942857Y-75978571D01*
X99942857Y-74478571D01*
X97871428Y-75835714D02*
X97942857Y-75907142D01*
X98157142Y-75978571D01*
X98300000Y-75978571D01*
X98514285Y-75907142D01*
X98657142Y-75764285D01*
X98728571Y-75621428D01*
X98800000Y-75335714D01*
X98800000Y-75121428D01*
X98728571Y-74835714D01*
X98657142Y-74692857D01*
X98514285Y-74550000D01*
X98300000Y-74478571D01*
X98157142Y-74478571D01*
X97942857Y-74550000D01*
X97871428Y-74621428D01*
D11*
X112833333Y-56952380D02*
X112833333Y-57666666D01*
X112880952Y-57809523D01*
X112976190Y-57904761D01*
X113119047Y-57952380D01*
X113214285Y-57952380D01*
X111928571Y-56952380D02*
X112119047Y-56952380D01*
X112214285Y-57000000D01*
X112261904Y-57047619D01*
X112357142Y-57190476D01*
X112404761Y-57380952D01*
X112404761Y-57761904D01*
X112357142Y-57857142D01*
X112309523Y-57904761D01*
X112214285Y-57952380D01*
X112023809Y-57952380D01*
X111928571Y-57904761D01*
X111880952Y-57857142D01*
X111833333Y-57761904D01*
X111833333Y-57523809D01*
X111880952Y-57428571D01*
X111928571Y-57380952D01*
X112023809Y-57333333D01*
X112214285Y-57333333D01*
X112309523Y-57380952D01*
X112357142Y-57428571D01*
X112404761Y-57523809D01*
D12*
X87070000Y-54790000D02*
X87070000Y-56120000D01*
X89670000Y-53520000D02*
X89670000Y-56120000D01*
X87070000Y-50920000D02*
X137990000Y-50920000D01*
X87070000Y-50920000D02*
X87070000Y-53520000D01*
X89670000Y-56120000D02*
X137990000Y-56120000D01*
X137990000Y-50920000D02*
X137990000Y-56120000D01*
X87070000Y-56120000D02*
X88400000Y-56120000D01*
X87070000Y-53520000D02*
X89670000Y-53520000D01*
M02*
