G04 #@! TF.GenerationSoftware,KiCad,Pcbnew,(6.0.4)*
G04 #@! TF.CreationDate,2022-03-24T17:42:47+01:00*
G04 #@! TF.ProjectId,MT32pi-MiSTer,4d543332-7069-42d4-9d69-535465722e6b,rev?*
G04 #@! TF.SameCoordinates,Original*
G04 #@! TF.FileFunction,Copper,L2,Bot*
G04 #@! TF.FilePolarity,Positive*
%FSLAX46Y46*%
G04 Gerber Fmt 4.6, Leading zero omitted, Abs format (unit mm)*
G04 Created by KiCad (PCBNEW (6.0.4)) date 2022-03-24 17:42:47*
%MOMM*%
%LPD*%
G01*
G04 APERTURE LIST*
G04 #@! TA.AperFunction,ComponentPad*
%ADD10R,1.700000X1.700000*%
G04 #@! TD*
G04 #@! TA.AperFunction,ComponentPad*
%ADD11O,1.700000X1.700000*%
G04 #@! TD*
G04 #@! TA.AperFunction,ViaPad*
%ADD12C,0.800000*%
G04 #@! TD*
G04 #@! TA.AperFunction,Conductor*
%ADD13C,0.250000*%
G04 #@! TD*
G04 APERTURE END LIST*
D10*
X88400000Y-54790000D03*
D11*
X88400000Y-52250000D03*
X90940000Y-54790000D03*
X90940000Y-52250000D03*
X93480000Y-54790000D03*
X93480000Y-52250000D03*
X96020000Y-54790000D03*
X96020000Y-52250000D03*
X98560000Y-54790000D03*
X98560000Y-52250000D03*
X101100000Y-54790000D03*
X101100000Y-52250000D03*
X103640000Y-54790000D03*
X103640000Y-52250000D03*
X106180000Y-54790000D03*
X106180000Y-52250000D03*
X108720000Y-54790000D03*
X108720000Y-52250000D03*
X111260000Y-54790000D03*
X111260000Y-52250000D03*
X113800000Y-54790000D03*
X113800000Y-52250000D03*
X116340000Y-54790000D03*
X116340000Y-52250000D03*
X118880000Y-54790000D03*
X118880000Y-52250000D03*
X121420000Y-54790000D03*
X121420000Y-52250000D03*
X123960000Y-54790000D03*
X123960000Y-52250000D03*
X126500000Y-54790000D03*
X126500000Y-52250000D03*
X129040000Y-54790000D03*
X129040000Y-52250000D03*
X131580000Y-54790000D03*
X131580000Y-52250000D03*
X134120000Y-54790000D03*
X134120000Y-52250000D03*
X136660000Y-54790000D03*
X136660000Y-52250000D03*
D10*
X121580000Y-65450000D03*
D11*
X121580000Y-67990000D03*
X124120000Y-65450000D03*
X124120000Y-67990000D03*
X126660000Y-65450000D03*
X126660000Y-67990000D03*
X129200000Y-65450000D03*
X129200000Y-67990000D03*
X131740000Y-65450000D03*
X131740000Y-67990000D03*
X134280000Y-65450000D03*
X134280000Y-67990000D03*
D12*
X120100000Y-68450000D03*
X120100000Y-67550000D03*
X116000000Y-61700000D03*
X81000000Y-70000000D03*
X81000000Y-65000000D03*
X130000000Y-79000000D03*
X129200000Y-62900000D03*
X93900000Y-66700000D03*
X100000000Y-79000000D03*
X136900000Y-65100000D03*
X106000000Y-61700000D03*
X144000000Y-60000000D03*
X116000000Y-64100000D03*
X113900000Y-68600000D03*
X136900000Y-62100000D03*
X126200000Y-57000000D03*
X90000000Y-79000000D03*
X136200000Y-57000000D03*
X113900000Y-66700000D03*
X116200000Y-57000000D03*
X125000000Y-79000000D03*
X120000000Y-79000000D03*
X111200000Y-57000000D03*
X121200000Y-57000000D03*
X103900000Y-66700000D03*
X81000000Y-60000000D03*
X106000000Y-64100000D03*
X95000000Y-79000000D03*
X115000000Y-79000000D03*
X136900000Y-68100000D03*
X93900000Y-68600000D03*
X144000000Y-65000000D03*
X105000000Y-79000000D03*
X131200000Y-57000000D03*
X110000000Y-79000000D03*
X98600000Y-57000000D03*
X144000000Y-70000000D03*
X96000000Y-57000000D03*
X135000000Y-79000000D03*
X103900000Y-68600000D03*
X136900000Y-59100000D03*
X96000000Y-64100000D03*
X106200000Y-57000000D03*
D13*
X136660000Y-52250000D02*
X138176000Y-53766000D01*
X132207000Y-66675000D02*
X132969000Y-65913000D01*
X132969000Y-56179000D02*
X131580000Y-54790000D01*
X133346000Y-69596000D02*
X131740000Y-67990000D01*
X137414000Y-69596000D02*
X133346000Y-69596000D01*
X138176000Y-68834000D02*
X137414000Y-69596000D01*
X132969000Y-65913000D02*
X132969000Y-56179000D01*
X138176000Y-53766000D02*
X138176000Y-68834000D01*
X124120000Y-67990000D02*
X125435000Y-66675000D01*
X125435000Y-66675000D02*
X132207000Y-66675000D01*
G04 #@! TA.AperFunction,Conductor*
G36*
X84928621Y-50528502D02*
G01*
X84975114Y-50582158D01*
X84986500Y-50634500D01*
X84986500Y-52055120D01*
X84966498Y-52123241D01*
X84912842Y-52169734D01*
X84842568Y-52179838D01*
X84774488Y-52147195D01*
X84673535Y-52052890D01*
X84670191Y-52049766D01*
X84448584Y-51896032D01*
X84444501Y-51894001D01*
X84444498Y-51893999D01*
X84277063Y-51810702D01*
X84207106Y-51775899D01*
X84202772Y-51774478D01*
X84202769Y-51774477D01*
X83955147Y-51693302D01*
X83955141Y-51693301D01*
X83950814Y-51691882D01*
X83946322Y-51691102D01*
X83688860Y-51646399D01*
X83688852Y-51646398D01*
X83685079Y-51645743D01*
X83673817Y-51645182D01*
X83601422Y-51641578D01*
X83601414Y-51641578D01*
X83599851Y-51641500D01*
X83431488Y-51641500D01*
X83429220Y-51641665D01*
X83429208Y-51641665D01*
X83298116Y-51651177D01*
X83230996Y-51656047D01*
X83226541Y-51657031D01*
X83226538Y-51657031D01*
X82972088Y-51713209D01*
X82972084Y-51713210D01*
X82967628Y-51714194D01*
X82843014Y-51761406D01*
X82719682Y-51808132D01*
X82719679Y-51808133D01*
X82715412Y-51809750D01*
X82479632Y-51940714D01*
X82265227Y-52104343D01*
X82262034Y-52107609D01*
X82262032Y-52107611D01*
X82246753Y-52123241D01*
X82076688Y-52297208D01*
X81917966Y-52515270D01*
X81915844Y-52519304D01*
X81794510Y-52749921D01*
X81794507Y-52749927D01*
X81792385Y-52753961D01*
X81790865Y-52758266D01*
X81790863Y-52758270D01*
X81722422Y-52952077D01*
X81702575Y-53008280D01*
X81650419Y-53272900D01*
X81650192Y-53277453D01*
X81650192Y-53277456D01*
X81637561Y-53531195D01*
X81637009Y-53542277D01*
X81662625Y-53810769D01*
X81663710Y-53815203D01*
X81663711Y-53815209D01*
X81715880Y-54028405D01*
X81726731Y-54072750D01*
X81827985Y-54322733D01*
X81830294Y-54326676D01*
X81959525Y-54547386D01*
X81964265Y-54555482D01*
X81967118Y-54559049D01*
X82084686Y-54706060D01*
X82132716Y-54766119D01*
X82329809Y-54950234D01*
X82551416Y-55103968D01*
X82555499Y-55105999D01*
X82555502Y-55106001D01*
X82671013Y-55163466D01*
X82792894Y-55224101D01*
X82797228Y-55225522D01*
X82797231Y-55225523D01*
X83044853Y-55306698D01*
X83044859Y-55306699D01*
X83049186Y-55308118D01*
X83053677Y-55308898D01*
X83053678Y-55308898D01*
X83311140Y-55353601D01*
X83311148Y-55353602D01*
X83314921Y-55354257D01*
X83318758Y-55354448D01*
X83398578Y-55358422D01*
X83398586Y-55358422D01*
X83400149Y-55358500D01*
X83568512Y-55358500D01*
X83570780Y-55358335D01*
X83570792Y-55358335D01*
X83701884Y-55348823D01*
X83769004Y-55343953D01*
X83773459Y-55342969D01*
X83773462Y-55342969D01*
X84027912Y-55286791D01*
X84027916Y-55286790D01*
X84032372Y-55285806D01*
X84158480Y-55238028D01*
X84280318Y-55191868D01*
X84280321Y-55191867D01*
X84284588Y-55190250D01*
X84520368Y-55059286D01*
X84734773Y-54895657D01*
X84770401Y-54859211D01*
X84832323Y-54824483D01*
X84903191Y-54828745D01*
X84960506Y-54870644D01*
X84986069Y-54936879D01*
X84986500Y-54947292D01*
X84986500Y-75055120D01*
X84966498Y-75123241D01*
X84912842Y-75169734D01*
X84842568Y-75179838D01*
X84774488Y-75147195D01*
X84673535Y-75052890D01*
X84670191Y-75049766D01*
X84448584Y-74896032D01*
X84444501Y-74894001D01*
X84444498Y-74893999D01*
X84279606Y-74811967D01*
X84207106Y-74775899D01*
X84202772Y-74774478D01*
X84202769Y-74774477D01*
X83955147Y-74693302D01*
X83955141Y-74693301D01*
X83950814Y-74691882D01*
X83946322Y-74691102D01*
X83688860Y-74646399D01*
X83688852Y-74646398D01*
X83685079Y-74645743D01*
X83673817Y-74645182D01*
X83601422Y-74641578D01*
X83601414Y-74641578D01*
X83599851Y-74641500D01*
X83431488Y-74641500D01*
X83429220Y-74641665D01*
X83429208Y-74641665D01*
X83298116Y-74651177D01*
X83230996Y-74656047D01*
X83226541Y-74657031D01*
X83226538Y-74657031D01*
X82972088Y-74713209D01*
X82972084Y-74713210D01*
X82967628Y-74714194D01*
X82841520Y-74761972D01*
X82719682Y-74808132D01*
X82719679Y-74808133D01*
X82715412Y-74809750D01*
X82479632Y-74940714D01*
X82265227Y-75104343D01*
X82076688Y-75297208D01*
X81917966Y-75515270D01*
X81915844Y-75519304D01*
X81794510Y-75749921D01*
X81794507Y-75749927D01*
X81792385Y-75753961D01*
X81790865Y-75758266D01*
X81790863Y-75758270D01*
X81704098Y-76003967D01*
X81702575Y-76008280D01*
X81650419Y-76272900D01*
X81650192Y-76277453D01*
X81650192Y-76277456D01*
X81640991Y-76462292D01*
X81637009Y-76542277D01*
X81662625Y-76810769D01*
X81663710Y-76815203D01*
X81663711Y-76815209D01*
X81710811Y-77007690D01*
X81726731Y-77072750D01*
X81827985Y-77322733D01*
X81964265Y-77555482D01*
X81996872Y-77596255D01*
X82084686Y-77706060D01*
X82132716Y-77766119D01*
X82329809Y-77950234D01*
X82551416Y-78103968D01*
X82555499Y-78105999D01*
X82555502Y-78106001D01*
X82659740Y-78157858D01*
X82792894Y-78224101D01*
X82797228Y-78225522D01*
X82797231Y-78225523D01*
X83044853Y-78306698D01*
X83044859Y-78306699D01*
X83049186Y-78308118D01*
X83053677Y-78308898D01*
X83053678Y-78308898D01*
X83311140Y-78353601D01*
X83311148Y-78353602D01*
X83314921Y-78354257D01*
X83318758Y-78354448D01*
X83398578Y-78358422D01*
X83398586Y-78358422D01*
X83400149Y-78358500D01*
X83568512Y-78358500D01*
X83570780Y-78358335D01*
X83570792Y-78358335D01*
X83701884Y-78348823D01*
X83769004Y-78343953D01*
X83773459Y-78342969D01*
X83773462Y-78342969D01*
X84027912Y-78286791D01*
X84027916Y-78286790D01*
X84032372Y-78285806D01*
X84158480Y-78238028D01*
X84280318Y-78191868D01*
X84280321Y-78191867D01*
X84284588Y-78190250D01*
X84446453Y-78100342D01*
X84516375Y-78061504D01*
X84516376Y-78061503D01*
X84520368Y-78059286D01*
X84734773Y-77895657D01*
X84810338Y-77818358D01*
X84872261Y-77783629D01*
X84943129Y-77787891D01*
X85000444Y-77829790D01*
X85019989Y-77866646D01*
X85044290Y-77939657D01*
X85123308Y-78062612D01*
X85169801Y-78116268D01*
X85173194Y-78119208D01*
X85273450Y-78206081D01*
X85273453Y-78206083D01*
X85280261Y-78211982D01*
X85288459Y-78215726D01*
X85320062Y-78230159D01*
X85413210Y-78272698D01*
X85436964Y-78279673D01*
X85477008Y-78291431D01*
X85477012Y-78291432D01*
X85481331Y-78292700D01*
X85485780Y-78293340D01*
X85485786Y-78293341D01*
X85621553Y-78312861D01*
X85621558Y-78312861D01*
X85626000Y-78313500D01*
X122624000Y-78313500D01*
X122627346Y-78313140D01*
X122627351Y-78313140D01*
X122729785Y-78302128D01*
X122729792Y-78302127D01*
X122733149Y-78301766D01*
X122736450Y-78301048D01*
X122782210Y-78291094D01*
X122782215Y-78291093D01*
X122785491Y-78290380D01*
X122889657Y-78255710D01*
X123012612Y-78176692D01*
X123066268Y-78130199D01*
X123121888Y-78066010D01*
X123156081Y-78026550D01*
X123156083Y-78026547D01*
X123161982Y-78019739D01*
X123222698Y-77886790D01*
X123242700Y-77818669D01*
X123247126Y-77787891D01*
X123262861Y-77678447D01*
X123262861Y-77678442D01*
X123263500Y-77674000D01*
X123263500Y-76542277D01*
X139637009Y-76542277D01*
X139662625Y-76810769D01*
X139663710Y-76815203D01*
X139663711Y-76815209D01*
X139710811Y-77007690D01*
X139726731Y-77072750D01*
X139827985Y-77322733D01*
X139964265Y-77555482D01*
X139996872Y-77596255D01*
X140084686Y-77706060D01*
X140132716Y-77766119D01*
X140329809Y-77950234D01*
X140551416Y-78103968D01*
X140555499Y-78105999D01*
X140555502Y-78106001D01*
X140659740Y-78157858D01*
X140792894Y-78224101D01*
X140797228Y-78225522D01*
X140797231Y-78225523D01*
X141044853Y-78306698D01*
X141044859Y-78306699D01*
X141049186Y-78308118D01*
X141053677Y-78308898D01*
X141053678Y-78308898D01*
X141311140Y-78353601D01*
X141311148Y-78353602D01*
X141314921Y-78354257D01*
X141318758Y-78354448D01*
X141398578Y-78358422D01*
X141398586Y-78358422D01*
X141400149Y-78358500D01*
X141568512Y-78358500D01*
X141570780Y-78358335D01*
X141570792Y-78358335D01*
X141701884Y-78348823D01*
X141769004Y-78343953D01*
X141773459Y-78342969D01*
X141773462Y-78342969D01*
X142027912Y-78286791D01*
X142027916Y-78286790D01*
X142032372Y-78285806D01*
X142158480Y-78238028D01*
X142280318Y-78191868D01*
X142280321Y-78191867D01*
X142284588Y-78190250D01*
X142446453Y-78100342D01*
X142516375Y-78061504D01*
X142516376Y-78061503D01*
X142520368Y-78059286D01*
X142734773Y-77895657D01*
X142739860Y-77890454D01*
X142920117Y-77706060D01*
X142923312Y-77702792D01*
X143082034Y-77484730D01*
X143134521Y-77384969D01*
X143205490Y-77250079D01*
X143205493Y-77250073D01*
X143207615Y-77246039D01*
X143270378Y-77068312D01*
X143295902Y-76996033D01*
X143295902Y-76996032D01*
X143297425Y-76991720D01*
X143349581Y-76727100D01*
X143358782Y-76542277D01*
X143362764Y-76462292D01*
X143362764Y-76462286D01*
X143362991Y-76457723D01*
X143337375Y-76189231D01*
X143292042Y-76003967D01*
X143274355Y-75931688D01*
X143273269Y-75927250D01*
X143172015Y-75677267D01*
X143035735Y-75444518D01*
X142917928Y-75297208D01*
X142870136Y-75237447D01*
X142870135Y-75237445D01*
X142867284Y-75233881D01*
X142670191Y-75049766D01*
X142448584Y-74896032D01*
X142444501Y-74894001D01*
X142444498Y-74893999D01*
X142279606Y-74811967D01*
X142207106Y-74775899D01*
X142202772Y-74774478D01*
X142202769Y-74774477D01*
X141955147Y-74693302D01*
X141955141Y-74693301D01*
X141950814Y-74691882D01*
X141946322Y-74691102D01*
X141688860Y-74646399D01*
X141688852Y-74646398D01*
X141685079Y-74645743D01*
X141673817Y-74645182D01*
X141601422Y-74641578D01*
X141601414Y-74641578D01*
X141599851Y-74641500D01*
X141431488Y-74641500D01*
X141429220Y-74641665D01*
X141429208Y-74641665D01*
X141298116Y-74651177D01*
X141230996Y-74656047D01*
X141226541Y-74657031D01*
X141226538Y-74657031D01*
X140972088Y-74713209D01*
X140972084Y-74713210D01*
X140967628Y-74714194D01*
X140841520Y-74761972D01*
X140719682Y-74808132D01*
X140719679Y-74808133D01*
X140715412Y-74809750D01*
X140479632Y-74940714D01*
X140265227Y-75104343D01*
X140076688Y-75297208D01*
X139917966Y-75515270D01*
X139915844Y-75519304D01*
X139794510Y-75749921D01*
X139794507Y-75749927D01*
X139792385Y-75753961D01*
X139790865Y-75758266D01*
X139790863Y-75758270D01*
X139704098Y-76003967D01*
X139702575Y-76008280D01*
X139650419Y-76272900D01*
X139650192Y-76277453D01*
X139650192Y-76277456D01*
X139640991Y-76462292D01*
X139637009Y-76542277D01*
X123263500Y-76542277D01*
X123263500Y-69282588D01*
X123283502Y-69214467D01*
X123337158Y-69167974D01*
X123407432Y-69157870D01*
X123453070Y-69173800D01*
X123526538Y-69216731D01*
X123526542Y-69216733D01*
X123531000Y-69219338D01*
X123739692Y-69299030D01*
X123744760Y-69300061D01*
X123744763Y-69300062D01*
X123839862Y-69319410D01*
X123958597Y-69343567D01*
X123963772Y-69343757D01*
X123963774Y-69343757D01*
X124176673Y-69351564D01*
X124176677Y-69351564D01*
X124181837Y-69351753D01*
X124186957Y-69351097D01*
X124186959Y-69351097D01*
X124398288Y-69324025D01*
X124398289Y-69324025D01*
X124403416Y-69323368D01*
X124408366Y-69321883D01*
X124612429Y-69260661D01*
X124612434Y-69260659D01*
X124617384Y-69259174D01*
X124817994Y-69160896D01*
X124999860Y-69031173D01*
X125062777Y-68968476D01*
X125142689Y-68888842D01*
X125158096Y-68873489D01*
X125288453Y-68692077D01*
X125289640Y-68692930D01*
X125336960Y-68649362D01*
X125406897Y-68637145D01*
X125472338Y-68664678D01*
X125500166Y-68696511D01*
X125557694Y-68790388D01*
X125563777Y-68798699D01*
X125703213Y-68959667D01*
X125710580Y-68966883D01*
X125874434Y-69102916D01*
X125882881Y-69108831D01*
X126066756Y-69216279D01*
X126076042Y-69220729D01*
X126275001Y-69296703D01*
X126284899Y-69299579D01*
X126388250Y-69320606D01*
X126402299Y-69319410D01*
X126406000Y-69309065D01*
X126406000Y-67862000D01*
X126426002Y-67793879D01*
X126479658Y-67747386D01*
X126532000Y-67736000D01*
X126788000Y-67736000D01*
X126856121Y-67756002D01*
X126902614Y-67809658D01*
X126914000Y-67862000D01*
X126914000Y-69308517D01*
X126918064Y-69322359D01*
X126931478Y-69324393D01*
X126938184Y-69323534D01*
X126948262Y-69321392D01*
X127152255Y-69260191D01*
X127161842Y-69256433D01*
X127353095Y-69162739D01*
X127361945Y-69157464D01*
X127535328Y-69033792D01*
X127543200Y-69027139D01*
X127694052Y-68876812D01*
X127700730Y-68868965D01*
X127828022Y-68691819D01*
X127829279Y-68692722D01*
X127876373Y-68649362D01*
X127946311Y-68637145D01*
X128011751Y-68664678D01*
X128039579Y-68696511D01*
X128099987Y-68795088D01*
X128246250Y-68963938D01*
X128418126Y-69106632D01*
X128611000Y-69219338D01*
X128819692Y-69299030D01*
X128824760Y-69300061D01*
X128824763Y-69300062D01*
X128919862Y-69319410D01*
X129038597Y-69343567D01*
X129043772Y-69343757D01*
X129043774Y-69343757D01*
X129256673Y-69351564D01*
X129256677Y-69351564D01*
X129261837Y-69351753D01*
X129266957Y-69351097D01*
X129266959Y-69351097D01*
X129478288Y-69324025D01*
X129478289Y-69324025D01*
X129483416Y-69323368D01*
X129488366Y-69321883D01*
X129692429Y-69260661D01*
X129692434Y-69260659D01*
X129697384Y-69259174D01*
X129897994Y-69160896D01*
X130079860Y-69031173D01*
X130142777Y-68968476D01*
X130222689Y-68888842D01*
X130238096Y-68873489D01*
X130368453Y-68692077D01*
X130369776Y-68693028D01*
X130416645Y-68649857D01*
X130486580Y-68637625D01*
X130552026Y-68665144D01*
X130579875Y-68696994D01*
X130639987Y-68795088D01*
X130786250Y-68963938D01*
X130958126Y-69106632D01*
X131151000Y-69219338D01*
X131359692Y-69299030D01*
X131364760Y-69300061D01*
X131364763Y-69300062D01*
X131459862Y-69319410D01*
X131578597Y-69343567D01*
X131583772Y-69343757D01*
X131583774Y-69343757D01*
X131796673Y-69351564D01*
X131796677Y-69351564D01*
X131801837Y-69351753D01*
X131806957Y-69351097D01*
X131806959Y-69351097D01*
X132018288Y-69324025D01*
X132018289Y-69324025D01*
X132023416Y-69323368D01*
X132030003Y-69321392D01*
X132069827Y-69309444D01*
X132140823Y-69309028D01*
X132195131Y-69341035D01*
X132842353Y-69988258D01*
X132849887Y-69996537D01*
X132854000Y-70003018D01*
X132875096Y-70022828D01*
X132903651Y-70049643D01*
X132906493Y-70052398D01*
X132926230Y-70072135D01*
X132929427Y-70074615D01*
X132938447Y-70082318D01*
X132970679Y-70112586D01*
X132977625Y-70116405D01*
X132977628Y-70116407D01*
X132988434Y-70122348D01*
X133004953Y-70133199D01*
X133020959Y-70145614D01*
X133028228Y-70148759D01*
X133028232Y-70148762D01*
X133061537Y-70163174D01*
X133072187Y-70168391D01*
X133110940Y-70189695D01*
X133118615Y-70191666D01*
X133118616Y-70191666D01*
X133130562Y-70194733D01*
X133149267Y-70201137D01*
X133167855Y-70209181D01*
X133175678Y-70210420D01*
X133175688Y-70210423D01*
X133211524Y-70216099D01*
X133223144Y-70218505D01*
X133254959Y-70226673D01*
X133265970Y-70229500D01*
X133286224Y-70229500D01*
X133305934Y-70231051D01*
X133325943Y-70234220D01*
X133333835Y-70233474D01*
X133352580Y-70231702D01*
X133369962Y-70230059D01*
X133381819Y-70229500D01*
X137335233Y-70229500D01*
X137346416Y-70230027D01*
X137353909Y-70231702D01*
X137361835Y-70231453D01*
X137361836Y-70231453D01*
X137421986Y-70229562D01*
X137425945Y-70229500D01*
X137453856Y-70229500D01*
X137457791Y-70229003D01*
X137457856Y-70228995D01*
X137469693Y-70228062D01*
X137501951Y-70227048D01*
X137505970Y-70226922D01*
X137513889Y-70226673D01*
X137533343Y-70221021D01*
X137552700Y-70217013D01*
X137564930Y-70215468D01*
X137564931Y-70215468D01*
X137572797Y-70214474D01*
X137580168Y-70211555D01*
X137580170Y-70211555D01*
X137613912Y-70198196D01*
X137625142Y-70194351D01*
X137659983Y-70184229D01*
X137659984Y-70184229D01*
X137667593Y-70182018D01*
X137674412Y-70177985D01*
X137674417Y-70177983D01*
X137685028Y-70171707D01*
X137702776Y-70163012D01*
X137721617Y-70155552D01*
X137757387Y-70129564D01*
X137767307Y-70123048D01*
X137798535Y-70104580D01*
X137798538Y-70104578D01*
X137805362Y-70100542D01*
X137819683Y-70086221D01*
X137834717Y-70073380D01*
X137844693Y-70066132D01*
X137851107Y-70061472D01*
X137879288Y-70027407D01*
X137887278Y-70018626D01*
X138568258Y-69337647D01*
X138576537Y-69330113D01*
X138583018Y-69326000D01*
X138629644Y-69276348D01*
X138632398Y-69273507D01*
X138652135Y-69253770D01*
X138654615Y-69250573D01*
X138662320Y-69241551D01*
X138683179Y-69219338D01*
X138692586Y-69209321D01*
X138696405Y-69202375D01*
X138696407Y-69202372D01*
X138702348Y-69191566D01*
X138713199Y-69175047D01*
X138720758Y-69165301D01*
X138725614Y-69159041D01*
X138728759Y-69151772D01*
X138728762Y-69151768D01*
X138743174Y-69118463D01*
X138748391Y-69107813D01*
X138769695Y-69069060D01*
X138774733Y-69049437D01*
X138781137Y-69030734D01*
X138786033Y-69019420D01*
X138786033Y-69019419D01*
X138789181Y-69012145D01*
X138790420Y-69004322D01*
X138790423Y-69004312D01*
X138796099Y-68968476D01*
X138798505Y-68956856D01*
X138807528Y-68921711D01*
X138807528Y-68921710D01*
X138809500Y-68914030D01*
X138809500Y-68893776D01*
X138811051Y-68874065D01*
X138812980Y-68861886D01*
X138814220Y-68854057D01*
X138810059Y-68810038D01*
X138809500Y-68798181D01*
X138809500Y-53844768D01*
X138810027Y-53833585D01*
X138811702Y-53826092D01*
X138811221Y-53810769D01*
X138809562Y-53758002D01*
X138809500Y-53754044D01*
X138809500Y-53726144D01*
X138808996Y-53722153D01*
X138808063Y-53710311D01*
X138807007Y-53676692D01*
X138806674Y-53666111D01*
X138804462Y-53658497D01*
X138804461Y-53658492D01*
X138801023Y-53646659D01*
X138797012Y-53627295D01*
X138795467Y-53615064D01*
X138794474Y-53607203D01*
X138791557Y-53599836D01*
X138791556Y-53599831D01*
X138778198Y-53566092D01*
X138774354Y-53554865D01*
X138771964Y-53546638D01*
X138770697Y-53542277D01*
X139637009Y-53542277D01*
X139662625Y-53810769D01*
X139663710Y-53815203D01*
X139663711Y-53815209D01*
X139715880Y-54028405D01*
X139726731Y-54072750D01*
X139827985Y-54322733D01*
X139830294Y-54326676D01*
X139959525Y-54547386D01*
X139964265Y-54555482D01*
X139967118Y-54559049D01*
X140084686Y-54706060D01*
X140132716Y-54766119D01*
X140329809Y-54950234D01*
X140551416Y-55103968D01*
X140555499Y-55105999D01*
X140555502Y-55106001D01*
X140671013Y-55163466D01*
X140792894Y-55224101D01*
X140797228Y-55225522D01*
X140797231Y-55225523D01*
X141044853Y-55306698D01*
X141044859Y-55306699D01*
X141049186Y-55308118D01*
X141053677Y-55308898D01*
X141053678Y-55308898D01*
X141311140Y-55353601D01*
X141311148Y-55353602D01*
X141314921Y-55354257D01*
X141318758Y-55354448D01*
X141398578Y-55358422D01*
X141398586Y-55358422D01*
X141400149Y-55358500D01*
X141568512Y-55358500D01*
X141570780Y-55358335D01*
X141570792Y-55358335D01*
X141701884Y-55348823D01*
X141769004Y-55343953D01*
X141773459Y-55342969D01*
X141773462Y-55342969D01*
X142027912Y-55286791D01*
X142027916Y-55286790D01*
X142032372Y-55285806D01*
X142158480Y-55238028D01*
X142280318Y-55191868D01*
X142280321Y-55191867D01*
X142284588Y-55190250D01*
X142520368Y-55059286D01*
X142734773Y-54895657D01*
X142923312Y-54702792D01*
X143082034Y-54484730D01*
X143165190Y-54326676D01*
X143205490Y-54250079D01*
X143205493Y-54250073D01*
X143207615Y-54246039D01*
X143243918Y-54143240D01*
X143295902Y-53996033D01*
X143295902Y-53996032D01*
X143297425Y-53991720D01*
X143328128Y-53835943D01*
X143348700Y-53731572D01*
X143348701Y-53731566D01*
X143349581Y-53727100D01*
X143349808Y-53722544D01*
X143362764Y-53462292D01*
X143362764Y-53462286D01*
X143362991Y-53457723D01*
X143337375Y-53189231D01*
X143324549Y-53136812D01*
X143274355Y-52931688D01*
X143273269Y-52927250D01*
X143172015Y-52677267D01*
X143063896Y-52492614D01*
X143038045Y-52448463D01*
X143038044Y-52448462D01*
X143035735Y-52444518D01*
X142917928Y-52297208D01*
X142870136Y-52237447D01*
X142870135Y-52237445D01*
X142867284Y-52233881D01*
X142670191Y-52049766D01*
X142448584Y-51896032D01*
X142444501Y-51894001D01*
X142444498Y-51893999D01*
X142277063Y-51810702D01*
X142207106Y-51775899D01*
X142202772Y-51774478D01*
X142202769Y-51774477D01*
X141955147Y-51693302D01*
X141955141Y-51693301D01*
X141950814Y-51691882D01*
X141946322Y-51691102D01*
X141688860Y-51646399D01*
X141688852Y-51646398D01*
X141685079Y-51645743D01*
X141673817Y-51645182D01*
X141601422Y-51641578D01*
X141601414Y-51641578D01*
X141599851Y-51641500D01*
X141431488Y-51641500D01*
X141429220Y-51641665D01*
X141429208Y-51641665D01*
X141298116Y-51651177D01*
X141230996Y-51656047D01*
X141226541Y-51657031D01*
X141226538Y-51657031D01*
X140972088Y-51713209D01*
X140972084Y-51713210D01*
X140967628Y-51714194D01*
X140843014Y-51761406D01*
X140719682Y-51808132D01*
X140719679Y-51808133D01*
X140715412Y-51809750D01*
X140479632Y-51940714D01*
X140265227Y-52104343D01*
X140262034Y-52107609D01*
X140262032Y-52107611D01*
X140246753Y-52123241D01*
X140076688Y-52297208D01*
X139917966Y-52515270D01*
X139915844Y-52519304D01*
X139794510Y-52749921D01*
X139794507Y-52749927D01*
X139792385Y-52753961D01*
X139790865Y-52758266D01*
X139790863Y-52758270D01*
X139722422Y-52952077D01*
X139702575Y-53008280D01*
X139650419Y-53272900D01*
X139650192Y-53277453D01*
X139650192Y-53277456D01*
X139637561Y-53531195D01*
X139637009Y-53542277D01*
X138770697Y-53542277D01*
X138762018Y-53512407D01*
X138751707Y-53494972D01*
X138743012Y-53477224D01*
X138735552Y-53458383D01*
X138726439Y-53445839D01*
X138709564Y-53422613D01*
X138703048Y-53412693D01*
X138684580Y-53381465D01*
X138684578Y-53381462D01*
X138680542Y-53374638D01*
X138666221Y-53360317D01*
X138653380Y-53345283D01*
X138646131Y-53335306D01*
X138641472Y-53328893D01*
X138635368Y-53323843D01*
X138635363Y-53323838D01*
X138607402Y-53300707D01*
X138598621Y-53292717D01*
X138011217Y-52705312D01*
X137977192Y-52643000D01*
X137979755Y-52579590D01*
X137992370Y-52538069D01*
X138021529Y-52316590D01*
X138021611Y-52313240D01*
X138023074Y-52253365D01*
X138023074Y-52253361D01*
X138023156Y-52250000D01*
X138004852Y-52027361D01*
X137950431Y-51810702D01*
X137861354Y-51605840D01*
X137740014Y-51418277D01*
X137589670Y-51253051D01*
X137585619Y-51249852D01*
X137585615Y-51249848D01*
X137418414Y-51117800D01*
X137418410Y-51117798D01*
X137414359Y-51114598D01*
X137378028Y-51094542D01*
X137294497Y-51048431D01*
X137218789Y-51006638D01*
X137213920Y-51004914D01*
X137213916Y-51004912D01*
X137013087Y-50933795D01*
X137013083Y-50933794D01*
X137008212Y-50932069D01*
X137003119Y-50931162D01*
X137003116Y-50931161D01*
X136793373Y-50893800D01*
X136793367Y-50893799D01*
X136788284Y-50892894D01*
X136714452Y-50891992D01*
X136570081Y-50890228D01*
X136570079Y-50890228D01*
X136564911Y-50890165D01*
X136344091Y-50923955D01*
X136131756Y-50993357D01*
X135933607Y-51096507D01*
X135929474Y-51099610D01*
X135929471Y-51099612D01*
X135759100Y-51227530D01*
X135754965Y-51230635D01*
X135751393Y-51234373D01*
X135648122Y-51342440D01*
X135600629Y-51392138D01*
X135493201Y-51549621D01*
X135438293Y-51594621D01*
X135367768Y-51602792D01*
X135304021Y-51571538D01*
X135283324Y-51547054D01*
X135202822Y-51422617D01*
X135202820Y-51422614D01*
X135200014Y-51418277D01*
X135049670Y-51253051D01*
X135045619Y-51249852D01*
X135045615Y-51249848D01*
X134878414Y-51117800D01*
X134878410Y-51117798D01*
X134874359Y-51114598D01*
X134838028Y-51094542D01*
X134754497Y-51048431D01*
X134678789Y-51006638D01*
X134673920Y-51004914D01*
X134673916Y-51004912D01*
X134473087Y-50933795D01*
X134473083Y-50933794D01*
X134468212Y-50932069D01*
X134463119Y-50931162D01*
X134463116Y-50931161D01*
X134253373Y-50893800D01*
X134253367Y-50893799D01*
X134248284Y-50892894D01*
X134174452Y-50891992D01*
X134030081Y-50890228D01*
X134030079Y-50890228D01*
X134024911Y-50890165D01*
X133804091Y-50923955D01*
X133591756Y-50993357D01*
X133393607Y-51096507D01*
X133389474Y-51099610D01*
X133389471Y-51099612D01*
X133219100Y-51227530D01*
X133214965Y-51230635D01*
X133211393Y-51234373D01*
X133108122Y-51342440D01*
X133060629Y-51392138D01*
X132953201Y-51549621D01*
X132898293Y-51594621D01*
X132827768Y-51602792D01*
X132764021Y-51571538D01*
X132743324Y-51547054D01*
X132662822Y-51422617D01*
X132662820Y-51422614D01*
X132660014Y-51418277D01*
X132509670Y-51253051D01*
X132505619Y-51249852D01*
X132505615Y-51249848D01*
X132338414Y-51117800D01*
X132338410Y-51117798D01*
X132334359Y-51114598D01*
X132298028Y-51094542D01*
X132214497Y-51048431D01*
X132138789Y-51006638D01*
X132133920Y-51004914D01*
X132133916Y-51004912D01*
X131933087Y-50933795D01*
X131933083Y-50933794D01*
X131928212Y-50932069D01*
X131923119Y-50931162D01*
X131923116Y-50931161D01*
X131713373Y-50893800D01*
X131713367Y-50893799D01*
X131708284Y-50892894D01*
X131634452Y-50891992D01*
X131490081Y-50890228D01*
X131490079Y-50890228D01*
X131484911Y-50890165D01*
X131264091Y-50923955D01*
X131051756Y-50993357D01*
X130853607Y-51096507D01*
X130849474Y-51099610D01*
X130849471Y-51099612D01*
X130679100Y-51227530D01*
X130674965Y-51230635D01*
X130671393Y-51234373D01*
X130568122Y-51342440D01*
X130520629Y-51392138D01*
X130413204Y-51549618D01*
X130412898Y-51550066D01*
X130357987Y-51595069D01*
X130287462Y-51603240D01*
X130223715Y-51571986D01*
X130203018Y-51547502D01*
X130122426Y-51422926D01*
X130116136Y-51414757D01*
X129972806Y-51257240D01*
X129965273Y-51250215D01*
X129798139Y-51118222D01*
X129789552Y-51112517D01*
X129603117Y-51009599D01*
X129593705Y-51005369D01*
X129392959Y-50934280D01*
X129382988Y-50931646D01*
X129311837Y-50918972D01*
X129298540Y-50920432D01*
X129294000Y-50934989D01*
X129294000Y-52378000D01*
X129273998Y-52446121D01*
X129220342Y-52492614D01*
X129168000Y-52504000D01*
X128912000Y-52504000D01*
X128843879Y-52483998D01*
X128797386Y-52430342D01*
X128786000Y-52378000D01*
X128786000Y-50933102D01*
X128782082Y-50919758D01*
X128767806Y-50917771D01*
X128729324Y-50923660D01*
X128719288Y-50926051D01*
X128516868Y-50992212D01*
X128507359Y-50996209D01*
X128318463Y-51094542D01*
X128309738Y-51100036D01*
X128139433Y-51227905D01*
X128131726Y-51234748D01*
X127984590Y-51388717D01*
X127978109Y-51396722D01*
X127873498Y-51550074D01*
X127818587Y-51595076D01*
X127748062Y-51603247D01*
X127684315Y-51571993D01*
X127663618Y-51547509D01*
X127582822Y-51422617D01*
X127582820Y-51422614D01*
X127580014Y-51418277D01*
X127429670Y-51253051D01*
X127425619Y-51249852D01*
X127425615Y-51249848D01*
X127258414Y-51117800D01*
X127258410Y-51117798D01*
X127254359Y-51114598D01*
X127218028Y-51094542D01*
X127134497Y-51048431D01*
X127058789Y-51006638D01*
X127053920Y-51004914D01*
X127053916Y-51004912D01*
X126853087Y-50933795D01*
X126853083Y-50933794D01*
X126848212Y-50932069D01*
X126843119Y-50931162D01*
X126843116Y-50931161D01*
X126633373Y-50893800D01*
X126633367Y-50893799D01*
X126628284Y-50892894D01*
X126554452Y-50891992D01*
X126410081Y-50890228D01*
X126410079Y-50890228D01*
X126404911Y-50890165D01*
X126184091Y-50923955D01*
X125971756Y-50993357D01*
X125773607Y-51096507D01*
X125769474Y-51099610D01*
X125769471Y-51099612D01*
X125599100Y-51227530D01*
X125594965Y-51230635D01*
X125591393Y-51234373D01*
X125488122Y-51342440D01*
X125440629Y-51392138D01*
X125333204Y-51549618D01*
X125332898Y-51550066D01*
X125277987Y-51595069D01*
X125207462Y-51603240D01*
X125143715Y-51571986D01*
X125123018Y-51547502D01*
X125042426Y-51422926D01*
X125036136Y-51414757D01*
X124892806Y-51257240D01*
X124885273Y-51250215D01*
X124718139Y-51118222D01*
X124709552Y-51112517D01*
X124523117Y-51009599D01*
X124513705Y-51005369D01*
X124312959Y-50934280D01*
X124302988Y-50931646D01*
X124231837Y-50918972D01*
X124218540Y-50920432D01*
X124214000Y-50934989D01*
X124214000Y-52378000D01*
X124193998Y-52446121D01*
X124140342Y-52492614D01*
X124088000Y-52504000D01*
X123832000Y-52504000D01*
X123763879Y-52483998D01*
X123717386Y-52430342D01*
X123706000Y-52378000D01*
X123706000Y-50933102D01*
X123702082Y-50919758D01*
X123687806Y-50917771D01*
X123649324Y-50923660D01*
X123639288Y-50926051D01*
X123436868Y-50992212D01*
X123427359Y-50996209D01*
X123238463Y-51094542D01*
X123229738Y-51100036D01*
X123059433Y-51227905D01*
X123051726Y-51234748D01*
X122904590Y-51388717D01*
X122898109Y-51396722D01*
X122793498Y-51550074D01*
X122738587Y-51595076D01*
X122668062Y-51603247D01*
X122604315Y-51571993D01*
X122583618Y-51547509D01*
X122502822Y-51422617D01*
X122502820Y-51422614D01*
X122500014Y-51418277D01*
X122349670Y-51253051D01*
X122345619Y-51249852D01*
X122345615Y-51249848D01*
X122178414Y-51117800D01*
X122178410Y-51117798D01*
X122174359Y-51114598D01*
X122138028Y-51094542D01*
X122054497Y-51048431D01*
X121978789Y-51006638D01*
X121973920Y-51004914D01*
X121973916Y-51004912D01*
X121773087Y-50933795D01*
X121773083Y-50933794D01*
X121768212Y-50932069D01*
X121763119Y-50931162D01*
X121763116Y-50931161D01*
X121553373Y-50893800D01*
X121553367Y-50893799D01*
X121548284Y-50892894D01*
X121474452Y-50891992D01*
X121330081Y-50890228D01*
X121330079Y-50890228D01*
X121324911Y-50890165D01*
X121104091Y-50923955D01*
X120891756Y-50993357D01*
X120693607Y-51096507D01*
X120689474Y-51099610D01*
X120689471Y-51099612D01*
X120519100Y-51227530D01*
X120514965Y-51230635D01*
X120511393Y-51234373D01*
X120408122Y-51342440D01*
X120360629Y-51392138D01*
X120253201Y-51549621D01*
X120198293Y-51594621D01*
X120127768Y-51602792D01*
X120064021Y-51571538D01*
X120043324Y-51547054D01*
X119962822Y-51422617D01*
X119962820Y-51422614D01*
X119960014Y-51418277D01*
X119809670Y-51253051D01*
X119805619Y-51249852D01*
X119805615Y-51249848D01*
X119638414Y-51117800D01*
X119638410Y-51117798D01*
X119634359Y-51114598D01*
X119598028Y-51094542D01*
X119514497Y-51048431D01*
X119438789Y-51006638D01*
X119433920Y-51004914D01*
X119433916Y-51004912D01*
X119233087Y-50933795D01*
X119233083Y-50933794D01*
X119228212Y-50932069D01*
X119223119Y-50931162D01*
X119223116Y-50931161D01*
X119013373Y-50893800D01*
X119013367Y-50893799D01*
X119008284Y-50892894D01*
X118934452Y-50891992D01*
X118790081Y-50890228D01*
X118790079Y-50890228D01*
X118784911Y-50890165D01*
X118564091Y-50923955D01*
X118351756Y-50993357D01*
X118153607Y-51096507D01*
X118149474Y-51099610D01*
X118149471Y-51099612D01*
X117979100Y-51227530D01*
X117974965Y-51230635D01*
X117971393Y-51234373D01*
X117868122Y-51342440D01*
X117820629Y-51392138D01*
X117713201Y-51549621D01*
X117658293Y-51594621D01*
X117587768Y-51602792D01*
X117524021Y-51571538D01*
X117503324Y-51547054D01*
X117422822Y-51422617D01*
X117422820Y-51422614D01*
X117420014Y-51418277D01*
X117269670Y-51253051D01*
X117265619Y-51249852D01*
X117265615Y-51249848D01*
X117098414Y-51117800D01*
X117098410Y-51117798D01*
X117094359Y-51114598D01*
X117058028Y-51094542D01*
X116974497Y-51048431D01*
X116898789Y-51006638D01*
X116893920Y-51004914D01*
X116893916Y-51004912D01*
X116693087Y-50933795D01*
X116693083Y-50933794D01*
X116688212Y-50932069D01*
X116683119Y-50931162D01*
X116683116Y-50931161D01*
X116473373Y-50893800D01*
X116473367Y-50893799D01*
X116468284Y-50892894D01*
X116394452Y-50891992D01*
X116250081Y-50890228D01*
X116250079Y-50890228D01*
X116244911Y-50890165D01*
X116024091Y-50923955D01*
X115811756Y-50993357D01*
X115613607Y-51096507D01*
X115609474Y-51099610D01*
X115609471Y-51099612D01*
X115439100Y-51227530D01*
X115434965Y-51230635D01*
X115431393Y-51234373D01*
X115328122Y-51342440D01*
X115280629Y-51392138D01*
X115173201Y-51549621D01*
X115118293Y-51594621D01*
X115047768Y-51602792D01*
X114984021Y-51571538D01*
X114963324Y-51547054D01*
X114882822Y-51422617D01*
X114882820Y-51422614D01*
X114880014Y-51418277D01*
X114729670Y-51253051D01*
X114725619Y-51249852D01*
X114725615Y-51249848D01*
X114558414Y-51117800D01*
X114558410Y-51117798D01*
X114554359Y-51114598D01*
X114518028Y-51094542D01*
X114434497Y-51048431D01*
X114358789Y-51006638D01*
X114353920Y-51004914D01*
X114353916Y-51004912D01*
X114153087Y-50933795D01*
X114153083Y-50933794D01*
X114148212Y-50932069D01*
X114143119Y-50931162D01*
X114143116Y-50931161D01*
X113933373Y-50893800D01*
X113933367Y-50893799D01*
X113928284Y-50892894D01*
X113854452Y-50891992D01*
X113710081Y-50890228D01*
X113710079Y-50890228D01*
X113704911Y-50890165D01*
X113484091Y-50923955D01*
X113271756Y-50993357D01*
X113073607Y-51096507D01*
X113069474Y-51099610D01*
X113069471Y-51099612D01*
X112899100Y-51227530D01*
X112894965Y-51230635D01*
X112891393Y-51234373D01*
X112788122Y-51342440D01*
X112740629Y-51392138D01*
X112633204Y-51549618D01*
X112632898Y-51550066D01*
X112577987Y-51595069D01*
X112507462Y-51603240D01*
X112443715Y-51571986D01*
X112423018Y-51547502D01*
X112342426Y-51422926D01*
X112336136Y-51414757D01*
X112192806Y-51257240D01*
X112185273Y-51250215D01*
X112018139Y-51118222D01*
X112009552Y-51112517D01*
X111823117Y-51009599D01*
X111813705Y-51005369D01*
X111612959Y-50934280D01*
X111602988Y-50931646D01*
X111531837Y-50918972D01*
X111518540Y-50920432D01*
X111514000Y-50934989D01*
X111514000Y-52378000D01*
X111493998Y-52446121D01*
X111440342Y-52492614D01*
X111388000Y-52504000D01*
X111132000Y-52504000D01*
X111063879Y-52483998D01*
X111017386Y-52430342D01*
X111006000Y-52378000D01*
X111006000Y-50933102D01*
X111002082Y-50919758D01*
X110987806Y-50917771D01*
X110949324Y-50923660D01*
X110939288Y-50926051D01*
X110736868Y-50992212D01*
X110727359Y-50996209D01*
X110538463Y-51094542D01*
X110529738Y-51100036D01*
X110359433Y-51227905D01*
X110351726Y-51234748D01*
X110204590Y-51388717D01*
X110198109Y-51396722D01*
X110093498Y-51550074D01*
X110038587Y-51595076D01*
X109968062Y-51603247D01*
X109904315Y-51571993D01*
X109883618Y-51547509D01*
X109802822Y-51422617D01*
X109802820Y-51422614D01*
X109800014Y-51418277D01*
X109649670Y-51253051D01*
X109645619Y-51249852D01*
X109645615Y-51249848D01*
X109478414Y-51117800D01*
X109478410Y-51117798D01*
X109474359Y-51114598D01*
X109438028Y-51094542D01*
X109354497Y-51048431D01*
X109278789Y-51006638D01*
X109273920Y-51004914D01*
X109273916Y-51004912D01*
X109073087Y-50933795D01*
X109073083Y-50933794D01*
X109068212Y-50932069D01*
X109063119Y-50931162D01*
X109063116Y-50931161D01*
X108853373Y-50893800D01*
X108853367Y-50893799D01*
X108848284Y-50892894D01*
X108774452Y-50891992D01*
X108630081Y-50890228D01*
X108630079Y-50890228D01*
X108624911Y-50890165D01*
X108404091Y-50923955D01*
X108191756Y-50993357D01*
X107993607Y-51096507D01*
X107989474Y-51099610D01*
X107989471Y-51099612D01*
X107819100Y-51227530D01*
X107814965Y-51230635D01*
X107811393Y-51234373D01*
X107708122Y-51342440D01*
X107660629Y-51392138D01*
X107553201Y-51549621D01*
X107498293Y-51594621D01*
X107427768Y-51602792D01*
X107364021Y-51571538D01*
X107343324Y-51547054D01*
X107262822Y-51422617D01*
X107262820Y-51422614D01*
X107260014Y-51418277D01*
X107109670Y-51253051D01*
X107105619Y-51249852D01*
X107105615Y-51249848D01*
X106938414Y-51117800D01*
X106938410Y-51117798D01*
X106934359Y-51114598D01*
X106898028Y-51094542D01*
X106814497Y-51048431D01*
X106738789Y-51006638D01*
X106733920Y-51004914D01*
X106733916Y-51004912D01*
X106533087Y-50933795D01*
X106533083Y-50933794D01*
X106528212Y-50932069D01*
X106523119Y-50931162D01*
X106523116Y-50931161D01*
X106313373Y-50893800D01*
X106313367Y-50893799D01*
X106308284Y-50892894D01*
X106234452Y-50891992D01*
X106090081Y-50890228D01*
X106090079Y-50890228D01*
X106084911Y-50890165D01*
X105864091Y-50923955D01*
X105651756Y-50993357D01*
X105453607Y-51096507D01*
X105449474Y-51099610D01*
X105449471Y-51099612D01*
X105279100Y-51227530D01*
X105274965Y-51230635D01*
X105271393Y-51234373D01*
X105168122Y-51342440D01*
X105120629Y-51392138D01*
X105013204Y-51549618D01*
X105012898Y-51550066D01*
X104957987Y-51595069D01*
X104887462Y-51603240D01*
X104823715Y-51571986D01*
X104803018Y-51547502D01*
X104722426Y-51422926D01*
X104716136Y-51414757D01*
X104572806Y-51257240D01*
X104565273Y-51250215D01*
X104398139Y-51118222D01*
X104389552Y-51112517D01*
X104203117Y-51009599D01*
X104193705Y-51005369D01*
X103992959Y-50934280D01*
X103982988Y-50931646D01*
X103911837Y-50918972D01*
X103898540Y-50920432D01*
X103894000Y-50934989D01*
X103894000Y-52378000D01*
X103873998Y-52446121D01*
X103820342Y-52492614D01*
X103768000Y-52504000D01*
X103512000Y-52504000D01*
X103443879Y-52483998D01*
X103397386Y-52430342D01*
X103386000Y-52378000D01*
X103386000Y-50933102D01*
X103382082Y-50919758D01*
X103367806Y-50917771D01*
X103329324Y-50923660D01*
X103319288Y-50926051D01*
X103116868Y-50992212D01*
X103107359Y-50996209D01*
X102918463Y-51094542D01*
X102909738Y-51100036D01*
X102739433Y-51227905D01*
X102731726Y-51234748D01*
X102584590Y-51388717D01*
X102578109Y-51396722D01*
X102473498Y-51550074D01*
X102418587Y-51595076D01*
X102348062Y-51603247D01*
X102284315Y-51571993D01*
X102263618Y-51547509D01*
X102182822Y-51422617D01*
X102182820Y-51422614D01*
X102180014Y-51418277D01*
X102029670Y-51253051D01*
X102025619Y-51249852D01*
X102025615Y-51249848D01*
X101858414Y-51117800D01*
X101858410Y-51117798D01*
X101854359Y-51114598D01*
X101818028Y-51094542D01*
X101734497Y-51048431D01*
X101658789Y-51006638D01*
X101653920Y-51004914D01*
X101653916Y-51004912D01*
X101453087Y-50933795D01*
X101453083Y-50933794D01*
X101448212Y-50932069D01*
X101443119Y-50931162D01*
X101443116Y-50931161D01*
X101233373Y-50893800D01*
X101233367Y-50893799D01*
X101228284Y-50892894D01*
X101154452Y-50891992D01*
X101010081Y-50890228D01*
X101010079Y-50890228D01*
X101004911Y-50890165D01*
X100784091Y-50923955D01*
X100571756Y-50993357D01*
X100373607Y-51096507D01*
X100369474Y-51099610D01*
X100369471Y-51099612D01*
X100199100Y-51227530D01*
X100194965Y-51230635D01*
X100191393Y-51234373D01*
X100088122Y-51342440D01*
X100040629Y-51392138D01*
X99933201Y-51549621D01*
X99878293Y-51594621D01*
X99807768Y-51602792D01*
X99744021Y-51571538D01*
X99723324Y-51547054D01*
X99642822Y-51422617D01*
X99642820Y-51422614D01*
X99640014Y-51418277D01*
X99489670Y-51253051D01*
X99485619Y-51249852D01*
X99485615Y-51249848D01*
X99318414Y-51117800D01*
X99318410Y-51117798D01*
X99314359Y-51114598D01*
X99278028Y-51094542D01*
X99194497Y-51048431D01*
X99118789Y-51006638D01*
X99113920Y-51004914D01*
X99113916Y-51004912D01*
X98913087Y-50933795D01*
X98913083Y-50933794D01*
X98908212Y-50932069D01*
X98903119Y-50931162D01*
X98903116Y-50931161D01*
X98693373Y-50893800D01*
X98693367Y-50893799D01*
X98688284Y-50892894D01*
X98614452Y-50891992D01*
X98470081Y-50890228D01*
X98470079Y-50890228D01*
X98464911Y-50890165D01*
X98244091Y-50923955D01*
X98031756Y-50993357D01*
X97833607Y-51096507D01*
X97829474Y-51099610D01*
X97829471Y-51099612D01*
X97659100Y-51227530D01*
X97654965Y-51230635D01*
X97651393Y-51234373D01*
X97548122Y-51342440D01*
X97500629Y-51392138D01*
X97393201Y-51549621D01*
X97338293Y-51594621D01*
X97267768Y-51602792D01*
X97204021Y-51571538D01*
X97183324Y-51547054D01*
X97102822Y-51422617D01*
X97102820Y-51422614D01*
X97100014Y-51418277D01*
X96949670Y-51253051D01*
X96945619Y-51249852D01*
X96945615Y-51249848D01*
X96778414Y-51117800D01*
X96778410Y-51117798D01*
X96774359Y-51114598D01*
X96738028Y-51094542D01*
X96654497Y-51048431D01*
X96578789Y-51006638D01*
X96573920Y-51004914D01*
X96573916Y-51004912D01*
X96373087Y-50933795D01*
X96373083Y-50933794D01*
X96368212Y-50932069D01*
X96363119Y-50931162D01*
X96363116Y-50931161D01*
X96153373Y-50893800D01*
X96153367Y-50893799D01*
X96148284Y-50892894D01*
X96074452Y-50891992D01*
X95930081Y-50890228D01*
X95930079Y-50890228D01*
X95924911Y-50890165D01*
X95704091Y-50923955D01*
X95491756Y-50993357D01*
X95293607Y-51096507D01*
X95289474Y-51099610D01*
X95289471Y-51099612D01*
X95119100Y-51227530D01*
X95114965Y-51230635D01*
X95111393Y-51234373D01*
X95008122Y-51342440D01*
X94960629Y-51392138D01*
X94853204Y-51549618D01*
X94852898Y-51550066D01*
X94797987Y-51595069D01*
X94727462Y-51603240D01*
X94663715Y-51571986D01*
X94643018Y-51547502D01*
X94562426Y-51422926D01*
X94556136Y-51414757D01*
X94412806Y-51257240D01*
X94405273Y-51250215D01*
X94238139Y-51118222D01*
X94229552Y-51112517D01*
X94043117Y-51009599D01*
X94033705Y-51005369D01*
X93832959Y-50934280D01*
X93822988Y-50931646D01*
X93751837Y-50918972D01*
X93738540Y-50920432D01*
X93734000Y-50934989D01*
X93734000Y-52378000D01*
X93713998Y-52446121D01*
X93660342Y-52492614D01*
X93608000Y-52504000D01*
X93352000Y-52504000D01*
X93283879Y-52483998D01*
X93237386Y-52430342D01*
X93226000Y-52378000D01*
X93226000Y-50933102D01*
X93222082Y-50919758D01*
X93207806Y-50917771D01*
X93169324Y-50923660D01*
X93159288Y-50926051D01*
X92956868Y-50992212D01*
X92947359Y-50996209D01*
X92758463Y-51094542D01*
X92749745Y-51100032D01*
X92715154Y-51126004D01*
X92648669Y-51150910D01*
X92579273Y-51135918D01*
X92528999Y-51085788D01*
X92513500Y-51025244D01*
X92513500Y-50634500D01*
X92533502Y-50566379D01*
X92587158Y-50519886D01*
X92639500Y-50508500D01*
X141950633Y-50508500D01*
X141970018Y-50510000D01*
X141984851Y-50512310D01*
X141984855Y-50512310D01*
X141993724Y-50513691D01*
X142010923Y-50511442D01*
X142034863Y-50510609D01*
X142292710Y-50526206D01*
X142307814Y-50528040D01*
X142379786Y-50541229D01*
X142588760Y-50579525D01*
X142603526Y-50583164D01*
X142876231Y-50668142D01*
X142890445Y-50673534D01*
X143108223Y-50771547D01*
X143150906Y-50790757D01*
X143164379Y-50797828D01*
X143408813Y-50945595D01*
X143421334Y-50954238D01*
X143646171Y-51130385D01*
X143657560Y-51140475D01*
X143859525Y-51342440D01*
X143869615Y-51353829D01*
X144045762Y-51578666D01*
X144054405Y-51591187D01*
X144128171Y-51713209D01*
X144187873Y-51811967D01*
X144202172Y-51835621D01*
X144209242Y-51849092D01*
X144326466Y-52109555D01*
X144331858Y-52123769D01*
X144412623Y-52382953D01*
X144416836Y-52396473D01*
X144420475Y-52411240D01*
X144451326Y-52579587D01*
X144471960Y-52692186D01*
X144473794Y-52707290D01*
X144488953Y-52957904D01*
X144487692Y-52984716D01*
X144487690Y-52984852D01*
X144486309Y-52993724D01*
X144487473Y-53002626D01*
X144487473Y-53002628D01*
X144490436Y-53025283D01*
X144491500Y-53041621D01*
X144491500Y-76950633D01*
X144490000Y-76970018D01*
X144487690Y-76984851D01*
X144487690Y-76984855D01*
X144486309Y-76993724D01*
X144488558Y-77010919D01*
X144489391Y-77034863D01*
X144473794Y-77292710D01*
X144471960Y-77307814D01*
X144465272Y-77344308D01*
X144425921Y-77559049D01*
X144420477Y-77588754D01*
X144416836Y-77603526D01*
X144359386Y-77787891D01*
X144331859Y-77876227D01*
X144326466Y-77890445D01*
X144218562Y-78130199D01*
X144209243Y-78150906D01*
X144202173Y-78164378D01*
X144186532Y-78190250D01*
X144054405Y-78408813D01*
X144045762Y-78421334D01*
X143869615Y-78646171D01*
X143859525Y-78657560D01*
X143657560Y-78859525D01*
X143646171Y-78869615D01*
X143421334Y-79045762D01*
X143408813Y-79054405D01*
X143164379Y-79202172D01*
X143150908Y-79209242D01*
X142890445Y-79326466D01*
X142876231Y-79331858D01*
X142603527Y-79416836D01*
X142588760Y-79420475D01*
X142379786Y-79458771D01*
X142307814Y-79471960D01*
X142292710Y-79473794D01*
X142042096Y-79488953D01*
X142015284Y-79487692D01*
X142015148Y-79487690D01*
X142006276Y-79486309D01*
X141997374Y-79487473D01*
X141997372Y-79487473D01*
X141982707Y-79489391D01*
X141974714Y-79490436D01*
X141958379Y-79491500D01*
X83049367Y-79491500D01*
X83029982Y-79490000D01*
X83015149Y-79487690D01*
X83015145Y-79487690D01*
X83006276Y-79486309D01*
X82989077Y-79488558D01*
X82965137Y-79489391D01*
X82707290Y-79473794D01*
X82692186Y-79471960D01*
X82620214Y-79458771D01*
X82411240Y-79420475D01*
X82396473Y-79416836D01*
X82123769Y-79331858D01*
X82109555Y-79326466D01*
X81849092Y-79209242D01*
X81835621Y-79202172D01*
X81591187Y-79054405D01*
X81578666Y-79045762D01*
X81353829Y-78869615D01*
X81342440Y-78859525D01*
X81140475Y-78657560D01*
X81130385Y-78646171D01*
X80954238Y-78421334D01*
X80945595Y-78408813D01*
X80813468Y-78190250D01*
X80797827Y-78164378D01*
X80790757Y-78150906D01*
X80781438Y-78130199D01*
X80673534Y-77890445D01*
X80668141Y-77876227D01*
X80640615Y-77787891D01*
X80583164Y-77603526D01*
X80579523Y-77588754D01*
X80574080Y-77559049D01*
X80534728Y-77344308D01*
X80528040Y-77307814D01*
X80526206Y-77292710D01*
X80511269Y-77045768D01*
X80512520Y-77022216D01*
X80512334Y-77022199D01*
X80512769Y-77017350D01*
X80513576Y-77012552D01*
X80513729Y-77000000D01*
X80509773Y-76972376D01*
X80508500Y-76954514D01*
X80508500Y-53053250D01*
X80510246Y-53032345D01*
X80512770Y-53017344D01*
X80512770Y-53017341D01*
X80513576Y-53012552D01*
X80513729Y-53000000D01*
X80513040Y-52995186D01*
X80513039Y-52995177D01*
X80511869Y-52987006D01*
X80510827Y-52961540D01*
X80526206Y-52707290D01*
X80528040Y-52692186D01*
X80548674Y-52579587D01*
X80579525Y-52411240D01*
X80583164Y-52396473D01*
X80587377Y-52382953D01*
X80668142Y-52123769D01*
X80673534Y-52109555D01*
X80790758Y-51849092D01*
X80797828Y-51835621D01*
X80812128Y-51811967D01*
X80871829Y-51713209D01*
X80945595Y-51591187D01*
X80954238Y-51578666D01*
X81130385Y-51353829D01*
X81140475Y-51342440D01*
X81342440Y-51140475D01*
X81353829Y-51130385D01*
X81578666Y-50954238D01*
X81591187Y-50945595D01*
X81835621Y-50797828D01*
X81849094Y-50790757D01*
X81891777Y-50771547D01*
X82109555Y-50673534D01*
X82123769Y-50668142D01*
X82396474Y-50583164D01*
X82411240Y-50579525D01*
X82620214Y-50541229D01*
X82692186Y-50528040D01*
X82707290Y-50526206D01*
X82957904Y-50511047D01*
X82984716Y-50512308D01*
X82984852Y-50512310D01*
X82993724Y-50513691D01*
X83002626Y-50512527D01*
X83002628Y-50512527D01*
X83017677Y-50510559D01*
X83025286Y-50509564D01*
X83041621Y-50508500D01*
X84860500Y-50508500D01*
X84928621Y-50528502D01*
G37*
G04 #@! TD.AperFunction*
G04 #@! TA.AperFunction,Conductor*
G36*
X98756121Y-54556002D02*
G01*
X98802614Y-54609658D01*
X98814000Y-54662000D01*
X98814000Y-56108517D01*
X98818064Y-56122359D01*
X98831478Y-56124393D01*
X98838184Y-56123534D01*
X98848262Y-56121392D01*
X99052255Y-56060191D01*
X99061842Y-56056433D01*
X99253095Y-55962739D01*
X99261945Y-55957464D01*
X99435328Y-55833792D01*
X99443200Y-55827139D01*
X99594052Y-55676812D01*
X99600730Y-55668965D01*
X99728022Y-55491819D01*
X99729279Y-55492722D01*
X99776373Y-55449362D01*
X99846311Y-55437145D01*
X99911751Y-55464678D01*
X99939579Y-55496511D01*
X99999987Y-55595088D01*
X100146250Y-55763938D01*
X100318126Y-55906632D01*
X100511000Y-56019338D01*
X100719692Y-56099030D01*
X100724760Y-56100061D01*
X100724763Y-56100062D01*
X100819862Y-56119410D01*
X100938597Y-56143567D01*
X100943772Y-56143757D01*
X100943774Y-56143757D01*
X101156673Y-56151564D01*
X101156677Y-56151564D01*
X101161837Y-56151753D01*
X101166957Y-56151097D01*
X101166959Y-56151097D01*
X101378288Y-56124025D01*
X101378289Y-56124025D01*
X101383416Y-56123368D01*
X101388369Y-56121882D01*
X101592429Y-56060661D01*
X101592434Y-56060659D01*
X101597384Y-56059174D01*
X101797994Y-55960896D01*
X101979860Y-55831173D01*
X102138096Y-55673489D01*
X102268453Y-55492077D01*
X102269776Y-55493028D01*
X102316645Y-55449857D01*
X102386580Y-55437625D01*
X102452026Y-55465144D01*
X102479875Y-55496994D01*
X102539987Y-55595088D01*
X102686250Y-55763938D01*
X102858126Y-55906632D01*
X103051000Y-56019338D01*
X103259692Y-56099030D01*
X103264760Y-56100061D01*
X103264763Y-56100062D01*
X103359862Y-56119410D01*
X103478597Y-56143567D01*
X103483772Y-56143757D01*
X103483774Y-56143757D01*
X103696673Y-56151564D01*
X103696677Y-56151564D01*
X103701837Y-56151753D01*
X103706957Y-56151097D01*
X103706959Y-56151097D01*
X103918288Y-56124025D01*
X103918289Y-56124025D01*
X103923416Y-56123368D01*
X103928369Y-56121882D01*
X104132429Y-56060661D01*
X104132434Y-56060659D01*
X104137384Y-56059174D01*
X104337994Y-55960896D01*
X104519860Y-55831173D01*
X104678096Y-55673489D01*
X104808453Y-55492077D01*
X104809776Y-55493028D01*
X104856645Y-55449857D01*
X104926580Y-55437625D01*
X104992026Y-55465144D01*
X105019875Y-55496994D01*
X105079987Y-55595088D01*
X105226250Y-55763938D01*
X105398126Y-55906632D01*
X105591000Y-56019338D01*
X105799692Y-56099030D01*
X105804760Y-56100061D01*
X105804763Y-56100062D01*
X105899862Y-56119410D01*
X106018597Y-56143567D01*
X106023772Y-56143757D01*
X106023774Y-56143757D01*
X106236673Y-56151564D01*
X106236677Y-56151564D01*
X106241837Y-56151753D01*
X106246957Y-56151097D01*
X106246959Y-56151097D01*
X106458288Y-56124025D01*
X106458289Y-56124025D01*
X106463416Y-56123368D01*
X106468369Y-56121882D01*
X106672429Y-56060661D01*
X106672434Y-56060659D01*
X106677384Y-56059174D01*
X106877994Y-55960896D01*
X107059860Y-55831173D01*
X107218096Y-55673489D01*
X107348453Y-55492077D01*
X107349776Y-55493028D01*
X107396645Y-55449857D01*
X107466580Y-55437625D01*
X107532026Y-55465144D01*
X107559875Y-55496994D01*
X107619987Y-55595088D01*
X107766250Y-55763938D01*
X107938126Y-55906632D01*
X108131000Y-56019338D01*
X108339692Y-56099030D01*
X108344760Y-56100061D01*
X108344763Y-56100062D01*
X108439862Y-56119410D01*
X108558597Y-56143567D01*
X108563772Y-56143757D01*
X108563774Y-56143757D01*
X108776673Y-56151564D01*
X108776677Y-56151564D01*
X108781837Y-56151753D01*
X108786957Y-56151097D01*
X108786959Y-56151097D01*
X108998288Y-56124025D01*
X108998289Y-56124025D01*
X109003416Y-56123368D01*
X109008369Y-56121882D01*
X109212429Y-56060661D01*
X109212434Y-56060659D01*
X109217384Y-56059174D01*
X109417994Y-55960896D01*
X109599860Y-55831173D01*
X109758096Y-55673489D01*
X109888453Y-55492077D01*
X109889776Y-55493028D01*
X109936645Y-55449857D01*
X110006580Y-55437625D01*
X110072026Y-55465144D01*
X110099875Y-55496994D01*
X110159987Y-55595088D01*
X110306250Y-55763938D01*
X110478126Y-55906632D01*
X110671000Y-56019338D01*
X110879692Y-56099030D01*
X110884760Y-56100061D01*
X110884763Y-56100062D01*
X110979862Y-56119410D01*
X111098597Y-56143567D01*
X111103772Y-56143757D01*
X111103774Y-56143757D01*
X111316673Y-56151564D01*
X111316677Y-56151564D01*
X111321837Y-56151753D01*
X111326957Y-56151097D01*
X111326959Y-56151097D01*
X111538288Y-56124025D01*
X111538289Y-56124025D01*
X111543416Y-56123368D01*
X111548369Y-56121882D01*
X111752429Y-56060661D01*
X111752434Y-56060659D01*
X111757384Y-56059174D01*
X111957994Y-55960896D01*
X112139860Y-55831173D01*
X112298096Y-55673489D01*
X112428453Y-55492077D01*
X112429776Y-55493028D01*
X112476645Y-55449857D01*
X112546580Y-55437625D01*
X112612026Y-55465144D01*
X112639875Y-55496994D01*
X112699987Y-55595088D01*
X112846250Y-55763938D01*
X113018126Y-55906632D01*
X113211000Y-56019338D01*
X113419692Y-56099030D01*
X113424760Y-56100061D01*
X113424763Y-56100062D01*
X113519862Y-56119410D01*
X113638597Y-56143567D01*
X113643772Y-56143757D01*
X113643774Y-56143757D01*
X113856673Y-56151564D01*
X113856677Y-56151564D01*
X113861837Y-56151753D01*
X113866957Y-56151097D01*
X113866959Y-56151097D01*
X114078288Y-56124025D01*
X114078289Y-56124025D01*
X114083416Y-56123368D01*
X114088369Y-56121882D01*
X114292429Y-56060661D01*
X114292434Y-56060659D01*
X114297384Y-56059174D01*
X114497994Y-55960896D01*
X114679860Y-55831173D01*
X114838096Y-55673489D01*
X114968453Y-55492077D01*
X114969776Y-55493028D01*
X115016645Y-55449857D01*
X115086580Y-55437625D01*
X115152026Y-55465144D01*
X115179875Y-55496994D01*
X115239987Y-55595088D01*
X115386250Y-55763938D01*
X115558126Y-55906632D01*
X115751000Y-56019338D01*
X115959692Y-56099030D01*
X115964760Y-56100061D01*
X115964763Y-56100062D01*
X116059862Y-56119410D01*
X116178597Y-56143567D01*
X116183772Y-56143757D01*
X116183774Y-56143757D01*
X116396673Y-56151564D01*
X116396677Y-56151564D01*
X116401837Y-56151753D01*
X116406957Y-56151097D01*
X116406959Y-56151097D01*
X116618288Y-56124025D01*
X116618289Y-56124025D01*
X116623416Y-56123368D01*
X116628369Y-56121882D01*
X116832429Y-56060661D01*
X116832434Y-56060659D01*
X116837384Y-56059174D01*
X117037994Y-55960896D01*
X117219860Y-55831173D01*
X117378096Y-55673489D01*
X117508453Y-55492077D01*
X117509640Y-55492930D01*
X117556960Y-55449362D01*
X117626897Y-55437145D01*
X117692338Y-55464678D01*
X117720166Y-55496511D01*
X117777694Y-55590388D01*
X117783777Y-55598699D01*
X117923213Y-55759667D01*
X117930580Y-55766883D01*
X118094434Y-55902916D01*
X118102881Y-55908831D01*
X118286756Y-56016279D01*
X118296042Y-56020729D01*
X118495001Y-56096703D01*
X118504899Y-56099579D01*
X118608250Y-56120606D01*
X118622299Y-56119410D01*
X118626000Y-56109065D01*
X118626000Y-54662000D01*
X118646002Y-54593879D01*
X118699658Y-54547386D01*
X118752000Y-54536000D01*
X119008000Y-54536000D01*
X119076121Y-54556002D01*
X119122614Y-54609658D01*
X119134000Y-54662000D01*
X119134000Y-56108517D01*
X119138064Y-56122359D01*
X119151478Y-56124393D01*
X119158184Y-56123534D01*
X119168262Y-56121392D01*
X119372255Y-56060191D01*
X119381842Y-56056433D01*
X119573095Y-55962739D01*
X119581945Y-55957464D01*
X119755328Y-55833792D01*
X119763200Y-55827139D01*
X119914052Y-55676812D01*
X119920730Y-55668965D01*
X120048022Y-55491819D01*
X120049279Y-55492722D01*
X120096373Y-55449362D01*
X120166311Y-55437145D01*
X120231751Y-55464678D01*
X120259579Y-55496511D01*
X120319987Y-55595088D01*
X120466250Y-55763938D01*
X120638126Y-55906632D01*
X120831000Y-56019338D01*
X121039692Y-56099030D01*
X121044760Y-56100061D01*
X121044763Y-56100062D01*
X121139862Y-56119410D01*
X121258597Y-56143567D01*
X121263772Y-56143757D01*
X121263774Y-56143757D01*
X121476673Y-56151564D01*
X121476677Y-56151564D01*
X121481837Y-56151753D01*
X121486957Y-56151097D01*
X121486959Y-56151097D01*
X121698288Y-56124025D01*
X121698289Y-56124025D01*
X121703416Y-56123368D01*
X121708369Y-56121882D01*
X121912429Y-56060661D01*
X121912434Y-56060659D01*
X121917384Y-56059174D01*
X122117994Y-55960896D01*
X122299860Y-55831173D01*
X122458096Y-55673489D01*
X122588453Y-55492077D01*
X122589776Y-55493028D01*
X122636645Y-55449857D01*
X122706580Y-55437625D01*
X122772026Y-55465144D01*
X122799875Y-55496994D01*
X122859987Y-55595088D01*
X123006250Y-55763938D01*
X123178126Y-55906632D01*
X123371000Y-56019338D01*
X123579692Y-56099030D01*
X123584760Y-56100061D01*
X123584763Y-56100062D01*
X123679862Y-56119410D01*
X123798597Y-56143567D01*
X123803772Y-56143757D01*
X123803774Y-56143757D01*
X124016673Y-56151564D01*
X124016677Y-56151564D01*
X124021837Y-56151753D01*
X124026957Y-56151097D01*
X124026959Y-56151097D01*
X124238288Y-56124025D01*
X124238289Y-56124025D01*
X124243416Y-56123368D01*
X124248369Y-56121882D01*
X124452429Y-56060661D01*
X124452434Y-56060659D01*
X124457384Y-56059174D01*
X124657994Y-55960896D01*
X124839860Y-55831173D01*
X124998096Y-55673489D01*
X125128453Y-55492077D01*
X125129776Y-55493028D01*
X125176645Y-55449857D01*
X125246580Y-55437625D01*
X125312026Y-55465144D01*
X125339875Y-55496994D01*
X125399987Y-55595088D01*
X125546250Y-55763938D01*
X125718126Y-55906632D01*
X125911000Y-56019338D01*
X126119692Y-56099030D01*
X126124760Y-56100061D01*
X126124763Y-56100062D01*
X126219862Y-56119410D01*
X126338597Y-56143567D01*
X126343772Y-56143757D01*
X126343774Y-56143757D01*
X126556673Y-56151564D01*
X126556677Y-56151564D01*
X126561837Y-56151753D01*
X126566957Y-56151097D01*
X126566959Y-56151097D01*
X126778288Y-56124025D01*
X126778289Y-56124025D01*
X126783416Y-56123368D01*
X126788369Y-56121882D01*
X126992429Y-56060661D01*
X126992434Y-56060659D01*
X126997384Y-56059174D01*
X127197994Y-55960896D01*
X127379860Y-55831173D01*
X127538096Y-55673489D01*
X127668453Y-55492077D01*
X127669776Y-55493028D01*
X127716645Y-55449857D01*
X127786580Y-55437625D01*
X127852026Y-55465144D01*
X127879875Y-55496994D01*
X127939987Y-55595088D01*
X128086250Y-55763938D01*
X128258126Y-55906632D01*
X128451000Y-56019338D01*
X128659692Y-56099030D01*
X128664760Y-56100061D01*
X128664763Y-56100062D01*
X128759862Y-56119410D01*
X128878597Y-56143567D01*
X128883772Y-56143757D01*
X128883774Y-56143757D01*
X129096673Y-56151564D01*
X129096677Y-56151564D01*
X129101837Y-56151753D01*
X129106957Y-56151097D01*
X129106959Y-56151097D01*
X129318288Y-56124025D01*
X129318289Y-56124025D01*
X129323416Y-56123368D01*
X129328369Y-56121882D01*
X129532429Y-56060661D01*
X129532434Y-56060659D01*
X129537384Y-56059174D01*
X129737994Y-55960896D01*
X129919860Y-55831173D01*
X130078096Y-55673489D01*
X130208453Y-55492077D01*
X130209776Y-55493028D01*
X130256645Y-55449857D01*
X130326580Y-55437625D01*
X130392026Y-55465144D01*
X130419875Y-55496994D01*
X130479987Y-55595088D01*
X130626250Y-55763938D01*
X130798126Y-55906632D01*
X130991000Y-56019338D01*
X131199692Y-56099030D01*
X131204760Y-56100061D01*
X131204763Y-56100062D01*
X131299862Y-56119410D01*
X131418597Y-56143567D01*
X131423772Y-56143757D01*
X131423774Y-56143757D01*
X131636673Y-56151564D01*
X131636677Y-56151564D01*
X131641837Y-56151753D01*
X131646957Y-56151097D01*
X131646959Y-56151097D01*
X131858288Y-56124025D01*
X131858289Y-56124025D01*
X131863416Y-56123368D01*
X131868367Y-56121883D01*
X131868370Y-56121882D01*
X131909829Y-56109444D01*
X131980825Y-56109028D01*
X132035131Y-56141035D01*
X132298595Y-56404499D01*
X132332621Y-56466811D01*
X132335500Y-56493594D01*
X132335500Y-64041352D01*
X132315498Y-64109473D01*
X132261842Y-64155966D01*
X132191568Y-64166070D01*
X132167440Y-64160125D01*
X132093087Y-64133795D01*
X132093083Y-64133794D01*
X132088212Y-64132069D01*
X132083119Y-64131162D01*
X132083116Y-64131161D01*
X131873373Y-64093800D01*
X131873367Y-64093799D01*
X131868284Y-64092894D01*
X131794452Y-64091992D01*
X131650081Y-64090228D01*
X131650079Y-64090228D01*
X131644911Y-64090165D01*
X131424091Y-64123955D01*
X131211756Y-64193357D01*
X131013607Y-64296507D01*
X131009474Y-64299610D01*
X131009471Y-64299612D01*
X130839100Y-64427530D01*
X130834965Y-64430635D01*
X130680629Y-64592138D01*
X130573201Y-64749621D01*
X130518293Y-64794621D01*
X130447768Y-64802792D01*
X130384021Y-64771538D01*
X130363324Y-64747054D01*
X130282822Y-64622617D01*
X130282820Y-64622614D01*
X130280014Y-64618277D01*
X130129670Y-64453051D01*
X130125619Y-64449852D01*
X130125615Y-64449848D01*
X129958414Y-64317800D01*
X129958410Y-64317798D01*
X129954359Y-64314598D01*
X129918028Y-64294542D01*
X129902136Y-64285769D01*
X129758789Y-64206638D01*
X129753920Y-64204914D01*
X129753916Y-64204912D01*
X129553087Y-64133795D01*
X129553083Y-64133794D01*
X129548212Y-64132069D01*
X129543119Y-64131162D01*
X129543116Y-64131161D01*
X129333373Y-64093800D01*
X129333367Y-64093799D01*
X129328284Y-64092894D01*
X129254452Y-64091992D01*
X129110081Y-64090228D01*
X129110079Y-64090228D01*
X129104911Y-64090165D01*
X128884091Y-64123955D01*
X128671756Y-64193357D01*
X128473607Y-64296507D01*
X128469474Y-64299610D01*
X128469471Y-64299612D01*
X128299100Y-64427530D01*
X128294965Y-64430635D01*
X128140629Y-64592138D01*
X128033201Y-64749621D01*
X127978293Y-64794621D01*
X127907768Y-64802792D01*
X127844021Y-64771538D01*
X127823324Y-64747054D01*
X127742822Y-64622617D01*
X127742820Y-64622614D01*
X127740014Y-64618277D01*
X127589670Y-64453051D01*
X127585619Y-64449852D01*
X127585615Y-64449848D01*
X127418414Y-64317800D01*
X127418410Y-64317798D01*
X127414359Y-64314598D01*
X127378028Y-64294542D01*
X127362136Y-64285769D01*
X127218789Y-64206638D01*
X127213920Y-64204914D01*
X127213916Y-64204912D01*
X127013087Y-64133795D01*
X127013083Y-64133794D01*
X127008212Y-64132069D01*
X127003119Y-64131162D01*
X127003116Y-64131161D01*
X126793373Y-64093800D01*
X126793367Y-64093799D01*
X126788284Y-64092894D01*
X126714452Y-64091992D01*
X126570081Y-64090228D01*
X126570079Y-64090228D01*
X126564911Y-64090165D01*
X126344091Y-64123955D01*
X126131756Y-64193357D01*
X125933607Y-64296507D01*
X125929474Y-64299610D01*
X125929471Y-64299612D01*
X125759100Y-64427530D01*
X125754965Y-64430635D01*
X125600629Y-64592138D01*
X125493204Y-64749618D01*
X125492898Y-64750066D01*
X125437987Y-64795069D01*
X125367462Y-64803240D01*
X125303715Y-64771986D01*
X125283018Y-64747502D01*
X125202426Y-64622926D01*
X125196136Y-64614757D01*
X125052806Y-64457240D01*
X125045273Y-64450215D01*
X124878139Y-64318222D01*
X124869552Y-64312517D01*
X124683117Y-64209599D01*
X124673705Y-64205369D01*
X124472959Y-64134280D01*
X124462988Y-64131646D01*
X124391837Y-64118972D01*
X124378540Y-64120432D01*
X124374000Y-64134989D01*
X124374000Y-65578000D01*
X124353998Y-65646121D01*
X124300342Y-65692614D01*
X124248000Y-65704000D01*
X123992000Y-65704000D01*
X123923879Y-65683998D01*
X123877386Y-65630342D01*
X123866000Y-65578000D01*
X123866000Y-64133102D01*
X123862082Y-64119758D01*
X123847806Y-64117771D01*
X123809324Y-64123660D01*
X123799288Y-64126051D01*
X123596868Y-64192212D01*
X123587359Y-64196209D01*
X123398463Y-64294542D01*
X123389738Y-64300036D01*
X123219433Y-64427905D01*
X123211726Y-64434748D01*
X123134478Y-64515584D01*
X123072954Y-64551014D01*
X123002042Y-64547557D01*
X122944255Y-64506311D01*
X122925402Y-64472763D01*
X122883767Y-64361703D01*
X122880615Y-64353295D01*
X122793261Y-64236739D01*
X122676705Y-64149385D01*
X122540316Y-64098255D01*
X122478134Y-64091500D01*
X120681866Y-64091500D01*
X120619684Y-64098255D01*
X120483295Y-64149385D01*
X120366739Y-64236739D01*
X120279385Y-64353295D01*
X120228255Y-64489684D01*
X120221500Y-64551866D01*
X120221500Y-66110500D01*
X120201498Y-66178621D01*
X120147842Y-66225114D01*
X120095500Y-66236500D01*
X118526000Y-66236500D01*
X118522654Y-66236860D01*
X118522649Y-66236860D01*
X118420215Y-66247872D01*
X118420208Y-66247873D01*
X118416851Y-66248234D01*
X118413551Y-66248952D01*
X118413550Y-66248952D01*
X118367790Y-66258906D01*
X118367785Y-66258907D01*
X118364509Y-66259620D01*
X118260343Y-66294290D01*
X118137388Y-66373308D01*
X118083732Y-66419801D01*
X118080792Y-66423194D01*
X117993919Y-66523450D01*
X117993917Y-66523453D01*
X117988018Y-66530261D01*
X117927302Y-66663210D01*
X117926034Y-66667529D01*
X117910870Y-66719174D01*
X117907300Y-66731331D01*
X117906660Y-66735780D01*
X117906659Y-66735786D01*
X117887139Y-66871553D01*
X117886500Y-66876000D01*
X117886500Y-71235112D01*
X117866498Y-71303233D01*
X117849595Y-71324207D01*
X117224207Y-71949595D01*
X117161895Y-71983621D01*
X117135112Y-71986500D01*
X90964888Y-71986500D01*
X90896767Y-71966498D01*
X90875793Y-71949595D01*
X90250405Y-71324207D01*
X90216379Y-71261895D01*
X90213500Y-71235112D01*
X90213500Y-56190144D01*
X90210200Y-56163911D01*
X90221544Y-56093827D01*
X90268977Y-56041001D01*
X90337440Y-56022205D01*
X90380164Y-56030475D01*
X90455320Y-56059174D01*
X90559692Y-56099030D01*
X90564760Y-56100061D01*
X90564763Y-56100062D01*
X90659862Y-56119410D01*
X90778597Y-56143567D01*
X90783772Y-56143757D01*
X90783774Y-56143757D01*
X90996673Y-56151564D01*
X90996677Y-56151564D01*
X91001837Y-56151753D01*
X91006957Y-56151097D01*
X91006959Y-56151097D01*
X91218288Y-56124025D01*
X91218289Y-56124025D01*
X91223416Y-56123368D01*
X91228369Y-56121882D01*
X91432429Y-56060661D01*
X91432434Y-56060659D01*
X91437384Y-56059174D01*
X91637994Y-55960896D01*
X91819860Y-55831173D01*
X91978096Y-55673489D01*
X92108453Y-55492077D01*
X92109776Y-55493028D01*
X92156645Y-55449857D01*
X92226580Y-55437625D01*
X92292026Y-55465144D01*
X92319875Y-55496994D01*
X92379987Y-55595088D01*
X92526250Y-55763938D01*
X92698126Y-55906632D01*
X92891000Y-56019338D01*
X93099692Y-56099030D01*
X93104760Y-56100061D01*
X93104763Y-56100062D01*
X93199862Y-56119410D01*
X93318597Y-56143567D01*
X93323772Y-56143757D01*
X93323774Y-56143757D01*
X93536673Y-56151564D01*
X93536677Y-56151564D01*
X93541837Y-56151753D01*
X93546957Y-56151097D01*
X93546959Y-56151097D01*
X93758288Y-56124025D01*
X93758289Y-56124025D01*
X93763416Y-56123368D01*
X93768369Y-56121882D01*
X93972429Y-56060661D01*
X93972434Y-56060659D01*
X93977384Y-56059174D01*
X94177994Y-55960896D01*
X94359860Y-55831173D01*
X94518096Y-55673489D01*
X94648453Y-55492077D01*
X94649776Y-55493028D01*
X94696645Y-55449857D01*
X94766580Y-55437625D01*
X94832026Y-55465144D01*
X94859875Y-55496994D01*
X94919987Y-55595088D01*
X95066250Y-55763938D01*
X95238126Y-55906632D01*
X95431000Y-56019338D01*
X95639692Y-56099030D01*
X95644760Y-56100061D01*
X95644763Y-56100062D01*
X95739862Y-56119410D01*
X95858597Y-56143567D01*
X95863772Y-56143757D01*
X95863774Y-56143757D01*
X96076673Y-56151564D01*
X96076677Y-56151564D01*
X96081837Y-56151753D01*
X96086957Y-56151097D01*
X96086959Y-56151097D01*
X96298288Y-56124025D01*
X96298289Y-56124025D01*
X96303416Y-56123368D01*
X96308369Y-56121882D01*
X96512429Y-56060661D01*
X96512434Y-56060659D01*
X96517384Y-56059174D01*
X96717994Y-55960896D01*
X96899860Y-55831173D01*
X97058096Y-55673489D01*
X97188453Y-55492077D01*
X97189640Y-55492930D01*
X97236960Y-55449362D01*
X97306897Y-55437145D01*
X97372338Y-55464678D01*
X97400166Y-55496511D01*
X97457694Y-55590388D01*
X97463777Y-55598699D01*
X97603213Y-55759667D01*
X97610580Y-55766883D01*
X97774434Y-55902916D01*
X97782881Y-55908831D01*
X97966756Y-56016279D01*
X97976042Y-56020729D01*
X98175001Y-56096703D01*
X98184899Y-56099579D01*
X98288250Y-56120606D01*
X98302299Y-56119410D01*
X98306000Y-56109065D01*
X98306000Y-54662000D01*
X98326002Y-54593879D01*
X98379658Y-54547386D01*
X98432000Y-54536000D01*
X98688000Y-54536000D01*
X98756121Y-54556002D01*
G37*
G04 #@! TD.AperFunction*
G04 #@! TA.AperFunction,Conductor*
G36*
X136856121Y-54556002D02*
G01*
X136902614Y-54609658D01*
X136914000Y-54662000D01*
X136914000Y-56108517D01*
X136918064Y-56122359D01*
X136931478Y-56124393D01*
X136938184Y-56123534D01*
X136948262Y-56121392D01*
X137152255Y-56060191D01*
X137161842Y-56056433D01*
X137357737Y-55960465D01*
X137358370Y-55961757D01*
X137420740Y-55945702D01*
X137488149Y-55967985D01*
X137532810Y-56023175D01*
X137542500Y-56071631D01*
X137542500Y-68519405D01*
X137522498Y-68587526D01*
X137505595Y-68608501D01*
X137188499Y-68925596D01*
X137126187Y-68959621D01*
X137099404Y-68962500D01*
X135499832Y-68962500D01*
X135431711Y-68942498D01*
X135385218Y-68888842D01*
X135375114Y-68818568D01*
X135397509Y-68762974D01*
X135445435Y-68696277D01*
X135448453Y-68692077D01*
X135461995Y-68664678D01*
X135545136Y-68496453D01*
X135545137Y-68496451D01*
X135547430Y-68491811D01*
X135612370Y-68278069D01*
X135641529Y-68056590D01*
X135643156Y-67990000D01*
X135624852Y-67767361D01*
X135570431Y-67550702D01*
X135481354Y-67345840D01*
X135360014Y-67158277D01*
X135209670Y-66993051D01*
X135205619Y-66989852D01*
X135205615Y-66989848D01*
X135038414Y-66857800D01*
X135038410Y-66857798D01*
X135034359Y-66854598D01*
X134993053Y-66831796D01*
X134943084Y-66781364D01*
X134928312Y-66711921D01*
X134953428Y-66645516D01*
X134980780Y-66618909D01*
X135024603Y-66587650D01*
X135159860Y-66491173D01*
X135318096Y-66333489D01*
X135448453Y-66152077D01*
X135472046Y-66104341D01*
X135545136Y-65956453D01*
X135545137Y-65956451D01*
X135547430Y-65951811D01*
X135612370Y-65738069D01*
X135641529Y-65516590D01*
X135643156Y-65450000D01*
X135624852Y-65227361D01*
X135570431Y-65010702D01*
X135481354Y-64805840D01*
X135360014Y-64618277D01*
X135209670Y-64453051D01*
X135205619Y-64449852D01*
X135205615Y-64449848D01*
X135038414Y-64317800D01*
X135038410Y-64317798D01*
X135034359Y-64314598D01*
X134998028Y-64294542D01*
X134982136Y-64285769D01*
X134838789Y-64206638D01*
X134833920Y-64204914D01*
X134833916Y-64204912D01*
X134633087Y-64133795D01*
X134633083Y-64133794D01*
X134628212Y-64132069D01*
X134623119Y-64131162D01*
X134623116Y-64131161D01*
X134413373Y-64093800D01*
X134413367Y-64093799D01*
X134408284Y-64092894D01*
X134334452Y-64091992D01*
X134190081Y-64090228D01*
X134190079Y-64090228D01*
X134184911Y-64090165D01*
X133964091Y-64123955D01*
X133767644Y-64188164D01*
X133696682Y-64190315D01*
X133635820Y-64153759D01*
X133604383Y-64090102D01*
X133602500Y-64068399D01*
X133602500Y-56257768D01*
X133603027Y-56246585D01*
X133604702Y-56239092D01*
X133604406Y-56229664D01*
X133604703Y-56228521D01*
X133605199Y-56223274D01*
X133606045Y-56223354D01*
X133622260Y-56160949D01*
X133674430Y-56112795D01*
X133744352Y-56100490D01*
X133755463Y-56102239D01*
X133958597Y-56143567D01*
X133963772Y-56143757D01*
X133963774Y-56143757D01*
X134176673Y-56151564D01*
X134176677Y-56151564D01*
X134181837Y-56151753D01*
X134186957Y-56151097D01*
X134186959Y-56151097D01*
X134398288Y-56124025D01*
X134398289Y-56124025D01*
X134403416Y-56123368D01*
X134408369Y-56121882D01*
X134612429Y-56060661D01*
X134612434Y-56060659D01*
X134617384Y-56059174D01*
X134817994Y-55960896D01*
X134999860Y-55831173D01*
X135158096Y-55673489D01*
X135288453Y-55492077D01*
X135289640Y-55492930D01*
X135336960Y-55449362D01*
X135406897Y-55437145D01*
X135472338Y-55464678D01*
X135500166Y-55496511D01*
X135557694Y-55590388D01*
X135563777Y-55598699D01*
X135703213Y-55759667D01*
X135710580Y-55766883D01*
X135874434Y-55902916D01*
X135882881Y-55908831D01*
X136066756Y-56016279D01*
X136076042Y-56020729D01*
X136275001Y-56096703D01*
X136284899Y-56099579D01*
X136388250Y-56120606D01*
X136402299Y-56119410D01*
X136406000Y-56109065D01*
X136406000Y-54662000D01*
X136426002Y-54593879D01*
X136479658Y-54547386D01*
X136532000Y-54536000D01*
X136788000Y-54536000D01*
X136856121Y-54556002D01*
G37*
G04 #@! TD.AperFunction*
G04 #@! TA.AperFunction,Conductor*
G36*
X91942121Y-50528502D02*
G01*
X91988614Y-50582158D01*
X92000000Y-50634500D01*
X92000000Y-53174000D01*
X91979998Y-53242121D01*
X91926342Y-53288614D01*
X91874000Y-53300000D01*
X90200000Y-53300000D01*
X89848827Y-53651173D01*
X89786515Y-53685199D01*
X89715700Y-53680134D01*
X89658906Y-53637643D01*
X89618642Y-53583919D01*
X89613261Y-53576739D01*
X89496705Y-53489385D01*
X89360316Y-53438255D01*
X89298134Y-53431500D01*
X87501866Y-53431500D01*
X87439684Y-53438255D01*
X87303295Y-53489385D01*
X87186739Y-53576739D01*
X87099385Y-53693295D01*
X87048255Y-53829684D01*
X87041500Y-53891866D01*
X87041500Y-55688134D01*
X87048255Y-55750316D01*
X87099385Y-55886705D01*
X87186739Y-56003261D01*
X87303295Y-56090615D01*
X87439684Y-56141745D01*
X87501866Y-56148500D01*
X89298134Y-56148500D01*
X89360316Y-56141745D01*
X89496705Y-56090615D01*
X89503892Y-56085229D01*
X89511760Y-56080921D01*
X89513315Y-56083762D01*
X89564921Y-56064472D01*
X89634306Y-56079513D01*
X89684544Y-56129679D01*
X89700000Y-56190144D01*
X89700000Y-71500000D01*
X90700000Y-72500000D01*
X117400000Y-72500000D01*
X118400000Y-71500000D01*
X118400000Y-66876000D01*
X118420002Y-66807879D01*
X118473658Y-66761386D01*
X118526000Y-66750000D01*
X120458812Y-66750000D01*
X120503041Y-66758018D01*
X120612282Y-66798971D01*
X120612288Y-66798973D01*
X120619684Y-66801745D01*
X120681866Y-66808500D01*
X122478134Y-66808500D01*
X122540316Y-66801745D01*
X122579771Y-66786954D01*
X122650577Y-66781771D01*
X122712946Y-66815691D01*
X122747075Y-66877946D01*
X122750000Y-66904936D01*
X122750000Y-77674000D01*
X122729998Y-77742121D01*
X122676342Y-77788614D01*
X122624000Y-77800000D01*
X85626000Y-77800000D01*
X85557879Y-77779998D01*
X85511386Y-77726342D01*
X85500000Y-77674000D01*
X85500000Y-50634500D01*
X85520002Y-50566379D01*
X85573658Y-50519886D01*
X85626000Y-50508500D01*
X91874000Y-50508500D01*
X91942121Y-50528502D01*
G37*
G04 #@! TD.AperFunction*
M02*
