G04 #@! TF.GenerationSoftware,KiCad,Pcbnew,(6.0.4)*
G04 #@! TF.CreationDate,2022-03-24T17:42:47+01:00*
G04 #@! TF.ProjectId,MT32pi-MiSTer,4d543332-7069-42d4-9d69-535465722e6b,rev?*
G04 #@! TF.SameCoordinates,Original*
G04 #@! TF.FileFunction,Soldermask,Top*
G04 #@! TF.FilePolarity,Negative*
%FSLAX46Y46*%
G04 Gerber Fmt 4.6, Leading zero omitted, Abs format (unit mm)*
G04 Created by KiCad (PCBNEW (6.0.4)) date 2022-03-24 17:42:47*
%MOMM*%
%LPD*%
G01*
G04 APERTURE LIST*
G04 Aperture macros list*
%AMRoundRect*
0 Rectangle with rounded corners*
0 $1 Rounding radius*
0 $2 $3 $4 $5 $6 $7 $8 $9 X,Y pos of 4 corners*
0 Add a 4 corners polygon primitive as box body*
4,1,4,$2,$3,$4,$5,$6,$7,$8,$9,$2,$3,0*
0 Add four circle primitives for the rounded corners*
1,1,$1+$1,$2,$3*
1,1,$1+$1,$4,$5*
1,1,$1+$1,$6,$7*
1,1,$1+$1,$8,$9*
0 Add four rect primitives between the rounded corners*
20,1,$1+$1,$2,$3,$4,$5,0*
20,1,$1+$1,$4,$5,$6,$7,0*
20,1,$1+$1,$6,$7,$8,$9,0*
20,1,$1+$1,$8,$9,$2,$3,0*%
G04 Aperture macros list end*
%ADD10C,2.700000*%
%ADD11R,1.700000X1.700000*%
%ADD12O,1.700000X1.700000*%
%ADD13RoundRect,0.250000X-0.450000X0.262500X-0.450000X-0.262500X0.450000X-0.262500X0.450000X0.262500X0*%
%ADD14RoundRect,0.250000X0.250000X0.475000X-0.250000X0.475000X-0.250000X-0.475000X0.250000X-0.475000X0*%
G04 APERTURE END LIST*
D10*
X83500000Y-53500000D03*
D11*
X88400000Y-54790000D03*
D12*
X88400000Y-52250000D03*
X90940000Y-54790000D03*
X90940000Y-52250000D03*
X93480000Y-54790000D03*
X93480000Y-52250000D03*
X96020000Y-54790000D03*
X96020000Y-52250000D03*
X98560000Y-54790000D03*
X98560000Y-52250000D03*
X101100000Y-54790000D03*
X101100000Y-52250000D03*
X103640000Y-54790000D03*
X103640000Y-52250000D03*
X106180000Y-54790000D03*
X106180000Y-52250000D03*
X108720000Y-54790000D03*
X108720000Y-52250000D03*
X111260000Y-54790000D03*
X111260000Y-52250000D03*
X113800000Y-54790000D03*
X113800000Y-52250000D03*
X116340000Y-54790000D03*
X116340000Y-52250000D03*
X118880000Y-54790000D03*
X118880000Y-52250000D03*
X121420000Y-54790000D03*
X121420000Y-52250000D03*
X123960000Y-54790000D03*
X123960000Y-52250000D03*
X126500000Y-54790000D03*
X126500000Y-52250000D03*
X129040000Y-54790000D03*
X129040000Y-52250000D03*
X131580000Y-54790000D03*
X131580000Y-52250000D03*
X134120000Y-54790000D03*
X134120000Y-52250000D03*
X136660000Y-54790000D03*
X136660000Y-52250000D03*
D10*
X83500000Y-76500000D03*
X141500000Y-53500000D03*
D11*
X121580000Y-65450000D03*
D12*
X121580000Y-67990000D03*
X124120000Y-65450000D03*
X124120000Y-67990000D03*
X126660000Y-65450000D03*
X126660000Y-67990000D03*
X129200000Y-65450000D03*
X129200000Y-67990000D03*
X131740000Y-65450000D03*
X131740000Y-67990000D03*
X134280000Y-65450000D03*
X134280000Y-67990000D03*
D10*
X141500000Y-76500000D03*
D13*
X94742000Y-58881000D03*
X94742000Y-60706000D03*
D14*
X119000000Y-67950000D03*
X117100000Y-67950000D03*
D13*
X99822000Y-58881000D03*
X99822000Y-60706000D03*
M02*
