%FSLAX45Y45*%
G04 Gerber Fmt 4.5, Leading zero omitted, Abs format (unit mm)*
G04 Created by KiCad (PCBNEW (6.0.4)) date 2022-03-24 17:42:50*
%MOMM*%
%LPD*%
G01*
G04 APERTURE LIST*
%TA.AperFunction,Profile*%
%ADD10C,0.100000*%
%TD*%
%ADD11C,0.200000*%
%ADD12C,0.040000*%
%ADD13C,0.100000*%
G04 APERTURE END LIST*
D10*
X8300000Y-8000000D02*
X9075000Y-8000000D01*
X14500000Y-5300000D02*
X14500000Y-7700000D01*
X13450000Y-8000000D02*
X14200000Y-8000000D01*
X9475000Y-8000000D02*
X11050000Y-8000000D01*
X8000000Y-7700000D02*
G75*
G03*
X8300000Y-8000000I300000J0D01*
G01*
X8000000Y-5300000D02*
X8000000Y-7700000D01*
X11450000Y-8000000D02*
X13050000Y-8000000D01*
X14500000Y-5300000D02*
G75*
G03*
X14200000Y-5000000I-300000J0D01*
G01*
X8300000Y-5000000D02*
G75*
G03*
X8000000Y-5300000I0J-300000D01*
G01*
X14200000Y-8000000D02*
G75*
G03*
X14500000Y-7700000I0J300000D01*
G01*
X8300000Y-5000000D02*
X14200000Y-5000000D01*
X11050000Y-8000000D02*
X11450000Y-8000000D01*
X13050000Y-8000000D02*
X13450000Y-8000000D01*
X9075000Y-8000000D02*
X9475000Y-8000000D01*
D11*
D12*
X8080000Y-5980000D02*
X8120000Y-6020000D01*
X8120000Y-5980000D02*
X8080000Y-6020000D01*
X8080000Y-6480000D02*
X8120000Y-6520000D01*
X8120000Y-6480000D02*
X8080000Y-6520000D01*
X8080000Y-6980000D02*
X8120000Y-7020000D01*
X8120000Y-6980000D02*
X8080000Y-7020000D01*
X8980000Y-7880000D02*
X9020000Y-7920000D01*
X9020000Y-7880000D02*
X8980000Y-7920000D01*
X9370000Y-6650000D02*
X9410000Y-6690000D01*
X9410000Y-6650000D02*
X9370000Y-6690000D01*
X9370000Y-6840000D02*
X9410000Y-6880000D01*
X9410000Y-6840000D02*
X9370000Y-6880000D01*
X9480000Y-7880000D02*
X9520000Y-7920000D01*
X9520000Y-7880000D02*
X9480000Y-7920000D01*
X9580000Y-5680000D02*
X9620000Y-5720000D01*
X9620000Y-5680000D02*
X9580000Y-5720000D01*
X9580000Y-6390000D02*
X9620000Y-6430000D01*
X9620000Y-6390000D02*
X9580000Y-6430000D01*
X9840000Y-5680000D02*
X9880000Y-5720000D01*
X9880000Y-5680000D02*
X9840000Y-5720000D01*
X9980000Y-7880000D02*
X10020000Y-7920000D01*
X10020000Y-7880000D02*
X9980000Y-7920000D01*
X10370000Y-6650000D02*
X10410000Y-6690000D01*
X10410000Y-6650000D02*
X10370000Y-6690000D01*
X10370000Y-6840000D02*
X10410000Y-6880000D01*
X10410000Y-6840000D02*
X10370000Y-6880000D01*
X10480000Y-7880000D02*
X10520000Y-7920000D01*
X10520000Y-7880000D02*
X10480000Y-7920000D01*
X10580000Y-6150000D02*
X10620000Y-6190000D01*
X10620000Y-6150000D02*
X10580000Y-6190000D01*
X10580000Y-6390000D02*
X10620000Y-6430000D01*
X10620000Y-6390000D02*
X10580000Y-6430000D01*
X10600000Y-5680000D02*
X10640000Y-5720000D01*
X10640000Y-5680000D02*
X10600000Y-5720000D01*
X10980000Y-7880000D02*
X11020000Y-7920000D01*
X11020000Y-7880000D02*
X10980000Y-7920000D01*
X11100000Y-5680000D02*
X11140000Y-5720000D01*
X11140000Y-5680000D02*
X11100000Y-5720000D01*
X11370000Y-6650000D02*
X11410000Y-6690000D01*
X11410000Y-6650000D02*
X11370000Y-6690000D01*
X11370000Y-6840000D02*
X11410000Y-6880000D01*
X11410000Y-6840000D02*
X11370000Y-6880000D01*
X11480000Y-7880000D02*
X11520000Y-7920000D01*
X11520000Y-7880000D02*
X11480000Y-7920000D01*
X11580000Y-6150000D02*
X11620000Y-6190000D01*
X11620000Y-6150000D02*
X11580000Y-6190000D01*
X11580000Y-6390000D02*
X11620000Y-6430000D01*
X11620000Y-6390000D02*
X11580000Y-6430000D01*
X11600000Y-5680000D02*
X11640000Y-5720000D01*
X11640000Y-5680000D02*
X11600000Y-5720000D01*
X11980000Y-7880000D02*
X12020000Y-7920000D01*
X12020000Y-7880000D02*
X11980000Y-7920000D01*
X11990000Y-6735000D02*
X12030000Y-6775000D01*
X12030000Y-6735000D02*
X11990000Y-6775000D01*
X11990000Y-6825000D02*
X12030000Y-6865000D01*
X12030000Y-6825000D02*
X11990000Y-6865000D01*
X12100000Y-5680000D02*
X12140000Y-5720000D01*
X12140000Y-5680000D02*
X12100000Y-5720000D01*
X12480000Y-7880000D02*
X12520000Y-7920000D01*
X12520000Y-7880000D02*
X12480000Y-7920000D01*
X12600000Y-5680000D02*
X12640000Y-5720000D01*
X12640000Y-5680000D02*
X12600000Y-5720000D01*
X12900000Y-6270000D02*
X12940000Y-6310000D01*
X12940000Y-6270000D02*
X12900000Y-6310000D01*
X12980000Y-7880000D02*
X13020000Y-7920000D01*
X13020000Y-7880000D02*
X12980000Y-7920000D01*
X13100000Y-5680000D02*
X13140000Y-5720000D01*
X13140000Y-5680000D02*
X13100000Y-5720000D01*
X13480000Y-7880000D02*
X13520000Y-7920000D01*
X13520000Y-7880000D02*
X13480000Y-7920000D01*
X13600000Y-5680000D02*
X13640000Y-5720000D01*
X13640000Y-5680000D02*
X13600000Y-5720000D01*
X13670000Y-5890000D02*
X13710000Y-5930000D01*
X13710000Y-5890000D02*
X13670000Y-5930000D01*
X13670000Y-6190000D02*
X13710000Y-6230000D01*
X13710000Y-6190000D02*
X13670000Y-6230000D01*
X13670000Y-6490000D02*
X13710000Y-6530000D01*
X13710000Y-6490000D02*
X13670000Y-6530000D01*
X13670000Y-6790000D02*
X13710000Y-6830000D01*
X13710000Y-6790000D02*
X13670000Y-6830000D01*
X14380000Y-5980000D02*
X14420000Y-6020000D01*
X14420000Y-5980000D02*
X14380000Y-6020000D01*
X14380000Y-6480000D02*
X14420000Y-6520000D01*
X14420000Y-6480000D02*
X14380000Y-6520000D01*
X14380000Y-6980000D02*
X14420000Y-7020000D01*
X14420000Y-6980000D02*
X14380000Y-7020000D01*
D13*
X8890000Y-5225000D02*
G75*
G03*
X8890000Y-5225000I-50000J0D01*
G01*
X8890000Y-5479000D02*
G75*
G03*
X8890000Y-5479000I-50000J0D01*
G01*
X9144000Y-5225000D02*
G75*
G03*
X9144000Y-5225000I-50000J0D01*
G01*
X9144000Y-5479000D02*
G75*
G03*
X9144000Y-5479000I-50000J0D01*
G01*
X9398000Y-5225000D02*
G75*
G03*
X9398000Y-5225000I-50000J0D01*
G01*
X9398000Y-5479000D02*
G75*
G03*
X9398000Y-5479000I-50000J0D01*
G01*
X9652000Y-5225000D02*
G75*
G03*
X9652000Y-5225000I-50000J0D01*
G01*
X9652000Y-5479000D02*
G75*
G03*
X9652000Y-5479000I-50000J0D01*
G01*
X9906000Y-5225000D02*
G75*
G03*
X9906000Y-5225000I-50000J0D01*
G01*
X9906000Y-5479000D02*
G75*
G03*
X9906000Y-5479000I-50000J0D01*
G01*
X10160000Y-5225000D02*
G75*
G03*
X10160000Y-5225000I-50000J0D01*
G01*
X10160000Y-5479000D02*
G75*
G03*
X10160000Y-5479000I-50000J0D01*
G01*
X10414000Y-5225000D02*
G75*
G03*
X10414000Y-5225000I-50000J0D01*
G01*
X10414000Y-5479000D02*
G75*
G03*
X10414000Y-5479000I-50000J0D01*
G01*
X10668000Y-5225000D02*
G75*
G03*
X10668000Y-5225000I-50000J0D01*
G01*
X10668000Y-5479000D02*
G75*
G03*
X10668000Y-5479000I-50000J0D01*
G01*
X10922000Y-5225000D02*
G75*
G03*
X10922000Y-5225000I-50000J0D01*
G01*
X10922000Y-5479000D02*
G75*
G03*
X10922000Y-5479000I-50000J0D01*
G01*
X11176000Y-5225000D02*
G75*
G03*
X11176000Y-5225000I-50000J0D01*
G01*
X11176000Y-5479000D02*
G75*
G03*
X11176000Y-5479000I-50000J0D01*
G01*
X11430000Y-5225000D02*
G75*
G03*
X11430000Y-5225000I-50000J0D01*
G01*
X11430000Y-5479000D02*
G75*
G03*
X11430000Y-5479000I-50000J0D01*
G01*
X11684000Y-5225000D02*
G75*
G03*
X11684000Y-5225000I-50000J0D01*
G01*
X11684000Y-5479000D02*
G75*
G03*
X11684000Y-5479000I-50000J0D01*
G01*
X11938000Y-5225000D02*
G75*
G03*
X11938000Y-5225000I-50000J0D01*
G01*
X11938000Y-5479000D02*
G75*
G03*
X11938000Y-5479000I-50000J0D01*
G01*
X12192000Y-5225000D02*
G75*
G03*
X12192000Y-5225000I-50000J0D01*
G01*
X12192000Y-5479000D02*
G75*
G03*
X12192000Y-5479000I-50000J0D01*
G01*
X12208000Y-6545000D02*
G75*
G03*
X12208000Y-6545000I-50000J0D01*
G01*
X12208000Y-6799000D02*
G75*
G03*
X12208000Y-6799000I-50000J0D01*
G01*
X12446000Y-5225000D02*
G75*
G03*
X12446000Y-5225000I-50000J0D01*
G01*
X12446000Y-5479000D02*
G75*
G03*
X12446000Y-5479000I-50000J0D01*
G01*
X12462000Y-6545000D02*
G75*
G03*
X12462000Y-6545000I-50000J0D01*
G01*
X12462000Y-6799000D02*
G75*
G03*
X12462000Y-6799000I-50000J0D01*
G01*
X12700000Y-5225000D02*
G75*
G03*
X12700000Y-5225000I-50000J0D01*
G01*
X12700000Y-5479000D02*
G75*
G03*
X12700000Y-5479000I-50000J0D01*
G01*
X12716000Y-6545000D02*
G75*
G03*
X12716000Y-6545000I-50000J0D01*
G01*
X12716000Y-6799000D02*
G75*
G03*
X12716000Y-6799000I-50000J0D01*
G01*
X12954000Y-5225000D02*
G75*
G03*
X12954000Y-5225000I-50000J0D01*
G01*
X12954000Y-5479000D02*
G75*
G03*
X12954000Y-5479000I-50000J0D01*
G01*
X12970000Y-6545000D02*
G75*
G03*
X12970000Y-6545000I-50000J0D01*
G01*
X12970000Y-6799000D02*
G75*
G03*
X12970000Y-6799000I-50000J0D01*
G01*
X13208000Y-5225000D02*
G75*
G03*
X13208000Y-5225000I-50000J0D01*
G01*
X13208000Y-5479000D02*
G75*
G03*
X13208000Y-5479000I-50000J0D01*
G01*
X13224000Y-6545000D02*
G75*
G03*
X13224000Y-6545000I-50000J0D01*
G01*
X13224000Y-6799000D02*
G75*
G03*
X13224000Y-6799000I-50000J0D01*
G01*
X13462000Y-5225000D02*
G75*
G03*
X13462000Y-5225000I-50000J0D01*
G01*
X13462000Y-5479000D02*
G75*
G03*
X13462000Y-5479000I-50000J0D01*
G01*
X13478000Y-6545000D02*
G75*
G03*
X13478000Y-6545000I-50000J0D01*
G01*
X13478000Y-6799000D02*
G75*
G03*
X13478000Y-6799000I-50000J0D01*
G01*
X13716000Y-5225000D02*
G75*
G03*
X13716000Y-5225000I-50000J0D01*
G01*
X13716000Y-5479000D02*
G75*
G03*
X13716000Y-5479000I-50000J0D01*
G01*
D11*
X8252619Y-8315476D02*
X8252619Y-8115476D01*
X8300238Y-8115476D01*
X8328809Y-8125000D01*
X8347857Y-8144048D01*
X8357381Y-8163095D01*
X8366905Y-8201190D01*
X8366905Y-8229762D01*
X8357381Y-8267857D01*
X8347857Y-8286905D01*
X8328809Y-8305952D01*
X8300238Y-8315476D01*
X8252619Y-8315476D01*
X8452619Y-8315476D02*
X8452619Y-8182143D01*
X8452619Y-8220238D02*
X8462143Y-8201190D01*
X8471667Y-8191667D01*
X8490714Y-8182143D01*
X8509762Y-8182143D01*
X8576429Y-8315476D02*
X8576429Y-8182143D01*
X8576429Y-8115476D02*
X8566905Y-8125000D01*
X8576429Y-8134524D01*
X8585952Y-8125000D01*
X8576429Y-8115476D01*
X8576429Y-8134524D01*
X8700238Y-8315476D02*
X8681190Y-8305952D01*
X8671667Y-8286905D01*
X8671667Y-8115476D01*
X8805000Y-8315476D02*
X8785952Y-8305952D01*
X8776429Y-8286905D01*
X8776429Y-8115476D01*
X9033571Y-8315476D02*
X9033571Y-8115476D01*
X9100238Y-8258333D01*
X9166905Y-8115476D01*
X9166905Y-8315476D01*
X9347857Y-8315476D02*
X9347857Y-8210714D01*
X9338333Y-8191667D01*
X9319286Y-8182143D01*
X9281190Y-8182143D01*
X9262143Y-8191667D01*
X9347857Y-8305952D02*
X9328810Y-8315476D01*
X9281190Y-8315476D01*
X9262143Y-8305952D01*
X9252619Y-8286905D01*
X9252619Y-8267857D01*
X9262143Y-8248809D01*
X9281190Y-8239286D01*
X9328810Y-8239286D01*
X9347857Y-8229762D01*
X9443095Y-8182143D02*
X9443095Y-8382143D01*
X9443095Y-8191667D02*
X9462143Y-8182143D01*
X9500238Y-8182143D01*
X9519286Y-8191667D01*
X9528810Y-8201190D01*
X9538333Y-8220238D01*
X9538333Y-8277381D01*
X9528810Y-8296428D01*
X9519286Y-8305952D01*
X9500238Y-8315476D01*
X9462143Y-8315476D01*
X9443095Y-8305952D01*
X9624048Y-8296428D02*
X9633571Y-8305952D01*
X9624048Y-8315476D01*
X9614524Y-8305952D01*
X9624048Y-8296428D01*
X9624048Y-8315476D01*
X9624048Y-8191667D02*
X9633571Y-8201190D01*
X9624048Y-8210714D01*
X9614524Y-8201190D01*
X9624048Y-8191667D01*
X9624048Y-8210714D01*
D12*
X7955000Y-8625000D02*
X7995000Y-8665000D01*
X7995000Y-8625000D02*
X7955000Y-8665000D01*
D11*
X8290714Y-8535476D02*
X8309762Y-8535476D01*
X8328809Y-8545000D01*
X8338333Y-8554524D01*
X8347857Y-8573571D01*
X8357381Y-8611667D01*
X8357381Y-8659286D01*
X8347857Y-8697381D01*
X8338333Y-8716429D01*
X8328809Y-8725952D01*
X8309762Y-8735476D01*
X8290714Y-8735476D01*
X8271667Y-8725952D01*
X8262143Y-8716429D01*
X8252619Y-8697381D01*
X8243095Y-8659286D01*
X8243095Y-8611667D01*
X8252619Y-8573571D01*
X8262143Y-8554524D01*
X8271667Y-8545000D01*
X8290714Y-8535476D01*
X8443095Y-8716429D02*
X8452619Y-8725952D01*
X8443095Y-8735476D01*
X8433571Y-8725952D01*
X8443095Y-8716429D01*
X8443095Y-8735476D01*
X8624048Y-8602143D02*
X8624048Y-8735476D01*
X8576429Y-8525952D02*
X8528810Y-8668810D01*
X8652619Y-8668810D01*
X8766905Y-8535476D02*
X8785952Y-8535476D01*
X8805000Y-8545000D01*
X8814524Y-8554524D01*
X8824048Y-8573571D01*
X8833571Y-8611667D01*
X8833571Y-8659286D01*
X8824048Y-8697381D01*
X8814524Y-8716429D01*
X8805000Y-8725952D01*
X8785952Y-8735476D01*
X8766905Y-8735476D01*
X8747857Y-8725952D01*
X8738333Y-8716429D01*
X8728810Y-8697381D01*
X8719286Y-8659286D01*
X8719286Y-8611667D01*
X8728810Y-8573571D01*
X8738333Y-8554524D01*
X8747857Y-8545000D01*
X8766905Y-8535476D01*
X8957381Y-8535476D02*
X8976429Y-8535476D01*
X8995476Y-8545000D01*
X9005000Y-8554524D01*
X9014524Y-8573571D01*
X9024048Y-8611667D01*
X9024048Y-8659286D01*
X9014524Y-8697381D01*
X9005000Y-8716429D01*
X8995476Y-8725952D01*
X8976429Y-8735476D01*
X8957381Y-8735476D01*
X8938333Y-8725952D01*
X8928810Y-8716429D01*
X8919286Y-8697381D01*
X8909762Y-8659286D01*
X8909762Y-8611667D01*
X8919286Y-8573571D01*
X8928810Y-8554524D01*
X8938333Y-8545000D01*
X8957381Y-8535476D01*
X9109762Y-8735476D02*
X9109762Y-8602143D01*
X9109762Y-8621190D02*
X9119286Y-8611667D01*
X9138333Y-8602143D01*
X9166905Y-8602143D01*
X9185952Y-8611667D01*
X9195476Y-8630714D01*
X9195476Y-8735476D01*
X9195476Y-8630714D02*
X9205000Y-8611667D01*
X9224048Y-8602143D01*
X9252619Y-8602143D01*
X9271667Y-8611667D01*
X9281190Y-8630714D01*
X9281190Y-8735476D01*
X9376429Y-8735476D02*
X9376429Y-8602143D01*
X9376429Y-8621190D02*
X9385952Y-8611667D01*
X9405000Y-8602143D01*
X9433571Y-8602143D01*
X9452619Y-8611667D01*
X9462143Y-8630714D01*
X9462143Y-8735476D01*
X9462143Y-8630714D02*
X9471667Y-8611667D01*
X9490714Y-8602143D01*
X9519286Y-8602143D01*
X9538333Y-8611667D01*
X9547857Y-8630714D01*
X9547857Y-8735476D01*
X9938333Y-8525952D02*
X9766905Y-8783095D01*
X10195476Y-8535476D02*
X10214524Y-8535476D01*
X10233571Y-8545000D01*
X10243095Y-8554524D01*
X10252619Y-8573571D01*
X10262143Y-8611667D01*
X10262143Y-8659286D01*
X10252619Y-8697381D01*
X10243095Y-8716429D01*
X10233571Y-8725952D01*
X10214524Y-8735476D01*
X10195476Y-8735476D01*
X10176429Y-8725952D01*
X10166905Y-8716429D01*
X10157381Y-8697381D01*
X10147857Y-8659286D01*
X10147857Y-8611667D01*
X10157381Y-8573571D01*
X10166905Y-8554524D01*
X10176429Y-8545000D01*
X10195476Y-8535476D01*
X10347857Y-8716429D02*
X10357381Y-8725952D01*
X10347857Y-8735476D01*
X10338333Y-8725952D01*
X10347857Y-8716429D01*
X10347857Y-8735476D01*
X10481190Y-8535476D02*
X10500238Y-8535476D01*
X10519286Y-8545000D01*
X10528810Y-8554524D01*
X10538333Y-8573571D01*
X10547857Y-8611667D01*
X10547857Y-8659286D01*
X10538333Y-8697381D01*
X10528810Y-8716429D01*
X10519286Y-8725952D01*
X10500238Y-8735476D01*
X10481190Y-8735476D01*
X10462143Y-8725952D01*
X10452619Y-8716429D01*
X10443095Y-8697381D01*
X10433571Y-8659286D01*
X10433571Y-8611667D01*
X10443095Y-8573571D01*
X10452619Y-8554524D01*
X10462143Y-8545000D01*
X10481190Y-8535476D01*
X10738333Y-8735476D02*
X10624048Y-8735476D01*
X10681190Y-8735476D02*
X10681190Y-8535476D01*
X10662143Y-8564048D01*
X10643095Y-8583095D01*
X10624048Y-8592619D01*
X10919286Y-8535476D02*
X10824048Y-8535476D01*
X10814524Y-8630714D01*
X10824048Y-8621190D01*
X10843095Y-8611667D01*
X10890714Y-8611667D01*
X10909762Y-8621190D01*
X10919286Y-8630714D01*
X10928810Y-8649762D01*
X10928810Y-8697381D01*
X10919286Y-8716429D01*
X10909762Y-8725952D01*
X10890714Y-8735476D01*
X10843095Y-8735476D01*
X10824048Y-8725952D01*
X10814524Y-8716429D01*
X10995476Y-8535476D02*
X11128810Y-8535476D01*
X11043095Y-8735476D01*
X11195476Y-8535476D02*
X11195476Y-8573571D01*
X11271667Y-8535476D02*
X11271667Y-8573571D01*
X11566905Y-8811667D02*
X11557381Y-8802143D01*
X11538333Y-8773571D01*
X11528809Y-8754524D01*
X11519286Y-8725952D01*
X11509762Y-8678333D01*
X11509762Y-8640238D01*
X11519286Y-8592619D01*
X11528809Y-8564048D01*
X11538333Y-8545000D01*
X11557381Y-8516429D01*
X11566905Y-8506905D01*
X11728809Y-8602143D02*
X11728809Y-8735476D01*
X11681190Y-8525952D02*
X11633571Y-8668810D01*
X11757381Y-8668810D01*
X11814524Y-8535476D02*
X11938333Y-8535476D01*
X11871667Y-8611667D01*
X11900238Y-8611667D01*
X11919286Y-8621190D01*
X11928809Y-8630714D01*
X11938333Y-8649762D01*
X11938333Y-8697381D01*
X11928809Y-8716429D01*
X11919286Y-8725952D01*
X11900238Y-8735476D01*
X11843095Y-8735476D01*
X11824048Y-8725952D01*
X11814524Y-8716429D01*
X12176428Y-8735476D02*
X12176428Y-8535476D01*
X12262143Y-8735476D02*
X12262143Y-8630714D01*
X12252619Y-8611667D01*
X12233571Y-8602143D01*
X12205000Y-8602143D01*
X12185952Y-8611667D01*
X12176428Y-8621190D01*
X12385952Y-8735476D02*
X12366905Y-8725952D01*
X12357381Y-8716429D01*
X12347857Y-8697381D01*
X12347857Y-8640238D01*
X12357381Y-8621190D01*
X12366905Y-8611667D01*
X12385952Y-8602143D01*
X12414524Y-8602143D01*
X12433571Y-8611667D01*
X12443095Y-8621190D01*
X12452619Y-8640238D01*
X12452619Y-8697381D01*
X12443095Y-8716429D01*
X12433571Y-8725952D01*
X12414524Y-8735476D01*
X12385952Y-8735476D01*
X12566905Y-8735476D02*
X12547857Y-8725952D01*
X12538333Y-8706905D01*
X12538333Y-8535476D01*
X12719286Y-8725952D02*
X12700238Y-8735476D01*
X12662143Y-8735476D01*
X12643095Y-8725952D01*
X12633571Y-8706905D01*
X12633571Y-8630714D01*
X12643095Y-8611667D01*
X12662143Y-8602143D01*
X12700238Y-8602143D01*
X12719286Y-8611667D01*
X12728809Y-8630714D01*
X12728809Y-8649762D01*
X12633571Y-8668810D01*
X12805000Y-8725952D02*
X12824048Y-8735476D01*
X12862143Y-8735476D01*
X12881190Y-8725952D01*
X12890714Y-8706905D01*
X12890714Y-8697381D01*
X12881190Y-8678333D01*
X12862143Y-8668810D01*
X12833571Y-8668810D01*
X12814524Y-8659286D01*
X12805000Y-8640238D01*
X12805000Y-8630714D01*
X12814524Y-8611667D01*
X12833571Y-8602143D01*
X12862143Y-8602143D01*
X12881190Y-8611667D01*
X12957381Y-8811667D02*
X12966905Y-8802143D01*
X12985952Y-8773571D01*
X12995476Y-8754524D01*
X13005000Y-8725952D01*
X13014524Y-8678333D01*
X13014524Y-8640238D01*
X13005000Y-8592619D01*
X12995476Y-8564048D01*
X12985952Y-8545000D01*
X12966905Y-8516429D01*
X12957381Y-8506905D01*
D13*
X7995000Y-8909000D02*
G75*
G03*
X7995000Y-8909000I-50000J0D01*
G01*
D11*
X8357381Y-8999476D02*
X8243095Y-8999476D01*
X8300238Y-8999476D02*
X8300238Y-8799476D01*
X8281190Y-8828048D01*
X8262143Y-8847095D01*
X8243095Y-8856619D01*
X8443095Y-8980429D02*
X8452619Y-8989952D01*
X8443095Y-8999476D01*
X8433571Y-8989952D01*
X8443095Y-8980429D01*
X8443095Y-8999476D01*
X8576429Y-8799476D02*
X8595476Y-8799476D01*
X8614524Y-8809000D01*
X8624048Y-8818524D01*
X8633571Y-8837571D01*
X8643095Y-8875667D01*
X8643095Y-8923286D01*
X8633571Y-8961381D01*
X8624048Y-8980429D01*
X8614524Y-8989952D01*
X8595476Y-8999476D01*
X8576429Y-8999476D01*
X8557381Y-8989952D01*
X8547857Y-8980429D01*
X8538333Y-8961381D01*
X8528810Y-8923286D01*
X8528810Y-8875667D01*
X8538333Y-8837571D01*
X8547857Y-8818524D01*
X8557381Y-8809000D01*
X8576429Y-8799476D01*
X8766905Y-8799476D02*
X8785952Y-8799476D01*
X8805000Y-8809000D01*
X8814524Y-8818524D01*
X8824048Y-8837571D01*
X8833571Y-8875667D01*
X8833571Y-8923286D01*
X8824048Y-8961381D01*
X8814524Y-8980429D01*
X8805000Y-8989952D01*
X8785952Y-8999476D01*
X8766905Y-8999476D01*
X8747857Y-8989952D01*
X8738333Y-8980429D01*
X8728810Y-8961381D01*
X8719286Y-8923286D01*
X8719286Y-8875667D01*
X8728810Y-8837571D01*
X8738333Y-8818524D01*
X8747857Y-8809000D01*
X8766905Y-8799476D01*
X8957381Y-8799476D02*
X8976429Y-8799476D01*
X8995476Y-8809000D01*
X9005000Y-8818524D01*
X9014524Y-8837571D01*
X9024048Y-8875667D01*
X9024048Y-8923286D01*
X9014524Y-8961381D01*
X9005000Y-8980429D01*
X8995476Y-8989952D01*
X8976429Y-8999476D01*
X8957381Y-8999476D01*
X8938333Y-8989952D01*
X8928810Y-8980429D01*
X8919286Y-8961381D01*
X8909762Y-8923286D01*
X8909762Y-8875667D01*
X8919286Y-8837571D01*
X8928810Y-8818524D01*
X8938333Y-8809000D01*
X8957381Y-8799476D01*
X9109762Y-8999476D02*
X9109762Y-8866143D01*
X9109762Y-8885190D02*
X9119286Y-8875667D01*
X9138333Y-8866143D01*
X9166905Y-8866143D01*
X9185952Y-8875667D01*
X9195476Y-8894714D01*
X9195476Y-8999476D01*
X9195476Y-8894714D02*
X9205000Y-8875667D01*
X9224048Y-8866143D01*
X9252619Y-8866143D01*
X9271667Y-8875667D01*
X9281190Y-8894714D01*
X9281190Y-8999476D01*
X9376429Y-8999476D02*
X9376429Y-8866143D01*
X9376429Y-8885190D02*
X9385952Y-8875667D01*
X9405000Y-8866143D01*
X9433571Y-8866143D01*
X9452619Y-8875667D01*
X9462143Y-8894714D01*
X9462143Y-8999476D01*
X9462143Y-8894714D02*
X9471667Y-8875667D01*
X9490714Y-8866143D01*
X9519286Y-8866143D01*
X9538333Y-8875667D01*
X9547857Y-8894714D01*
X9547857Y-8999476D01*
X9938333Y-8789952D02*
X9766905Y-9047095D01*
X10195476Y-8799476D02*
X10214524Y-8799476D01*
X10233571Y-8809000D01*
X10243095Y-8818524D01*
X10252619Y-8837571D01*
X10262143Y-8875667D01*
X10262143Y-8923286D01*
X10252619Y-8961381D01*
X10243095Y-8980429D01*
X10233571Y-8989952D01*
X10214524Y-8999476D01*
X10195476Y-8999476D01*
X10176429Y-8989952D01*
X10166905Y-8980429D01*
X10157381Y-8961381D01*
X10147857Y-8923286D01*
X10147857Y-8875667D01*
X10157381Y-8837571D01*
X10166905Y-8818524D01*
X10176429Y-8809000D01*
X10195476Y-8799476D01*
X10347857Y-8980429D02*
X10357381Y-8989952D01*
X10347857Y-8999476D01*
X10338333Y-8989952D01*
X10347857Y-8980429D01*
X10347857Y-8999476D01*
X10481190Y-8799476D02*
X10500238Y-8799476D01*
X10519286Y-8809000D01*
X10528810Y-8818524D01*
X10538333Y-8837571D01*
X10547857Y-8875667D01*
X10547857Y-8923286D01*
X10538333Y-8961381D01*
X10528810Y-8980429D01*
X10519286Y-8989952D01*
X10500238Y-8999476D01*
X10481190Y-8999476D01*
X10462143Y-8989952D01*
X10452619Y-8980429D01*
X10443095Y-8961381D01*
X10433571Y-8923286D01*
X10433571Y-8875667D01*
X10443095Y-8837571D01*
X10452619Y-8818524D01*
X10462143Y-8809000D01*
X10481190Y-8799476D01*
X10614524Y-8799476D02*
X10738333Y-8799476D01*
X10671667Y-8875667D01*
X10700238Y-8875667D01*
X10719286Y-8885190D01*
X10728810Y-8894714D01*
X10738333Y-8913762D01*
X10738333Y-8961381D01*
X10728810Y-8980429D01*
X10719286Y-8989952D01*
X10700238Y-8999476D01*
X10643095Y-8999476D01*
X10624048Y-8989952D01*
X10614524Y-8980429D01*
X10833571Y-8999476D02*
X10871667Y-8999476D01*
X10890714Y-8989952D01*
X10900238Y-8980429D01*
X10919286Y-8951857D01*
X10928810Y-8913762D01*
X10928810Y-8837571D01*
X10919286Y-8818524D01*
X10909762Y-8809000D01*
X10890714Y-8799476D01*
X10852619Y-8799476D01*
X10833571Y-8809000D01*
X10824048Y-8818524D01*
X10814524Y-8837571D01*
X10814524Y-8885190D01*
X10824048Y-8904238D01*
X10833571Y-8913762D01*
X10852619Y-8923286D01*
X10890714Y-8923286D01*
X10909762Y-8913762D01*
X10919286Y-8904238D01*
X10928810Y-8885190D01*
X11100238Y-8866143D02*
X11100238Y-8999476D01*
X11052619Y-8789952D02*
X11005000Y-8932810D01*
X11128810Y-8932810D01*
X11195476Y-8799476D02*
X11195476Y-8837571D01*
X11271667Y-8799476D02*
X11271667Y-8837571D01*
X11566905Y-9075667D02*
X11557381Y-9066143D01*
X11538333Y-9037571D01*
X11528809Y-9018524D01*
X11519286Y-8989952D01*
X11509762Y-8942333D01*
X11509762Y-8904238D01*
X11519286Y-8856619D01*
X11528809Y-8828048D01*
X11538333Y-8809000D01*
X11557381Y-8780429D01*
X11566905Y-8770905D01*
X11738333Y-8799476D02*
X11643095Y-8799476D01*
X11633571Y-8894714D01*
X11643095Y-8885190D01*
X11662143Y-8875667D01*
X11709762Y-8875667D01*
X11728809Y-8885190D01*
X11738333Y-8894714D01*
X11747857Y-8913762D01*
X11747857Y-8961381D01*
X11738333Y-8980429D01*
X11728809Y-8989952D01*
X11709762Y-8999476D01*
X11662143Y-8999476D01*
X11643095Y-8989952D01*
X11633571Y-8980429D01*
X11824048Y-8818524D02*
X11833571Y-8809000D01*
X11852619Y-8799476D01*
X11900238Y-8799476D01*
X11919286Y-8809000D01*
X11928809Y-8818524D01*
X11938333Y-8837571D01*
X11938333Y-8856619D01*
X11928809Y-8885190D01*
X11814524Y-8999476D01*
X11938333Y-8999476D01*
X12176428Y-8999476D02*
X12176428Y-8799476D01*
X12262143Y-8999476D02*
X12262143Y-8894714D01*
X12252619Y-8875667D01*
X12233571Y-8866143D01*
X12205000Y-8866143D01*
X12185952Y-8875667D01*
X12176428Y-8885190D01*
X12385952Y-8999476D02*
X12366905Y-8989952D01*
X12357381Y-8980429D01*
X12347857Y-8961381D01*
X12347857Y-8904238D01*
X12357381Y-8885190D01*
X12366905Y-8875667D01*
X12385952Y-8866143D01*
X12414524Y-8866143D01*
X12433571Y-8875667D01*
X12443095Y-8885190D01*
X12452619Y-8904238D01*
X12452619Y-8961381D01*
X12443095Y-8980429D01*
X12433571Y-8989952D01*
X12414524Y-8999476D01*
X12385952Y-8999476D01*
X12566905Y-8999476D02*
X12547857Y-8989952D01*
X12538333Y-8970905D01*
X12538333Y-8799476D01*
X12719286Y-8989952D02*
X12700238Y-8999476D01*
X12662143Y-8999476D01*
X12643095Y-8989952D01*
X12633571Y-8970905D01*
X12633571Y-8894714D01*
X12643095Y-8875667D01*
X12662143Y-8866143D01*
X12700238Y-8866143D01*
X12719286Y-8875667D01*
X12728809Y-8894714D01*
X12728809Y-8913762D01*
X12633571Y-8932810D01*
X12805000Y-8989952D02*
X12824048Y-8999476D01*
X12862143Y-8999476D01*
X12881190Y-8989952D01*
X12890714Y-8970905D01*
X12890714Y-8961381D01*
X12881190Y-8942333D01*
X12862143Y-8932810D01*
X12833571Y-8932810D01*
X12814524Y-8923286D01*
X12805000Y-8904238D01*
X12805000Y-8894714D01*
X12814524Y-8875667D01*
X12833571Y-8866143D01*
X12862143Y-8866143D01*
X12881190Y-8875667D01*
X12957381Y-9075667D02*
X12966905Y-9066143D01*
X12985952Y-9037571D01*
X12995476Y-9018524D01*
X13005000Y-8989952D01*
X13014524Y-8942333D01*
X13014524Y-8904238D01*
X13005000Y-8856619D01*
X12995476Y-8828048D01*
X12985952Y-8809000D01*
X12966905Y-8780429D01*
X12957381Y-8770905D01*
M02*
