G04 #@! TF.GenerationSoftware,KiCad,Pcbnew,(6.0.4)*
G04 #@! TF.CreationDate,2022-03-24T17:42:47+01:00*
G04 #@! TF.ProjectId,MT32pi-MiSTer,4d543332-7069-42d4-9d69-535465722e6b,rev?*
G04 #@! TF.SameCoordinates,Original*
G04 #@! TF.FileFunction,Copper,L1,Top*
G04 #@! TF.FilePolarity,Positive*
%FSLAX46Y46*%
G04 Gerber Fmt 4.6, Leading zero omitted, Abs format (unit mm)*
G04 Created by KiCad (PCBNEW (6.0.4)) date 2022-03-24 17:42:47*
%MOMM*%
%LPD*%
G01*
G04 APERTURE LIST*
G04 Aperture macros list*
%AMRoundRect*
0 Rectangle with rounded corners*
0 $1 Rounding radius*
0 $2 $3 $4 $5 $6 $7 $8 $9 X,Y pos of 4 corners*
0 Add a 4 corners polygon primitive as box body*
4,1,4,$2,$3,$4,$5,$6,$7,$8,$9,$2,$3,0*
0 Add four circle primitives for the rounded corners*
1,1,$1+$1,$2,$3*
1,1,$1+$1,$4,$5*
1,1,$1+$1,$6,$7*
1,1,$1+$1,$8,$9*
0 Add four rect primitives between the rounded corners*
20,1,$1+$1,$2,$3,$4,$5,0*
20,1,$1+$1,$4,$5,$6,$7,0*
20,1,$1+$1,$6,$7,$8,$9,0*
20,1,$1+$1,$8,$9,$2,$3,0*%
G04 Aperture macros list end*
G04 #@! TA.AperFunction,ComponentPad*
%ADD10R,1.700000X1.700000*%
G04 #@! TD*
G04 #@! TA.AperFunction,ComponentPad*
%ADD11O,1.700000X1.700000*%
G04 #@! TD*
G04 #@! TA.AperFunction,SMDPad,CuDef*
%ADD12RoundRect,0.250000X-0.450000X0.262500X-0.450000X-0.262500X0.450000X-0.262500X0.450000X0.262500X0*%
G04 #@! TD*
G04 #@! TA.AperFunction,SMDPad,CuDef*
%ADD13RoundRect,0.250000X0.250000X0.475000X-0.250000X0.475000X-0.250000X-0.475000X0.250000X-0.475000X0*%
G04 #@! TD*
G04 #@! TA.AperFunction,ViaPad*
%ADD14C,0.800000*%
G04 #@! TD*
G04 #@! TA.AperFunction,Conductor*
%ADD15C,0.250000*%
G04 #@! TD*
G04 APERTURE END LIST*
D10*
X88400000Y-54790000D03*
D11*
X88400000Y-52250000D03*
X90940000Y-54790000D03*
X90940000Y-52250000D03*
X93480000Y-54790000D03*
X93480000Y-52250000D03*
X96020000Y-54790000D03*
X96020000Y-52250000D03*
X98560000Y-54790000D03*
X98560000Y-52250000D03*
X101100000Y-54790000D03*
X101100000Y-52250000D03*
X103640000Y-54790000D03*
X103640000Y-52250000D03*
X106180000Y-54790000D03*
X106180000Y-52250000D03*
X108720000Y-54790000D03*
X108720000Y-52250000D03*
X111260000Y-54790000D03*
X111260000Y-52250000D03*
X113800000Y-54790000D03*
X113800000Y-52250000D03*
X116340000Y-54790000D03*
X116340000Y-52250000D03*
X118880000Y-54790000D03*
X118880000Y-52250000D03*
X121420000Y-54790000D03*
X121420000Y-52250000D03*
X123960000Y-54790000D03*
X123960000Y-52250000D03*
X126500000Y-54790000D03*
X126500000Y-52250000D03*
X129040000Y-54790000D03*
X129040000Y-52250000D03*
X131580000Y-54790000D03*
X131580000Y-52250000D03*
X134120000Y-54790000D03*
X134120000Y-52250000D03*
X136660000Y-54790000D03*
X136660000Y-52250000D03*
D10*
X121580000Y-65450000D03*
D11*
X121580000Y-67990000D03*
X124120000Y-65450000D03*
X124120000Y-67990000D03*
X126660000Y-65450000D03*
X126660000Y-67990000D03*
X129200000Y-65450000D03*
X129200000Y-67990000D03*
X131740000Y-65450000D03*
X131740000Y-67990000D03*
X134280000Y-65450000D03*
X134280000Y-67990000D03*
D12*
X94742000Y-58881000D03*
X94742000Y-60706000D03*
D13*
X119000000Y-67950000D03*
X117100000Y-67950000D03*
D12*
X99822000Y-58881000D03*
X99822000Y-60706000D03*
D14*
X120100000Y-68450000D03*
X120100000Y-67550000D03*
X116000000Y-61700000D03*
X81000000Y-70000000D03*
X81000000Y-65000000D03*
X130000000Y-79000000D03*
X129200000Y-62900000D03*
X93900000Y-66700000D03*
X100000000Y-79000000D03*
X136900000Y-65100000D03*
X106000000Y-61700000D03*
X144000000Y-60000000D03*
X116000000Y-64100000D03*
X113900000Y-68600000D03*
X136900000Y-62100000D03*
X126200000Y-57000000D03*
X90000000Y-79000000D03*
X136200000Y-57000000D03*
X113900000Y-66700000D03*
X116200000Y-57000000D03*
X125000000Y-79000000D03*
X120000000Y-79000000D03*
X111200000Y-57000000D03*
X121200000Y-57000000D03*
X103900000Y-66700000D03*
X81000000Y-60000000D03*
X106000000Y-64100000D03*
X95000000Y-79000000D03*
X115000000Y-79000000D03*
X136900000Y-68100000D03*
X93900000Y-68600000D03*
X144000000Y-65000000D03*
X105000000Y-79000000D03*
X131200000Y-57000000D03*
X110000000Y-79000000D03*
X98600000Y-57000000D03*
X144000000Y-70000000D03*
X96000000Y-57000000D03*
X135000000Y-79000000D03*
X103900000Y-68600000D03*
X136900000Y-59100000D03*
X96000000Y-64100000D03*
X106200000Y-57000000D03*
D15*
X96020000Y-52250000D02*
X94742000Y-53528000D01*
X101100000Y-52250000D02*
X99822000Y-53528000D01*
X91694000Y-71374000D02*
X90932000Y-70612000D01*
X128270000Y-71374000D02*
X91694000Y-71374000D01*
X129200000Y-67990000D02*
X129200000Y-70444000D01*
X90940000Y-64000000D02*
X90940000Y-54790000D01*
X90932000Y-70612000D02*
X90932000Y-64008000D01*
X94742000Y-53528000D02*
X94742000Y-58881000D01*
X99822000Y-53528000D02*
X99822000Y-58881000D01*
X127889000Y-68961000D02*
X127000000Y-69850000D01*
X101854000Y-59182000D02*
X133432000Y-59182000D01*
X127889000Y-66761000D02*
X127889000Y-68961000D01*
X125730000Y-62738000D02*
X98044000Y-62738000D01*
X129200000Y-65450000D02*
X127889000Y-66761000D01*
X133432000Y-59182000D02*
X134280000Y-60030000D01*
X131740000Y-61636000D02*
X130810000Y-60706000D01*
X92710000Y-56896000D02*
X93480000Y-56126000D01*
X134280000Y-60030000D02*
X134280000Y-65450000D01*
X127000000Y-69850000D02*
X93472000Y-69850000D01*
X135636000Y-59182000D02*
X135636000Y-66634000D01*
X126660000Y-63668000D02*
X125730000Y-62738000D01*
X97282000Y-53528000D02*
X98560000Y-52250000D01*
X134874000Y-58420000D02*
X135636000Y-59182000D01*
X126660000Y-65450000D02*
X126660000Y-63668000D01*
X129200000Y-70444000D02*
X128270000Y-71374000D01*
X101100000Y-58428000D02*
X101854000Y-59182000D01*
X92710000Y-69088000D02*
X92710000Y-56896000D01*
X97282000Y-61976000D02*
X97282000Y-53528000D01*
X93472000Y-69850000D02*
X92710000Y-69088000D01*
X95676000Y-65450000D02*
X94742000Y-64516000D01*
X104394000Y-58420000D02*
X134874000Y-58420000D01*
X90932000Y-64008000D02*
X90940000Y-64000000D01*
X135636000Y-66634000D02*
X134280000Y-67990000D01*
X103640000Y-57666000D02*
X104394000Y-58420000D01*
X121580000Y-65450000D02*
X95676000Y-65450000D01*
X131740000Y-65450000D02*
X131740000Y-61636000D01*
X94742000Y-64516000D02*
X94742000Y-60706000D01*
X130810000Y-60706000D02*
X99822000Y-60706000D01*
X101100000Y-54790000D02*
X101100000Y-58428000D01*
X103640000Y-54790000D02*
X103640000Y-57666000D01*
X93480000Y-56126000D02*
X93480000Y-54790000D01*
X98044000Y-62738000D02*
X97282000Y-61976000D01*
G04 #@! TA.AperFunction,Conductor*
G36*
X120503041Y-66758018D02*
G01*
X120612282Y-66798971D01*
X120612288Y-66798973D01*
X120619684Y-66801745D01*
X120681866Y-66808500D01*
X122478134Y-66808500D01*
X122540316Y-66801745D01*
X122579771Y-66786954D01*
X122650577Y-66781771D01*
X122712946Y-66815691D01*
X122747075Y-66877946D01*
X122750000Y-66904936D01*
X122750000Y-69024000D01*
X122729998Y-69092121D01*
X122676342Y-69138614D01*
X122624000Y-69150000D01*
X118526000Y-69150000D01*
X118457879Y-69129998D01*
X118411386Y-69076342D01*
X118400000Y-69024000D01*
X118400000Y-66876000D01*
X118420002Y-66807879D01*
X118473658Y-66761386D01*
X118526000Y-66750000D01*
X120458812Y-66750000D01*
X120503041Y-66758018D01*
G37*
G04 #@! TD.AperFunction*
G04 #@! TA.AperFunction,Conductor*
G36*
X141970018Y-50510000D02*
G01*
X141984851Y-50512310D01*
X141984855Y-50512310D01*
X141993724Y-50513691D01*
X142010923Y-50511442D01*
X142034863Y-50510609D01*
X142292710Y-50526206D01*
X142307814Y-50528040D01*
X142379786Y-50541229D01*
X142588760Y-50579525D01*
X142603526Y-50583164D01*
X142876231Y-50668142D01*
X142890445Y-50673534D01*
X143108223Y-50771547D01*
X143150906Y-50790757D01*
X143164379Y-50797828D01*
X143408813Y-50945595D01*
X143421334Y-50954238D01*
X143646171Y-51130385D01*
X143657560Y-51140475D01*
X143859525Y-51342440D01*
X143869615Y-51353829D01*
X144045762Y-51578666D01*
X144054405Y-51591187D01*
X144128171Y-51713209D01*
X144187873Y-51811967D01*
X144202172Y-51835621D01*
X144209242Y-51849092D01*
X144326466Y-52109555D01*
X144331858Y-52123769D01*
X144416836Y-52396473D01*
X144420475Y-52411240D01*
X144444625Y-52543023D01*
X144471960Y-52692186D01*
X144473794Y-52707290D01*
X144488953Y-52957904D01*
X144487692Y-52984716D01*
X144487690Y-52984852D01*
X144486309Y-52993724D01*
X144487473Y-53002626D01*
X144487473Y-53002628D01*
X144490436Y-53025283D01*
X144491500Y-53041621D01*
X144491500Y-76950633D01*
X144490000Y-76970018D01*
X144487690Y-76984851D01*
X144487690Y-76984855D01*
X144486309Y-76993724D01*
X144488558Y-77010919D01*
X144489391Y-77034863D01*
X144473794Y-77292710D01*
X144471960Y-77307814D01*
X144465272Y-77344308D01*
X144425921Y-77559049D01*
X144420477Y-77588754D01*
X144416836Y-77603526D01*
X144365198Y-77769240D01*
X144331859Y-77876227D01*
X144326466Y-77890445D01*
X144231538Y-78101369D01*
X144209243Y-78150906D01*
X144202173Y-78164378D01*
X144186532Y-78190250D01*
X144054405Y-78408813D01*
X144045762Y-78421334D01*
X143869615Y-78646171D01*
X143859525Y-78657560D01*
X143657560Y-78859525D01*
X143646171Y-78869615D01*
X143421334Y-79045762D01*
X143408813Y-79054405D01*
X143164379Y-79202172D01*
X143150908Y-79209242D01*
X142890445Y-79326466D01*
X142876231Y-79331858D01*
X142603527Y-79416836D01*
X142588760Y-79420475D01*
X142379786Y-79458771D01*
X142307814Y-79471960D01*
X142292710Y-79473794D01*
X142042096Y-79488953D01*
X142015284Y-79487692D01*
X142015148Y-79487690D01*
X142006276Y-79486309D01*
X141997374Y-79487473D01*
X141997372Y-79487473D01*
X141982707Y-79489391D01*
X141974714Y-79490436D01*
X141958379Y-79491500D01*
X83049367Y-79491500D01*
X83029982Y-79490000D01*
X83015149Y-79487690D01*
X83015145Y-79487690D01*
X83006276Y-79486309D01*
X82989077Y-79488558D01*
X82965137Y-79489391D01*
X82707290Y-79473794D01*
X82692186Y-79471960D01*
X82620214Y-79458771D01*
X82411240Y-79420475D01*
X82396473Y-79416836D01*
X82123769Y-79331858D01*
X82109555Y-79326466D01*
X81849092Y-79209242D01*
X81835621Y-79202172D01*
X81591187Y-79054405D01*
X81578666Y-79045762D01*
X81353829Y-78869615D01*
X81342440Y-78859525D01*
X81140475Y-78657560D01*
X81130385Y-78646171D01*
X80954238Y-78421334D01*
X80945595Y-78408813D01*
X80813468Y-78190250D01*
X80797827Y-78164378D01*
X80790757Y-78150906D01*
X80768462Y-78101369D01*
X80673534Y-77890445D01*
X80668141Y-77876227D01*
X80634803Y-77769240D01*
X80583164Y-77603526D01*
X80579523Y-77588754D01*
X80574080Y-77559049D01*
X80534728Y-77344308D01*
X80528040Y-77307814D01*
X80526206Y-77292710D01*
X80511269Y-77045768D01*
X80512520Y-77022216D01*
X80512334Y-77022199D01*
X80512769Y-77017350D01*
X80513576Y-77012552D01*
X80513729Y-77000000D01*
X80509773Y-76972376D01*
X80508500Y-76954514D01*
X80508500Y-76542277D01*
X81637009Y-76542277D01*
X81662625Y-76810769D01*
X81663710Y-76815203D01*
X81663711Y-76815209D01*
X81710811Y-77007690D01*
X81726731Y-77072750D01*
X81827985Y-77322733D01*
X81964265Y-77555482D01*
X81996872Y-77596255D01*
X82084686Y-77706060D01*
X82132716Y-77766119D01*
X82329809Y-77950234D01*
X82551416Y-78103968D01*
X82555499Y-78105999D01*
X82555502Y-78106001D01*
X82659740Y-78157858D01*
X82792894Y-78224101D01*
X82797228Y-78225522D01*
X82797231Y-78225523D01*
X83044853Y-78306698D01*
X83044859Y-78306699D01*
X83049186Y-78308118D01*
X83053677Y-78308898D01*
X83053678Y-78308898D01*
X83311140Y-78353601D01*
X83311148Y-78353602D01*
X83314921Y-78354257D01*
X83318758Y-78354448D01*
X83398578Y-78358422D01*
X83398586Y-78358422D01*
X83400149Y-78358500D01*
X83568512Y-78358500D01*
X83570780Y-78358335D01*
X83570792Y-78358335D01*
X83701884Y-78348823D01*
X83769004Y-78343953D01*
X83773459Y-78342969D01*
X83773462Y-78342969D01*
X84027912Y-78286791D01*
X84027916Y-78286790D01*
X84032372Y-78285806D01*
X84158480Y-78238028D01*
X84280318Y-78191868D01*
X84280321Y-78191867D01*
X84284588Y-78190250D01*
X84520368Y-78059286D01*
X84734773Y-77895657D01*
X84739860Y-77890454D01*
X84920117Y-77706060D01*
X84923312Y-77702792D01*
X85082034Y-77484730D01*
X85134521Y-77384969D01*
X85205490Y-77250079D01*
X85205493Y-77250073D01*
X85207615Y-77246039D01*
X85270378Y-77068312D01*
X85295902Y-76996033D01*
X85295902Y-76996032D01*
X85297425Y-76991720D01*
X85349581Y-76727100D01*
X85358782Y-76542277D01*
X139637009Y-76542277D01*
X139662625Y-76810769D01*
X139663710Y-76815203D01*
X139663711Y-76815209D01*
X139710811Y-77007690D01*
X139726731Y-77072750D01*
X139827985Y-77322733D01*
X139964265Y-77555482D01*
X139996872Y-77596255D01*
X140084686Y-77706060D01*
X140132716Y-77766119D01*
X140329809Y-77950234D01*
X140551416Y-78103968D01*
X140555499Y-78105999D01*
X140555502Y-78106001D01*
X140659740Y-78157858D01*
X140792894Y-78224101D01*
X140797228Y-78225522D01*
X140797231Y-78225523D01*
X141044853Y-78306698D01*
X141044859Y-78306699D01*
X141049186Y-78308118D01*
X141053677Y-78308898D01*
X141053678Y-78308898D01*
X141311140Y-78353601D01*
X141311148Y-78353602D01*
X141314921Y-78354257D01*
X141318758Y-78354448D01*
X141398578Y-78358422D01*
X141398586Y-78358422D01*
X141400149Y-78358500D01*
X141568512Y-78358500D01*
X141570780Y-78358335D01*
X141570792Y-78358335D01*
X141701884Y-78348823D01*
X141769004Y-78343953D01*
X141773459Y-78342969D01*
X141773462Y-78342969D01*
X142027912Y-78286791D01*
X142027916Y-78286790D01*
X142032372Y-78285806D01*
X142158480Y-78238028D01*
X142280318Y-78191868D01*
X142280321Y-78191867D01*
X142284588Y-78190250D01*
X142520368Y-78059286D01*
X142734773Y-77895657D01*
X142739860Y-77890454D01*
X142920117Y-77706060D01*
X142923312Y-77702792D01*
X143082034Y-77484730D01*
X143134521Y-77384969D01*
X143205490Y-77250079D01*
X143205493Y-77250073D01*
X143207615Y-77246039D01*
X143270378Y-77068312D01*
X143295902Y-76996033D01*
X143295902Y-76996032D01*
X143297425Y-76991720D01*
X143349581Y-76727100D01*
X143358782Y-76542277D01*
X143362764Y-76462292D01*
X143362764Y-76462286D01*
X143362991Y-76457723D01*
X143337375Y-76189231D01*
X143292042Y-76003967D01*
X143274355Y-75931688D01*
X143273269Y-75927250D01*
X143172015Y-75677267D01*
X143035735Y-75444518D01*
X142917928Y-75297208D01*
X142870136Y-75237447D01*
X142870135Y-75237445D01*
X142867284Y-75233881D01*
X142670191Y-75049766D01*
X142448584Y-74896032D01*
X142444501Y-74894001D01*
X142444498Y-74893999D01*
X142279606Y-74811967D01*
X142207106Y-74775899D01*
X142202772Y-74774478D01*
X142202769Y-74774477D01*
X141955147Y-74693302D01*
X141955141Y-74693301D01*
X141950814Y-74691882D01*
X141946322Y-74691102D01*
X141688860Y-74646399D01*
X141688852Y-74646398D01*
X141685079Y-74645743D01*
X141673817Y-74645182D01*
X141601422Y-74641578D01*
X141601414Y-74641578D01*
X141599851Y-74641500D01*
X141431488Y-74641500D01*
X141429220Y-74641665D01*
X141429208Y-74641665D01*
X141298116Y-74651177D01*
X141230996Y-74656047D01*
X141226541Y-74657031D01*
X141226538Y-74657031D01*
X140972088Y-74713209D01*
X140972084Y-74713210D01*
X140967628Y-74714194D01*
X140841520Y-74761972D01*
X140719682Y-74808132D01*
X140719679Y-74808133D01*
X140715412Y-74809750D01*
X140479632Y-74940714D01*
X140265227Y-75104343D01*
X140076688Y-75297208D01*
X139917966Y-75515270D01*
X139915844Y-75519304D01*
X139794510Y-75749921D01*
X139794507Y-75749927D01*
X139792385Y-75753961D01*
X139790865Y-75758266D01*
X139790863Y-75758270D01*
X139704098Y-76003967D01*
X139702575Y-76008280D01*
X139650419Y-76272900D01*
X139650192Y-76277453D01*
X139650192Y-76277456D01*
X139640991Y-76462292D01*
X139637009Y-76542277D01*
X85358782Y-76542277D01*
X85362764Y-76462292D01*
X85362764Y-76462286D01*
X85362991Y-76457723D01*
X85337375Y-76189231D01*
X85292042Y-76003967D01*
X85274355Y-75931688D01*
X85273269Y-75927250D01*
X85172015Y-75677267D01*
X85035735Y-75444518D01*
X84917928Y-75297208D01*
X84870136Y-75237447D01*
X84870135Y-75237445D01*
X84867284Y-75233881D01*
X84670191Y-75049766D01*
X84448584Y-74896032D01*
X84444501Y-74894001D01*
X84444498Y-74893999D01*
X84279606Y-74811967D01*
X84207106Y-74775899D01*
X84202772Y-74774478D01*
X84202769Y-74774477D01*
X83955147Y-74693302D01*
X83955141Y-74693301D01*
X83950814Y-74691882D01*
X83946322Y-74691102D01*
X83688860Y-74646399D01*
X83688852Y-74646398D01*
X83685079Y-74645743D01*
X83673817Y-74645182D01*
X83601422Y-74641578D01*
X83601414Y-74641578D01*
X83599851Y-74641500D01*
X83431488Y-74641500D01*
X83429220Y-74641665D01*
X83429208Y-74641665D01*
X83298116Y-74651177D01*
X83230996Y-74656047D01*
X83226541Y-74657031D01*
X83226538Y-74657031D01*
X82972088Y-74713209D01*
X82972084Y-74713210D01*
X82967628Y-74714194D01*
X82841520Y-74761972D01*
X82719682Y-74808132D01*
X82719679Y-74808133D01*
X82715412Y-74809750D01*
X82479632Y-74940714D01*
X82265227Y-75104343D01*
X82076688Y-75297208D01*
X81917966Y-75515270D01*
X81915844Y-75519304D01*
X81794510Y-75749921D01*
X81794507Y-75749927D01*
X81792385Y-75753961D01*
X81790865Y-75758266D01*
X81790863Y-75758270D01*
X81704098Y-76003967D01*
X81702575Y-76008280D01*
X81650419Y-76272900D01*
X81650192Y-76277453D01*
X81650192Y-76277456D01*
X81640991Y-76462292D01*
X81637009Y-76542277D01*
X80508500Y-76542277D01*
X80508500Y-53542277D01*
X81637009Y-53542277D01*
X81662625Y-53810769D01*
X81663710Y-53815203D01*
X81663711Y-53815209D01*
X81725645Y-54068312D01*
X81726731Y-54072750D01*
X81827985Y-54322733D01*
X81920476Y-54480696D01*
X81959525Y-54547386D01*
X81964265Y-54555482D01*
X81967118Y-54559049D01*
X82084686Y-54706060D01*
X82132716Y-54766119D01*
X82329809Y-54950234D01*
X82551416Y-55103968D01*
X82555499Y-55105999D01*
X82555502Y-55106001D01*
X82671013Y-55163466D01*
X82792894Y-55224101D01*
X82797228Y-55225522D01*
X82797231Y-55225523D01*
X83044853Y-55306698D01*
X83044859Y-55306699D01*
X83049186Y-55308118D01*
X83053677Y-55308898D01*
X83053678Y-55308898D01*
X83311140Y-55353601D01*
X83311148Y-55353602D01*
X83314921Y-55354257D01*
X83318758Y-55354448D01*
X83398578Y-55358422D01*
X83398586Y-55358422D01*
X83400149Y-55358500D01*
X83568512Y-55358500D01*
X83570780Y-55358335D01*
X83570792Y-55358335D01*
X83701884Y-55348823D01*
X83769004Y-55343953D01*
X83773459Y-55342969D01*
X83773462Y-55342969D01*
X84027912Y-55286791D01*
X84027916Y-55286790D01*
X84032372Y-55285806D01*
X84158480Y-55238028D01*
X84280318Y-55191868D01*
X84280321Y-55191867D01*
X84284588Y-55190250D01*
X84520368Y-55059286D01*
X84734773Y-54895657D01*
X84923312Y-54702792D01*
X85082034Y-54484730D01*
X85165190Y-54326676D01*
X85205490Y-54250079D01*
X85205493Y-54250073D01*
X85207615Y-54246039D01*
X85243918Y-54143240D01*
X85295902Y-53996033D01*
X85295902Y-53996032D01*
X85297425Y-53991720D01*
X85335757Y-53797240D01*
X85348700Y-53731572D01*
X85348701Y-53731566D01*
X85349581Y-53727100D01*
X85349808Y-53722544D01*
X85362764Y-53462292D01*
X85362764Y-53462286D01*
X85362991Y-53457723D01*
X85337375Y-53189231D01*
X85334901Y-53179117D01*
X85274355Y-52931688D01*
X85273269Y-52927250D01*
X85172015Y-52677267D01*
X85063896Y-52492614D01*
X85038045Y-52448463D01*
X85038044Y-52448462D01*
X85035735Y-52444518D01*
X84917928Y-52297208D01*
X84870136Y-52237447D01*
X84870135Y-52237445D01*
X84867284Y-52233881D01*
X84848887Y-52216695D01*
X87037251Y-52216695D01*
X87037548Y-52221848D01*
X87037548Y-52221851D01*
X87049570Y-52430342D01*
X87050110Y-52439715D01*
X87051247Y-52444761D01*
X87051248Y-52444767D01*
X87062031Y-52492614D01*
X87099222Y-52657639D01*
X87183266Y-52864616D01*
X87221648Y-52927250D01*
X87297291Y-53050688D01*
X87299987Y-53055088D01*
X87446250Y-53223938D01*
X87450230Y-53227242D01*
X87454981Y-53231187D01*
X87494616Y-53290090D01*
X87496113Y-53361071D01*
X87458997Y-53421593D01*
X87418725Y-53446112D01*
X87377913Y-53461412D01*
X87303295Y-53489385D01*
X87186739Y-53576739D01*
X87099385Y-53693295D01*
X87048255Y-53829684D01*
X87041500Y-53891866D01*
X87041500Y-55688134D01*
X87048255Y-55750316D01*
X87099385Y-55886705D01*
X87186739Y-56003261D01*
X87303295Y-56090615D01*
X87439684Y-56141745D01*
X87501866Y-56148500D01*
X89298134Y-56148500D01*
X89360316Y-56141745D01*
X89496705Y-56090615D01*
X89613261Y-56003261D01*
X89700615Y-55886705D01*
X89722799Y-55827529D01*
X89744598Y-55769382D01*
X89787240Y-55712618D01*
X89853802Y-55687918D01*
X89923150Y-55703126D01*
X89957817Y-55731114D01*
X89986250Y-55763938D01*
X90158126Y-55906632D01*
X90162593Y-55909242D01*
X90244070Y-55956853D01*
X90292794Y-56008491D01*
X90306500Y-56065641D01*
X90306500Y-63880896D01*
X90302543Y-63912225D01*
X90298500Y-63927970D01*
X90298500Y-63948224D01*
X90296949Y-63967934D01*
X90293780Y-63987943D01*
X90294526Y-63995835D01*
X90297941Y-64031961D01*
X90298500Y-64043819D01*
X90298500Y-70533233D01*
X90297973Y-70544416D01*
X90296298Y-70551909D01*
X90296547Y-70559835D01*
X90296547Y-70559836D01*
X90298438Y-70619986D01*
X90298500Y-70623945D01*
X90298500Y-70651856D01*
X90298997Y-70655790D01*
X90298997Y-70655791D01*
X90299005Y-70655856D01*
X90299938Y-70667693D01*
X90301327Y-70711889D01*
X90306146Y-70728475D01*
X90306978Y-70731339D01*
X90310987Y-70750700D01*
X90312386Y-70761770D01*
X90313526Y-70770797D01*
X90316445Y-70778168D01*
X90316445Y-70778170D01*
X90329804Y-70811912D01*
X90333649Y-70823142D01*
X90343771Y-70857983D01*
X90345982Y-70865593D01*
X90350015Y-70872412D01*
X90350017Y-70872417D01*
X90356293Y-70883028D01*
X90364988Y-70900776D01*
X90372448Y-70919617D01*
X90377110Y-70926033D01*
X90377110Y-70926034D01*
X90398436Y-70955387D01*
X90404952Y-70965307D01*
X90427458Y-71003362D01*
X90441779Y-71017683D01*
X90454619Y-71032716D01*
X90466528Y-71049107D01*
X90498413Y-71075484D01*
X90500593Y-71077288D01*
X90509374Y-71085278D01*
X91190353Y-71766258D01*
X91197887Y-71774537D01*
X91202000Y-71781018D01*
X91223095Y-71800827D01*
X91251651Y-71827643D01*
X91254493Y-71830398D01*
X91274230Y-71850135D01*
X91277427Y-71852615D01*
X91286447Y-71860318D01*
X91318679Y-71890586D01*
X91325625Y-71894405D01*
X91325628Y-71894407D01*
X91336434Y-71900348D01*
X91352953Y-71911199D01*
X91368959Y-71923614D01*
X91376228Y-71926759D01*
X91376232Y-71926762D01*
X91409537Y-71941174D01*
X91420187Y-71946391D01*
X91458940Y-71967695D01*
X91466615Y-71969666D01*
X91466616Y-71969666D01*
X91478562Y-71972733D01*
X91497267Y-71979137D01*
X91515855Y-71987181D01*
X91523678Y-71988420D01*
X91523688Y-71988423D01*
X91559524Y-71994099D01*
X91571144Y-71996505D01*
X91602959Y-72004673D01*
X91613970Y-72007500D01*
X91634224Y-72007500D01*
X91653934Y-72009051D01*
X91673943Y-72012220D01*
X91681835Y-72011474D01*
X91700580Y-72009702D01*
X91717962Y-72008059D01*
X91729819Y-72007500D01*
X128191233Y-72007500D01*
X128202416Y-72008027D01*
X128209909Y-72009702D01*
X128217835Y-72009453D01*
X128217836Y-72009453D01*
X128277986Y-72007562D01*
X128281945Y-72007500D01*
X128309856Y-72007500D01*
X128313791Y-72007003D01*
X128313856Y-72006995D01*
X128325693Y-72006062D01*
X128357951Y-72005048D01*
X128361970Y-72004922D01*
X128369889Y-72004673D01*
X128389343Y-71999021D01*
X128408700Y-71995013D01*
X128420930Y-71993468D01*
X128420931Y-71993468D01*
X128428797Y-71992474D01*
X128436168Y-71989555D01*
X128436170Y-71989555D01*
X128469912Y-71976196D01*
X128481142Y-71972351D01*
X128515983Y-71962229D01*
X128515984Y-71962229D01*
X128523593Y-71960018D01*
X128530412Y-71955985D01*
X128530417Y-71955983D01*
X128541028Y-71949707D01*
X128558776Y-71941012D01*
X128577617Y-71933552D01*
X128613387Y-71907564D01*
X128623307Y-71901048D01*
X128654535Y-71882580D01*
X128654538Y-71882578D01*
X128661362Y-71878542D01*
X128675683Y-71864221D01*
X128690717Y-71851380D01*
X128700694Y-71844131D01*
X128707107Y-71839472D01*
X128735298Y-71805395D01*
X128743288Y-71796616D01*
X129592247Y-70947657D01*
X129600537Y-70940113D01*
X129607018Y-70936000D01*
X129653659Y-70886332D01*
X129656413Y-70883491D01*
X129676135Y-70863769D01*
X129678612Y-70860576D01*
X129686317Y-70851555D01*
X129711159Y-70825100D01*
X129716586Y-70819321D01*
X129720659Y-70811912D01*
X129726346Y-70801568D01*
X129737202Y-70785041D01*
X129744757Y-70775302D01*
X129744758Y-70775300D01*
X129749614Y-70769040D01*
X129767174Y-70728460D01*
X129772391Y-70717812D01*
X129789875Y-70686009D01*
X129789876Y-70686007D01*
X129793695Y-70679060D01*
X129798733Y-70659437D01*
X129805137Y-70640734D01*
X129810033Y-70629420D01*
X129810033Y-70629419D01*
X129813181Y-70622145D01*
X129814420Y-70614322D01*
X129814423Y-70614312D01*
X129820099Y-70578476D01*
X129822505Y-70566856D01*
X129831528Y-70531711D01*
X129831528Y-70531710D01*
X129833500Y-70524030D01*
X129833500Y-70503776D01*
X129835051Y-70484065D01*
X129835141Y-70483500D01*
X129838220Y-70464057D01*
X129834059Y-70420038D01*
X129833500Y-70408181D01*
X129833500Y-69270427D01*
X129853502Y-69202306D01*
X129894618Y-69162550D01*
X129897994Y-69160896D01*
X130079860Y-69031173D01*
X130089976Y-69021093D01*
X130234435Y-68877137D01*
X130238096Y-68873489D01*
X130368453Y-68692077D01*
X130369776Y-68693028D01*
X130416645Y-68649857D01*
X130486580Y-68637625D01*
X130552026Y-68665144D01*
X130579875Y-68696994D01*
X130639987Y-68795088D01*
X130786250Y-68963938D01*
X130958126Y-69106632D01*
X131151000Y-69219338D01*
X131359692Y-69299030D01*
X131364760Y-69300061D01*
X131364763Y-69300062D01*
X131472017Y-69321883D01*
X131578597Y-69343567D01*
X131583772Y-69343757D01*
X131583774Y-69343757D01*
X131796673Y-69351564D01*
X131796677Y-69351564D01*
X131801837Y-69351753D01*
X131806957Y-69351097D01*
X131806959Y-69351097D01*
X132018288Y-69324025D01*
X132018289Y-69324025D01*
X132023416Y-69323368D01*
X132028366Y-69321883D01*
X132232429Y-69260661D01*
X132232434Y-69260659D01*
X132237384Y-69259174D01*
X132437994Y-69160896D01*
X132619860Y-69031173D01*
X132629976Y-69021093D01*
X132774435Y-68877137D01*
X132778096Y-68873489D01*
X132908453Y-68692077D01*
X132909776Y-68693028D01*
X132956645Y-68649857D01*
X133026580Y-68637625D01*
X133092026Y-68665144D01*
X133119875Y-68696994D01*
X133179987Y-68795088D01*
X133326250Y-68963938D01*
X133498126Y-69106632D01*
X133691000Y-69219338D01*
X133899692Y-69299030D01*
X133904760Y-69300061D01*
X133904763Y-69300062D01*
X134012017Y-69321883D01*
X134118597Y-69343567D01*
X134123772Y-69343757D01*
X134123774Y-69343757D01*
X134336673Y-69351564D01*
X134336677Y-69351564D01*
X134341837Y-69351753D01*
X134346957Y-69351097D01*
X134346959Y-69351097D01*
X134558288Y-69324025D01*
X134558289Y-69324025D01*
X134563416Y-69323368D01*
X134568366Y-69321883D01*
X134772429Y-69260661D01*
X134772434Y-69260659D01*
X134777384Y-69259174D01*
X134977994Y-69160896D01*
X135159860Y-69031173D01*
X135169976Y-69021093D01*
X135314435Y-68877137D01*
X135318096Y-68873489D01*
X135448453Y-68692077D01*
X135461995Y-68664678D01*
X135545136Y-68496453D01*
X135545137Y-68496451D01*
X135547430Y-68491811D01*
X135612370Y-68278069D01*
X135641529Y-68056590D01*
X135643156Y-67990000D01*
X135624852Y-67767361D01*
X135596821Y-67655765D01*
X135599625Y-67584823D01*
X135629930Y-67535974D01*
X136028247Y-67137657D01*
X136036537Y-67130113D01*
X136043018Y-67126000D01*
X136089659Y-67076332D01*
X136092413Y-67073491D01*
X136112135Y-67053769D01*
X136114612Y-67050576D01*
X136122317Y-67041555D01*
X136147159Y-67015100D01*
X136152586Y-67009321D01*
X136159431Y-66996870D01*
X136162346Y-66991568D01*
X136173202Y-66975041D01*
X136180757Y-66965302D01*
X136180758Y-66965300D01*
X136185614Y-66959040D01*
X136203174Y-66918460D01*
X136208391Y-66907812D01*
X136225875Y-66876009D01*
X136225876Y-66876007D01*
X136229695Y-66869060D01*
X136234733Y-66849437D01*
X136241137Y-66830734D01*
X136246033Y-66819420D01*
X136246033Y-66819419D01*
X136249181Y-66812145D01*
X136250420Y-66804322D01*
X136250423Y-66804312D01*
X136256099Y-66768476D01*
X136258505Y-66756856D01*
X136267528Y-66721711D01*
X136267528Y-66721710D01*
X136269500Y-66714030D01*
X136269500Y-66693776D01*
X136271051Y-66674065D01*
X136272980Y-66661886D01*
X136274220Y-66654057D01*
X136270059Y-66610038D01*
X136269500Y-66598181D01*
X136269500Y-59260768D01*
X136270027Y-59249585D01*
X136271702Y-59242092D01*
X136269562Y-59174001D01*
X136269500Y-59170044D01*
X136269500Y-59142144D01*
X136268996Y-59138153D01*
X136268063Y-59126311D01*
X136266923Y-59090036D01*
X136266674Y-59082111D01*
X136264462Y-59074497D01*
X136264461Y-59074492D01*
X136261023Y-59062659D01*
X136257012Y-59043295D01*
X136255467Y-59031064D01*
X136254474Y-59023203D01*
X136251557Y-59015836D01*
X136251556Y-59015831D01*
X136238198Y-58982092D01*
X136234354Y-58970865D01*
X136224230Y-58936022D01*
X136222018Y-58928407D01*
X136211707Y-58910972D01*
X136203012Y-58893224D01*
X136195552Y-58874383D01*
X136169564Y-58838613D01*
X136163048Y-58828693D01*
X136144580Y-58797465D01*
X136144578Y-58797462D01*
X136140542Y-58790638D01*
X136126221Y-58776317D01*
X136113380Y-58761283D01*
X136106132Y-58751307D01*
X136101472Y-58744893D01*
X136067407Y-58716712D01*
X136058626Y-58708722D01*
X135377647Y-58027742D01*
X135370113Y-58019463D01*
X135366000Y-58012982D01*
X135316348Y-57966356D01*
X135313507Y-57963602D01*
X135293770Y-57943865D01*
X135290573Y-57941385D01*
X135281551Y-57933680D01*
X135255100Y-57908841D01*
X135249321Y-57903414D01*
X135242375Y-57899595D01*
X135242372Y-57899593D01*
X135231566Y-57893652D01*
X135215047Y-57882801D01*
X135207751Y-57877142D01*
X135199041Y-57870386D01*
X135191772Y-57867241D01*
X135191768Y-57867238D01*
X135158463Y-57852826D01*
X135147813Y-57847609D01*
X135109060Y-57826305D01*
X135089437Y-57821267D01*
X135070734Y-57814863D01*
X135059420Y-57809967D01*
X135059419Y-57809967D01*
X135052145Y-57806819D01*
X135044322Y-57805580D01*
X135044312Y-57805577D01*
X135008476Y-57799901D01*
X134996856Y-57797495D01*
X134961711Y-57788472D01*
X134961710Y-57788472D01*
X134954030Y-57786500D01*
X134933776Y-57786500D01*
X134914065Y-57784949D01*
X134901886Y-57783020D01*
X134894057Y-57781780D01*
X134886165Y-57782526D01*
X134850039Y-57785941D01*
X134838181Y-57786500D01*
X104708595Y-57786500D01*
X104640474Y-57766498D01*
X104619499Y-57749595D01*
X104310404Y-57440499D01*
X104276379Y-57378187D01*
X104273500Y-57351404D01*
X104273500Y-56070427D01*
X104293502Y-56002306D01*
X104334618Y-55962550D01*
X104337994Y-55960896D01*
X104519860Y-55831173D01*
X104678096Y-55673489D01*
X104808453Y-55492077D01*
X104809776Y-55493028D01*
X104856645Y-55449857D01*
X104926580Y-55437625D01*
X104992026Y-55465144D01*
X105019875Y-55496994D01*
X105079987Y-55595088D01*
X105226250Y-55763938D01*
X105398126Y-55906632D01*
X105591000Y-56019338D01*
X105799692Y-56099030D01*
X105804760Y-56100061D01*
X105804763Y-56100062D01*
X105868420Y-56113013D01*
X106018597Y-56143567D01*
X106023772Y-56143757D01*
X106023774Y-56143757D01*
X106236673Y-56151564D01*
X106236677Y-56151564D01*
X106241837Y-56151753D01*
X106246957Y-56151097D01*
X106246959Y-56151097D01*
X106458288Y-56124025D01*
X106458289Y-56124025D01*
X106463416Y-56123368D01*
X106468366Y-56121883D01*
X106672429Y-56060661D01*
X106672434Y-56060659D01*
X106677384Y-56059174D01*
X106877994Y-55960896D01*
X107059860Y-55831173D01*
X107218096Y-55673489D01*
X107348453Y-55492077D01*
X107349776Y-55493028D01*
X107396645Y-55449857D01*
X107466580Y-55437625D01*
X107532026Y-55465144D01*
X107559875Y-55496994D01*
X107619987Y-55595088D01*
X107766250Y-55763938D01*
X107938126Y-55906632D01*
X108131000Y-56019338D01*
X108339692Y-56099030D01*
X108344760Y-56100061D01*
X108344763Y-56100062D01*
X108408420Y-56113013D01*
X108558597Y-56143567D01*
X108563772Y-56143757D01*
X108563774Y-56143757D01*
X108776673Y-56151564D01*
X108776677Y-56151564D01*
X108781837Y-56151753D01*
X108786957Y-56151097D01*
X108786959Y-56151097D01*
X108998288Y-56124025D01*
X108998289Y-56124025D01*
X109003416Y-56123368D01*
X109008366Y-56121883D01*
X109212429Y-56060661D01*
X109212434Y-56060659D01*
X109217384Y-56059174D01*
X109417994Y-55960896D01*
X109599860Y-55831173D01*
X109758096Y-55673489D01*
X109888453Y-55492077D01*
X109889776Y-55493028D01*
X109936645Y-55449857D01*
X110006580Y-55437625D01*
X110072026Y-55465144D01*
X110099875Y-55496994D01*
X110159987Y-55595088D01*
X110306250Y-55763938D01*
X110478126Y-55906632D01*
X110671000Y-56019338D01*
X110879692Y-56099030D01*
X110884760Y-56100061D01*
X110884763Y-56100062D01*
X110948420Y-56113013D01*
X111098597Y-56143567D01*
X111103772Y-56143757D01*
X111103774Y-56143757D01*
X111316673Y-56151564D01*
X111316677Y-56151564D01*
X111321837Y-56151753D01*
X111326957Y-56151097D01*
X111326959Y-56151097D01*
X111538288Y-56124025D01*
X111538289Y-56124025D01*
X111543416Y-56123368D01*
X111548366Y-56121883D01*
X111752429Y-56060661D01*
X111752434Y-56060659D01*
X111757384Y-56059174D01*
X111957994Y-55960896D01*
X112139860Y-55831173D01*
X112298096Y-55673489D01*
X112428453Y-55492077D01*
X112429776Y-55493028D01*
X112476645Y-55449857D01*
X112546580Y-55437625D01*
X112612026Y-55465144D01*
X112639875Y-55496994D01*
X112699987Y-55595088D01*
X112846250Y-55763938D01*
X113018126Y-55906632D01*
X113211000Y-56019338D01*
X113419692Y-56099030D01*
X113424760Y-56100061D01*
X113424763Y-56100062D01*
X113488420Y-56113013D01*
X113638597Y-56143567D01*
X113643772Y-56143757D01*
X113643774Y-56143757D01*
X113856673Y-56151564D01*
X113856677Y-56151564D01*
X113861837Y-56151753D01*
X113866957Y-56151097D01*
X113866959Y-56151097D01*
X114078288Y-56124025D01*
X114078289Y-56124025D01*
X114083416Y-56123368D01*
X114088366Y-56121883D01*
X114292429Y-56060661D01*
X114292434Y-56060659D01*
X114297384Y-56059174D01*
X114497994Y-55960896D01*
X114679860Y-55831173D01*
X114838096Y-55673489D01*
X114968453Y-55492077D01*
X114969776Y-55493028D01*
X115016645Y-55449857D01*
X115086580Y-55437625D01*
X115152026Y-55465144D01*
X115179875Y-55496994D01*
X115239987Y-55595088D01*
X115386250Y-55763938D01*
X115558126Y-55906632D01*
X115751000Y-56019338D01*
X115959692Y-56099030D01*
X115964760Y-56100061D01*
X115964763Y-56100062D01*
X116028420Y-56113013D01*
X116178597Y-56143567D01*
X116183772Y-56143757D01*
X116183774Y-56143757D01*
X116396673Y-56151564D01*
X116396677Y-56151564D01*
X116401837Y-56151753D01*
X116406957Y-56151097D01*
X116406959Y-56151097D01*
X116618288Y-56124025D01*
X116618289Y-56124025D01*
X116623416Y-56123368D01*
X116628366Y-56121883D01*
X116832429Y-56060661D01*
X116832434Y-56060659D01*
X116837384Y-56059174D01*
X117037994Y-55960896D01*
X117219860Y-55831173D01*
X117378096Y-55673489D01*
X117508453Y-55492077D01*
X117509640Y-55492930D01*
X117556960Y-55449362D01*
X117626897Y-55437145D01*
X117692338Y-55464678D01*
X117720166Y-55496511D01*
X117777694Y-55590388D01*
X117783777Y-55598699D01*
X117923213Y-55759667D01*
X117930580Y-55766883D01*
X118094434Y-55902916D01*
X118102881Y-55908831D01*
X118286756Y-56016279D01*
X118296042Y-56020729D01*
X118495001Y-56096703D01*
X118504899Y-56099579D01*
X118608250Y-56120606D01*
X118622299Y-56119410D01*
X118626000Y-56109065D01*
X118626000Y-54662000D01*
X118646002Y-54593879D01*
X118699658Y-54547386D01*
X118752000Y-54536000D01*
X119008000Y-54536000D01*
X119076121Y-54556002D01*
X119122614Y-54609658D01*
X119134000Y-54662000D01*
X119134000Y-56108517D01*
X119138064Y-56122359D01*
X119151478Y-56124393D01*
X119158184Y-56123534D01*
X119168262Y-56121392D01*
X119372255Y-56060191D01*
X119381842Y-56056433D01*
X119573095Y-55962739D01*
X119581945Y-55957464D01*
X119755328Y-55833792D01*
X119763200Y-55827139D01*
X119914052Y-55676812D01*
X119920730Y-55668965D01*
X120048022Y-55491819D01*
X120049279Y-55492722D01*
X120096373Y-55449362D01*
X120166311Y-55437145D01*
X120231751Y-55464678D01*
X120259579Y-55496511D01*
X120319987Y-55595088D01*
X120466250Y-55763938D01*
X120638126Y-55906632D01*
X120831000Y-56019338D01*
X121039692Y-56099030D01*
X121044760Y-56100061D01*
X121044763Y-56100062D01*
X121108420Y-56113013D01*
X121258597Y-56143567D01*
X121263772Y-56143757D01*
X121263774Y-56143757D01*
X121476673Y-56151564D01*
X121476677Y-56151564D01*
X121481837Y-56151753D01*
X121486957Y-56151097D01*
X121486959Y-56151097D01*
X121698288Y-56124025D01*
X121698289Y-56124025D01*
X121703416Y-56123368D01*
X121708366Y-56121883D01*
X121912429Y-56060661D01*
X121912434Y-56060659D01*
X121917384Y-56059174D01*
X122117994Y-55960896D01*
X122299860Y-55831173D01*
X122458096Y-55673489D01*
X122588453Y-55492077D01*
X122589776Y-55493028D01*
X122636645Y-55449857D01*
X122706580Y-55437625D01*
X122772026Y-55465144D01*
X122799875Y-55496994D01*
X122859987Y-55595088D01*
X123006250Y-55763938D01*
X123178126Y-55906632D01*
X123371000Y-56019338D01*
X123579692Y-56099030D01*
X123584760Y-56100061D01*
X123584763Y-56100062D01*
X123648420Y-56113013D01*
X123798597Y-56143567D01*
X123803772Y-56143757D01*
X123803774Y-56143757D01*
X124016673Y-56151564D01*
X124016677Y-56151564D01*
X124021837Y-56151753D01*
X124026957Y-56151097D01*
X124026959Y-56151097D01*
X124238288Y-56124025D01*
X124238289Y-56124025D01*
X124243416Y-56123368D01*
X124248366Y-56121883D01*
X124452429Y-56060661D01*
X124452434Y-56060659D01*
X124457384Y-56059174D01*
X124657994Y-55960896D01*
X124839860Y-55831173D01*
X124998096Y-55673489D01*
X125128453Y-55492077D01*
X125129776Y-55493028D01*
X125176645Y-55449857D01*
X125246580Y-55437625D01*
X125312026Y-55465144D01*
X125339875Y-55496994D01*
X125399987Y-55595088D01*
X125546250Y-55763938D01*
X125718126Y-55906632D01*
X125911000Y-56019338D01*
X126119692Y-56099030D01*
X126124760Y-56100061D01*
X126124763Y-56100062D01*
X126188420Y-56113013D01*
X126338597Y-56143567D01*
X126343772Y-56143757D01*
X126343774Y-56143757D01*
X126556673Y-56151564D01*
X126556677Y-56151564D01*
X126561837Y-56151753D01*
X126566957Y-56151097D01*
X126566959Y-56151097D01*
X126778288Y-56124025D01*
X126778289Y-56124025D01*
X126783416Y-56123368D01*
X126788366Y-56121883D01*
X126992429Y-56060661D01*
X126992434Y-56060659D01*
X126997384Y-56059174D01*
X127197994Y-55960896D01*
X127379860Y-55831173D01*
X127538096Y-55673489D01*
X127668453Y-55492077D01*
X127669776Y-55493028D01*
X127716645Y-55449857D01*
X127786580Y-55437625D01*
X127852026Y-55465144D01*
X127879875Y-55496994D01*
X127939987Y-55595088D01*
X128086250Y-55763938D01*
X128258126Y-55906632D01*
X128451000Y-56019338D01*
X128659692Y-56099030D01*
X128664760Y-56100061D01*
X128664763Y-56100062D01*
X128728420Y-56113013D01*
X128878597Y-56143567D01*
X128883772Y-56143757D01*
X128883774Y-56143757D01*
X129096673Y-56151564D01*
X129096677Y-56151564D01*
X129101837Y-56151753D01*
X129106957Y-56151097D01*
X129106959Y-56151097D01*
X129318288Y-56124025D01*
X129318289Y-56124025D01*
X129323416Y-56123368D01*
X129328366Y-56121883D01*
X129532429Y-56060661D01*
X129532434Y-56060659D01*
X129537384Y-56059174D01*
X129737994Y-55960896D01*
X129919860Y-55831173D01*
X130078096Y-55673489D01*
X130208453Y-55492077D01*
X130209776Y-55493028D01*
X130256645Y-55449857D01*
X130326580Y-55437625D01*
X130392026Y-55465144D01*
X130419875Y-55496994D01*
X130479987Y-55595088D01*
X130626250Y-55763938D01*
X130798126Y-55906632D01*
X130991000Y-56019338D01*
X131199692Y-56099030D01*
X131204760Y-56100061D01*
X131204763Y-56100062D01*
X131268420Y-56113013D01*
X131418597Y-56143567D01*
X131423772Y-56143757D01*
X131423774Y-56143757D01*
X131636673Y-56151564D01*
X131636677Y-56151564D01*
X131641837Y-56151753D01*
X131646957Y-56151097D01*
X131646959Y-56151097D01*
X131858288Y-56124025D01*
X131858289Y-56124025D01*
X131863416Y-56123368D01*
X131868366Y-56121883D01*
X132072429Y-56060661D01*
X132072434Y-56060659D01*
X132077384Y-56059174D01*
X132277994Y-55960896D01*
X132459860Y-55831173D01*
X132618096Y-55673489D01*
X132748453Y-55492077D01*
X132749776Y-55493028D01*
X132796645Y-55449857D01*
X132866580Y-55437625D01*
X132932026Y-55465144D01*
X132959875Y-55496994D01*
X133019987Y-55595088D01*
X133166250Y-55763938D01*
X133338126Y-55906632D01*
X133531000Y-56019338D01*
X133739692Y-56099030D01*
X133744760Y-56100061D01*
X133744763Y-56100062D01*
X133808420Y-56113013D01*
X133958597Y-56143567D01*
X133963772Y-56143757D01*
X133963774Y-56143757D01*
X134176673Y-56151564D01*
X134176677Y-56151564D01*
X134181837Y-56151753D01*
X134186957Y-56151097D01*
X134186959Y-56151097D01*
X134398288Y-56124025D01*
X134398289Y-56124025D01*
X134403416Y-56123368D01*
X134408366Y-56121883D01*
X134612429Y-56060661D01*
X134612434Y-56060659D01*
X134617384Y-56059174D01*
X134817994Y-55960896D01*
X134999860Y-55831173D01*
X135158096Y-55673489D01*
X135288453Y-55492077D01*
X135289640Y-55492930D01*
X135336960Y-55449362D01*
X135406897Y-55437145D01*
X135472338Y-55464678D01*
X135500166Y-55496511D01*
X135557694Y-55590388D01*
X135563777Y-55598699D01*
X135703213Y-55759667D01*
X135710580Y-55766883D01*
X135874434Y-55902916D01*
X135882881Y-55908831D01*
X136066756Y-56016279D01*
X136076042Y-56020729D01*
X136275001Y-56096703D01*
X136284899Y-56099579D01*
X136388250Y-56120606D01*
X136402299Y-56119410D01*
X136406000Y-56109065D01*
X136406000Y-56108517D01*
X136914000Y-56108517D01*
X136918064Y-56122359D01*
X136931478Y-56124393D01*
X136938184Y-56123534D01*
X136948262Y-56121392D01*
X137152255Y-56060191D01*
X137161842Y-56056433D01*
X137353095Y-55962739D01*
X137361945Y-55957464D01*
X137535328Y-55833792D01*
X137543200Y-55827139D01*
X137694052Y-55676812D01*
X137700730Y-55668965D01*
X137825003Y-55496020D01*
X137830313Y-55487183D01*
X137924670Y-55296267D01*
X137928469Y-55286672D01*
X137990377Y-55082910D01*
X137992555Y-55072837D01*
X137993986Y-55061962D01*
X137991775Y-55047778D01*
X137978617Y-55044000D01*
X136932115Y-55044000D01*
X136916876Y-55048475D01*
X136915671Y-55049865D01*
X136914000Y-55057548D01*
X136914000Y-56108517D01*
X136406000Y-56108517D01*
X136406000Y-54662000D01*
X136426002Y-54593879D01*
X136479658Y-54547386D01*
X136532000Y-54536000D01*
X137978344Y-54536000D01*
X137991875Y-54532027D01*
X137993180Y-54522947D01*
X137951214Y-54355875D01*
X137947894Y-54346124D01*
X137862972Y-54150814D01*
X137858105Y-54141739D01*
X137742426Y-53962926D01*
X137736136Y-53954757D01*
X137592806Y-53797240D01*
X137585273Y-53790215D01*
X137418139Y-53658222D01*
X137409556Y-53652520D01*
X137372602Y-53632120D01*
X137322631Y-53581687D01*
X137314248Y-53542277D01*
X139637009Y-53542277D01*
X139662625Y-53810769D01*
X139663710Y-53815203D01*
X139663711Y-53815209D01*
X139725645Y-54068312D01*
X139726731Y-54072750D01*
X139827985Y-54322733D01*
X139920476Y-54480696D01*
X139959525Y-54547386D01*
X139964265Y-54555482D01*
X139967118Y-54559049D01*
X140084686Y-54706060D01*
X140132716Y-54766119D01*
X140329809Y-54950234D01*
X140551416Y-55103968D01*
X140555499Y-55105999D01*
X140555502Y-55106001D01*
X140671013Y-55163466D01*
X140792894Y-55224101D01*
X140797228Y-55225522D01*
X140797231Y-55225523D01*
X141044853Y-55306698D01*
X141044859Y-55306699D01*
X141049186Y-55308118D01*
X141053677Y-55308898D01*
X141053678Y-55308898D01*
X141311140Y-55353601D01*
X141311148Y-55353602D01*
X141314921Y-55354257D01*
X141318758Y-55354448D01*
X141398578Y-55358422D01*
X141398586Y-55358422D01*
X141400149Y-55358500D01*
X141568512Y-55358500D01*
X141570780Y-55358335D01*
X141570792Y-55358335D01*
X141701884Y-55348823D01*
X141769004Y-55343953D01*
X141773459Y-55342969D01*
X141773462Y-55342969D01*
X142027912Y-55286791D01*
X142027916Y-55286790D01*
X142032372Y-55285806D01*
X142158480Y-55238028D01*
X142280318Y-55191868D01*
X142280321Y-55191867D01*
X142284588Y-55190250D01*
X142520368Y-55059286D01*
X142734773Y-54895657D01*
X142923312Y-54702792D01*
X143082034Y-54484730D01*
X143165190Y-54326676D01*
X143205490Y-54250079D01*
X143205493Y-54250073D01*
X143207615Y-54246039D01*
X143243918Y-54143240D01*
X143295902Y-53996033D01*
X143295902Y-53996032D01*
X143297425Y-53991720D01*
X143335757Y-53797240D01*
X143348700Y-53731572D01*
X143348701Y-53731566D01*
X143349581Y-53727100D01*
X143349808Y-53722544D01*
X143362764Y-53462292D01*
X143362764Y-53462286D01*
X143362991Y-53457723D01*
X143337375Y-53189231D01*
X143334901Y-53179117D01*
X143274355Y-52931688D01*
X143273269Y-52927250D01*
X143172015Y-52677267D01*
X143063896Y-52492614D01*
X143038045Y-52448463D01*
X143038044Y-52448462D01*
X143035735Y-52444518D01*
X142917928Y-52297208D01*
X142870136Y-52237447D01*
X142870135Y-52237445D01*
X142867284Y-52233881D01*
X142670191Y-52049766D01*
X142448584Y-51896032D01*
X142444501Y-51894001D01*
X142444498Y-51893999D01*
X142277063Y-51810702D01*
X142207106Y-51775899D01*
X142202772Y-51774478D01*
X142202769Y-51774477D01*
X141955147Y-51693302D01*
X141955141Y-51693301D01*
X141950814Y-51691882D01*
X141946322Y-51691102D01*
X141688860Y-51646399D01*
X141688852Y-51646398D01*
X141685079Y-51645743D01*
X141673817Y-51645182D01*
X141601422Y-51641578D01*
X141601414Y-51641578D01*
X141599851Y-51641500D01*
X141431488Y-51641500D01*
X141429220Y-51641665D01*
X141429208Y-51641665D01*
X141298116Y-51651177D01*
X141230996Y-51656047D01*
X141226541Y-51657031D01*
X141226538Y-51657031D01*
X140972088Y-51713209D01*
X140972084Y-51713210D01*
X140967628Y-51714194D01*
X140843014Y-51761406D01*
X140719682Y-51808132D01*
X140719679Y-51808133D01*
X140715412Y-51809750D01*
X140479632Y-51940714D01*
X140265227Y-52104343D01*
X140262034Y-52107609D01*
X140262032Y-52107611D01*
X140246233Y-52123773D01*
X140076688Y-52297208D01*
X139917966Y-52515270D01*
X139865479Y-52615031D01*
X139794510Y-52749921D01*
X139794507Y-52749927D01*
X139792385Y-52753961D01*
X139790865Y-52758266D01*
X139790863Y-52758270D01*
X139722422Y-52952077D01*
X139702575Y-53008280D01*
X139692638Y-53058699D01*
X139651699Y-53266408D01*
X139650419Y-53272900D01*
X139650192Y-53277453D01*
X139650192Y-53277456D01*
X139637561Y-53531195D01*
X139637009Y-53542277D01*
X137314248Y-53542277D01*
X137307859Y-53512245D01*
X137332975Y-53445839D01*
X137360327Y-53419232D01*
X137388146Y-53399389D01*
X137539860Y-53291173D01*
X137698096Y-53133489D01*
X137757594Y-53050689D01*
X137825435Y-52956277D01*
X137828453Y-52952077D01*
X137841995Y-52924678D01*
X137925136Y-52756453D01*
X137925137Y-52756451D01*
X137927430Y-52751811D01*
X137992370Y-52538069D01*
X138021529Y-52316590D01*
X138021611Y-52313240D01*
X138023074Y-52253365D01*
X138023074Y-52253361D01*
X138023156Y-52250000D01*
X138004852Y-52027361D01*
X137950431Y-51810702D01*
X137861354Y-51605840D01*
X137740014Y-51418277D01*
X137589670Y-51253051D01*
X137585619Y-51249852D01*
X137585615Y-51249848D01*
X137418414Y-51117800D01*
X137418410Y-51117798D01*
X137414359Y-51114598D01*
X137378028Y-51094542D01*
X137294497Y-51048431D01*
X137218789Y-51006638D01*
X137213920Y-51004914D01*
X137213916Y-51004912D01*
X137013087Y-50933795D01*
X137013083Y-50933794D01*
X137008212Y-50932069D01*
X137003119Y-50931162D01*
X137003116Y-50931161D01*
X136793373Y-50893800D01*
X136793367Y-50893799D01*
X136788284Y-50892894D01*
X136714452Y-50891992D01*
X136570081Y-50890228D01*
X136570079Y-50890228D01*
X136564911Y-50890165D01*
X136344091Y-50923955D01*
X136131756Y-50993357D01*
X135933607Y-51096507D01*
X135929474Y-51099610D01*
X135929471Y-51099612D01*
X135875047Y-51140475D01*
X135754965Y-51230635D01*
X135751393Y-51234373D01*
X135648122Y-51342440D01*
X135600629Y-51392138D01*
X135493201Y-51549621D01*
X135438293Y-51594621D01*
X135367768Y-51602792D01*
X135304021Y-51571538D01*
X135283324Y-51547054D01*
X135202822Y-51422617D01*
X135202820Y-51422614D01*
X135200014Y-51418277D01*
X135049670Y-51253051D01*
X135045619Y-51249852D01*
X135045615Y-51249848D01*
X134878414Y-51117800D01*
X134878410Y-51117798D01*
X134874359Y-51114598D01*
X134838028Y-51094542D01*
X134754497Y-51048431D01*
X134678789Y-51006638D01*
X134673920Y-51004914D01*
X134673916Y-51004912D01*
X134473087Y-50933795D01*
X134473083Y-50933794D01*
X134468212Y-50932069D01*
X134463119Y-50931162D01*
X134463116Y-50931161D01*
X134253373Y-50893800D01*
X134253367Y-50893799D01*
X134248284Y-50892894D01*
X134174452Y-50891992D01*
X134030081Y-50890228D01*
X134030079Y-50890228D01*
X134024911Y-50890165D01*
X133804091Y-50923955D01*
X133591756Y-50993357D01*
X133393607Y-51096507D01*
X133389474Y-51099610D01*
X133389471Y-51099612D01*
X133335047Y-51140475D01*
X133214965Y-51230635D01*
X133211393Y-51234373D01*
X133108122Y-51342440D01*
X133060629Y-51392138D01*
X132953201Y-51549621D01*
X132898293Y-51594621D01*
X132827768Y-51602792D01*
X132764021Y-51571538D01*
X132743324Y-51547054D01*
X132662822Y-51422617D01*
X132662820Y-51422614D01*
X132660014Y-51418277D01*
X132509670Y-51253051D01*
X132505619Y-51249852D01*
X132505615Y-51249848D01*
X132338414Y-51117800D01*
X132338410Y-51117798D01*
X132334359Y-51114598D01*
X132298028Y-51094542D01*
X132214497Y-51048431D01*
X132138789Y-51006638D01*
X132133920Y-51004914D01*
X132133916Y-51004912D01*
X131933087Y-50933795D01*
X131933083Y-50933794D01*
X131928212Y-50932069D01*
X131923119Y-50931162D01*
X131923116Y-50931161D01*
X131713373Y-50893800D01*
X131713367Y-50893799D01*
X131708284Y-50892894D01*
X131634452Y-50891992D01*
X131490081Y-50890228D01*
X131490079Y-50890228D01*
X131484911Y-50890165D01*
X131264091Y-50923955D01*
X131051756Y-50993357D01*
X130853607Y-51096507D01*
X130849474Y-51099610D01*
X130849471Y-51099612D01*
X130795047Y-51140475D01*
X130674965Y-51230635D01*
X130671393Y-51234373D01*
X130568122Y-51342440D01*
X130520629Y-51392138D01*
X130413204Y-51549618D01*
X130412898Y-51550066D01*
X130357987Y-51595069D01*
X130287462Y-51603240D01*
X130223715Y-51571986D01*
X130203018Y-51547502D01*
X130122426Y-51422926D01*
X130116136Y-51414757D01*
X129972806Y-51257240D01*
X129965273Y-51250215D01*
X129798139Y-51118222D01*
X129789552Y-51112517D01*
X129603117Y-51009599D01*
X129593705Y-51005369D01*
X129392959Y-50934280D01*
X129382988Y-50931646D01*
X129311837Y-50918972D01*
X129298540Y-50920432D01*
X129294000Y-50934989D01*
X129294000Y-52378000D01*
X129273998Y-52446121D01*
X129220342Y-52492614D01*
X129168000Y-52504000D01*
X128912000Y-52504000D01*
X128843879Y-52483998D01*
X128797386Y-52430342D01*
X128786000Y-52378000D01*
X128786000Y-50933102D01*
X128782082Y-50919758D01*
X128767806Y-50917771D01*
X128729324Y-50923660D01*
X128719288Y-50926051D01*
X128516868Y-50992212D01*
X128507359Y-50996209D01*
X128318463Y-51094542D01*
X128309738Y-51100036D01*
X128139433Y-51227905D01*
X128131726Y-51234748D01*
X127984590Y-51388717D01*
X127978109Y-51396722D01*
X127873498Y-51550074D01*
X127818587Y-51595076D01*
X127748062Y-51603247D01*
X127684315Y-51571993D01*
X127663618Y-51547509D01*
X127582822Y-51422617D01*
X127582820Y-51422614D01*
X127580014Y-51418277D01*
X127429670Y-51253051D01*
X127425619Y-51249852D01*
X127425615Y-51249848D01*
X127258414Y-51117800D01*
X127258410Y-51117798D01*
X127254359Y-51114598D01*
X127218028Y-51094542D01*
X127134497Y-51048431D01*
X127058789Y-51006638D01*
X127053920Y-51004914D01*
X127053916Y-51004912D01*
X126853087Y-50933795D01*
X126853083Y-50933794D01*
X126848212Y-50932069D01*
X126843119Y-50931162D01*
X126843116Y-50931161D01*
X126633373Y-50893800D01*
X126633367Y-50893799D01*
X126628284Y-50892894D01*
X126554452Y-50891992D01*
X126410081Y-50890228D01*
X126410079Y-50890228D01*
X126404911Y-50890165D01*
X126184091Y-50923955D01*
X125971756Y-50993357D01*
X125773607Y-51096507D01*
X125769474Y-51099610D01*
X125769471Y-51099612D01*
X125715047Y-51140475D01*
X125594965Y-51230635D01*
X125591393Y-51234373D01*
X125488122Y-51342440D01*
X125440629Y-51392138D01*
X125333204Y-51549618D01*
X125332898Y-51550066D01*
X125277987Y-51595069D01*
X125207462Y-51603240D01*
X125143715Y-51571986D01*
X125123018Y-51547502D01*
X125042426Y-51422926D01*
X125036136Y-51414757D01*
X124892806Y-51257240D01*
X124885273Y-51250215D01*
X124718139Y-51118222D01*
X124709552Y-51112517D01*
X124523117Y-51009599D01*
X124513705Y-51005369D01*
X124312959Y-50934280D01*
X124302988Y-50931646D01*
X124231837Y-50918972D01*
X124218540Y-50920432D01*
X124214000Y-50934989D01*
X124214000Y-52378000D01*
X124193998Y-52446121D01*
X124140342Y-52492614D01*
X124088000Y-52504000D01*
X123832000Y-52504000D01*
X123763879Y-52483998D01*
X123717386Y-52430342D01*
X123706000Y-52378000D01*
X123706000Y-50933102D01*
X123702082Y-50919758D01*
X123687806Y-50917771D01*
X123649324Y-50923660D01*
X123639288Y-50926051D01*
X123436868Y-50992212D01*
X123427359Y-50996209D01*
X123238463Y-51094542D01*
X123229738Y-51100036D01*
X123059433Y-51227905D01*
X123051726Y-51234748D01*
X122904590Y-51388717D01*
X122898109Y-51396722D01*
X122793498Y-51550074D01*
X122738587Y-51595076D01*
X122668062Y-51603247D01*
X122604315Y-51571993D01*
X122583618Y-51547509D01*
X122502822Y-51422617D01*
X122502820Y-51422614D01*
X122500014Y-51418277D01*
X122349670Y-51253051D01*
X122345619Y-51249852D01*
X122345615Y-51249848D01*
X122178414Y-51117800D01*
X122178410Y-51117798D01*
X122174359Y-51114598D01*
X122138028Y-51094542D01*
X122054497Y-51048431D01*
X121978789Y-51006638D01*
X121973920Y-51004914D01*
X121973916Y-51004912D01*
X121773087Y-50933795D01*
X121773083Y-50933794D01*
X121768212Y-50932069D01*
X121763119Y-50931162D01*
X121763116Y-50931161D01*
X121553373Y-50893800D01*
X121553367Y-50893799D01*
X121548284Y-50892894D01*
X121474452Y-50891992D01*
X121330081Y-50890228D01*
X121330079Y-50890228D01*
X121324911Y-50890165D01*
X121104091Y-50923955D01*
X120891756Y-50993357D01*
X120693607Y-51096507D01*
X120689474Y-51099610D01*
X120689471Y-51099612D01*
X120635047Y-51140475D01*
X120514965Y-51230635D01*
X120511393Y-51234373D01*
X120408122Y-51342440D01*
X120360629Y-51392138D01*
X120253201Y-51549621D01*
X120198293Y-51594621D01*
X120127768Y-51602792D01*
X120064021Y-51571538D01*
X120043324Y-51547054D01*
X119962822Y-51422617D01*
X119962820Y-51422614D01*
X119960014Y-51418277D01*
X119809670Y-51253051D01*
X119805619Y-51249852D01*
X119805615Y-51249848D01*
X119638414Y-51117800D01*
X119638410Y-51117798D01*
X119634359Y-51114598D01*
X119598028Y-51094542D01*
X119514497Y-51048431D01*
X119438789Y-51006638D01*
X119433920Y-51004914D01*
X119433916Y-51004912D01*
X119233087Y-50933795D01*
X119233083Y-50933794D01*
X119228212Y-50932069D01*
X119223119Y-50931162D01*
X119223116Y-50931161D01*
X119013373Y-50893800D01*
X119013367Y-50893799D01*
X119008284Y-50892894D01*
X118934452Y-50891992D01*
X118790081Y-50890228D01*
X118790079Y-50890228D01*
X118784911Y-50890165D01*
X118564091Y-50923955D01*
X118351756Y-50993357D01*
X118153607Y-51096507D01*
X118149474Y-51099610D01*
X118149471Y-51099612D01*
X118095047Y-51140475D01*
X117974965Y-51230635D01*
X117971393Y-51234373D01*
X117868122Y-51342440D01*
X117820629Y-51392138D01*
X117713201Y-51549621D01*
X117658293Y-51594621D01*
X117587768Y-51602792D01*
X117524021Y-51571538D01*
X117503324Y-51547054D01*
X117422822Y-51422617D01*
X117422820Y-51422614D01*
X117420014Y-51418277D01*
X117269670Y-51253051D01*
X117265619Y-51249852D01*
X117265615Y-51249848D01*
X117098414Y-51117800D01*
X117098410Y-51117798D01*
X117094359Y-51114598D01*
X117058028Y-51094542D01*
X116974497Y-51048431D01*
X116898789Y-51006638D01*
X116893920Y-51004914D01*
X116893916Y-51004912D01*
X116693087Y-50933795D01*
X116693083Y-50933794D01*
X116688212Y-50932069D01*
X116683119Y-50931162D01*
X116683116Y-50931161D01*
X116473373Y-50893800D01*
X116473367Y-50893799D01*
X116468284Y-50892894D01*
X116394452Y-50891992D01*
X116250081Y-50890228D01*
X116250079Y-50890228D01*
X116244911Y-50890165D01*
X116024091Y-50923955D01*
X115811756Y-50993357D01*
X115613607Y-51096507D01*
X115609474Y-51099610D01*
X115609471Y-51099612D01*
X115555047Y-51140475D01*
X115434965Y-51230635D01*
X115431393Y-51234373D01*
X115328122Y-51342440D01*
X115280629Y-51392138D01*
X115173201Y-51549621D01*
X115118293Y-51594621D01*
X115047768Y-51602792D01*
X114984021Y-51571538D01*
X114963324Y-51547054D01*
X114882822Y-51422617D01*
X114882820Y-51422614D01*
X114880014Y-51418277D01*
X114729670Y-51253051D01*
X114725619Y-51249852D01*
X114725615Y-51249848D01*
X114558414Y-51117800D01*
X114558410Y-51117798D01*
X114554359Y-51114598D01*
X114518028Y-51094542D01*
X114434497Y-51048431D01*
X114358789Y-51006638D01*
X114353920Y-51004914D01*
X114353916Y-51004912D01*
X114153087Y-50933795D01*
X114153083Y-50933794D01*
X114148212Y-50932069D01*
X114143119Y-50931162D01*
X114143116Y-50931161D01*
X113933373Y-50893800D01*
X113933367Y-50893799D01*
X113928284Y-50892894D01*
X113854452Y-50891992D01*
X113710081Y-50890228D01*
X113710079Y-50890228D01*
X113704911Y-50890165D01*
X113484091Y-50923955D01*
X113271756Y-50993357D01*
X113073607Y-51096507D01*
X113069474Y-51099610D01*
X113069471Y-51099612D01*
X113015047Y-51140475D01*
X112894965Y-51230635D01*
X112891393Y-51234373D01*
X112788122Y-51342440D01*
X112740629Y-51392138D01*
X112633204Y-51549618D01*
X112632898Y-51550066D01*
X112577987Y-51595069D01*
X112507462Y-51603240D01*
X112443715Y-51571986D01*
X112423018Y-51547502D01*
X112342426Y-51422926D01*
X112336136Y-51414757D01*
X112192806Y-51257240D01*
X112185273Y-51250215D01*
X112018139Y-51118222D01*
X112009552Y-51112517D01*
X111823117Y-51009599D01*
X111813705Y-51005369D01*
X111612959Y-50934280D01*
X111602988Y-50931646D01*
X111531837Y-50918972D01*
X111518540Y-50920432D01*
X111514000Y-50934989D01*
X111514000Y-52378000D01*
X111493998Y-52446121D01*
X111440342Y-52492614D01*
X111388000Y-52504000D01*
X111132000Y-52504000D01*
X111063879Y-52483998D01*
X111017386Y-52430342D01*
X111006000Y-52378000D01*
X111006000Y-50933102D01*
X111002082Y-50919758D01*
X110987806Y-50917771D01*
X110949324Y-50923660D01*
X110939288Y-50926051D01*
X110736868Y-50992212D01*
X110727359Y-50996209D01*
X110538463Y-51094542D01*
X110529738Y-51100036D01*
X110359433Y-51227905D01*
X110351726Y-51234748D01*
X110204590Y-51388717D01*
X110198109Y-51396722D01*
X110093498Y-51550074D01*
X110038587Y-51595076D01*
X109968062Y-51603247D01*
X109904315Y-51571993D01*
X109883618Y-51547509D01*
X109802822Y-51422617D01*
X109802820Y-51422614D01*
X109800014Y-51418277D01*
X109649670Y-51253051D01*
X109645619Y-51249852D01*
X109645615Y-51249848D01*
X109478414Y-51117800D01*
X109478410Y-51117798D01*
X109474359Y-51114598D01*
X109438028Y-51094542D01*
X109354497Y-51048431D01*
X109278789Y-51006638D01*
X109273920Y-51004914D01*
X109273916Y-51004912D01*
X109073087Y-50933795D01*
X109073083Y-50933794D01*
X109068212Y-50932069D01*
X109063119Y-50931162D01*
X109063116Y-50931161D01*
X108853373Y-50893800D01*
X108853367Y-50893799D01*
X108848284Y-50892894D01*
X108774452Y-50891992D01*
X108630081Y-50890228D01*
X108630079Y-50890228D01*
X108624911Y-50890165D01*
X108404091Y-50923955D01*
X108191756Y-50993357D01*
X107993607Y-51096507D01*
X107989474Y-51099610D01*
X107989471Y-51099612D01*
X107935047Y-51140475D01*
X107814965Y-51230635D01*
X107811393Y-51234373D01*
X107708122Y-51342440D01*
X107660629Y-51392138D01*
X107553201Y-51549621D01*
X107498293Y-51594621D01*
X107427768Y-51602792D01*
X107364021Y-51571538D01*
X107343324Y-51547054D01*
X107262822Y-51422617D01*
X107262820Y-51422614D01*
X107260014Y-51418277D01*
X107109670Y-51253051D01*
X107105619Y-51249852D01*
X107105615Y-51249848D01*
X106938414Y-51117800D01*
X106938410Y-51117798D01*
X106934359Y-51114598D01*
X106898028Y-51094542D01*
X106814497Y-51048431D01*
X106738789Y-51006638D01*
X106733920Y-51004914D01*
X106733916Y-51004912D01*
X106533087Y-50933795D01*
X106533083Y-50933794D01*
X106528212Y-50932069D01*
X106523119Y-50931162D01*
X106523116Y-50931161D01*
X106313373Y-50893800D01*
X106313367Y-50893799D01*
X106308284Y-50892894D01*
X106234452Y-50891992D01*
X106090081Y-50890228D01*
X106090079Y-50890228D01*
X106084911Y-50890165D01*
X105864091Y-50923955D01*
X105651756Y-50993357D01*
X105453607Y-51096507D01*
X105449474Y-51099610D01*
X105449471Y-51099612D01*
X105395047Y-51140475D01*
X105274965Y-51230635D01*
X105271393Y-51234373D01*
X105168122Y-51342440D01*
X105120629Y-51392138D01*
X105013204Y-51549618D01*
X105012898Y-51550066D01*
X104957987Y-51595069D01*
X104887462Y-51603240D01*
X104823715Y-51571986D01*
X104803018Y-51547502D01*
X104722426Y-51422926D01*
X104716136Y-51414757D01*
X104572806Y-51257240D01*
X104565273Y-51250215D01*
X104398139Y-51118222D01*
X104389552Y-51112517D01*
X104203117Y-51009599D01*
X104193705Y-51005369D01*
X103992959Y-50934280D01*
X103982988Y-50931646D01*
X103911837Y-50918972D01*
X103898540Y-50920432D01*
X103894000Y-50934989D01*
X103894000Y-52378000D01*
X103873998Y-52446121D01*
X103820342Y-52492614D01*
X103768000Y-52504000D01*
X103512000Y-52504000D01*
X103443879Y-52483998D01*
X103397386Y-52430342D01*
X103386000Y-52378000D01*
X103386000Y-50933102D01*
X103382082Y-50919758D01*
X103367806Y-50917771D01*
X103329324Y-50923660D01*
X103319288Y-50926051D01*
X103116868Y-50992212D01*
X103107359Y-50996209D01*
X102918463Y-51094542D01*
X102909738Y-51100036D01*
X102739433Y-51227905D01*
X102731726Y-51234748D01*
X102584590Y-51388717D01*
X102578109Y-51396722D01*
X102473498Y-51550074D01*
X102418587Y-51595076D01*
X102348062Y-51603247D01*
X102284315Y-51571993D01*
X102263618Y-51547509D01*
X102182822Y-51422617D01*
X102182820Y-51422614D01*
X102180014Y-51418277D01*
X102029670Y-51253051D01*
X102025619Y-51249852D01*
X102025615Y-51249848D01*
X101858414Y-51117800D01*
X101858410Y-51117798D01*
X101854359Y-51114598D01*
X101818028Y-51094542D01*
X101734497Y-51048431D01*
X101658789Y-51006638D01*
X101653920Y-51004914D01*
X101653916Y-51004912D01*
X101453087Y-50933795D01*
X101453083Y-50933794D01*
X101448212Y-50932069D01*
X101443119Y-50931162D01*
X101443116Y-50931161D01*
X101233373Y-50893800D01*
X101233367Y-50893799D01*
X101228284Y-50892894D01*
X101154452Y-50891992D01*
X101010081Y-50890228D01*
X101010079Y-50890228D01*
X101004911Y-50890165D01*
X100784091Y-50923955D01*
X100571756Y-50993357D01*
X100373607Y-51096507D01*
X100369474Y-51099610D01*
X100369471Y-51099612D01*
X100315047Y-51140475D01*
X100194965Y-51230635D01*
X100191393Y-51234373D01*
X100088122Y-51342440D01*
X100040629Y-51392138D01*
X99933201Y-51549621D01*
X99878293Y-51594621D01*
X99807768Y-51602792D01*
X99744021Y-51571538D01*
X99723324Y-51547054D01*
X99642822Y-51422617D01*
X99642820Y-51422614D01*
X99640014Y-51418277D01*
X99489670Y-51253051D01*
X99485619Y-51249852D01*
X99485615Y-51249848D01*
X99318414Y-51117800D01*
X99318410Y-51117798D01*
X99314359Y-51114598D01*
X99278028Y-51094542D01*
X99194497Y-51048431D01*
X99118789Y-51006638D01*
X99113920Y-51004914D01*
X99113916Y-51004912D01*
X98913087Y-50933795D01*
X98913083Y-50933794D01*
X98908212Y-50932069D01*
X98903119Y-50931162D01*
X98903116Y-50931161D01*
X98693373Y-50893800D01*
X98693367Y-50893799D01*
X98688284Y-50892894D01*
X98614452Y-50891992D01*
X98470081Y-50890228D01*
X98470079Y-50890228D01*
X98464911Y-50890165D01*
X98244091Y-50923955D01*
X98031756Y-50993357D01*
X97833607Y-51096507D01*
X97829474Y-51099610D01*
X97829471Y-51099612D01*
X97775047Y-51140475D01*
X97654965Y-51230635D01*
X97651393Y-51234373D01*
X97548122Y-51342440D01*
X97500629Y-51392138D01*
X97393201Y-51549621D01*
X97338293Y-51594621D01*
X97267768Y-51602792D01*
X97204021Y-51571538D01*
X97183324Y-51547054D01*
X97102822Y-51422617D01*
X97102820Y-51422614D01*
X97100014Y-51418277D01*
X96949670Y-51253051D01*
X96945619Y-51249852D01*
X96945615Y-51249848D01*
X96778414Y-51117800D01*
X96778410Y-51117798D01*
X96774359Y-51114598D01*
X96738028Y-51094542D01*
X96654497Y-51048431D01*
X96578789Y-51006638D01*
X96573920Y-51004914D01*
X96573916Y-51004912D01*
X96373087Y-50933795D01*
X96373083Y-50933794D01*
X96368212Y-50932069D01*
X96363119Y-50931162D01*
X96363116Y-50931161D01*
X96153373Y-50893800D01*
X96153367Y-50893799D01*
X96148284Y-50892894D01*
X96074452Y-50891992D01*
X95930081Y-50890228D01*
X95930079Y-50890228D01*
X95924911Y-50890165D01*
X95704091Y-50923955D01*
X95491756Y-50993357D01*
X95293607Y-51096507D01*
X95289474Y-51099610D01*
X95289471Y-51099612D01*
X95235047Y-51140475D01*
X95114965Y-51230635D01*
X95111393Y-51234373D01*
X95008122Y-51342440D01*
X94960629Y-51392138D01*
X94853204Y-51549618D01*
X94852898Y-51550066D01*
X94797987Y-51595069D01*
X94727462Y-51603240D01*
X94663715Y-51571986D01*
X94643018Y-51547502D01*
X94562426Y-51422926D01*
X94556136Y-51414757D01*
X94412806Y-51257240D01*
X94405273Y-51250215D01*
X94238139Y-51118222D01*
X94229552Y-51112517D01*
X94043117Y-51009599D01*
X94033705Y-51005369D01*
X93832959Y-50934280D01*
X93822988Y-50931646D01*
X93751837Y-50918972D01*
X93738540Y-50920432D01*
X93734000Y-50934989D01*
X93734000Y-52378000D01*
X93713998Y-52446121D01*
X93660342Y-52492614D01*
X93608000Y-52504000D01*
X93352000Y-52504000D01*
X93283879Y-52483998D01*
X93237386Y-52430342D01*
X93226000Y-52378000D01*
X93226000Y-50933102D01*
X93222082Y-50919758D01*
X93207806Y-50917771D01*
X93169324Y-50923660D01*
X93159288Y-50926051D01*
X92956868Y-50992212D01*
X92947359Y-50996209D01*
X92758463Y-51094542D01*
X92749738Y-51100036D01*
X92579433Y-51227905D01*
X92571726Y-51234748D01*
X92424590Y-51388717D01*
X92418109Y-51396722D01*
X92313498Y-51550074D01*
X92258587Y-51595076D01*
X92188062Y-51603247D01*
X92124315Y-51571993D01*
X92103618Y-51547509D01*
X92022822Y-51422617D01*
X92022820Y-51422614D01*
X92020014Y-51418277D01*
X91869670Y-51253051D01*
X91865619Y-51249852D01*
X91865615Y-51249848D01*
X91698414Y-51117800D01*
X91698410Y-51117798D01*
X91694359Y-51114598D01*
X91658028Y-51094542D01*
X91574497Y-51048431D01*
X91498789Y-51006638D01*
X91493920Y-51004914D01*
X91493916Y-51004912D01*
X91293087Y-50933795D01*
X91293083Y-50933794D01*
X91288212Y-50932069D01*
X91283119Y-50931162D01*
X91283116Y-50931161D01*
X91073373Y-50893800D01*
X91073367Y-50893799D01*
X91068284Y-50892894D01*
X90994452Y-50891992D01*
X90850081Y-50890228D01*
X90850079Y-50890228D01*
X90844911Y-50890165D01*
X90624091Y-50923955D01*
X90411756Y-50993357D01*
X90213607Y-51096507D01*
X90209474Y-51099610D01*
X90209471Y-51099612D01*
X90155047Y-51140475D01*
X90034965Y-51230635D01*
X90031393Y-51234373D01*
X89928122Y-51342440D01*
X89880629Y-51392138D01*
X89773201Y-51549621D01*
X89718293Y-51594621D01*
X89647768Y-51602792D01*
X89584021Y-51571538D01*
X89563324Y-51547054D01*
X89482822Y-51422617D01*
X89482820Y-51422614D01*
X89480014Y-51418277D01*
X89329670Y-51253051D01*
X89325619Y-51249852D01*
X89325615Y-51249848D01*
X89158414Y-51117800D01*
X89158410Y-51117798D01*
X89154359Y-51114598D01*
X89118028Y-51094542D01*
X89034497Y-51048431D01*
X88958789Y-51006638D01*
X88953920Y-51004914D01*
X88953916Y-51004912D01*
X88753087Y-50933795D01*
X88753083Y-50933794D01*
X88748212Y-50932069D01*
X88743119Y-50931162D01*
X88743116Y-50931161D01*
X88533373Y-50893800D01*
X88533367Y-50893799D01*
X88528284Y-50892894D01*
X88454452Y-50891992D01*
X88310081Y-50890228D01*
X88310079Y-50890228D01*
X88304911Y-50890165D01*
X88084091Y-50923955D01*
X87871756Y-50993357D01*
X87673607Y-51096507D01*
X87669474Y-51099610D01*
X87669471Y-51099612D01*
X87615047Y-51140475D01*
X87494965Y-51230635D01*
X87491393Y-51234373D01*
X87388122Y-51342440D01*
X87340629Y-51392138D01*
X87214743Y-51576680D01*
X87167716Y-51677992D01*
X87151369Y-51713209D01*
X87120688Y-51779305D01*
X87060989Y-51994570D01*
X87037251Y-52216695D01*
X84848887Y-52216695D01*
X84670191Y-52049766D01*
X84448584Y-51896032D01*
X84444501Y-51894001D01*
X84444498Y-51893999D01*
X84277063Y-51810702D01*
X84207106Y-51775899D01*
X84202772Y-51774478D01*
X84202769Y-51774477D01*
X83955147Y-51693302D01*
X83955141Y-51693301D01*
X83950814Y-51691882D01*
X83946322Y-51691102D01*
X83688860Y-51646399D01*
X83688852Y-51646398D01*
X83685079Y-51645743D01*
X83673817Y-51645182D01*
X83601422Y-51641578D01*
X83601414Y-51641578D01*
X83599851Y-51641500D01*
X83431488Y-51641500D01*
X83429220Y-51641665D01*
X83429208Y-51641665D01*
X83298116Y-51651177D01*
X83230996Y-51656047D01*
X83226541Y-51657031D01*
X83226538Y-51657031D01*
X82972088Y-51713209D01*
X82972084Y-51713210D01*
X82967628Y-51714194D01*
X82843014Y-51761406D01*
X82719682Y-51808132D01*
X82719679Y-51808133D01*
X82715412Y-51809750D01*
X82479632Y-51940714D01*
X82265227Y-52104343D01*
X82262034Y-52107609D01*
X82262032Y-52107611D01*
X82246233Y-52123773D01*
X82076688Y-52297208D01*
X81917966Y-52515270D01*
X81865479Y-52615031D01*
X81794510Y-52749921D01*
X81794507Y-52749927D01*
X81792385Y-52753961D01*
X81790865Y-52758266D01*
X81790863Y-52758270D01*
X81722422Y-52952077D01*
X81702575Y-53008280D01*
X81692638Y-53058699D01*
X81651699Y-53266408D01*
X81650419Y-53272900D01*
X81650192Y-53277453D01*
X81650192Y-53277456D01*
X81637561Y-53531195D01*
X81637009Y-53542277D01*
X80508500Y-53542277D01*
X80508500Y-53053250D01*
X80510246Y-53032345D01*
X80512770Y-53017344D01*
X80512770Y-53017341D01*
X80513576Y-53012552D01*
X80513729Y-53000000D01*
X80513040Y-52995186D01*
X80513039Y-52995177D01*
X80511869Y-52987006D01*
X80510827Y-52961540D01*
X80526206Y-52707290D01*
X80528040Y-52692186D01*
X80555375Y-52543023D01*
X80579525Y-52411240D01*
X80583164Y-52396473D01*
X80668142Y-52123769D01*
X80673534Y-52109555D01*
X80790758Y-51849092D01*
X80797828Y-51835621D01*
X80812128Y-51811967D01*
X80871829Y-51713209D01*
X80945595Y-51591187D01*
X80954238Y-51578666D01*
X81130385Y-51353829D01*
X81140475Y-51342440D01*
X81342440Y-51140475D01*
X81353829Y-51130385D01*
X81578666Y-50954238D01*
X81591187Y-50945595D01*
X81835621Y-50797828D01*
X81849094Y-50790757D01*
X81891777Y-50771547D01*
X82109555Y-50673534D01*
X82123769Y-50668142D01*
X82396474Y-50583164D01*
X82411240Y-50579525D01*
X82620214Y-50541229D01*
X82692186Y-50528040D01*
X82707290Y-50526206D01*
X82957904Y-50511047D01*
X82984716Y-50512308D01*
X82984852Y-50512310D01*
X82993724Y-50513691D01*
X83002626Y-50512527D01*
X83002628Y-50512527D01*
X83017677Y-50510559D01*
X83025286Y-50509564D01*
X83041621Y-50508500D01*
X141950633Y-50508500D01*
X141970018Y-50510000D01*
G37*
G04 #@! TD.AperFunction*
G04 #@! TA.AperFunction,Conductor*
G36*
X93552012Y-61202850D02*
G01*
X93589024Y-61258198D01*
X93600450Y-61292446D01*
X93693522Y-61442848D01*
X93818697Y-61567805D01*
X93824927Y-61571645D01*
X93824928Y-61571646D01*
X93962090Y-61656194D01*
X93969262Y-61660615D01*
X94022168Y-61678163D01*
X94080527Y-61718594D01*
X94107764Y-61784158D01*
X94108500Y-61797756D01*
X94108500Y-64437233D01*
X94107973Y-64448416D01*
X94106298Y-64455909D01*
X94106547Y-64463835D01*
X94106547Y-64463836D01*
X94108438Y-64523986D01*
X94108500Y-64527945D01*
X94108500Y-64555856D01*
X94108997Y-64559790D01*
X94108997Y-64559791D01*
X94109005Y-64559856D01*
X94109938Y-64571693D01*
X94111327Y-64615889D01*
X94116978Y-64635339D01*
X94120987Y-64654700D01*
X94123526Y-64674797D01*
X94126445Y-64682168D01*
X94126445Y-64682170D01*
X94139804Y-64715912D01*
X94143649Y-64727142D01*
X94155982Y-64769593D01*
X94160015Y-64776412D01*
X94160017Y-64776417D01*
X94166293Y-64787028D01*
X94174988Y-64804776D01*
X94182448Y-64823617D01*
X94187110Y-64830033D01*
X94187110Y-64830034D01*
X94208436Y-64859387D01*
X94214952Y-64869307D01*
X94237458Y-64907362D01*
X94251779Y-64921683D01*
X94264619Y-64936716D01*
X94276528Y-64953107D01*
X94282634Y-64958158D01*
X94310605Y-64981298D01*
X94319384Y-64989288D01*
X95172343Y-65842247D01*
X95179887Y-65850537D01*
X95184000Y-65857018D01*
X95189777Y-65862443D01*
X95233667Y-65903658D01*
X95236509Y-65906413D01*
X95256230Y-65926134D01*
X95259425Y-65928612D01*
X95268447Y-65936318D01*
X95300679Y-65966586D01*
X95307628Y-65970406D01*
X95318432Y-65976346D01*
X95334956Y-65987199D01*
X95350959Y-65999613D01*
X95391543Y-66017176D01*
X95402173Y-66022383D01*
X95440940Y-66043695D01*
X95448617Y-66045666D01*
X95448622Y-66045668D01*
X95460558Y-66048732D01*
X95479266Y-66055137D01*
X95497855Y-66063181D01*
X95505680Y-66064420D01*
X95505682Y-66064421D01*
X95541519Y-66070097D01*
X95553140Y-66072504D01*
X95588289Y-66081528D01*
X95595970Y-66083500D01*
X95616231Y-66083500D01*
X95635940Y-66085051D01*
X95655943Y-66088219D01*
X95663835Y-66087473D01*
X95669062Y-66086979D01*
X95699954Y-66084059D01*
X95711811Y-66083500D01*
X118159222Y-66083500D01*
X118227343Y-66103502D01*
X118273836Y-66157158D01*
X118283940Y-66227432D01*
X118254446Y-66292012D01*
X118227342Y-66315498D01*
X118141176Y-66370873D01*
X118141170Y-66370877D01*
X118137388Y-66373308D01*
X118083732Y-66419801D01*
X118080792Y-66423194D01*
X117993919Y-66523450D01*
X117993917Y-66523453D01*
X117988018Y-66530261D01*
X117927302Y-66663210D01*
X117907300Y-66731331D01*
X117907202Y-66732010D01*
X117873637Y-66793476D01*
X117811323Y-66827499D01*
X117740508Y-66822431D01*
X117718430Y-66811638D01*
X117678755Y-66787183D01*
X117665576Y-66781037D01*
X117511290Y-66729862D01*
X117497914Y-66726995D01*
X117403562Y-66717328D01*
X117397145Y-66717000D01*
X117372115Y-66717000D01*
X117356876Y-66721475D01*
X117355671Y-66722865D01*
X117354000Y-66730548D01*
X117354000Y-68078000D01*
X117333998Y-68146121D01*
X117280342Y-68192614D01*
X117228000Y-68204000D01*
X116110116Y-68204000D01*
X116094877Y-68208475D01*
X116093672Y-68209865D01*
X116092001Y-68217548D01*
X116092001Y-68472095D01*
X116092338Y-68478614D01*
X116102257Y-68574206D01*
X116105149Y-68587600D01*
X116156588Y-68741784D01*
X116162761Y-68754962D01*
X116248063Y-68892807D01*
X116257099Y-68904208D01*
X116354387Y-69001327D01*
X116388466Y-69063610D01*
X116383463Y-69134430D01*
X116340966Y-69191303D01*
X116274467Y-69216171D01*
X116265369Y-69216500D01*
X93786595Y-69216500D01*
X93718474Y-69196498D01*
X93697499Y-69179595D01*
X93380404Y-68862499D01*
X93346379Y-68800187D01*
X93343500Y-68773404D01*
X93343500Y-67677885D01*
X116092000Y-67677885D01*
X116096475Y-67693124D01*
X116097865Y-67694329D01*
X116105548Y-67696000D01*
X116827885Y-67696000D01*
X116843124Y-67691525D01*
X116844329Y-67690135D01*
X116846000Y-67682452D01*
X116846000Y-66735116D01*
X116841525Y-66719877D01*
X116840135Y-66718672D01*
X116832452Y-66717001D01*
X116802905Y-66717001D01*
X116796386Y-66717338D01*
X116700794Y-66727257D01*
X116687400Y-66730149D01*
X116533216Y-66781588D01*
X116520038Y-66787761D01*
X116382193Y-66873063D01*
X116370792Y-66882099D01*
X116256261Y-66996829D01*
X116247249Y-67008240D01*
X116162184Y-67146243D01*
X116156037Y-67159424D01*
X116104862Y-67313710D01*
X116101995Y-67327086D01*
X116092328Y-67421438D01*
X116092000Y-67427855D01*
X116092000Y-67677885D01*
X93343500Y-67677885D01*
X93343500Y-61298074D01*
X93363502Y-61229953D01*
X93417158Y-61183460D01*
X93487432Y-61173356D01*
X93552012Y-61202850D01*
G37*
G04 #@! TD.AperFunction*
G04 #@! TA.AperFunction,Conductor*
G36*
X95546450Y-56063424D02*
G01*
X95639692Y-56099030D01*
X95644760Y-56100061D01*
X95644763Y-56100062D01*
X95708420Y-56113013D01*
X95858597Y-56143567D01*
X95863772Y-56143757D01*
X95863774Y-56143757D01*
X96076673Y-56151564D01*
X96076677Y-56151564D01*
X96081837Y-56151753D01*
X96086957Y-56151097D01*
X96086959Y-56151097D01*
X96298288Y-56124025D01*
X96298289Y-56124025D01*
X96303416Y-56123368D01*
X96310003Y-56121392D01*
X96402080Y-56093767D01*
X96486292Y-56068502D01*
X96557288Y-56068085D01*
X96617238Y-56106118D01*
X96647110Y-56170524D01*
X96648500Y-56189188D01*
X96648500Y-61897233D01*
X96647973Y-61908416D01*
X96646298Y-61915909D01*
X96646547Y-61923835D01*
X96646547Y-61923836D01*
X96648438Y-61983986D01*
X96648500Y-61987945D01*
X96648500Y-62015856D01*
X96648997Y-62019790D01*
X96648997Y-62019791D01*
X96649005Y-62019856D01*
X96649938Y-62031693D01*
X96651327Y-62075889D01*
X96656978Y-62095339D01*
X96660987Y-62114700D01*
X96662109Y-62123577D01*
X96663526Y-62134797D01*
X96666445Y-62142168D01*
X96666445Y-62142170D01*
X96679804Y-62175912D01*
X96683649Y-62187142D01*
X96685421Y-62193242D01*
X96695982Y-62229593D01*
X96700015Y-62236412D01*
X96700017Y-62236417D01*
X96706293Y-62247028D01*
X96714988Y-62264776D01*
X96722448Y-62283617D01*
X96727110Y-62290033D01*
X96727110Y-62290034D01*
X96748436Y-62319387D01*
X96754952Y-62329307D01*
X96764675Y-62345747D01*
X96777458Y-62367362D01*
X96791779Y-62381683D01*
X96804619Y-62396716D01*
X96816528Y-62413107D01*
X96848413Y-62439484D01*
X96850593Y-62441288D01*
X96859374Y-62449278D01*
X97540353Y-63130258D01*
X97547887Y-63138537D01*
X97552000Y-63145018D01*
X97601651Y-63191643D01*
X97604493Y-63194398D01*
X97624230Y-63214135D01*
X97627427Y-63216615D01*
X97636447Y-63224318D01*
X97668679Y-63254586D01*
X97675625Y-63258405D01*
X97675628Y-63258407D01*
X97686434Y-63264348D01*
X97702953Y-63275199D01*
X97718959Y-63287614D01*
X97726228Y-63290759D01*
X97726232Y-63290762D01*
X97759537Y-63305174D01*
X97770187Y-63310391D01*
X97808940Y-63331695D01*
X97816615Y-63333666D01*
X97816616Y-63333666D01*
X97828562Y-63336733D01*
X97847267Y-63343137D01*
X97865855Y-63351181D01*
X97873678Y-63352420D01*
X97873688Y-63352423D01*
X97909524Y-63358099D01*
X97921144Y-63360505D01*
X97949395Y-63367758D01*
X97963970Y-63371500D01*
X97984224Y-63371500D01*
X98003934Y-63373051D01*
X98023943Y-63376220D01*
X98031835Y-63375474D01*
X98067961Y-63372059D01*
X98079819Y-63371500D01*
X125415406Y-63371500D01*
X125483527Y-63391502D01*
X125504501Y-63408405D01*
X125989595Y-63893499D01*
X126023621Y-63955811D01*
X126026500Y-63982594D01*
X126026500Y-64171692D01*
X126006498Y-64239813D01*
X125958683Y-64283453D01*
X125933607Y-64296507D01*
X125929474Y-64299610D01*
X125929471Y-64299612D01*
X125759100Y-64427530D01*
X125754965Y-64430635D01*
X125737326Y-64449093D01*
X125631541Y-64559791D01*
X125600629Y-64592138D01*
X125493204Y-64749618D01*
X125492898Y-64750066D01*
X125437987Y-64795069D01*
X125367462Y-64803240D01*
X125303715Y-64771986D01*
X125283018Y-64747502D01*
X125202426Y-64622926D01*
X125196136Y-64614757D01*
X125052806Y-64457240D01*
X125045273Y-64450215D01*
X124878139Y-64318222D01*
X124869552Y-64312517D01*
X124683117Y-64209599D01*
X124673705Y-64205369D01*
X124472959Y-64134280D01*
X124462988Y-64131646D01*
X124391837Y-64118972D01*
X124378540Y-64120432D01*
X124374000Y-64134989D01*
X124374000Y-65578000D01*
X124353998Y-65646121D01*
X124300342Y-65692614D01*
X124248000Y-65704000D01*
X123992000Y-65704000D01*
X123923879Y-65683998D01*
X123877386Y-65630342D01*
X123866000Y-65578000D01*
X123866000Y-64133102D01*
X123862082Y-64119758D01*
X123847806Y-64117771D01*
X123809324Y-64123660D01*
X123799288Y-64126051D01*
X123596868Y-64192212D01*
X123587359Y-64196209D01*
X123398463Y-64294542D01*
X123389738Y-64300036D01*
X123219433Y-64427905D01*
X123211726Y-64434748D01*
X123134478Y-64515584D01*
X123072954Y-64551014D01*
X123002042Y-64547557D01*
X122944255Y-64506311D01*
X122925402Y-64472763D01*
X122883767Y-64361703D01*
X122880615Y-64353295D01*
X122793261Y-64236739D01*
X122676705Y-64149385D01*
X122540316Y-64098255D01*
X122478134Y-64091500D01*
X120681866Y-64091500D01*
X120619684Y-64098255D01*
X120483295Y-64149385D01*
X120366739Y-64236739D01*
X120279385Y-64353295D01*
X120228255Y-64489684D01*
X120221500Y-64551866D01*
X120221500Y-64690500D01*
X120201498Y-64758621D01*
X120147842Y-64805114D01*
X120095500Y-64816500D01*
X95990595Y-64816500D01*
X95922474Y-64796498D01*
X95901500Y-64779595D01*
X95412405Y-64290500D01*
X95378379Y-64228188D01*
X95375500Y-64201405D01*
X95375500Y-61797697D01*
X95395502Y-61729576D01*
X95449158Y-61683083D01*
X95461623Y-61678174D01*
X95509002Y-61662367D01*
X95509004Y-61662366D01*
X95515946Y-61660050D01*
X95619217Y-61596144D01*
X95660120Y-61570832D01*
X95666348Y-61566978D01*
X95791305Y-61441803D01*
X95817453Y-61399383D01*
X95880275Y-61297468D01*
X95880276Y-61297466D01*
X95884115Y-61291238D01*
X95919863Y-61183460D01*
X95937632Y-61129889D01*
X95937632Y-61129887D01*
X95939797Y-61123361D01*
X95950500Y-61018900D01*
X95950500Y-60393100D01*
X95950163Y-60389850D01*
X95940238Y-60294192D01*
X95940237Y-60294188D01*
X95939526Y-60287334D01*
X95927410Y-60251016D01*
X95885868Y-60126502D01*
X95883550Y-60119554D01*
X95790478Y-59969152D01*
X95703891Y-59882716D01*
X95669812Y-59820434D01*
X95674815Y-59749614D01*
X95703736Y-59704525D01*
X95786134Y-59621983D01*
X95791305Y-59616803D01*
X95795146Y-59610572D01*
X95880275Y-59472468D01*
X95880276Y-59472466D01*
X95884115Y-59466238D01*
X95919863Y-59358460D01*
X95937632Y-59304889D01*
X95937632Y-59304887D01*
X95939797Y-59298361D01*
X95950500Y-59193900D01*
X95950500Y-58568100D01*
X95950163Y-58564850D01*
X95940238Y-58469192D01*
X95940237Y-58469188D01*
X95939526Y-58462334D01*
X95919185Y-58401363D01*
X95885868Y-58301502D01*
X95883550Y-58294554D01*
X95790478Y-58144152D01*
X95665303Y-58019195D01*
X95646418Y-58007554D01*
X95520968Y-57930225D01*
X95520966Y-57930224D01*
X95514738Y-57926385D01*
X95461832Y-57908837D01*
X95403473Y-57868406D01*
X95376236Y-57802842D01*
X95375500Y-57789244D01*
X95375500Y-56181134D01*
X95395502Y-56113013D01*
X95449158Y-56066520D01*
X95519432Y-56056416D01*
X95546450Y-56063424D01*
G37*
G04 #@! TD.AperFunction*
G04 #@! TA.AperFunction,Conductor*
G36*
X98756121Y-54556002D02*
G01*
X98802614Y-54609658D01*
X98814000Y-54662000D01*
X98814000Y-56108517D01*
X98818064Y-56122359D01*
X98831478Y-56124393D01*
X98838184Y-56123534D01*
X98848262Y-56121392D01*
X99026292Y-56067980D01*
X99097288Y-56067564D01*
X99157238Y-56105596D01*
X99187110Y-56170002D01*
X99188500Y-56188666D01*
X99188500Y-57789303D01*
X99168498Y-57857424D01*
X99114842Y-57903917D01*
X99102377Y-57908826D01*
X99054998Y-57924633D01*
X99054996Y-57924634D01*
X99048054Y-57926950D01*
X99041830Y-57930801D01*
X99041829Y-57930802D01*
X99003070Y-57954787D01*
X98897652Y-58020022D01*
X98772695Y-58145197D01*
X98679885Y-58295762D01*
X98624203Y-58463639D01*
X98613500Y-58568100D01*
X98613500Y-59193900D01*
X98613837Y-59197146D01*
X98613837Y-59197150D01*
X98617678Y-59234165D01*
X98624474Y-59299666D01*
X98680450Y-59467446D01*
X98773522Y-59617848D01*
X98848965Y-59693159D01*
X98860109Y-59704284D01*
X98894188Y-59766566D01*
X98889185Y-59837386D01*
X98860264Y-59882475D01*
X98841635Y-59901137D01*
X98772695Y-59970197D01*
X98768855Y-59976427D01*
X98768854Y-59976428D01*
X98689724Y-60104801D01*
X98679885Y-60120762D01*
X98663951Y-60168801D01*
X98647076Y-60219680D01*
X98624203Y-60288639D01*
X98613500Y-60393100D01*
X98613500Y-61018900D01*
X98624474Y-61124666D01*
X98626655Y-61131202D01*
X98626655Y-61131204D01*
X98640718Y-61173356D01*
X98680450Y-61292446D01*
X98773522Y-61442848D01*
X98898697Y-61567805D01*
X98904927Y-61571645D01*
X98904928Y-61571646D01*
X99042090Y-61656194D01*
X99049262Y-61660615D01*
X99102168Y-61678163D01*
X99210611Y-61714132D01*
X99210613Y-61714132D01*
X99217139Y-61716297D01*
X99223975Y-61716997D01*
X99223978Y-61716998D01*
X99267031Y-61721409D01*
X99321600Y-61727000D01*
X100322400Y-61727000D01*
X100325646Y-61726663D01*
X100325650Y-61726663D01*
X100421308Y-61716738D01*
X100421312Y-61716737D01*
X100428166Y-61716026D01*
X100434702Y-61713845D01*
X100434704Y-61713845D01*
X100566806Y-61669772D01*
X100595946Y-61660050D01*
X100746348Y-61566978D01*
X100871305Y-61441803D01*
X100881744Y-61424868D01*
X100897454Y-61399383D01*
X100950226Y-61351890D01*
X101004713Y-61339500D01*
X130495406Y-61339500D01*
X130563527Y-61359502D01*
X130584501Y-61376405D01*
X131069595Y-61861499D01*
X131103621Y-61923811D01*
X131106500Y-61950594D01*
X131106500Y-64171692D01*
X131086498Y-64239813D01*
X131038683Y-64283453D01*
X131013607Y-64296507D01*
X131009474Y-64299610D01*
X131009471Y-64299612D01*
X130839100Y-64427530D01*
X130834965Y-64430635D01*
X130817326Y-64449093D01*
X130711541Y-64559791D01*
X130680629Y-64592138D01*
X130573201Y-64749621D01*
X130518293Y-64794621D01*
X130447768Y-64802792D01*
X130384021Y-64771538D01*
X130363324Y-64747054D01*
X130282822Y-64622617D01*
X130282820Y-64622614D01*
X130280014Y-64618277D01*
X130129670Y-64453051D01*
X130125619Y-64449852D01*
X130125615Y-64449848D01*
X129958414Y-64317800D01*
X129958410Y-64317798D01*
X129954359Y-64314598D01*
X129949831Y-64312098D01*
X129897945Y-64283456D01*
X129758789Y-64206638D01*
X129753920Y-64204914D01*
X129753916Y-64204912D01*
X129553087Y-64133795D01*
X129553083Y-64133794D01*
X129548212Y-64132069D01*
X129543119Y-64131162D01*
X129543116Y-64131161D01*
X129333373Y-64093800D01*
X129333367Y-64093799D01*
X129328284Y-64092894D01*
X129254452Y-64091992D01*
X129110081Y-64090228D01*
X129110079Y-64090228D01*
X129104911Y-64090165D01*
X128884091Y-64123955D01*
X128671756Y-64193357D01*
X128604846Y-64228188D01*
X128497975Y-64283822D01*
X128473607Y-64296507D01*
X128469474Y-64299610D01*
X128469471Y-64299612D01*
X128299100Y-64427530D01*
X128294965Y-64430635D01*
X128277326Y-64449093D01*
X128171541Y-64559791D01*
X128140629Y-64592138D01*
X128033201Y-64749621D01*
X127978293Y-64794621D01*
X127907768Y-64802792D01*
X127844021Y-64771538D01*
X127823324Y-64747054D01*
X127742822Y-64622617D01*
X127742820Y-64622614D01*
X127740014Y-64618277D01*
X127589670Y-64453051D01*
X127585619Y-64449852D01*
X127585615Y-64449848D01*
X127418414Y-64317800D01*
X127418410Y-64317798D01*
X127414359Y-64314598D01*
X127409835Y-64312101D01*
X127409831Y-64312098D01*
X127358608Y-64283822D01*
X127308636Y-64233390D01*
X127293500Y-64173513D01*
X127293500Y-63746768D01*
X127294027Y-63735585D01*
X127295702Y-63728092D01*
X127293562Y-63660001D01*
X127293500Y-63656044D01*
X127293500Y-63628144D01*
X127292996Y-63624153D01*
X127292063Y-63612311D01*
X127290923Y-63576036D01*
X127290674Y-63568111D01*
X127285021Y-63548652D01*
X127281012Y-63529293D01*
X127280846Y-63527983D01*
X127278474Y-63509203D01*
X127275558Y-63501837D01*
X127275556Y-63501831D01*
X127262200Y-63468098D01*
X127258355Y-63456868D01*
X127248230Y-63422017D01*
X127248230Y-63422016D01*
X127246019Y-63414407D01*
X127235705Y-63396966D01*
X127227008Y-63379213D01*
X127222472Y-63367758D01*
X127219552Y-63360383D01*
X127198709Y-63331695D01*
X127193563Y-63324612D01*
X127187047Y-63314692D01*
X127164542Y-63276638D01*
X127150221Y-63262317D01*
X127137380Y-63247283D01*
X127130131Y-63237306D01*
X127125472Y-63230893D01*
X127119367Y-63225842D01*
X127119362Y-63225837D01*
X127091396Y-63202701D01*
X127082618Y-63194713D01*
X126233652Y-62345747D01*
X126226112Y-62337461D01*
X126222000Y-62330982D01*
X126209653Y-62319387D01*
X126172349Y-62284357D01*
X126169507Y-62281602D01*
X126149770Y-62261865D01*
X126146573Y-62259385D01*
X126137551Y-62251680D01*
X126132597Y-62247028D01*
X126105321Y-62221414D01*
X126098375Y-62217595D01*
X126098372Y-62217593D01*
X126087566Y-62211652D01*
X126071047Y-62200801D01*
X126070583Y-62200441D01*
X126055041Y-62188386D01*
X126047772Y-62185241D01*
X126047768Y-62185238D01*
X126014463Y-62170826D01*
X126003813Y-62165609D01*
X125965060Y-62144305D01*
X125945437Y-62139267D01*
X125926734Y-62132863D01*
X125915420Y-62127967D01*
X125915419Y-62127967D01*
X125908145Y-62124819D01*
X125900322Y-62123580D01*
X125900312Y-62123577D01*
X125864476Y-62117901D01*
X125852856Y-62115495D01*
X125817711Y-62106472D01*
X125817710Y-62106472D01*
X125810030Y-62104500D01*
X125789776Y-62104500D01*
X125770065Y-62102949D01*
X125757886Y-62101020D01*
X125750057Y-62099780D01*
X125742165Y-62100526D01*
X125706039Y-62103941D01*
X125694181Y-62104500D01*
X98358595Y-62104500D01*
X98290474Y-62084498D01*
X98269499Y-62067595D01*
X97952404Y-61750499D01*
X97918379Y-61688187D01*
X97915500Y-61661404D01*
X97915500Y-56180599D01*
X97935502Y-56112478D01*
X97989158Y-56065985D01*
X98059432Y-56055881D01*
X98086448Y-56062889D01*
X98174996Y-56096702D01*
X98184899Y-56099579D01*
X98288250Y-56120606D01*
X98302299Y-56119410D01*
X98306000Y-56109065D01*
X98306000Y-54662000D01*
X98326002Y-54593879D01*
X98379658Y-54547386D01*
X98432000Y-54536000D01*
X98688000Y-54536000D01*
X98756121Y-54556002D01*
G37*
G04 #@! TD.AperFunction*
M02*
