%FSLAX45Y45*%
G04 Gerber Fmt 4.5, Leading zero omitted, Abs format (unit mm)*
G04 Created by KiCad (PCBNEW (6.0.4)) date 2022-03-24 17:42:50*
%MOMM*%
%LPD*%
G01*
G04 APERTURE LIST*
%TA.AperFunction,Profile*%
%ADD10C,0.100000*%
%TD*%
%ADD11C,0.200000*%
%ADD12C,0.270000*%
G04 APERTURE END LIST*
D10*
X8300000Y-8000000D02*
X9075000Y-8000000D01*
X14500000Y-5300000D02*
X14500000Y-7700000D01*
X13450000Y-8000000D02*
X14200000Y-8000000D01*
X9475000Y-8000000D02*
X11050000Y-8000000D01*
X8000000Y-7700000D02*
G75*
G03*
X8300000Y-8000000I300000J0D01*
G01*
X8000000Y-5300000D02*
X8000000Y-7700000D01*
X11450000Y-8000000D02*
X13050000Y-8000000D01*
X14500000Y-5300000D02*
G75*
G03*
X14200000Y-5000000I-300000J0D01*
G01*
X8300000Y-5000000D02*
G75*
G03*
X8000000Y-5300000I0J-300000D01*
G01*
X14200000Y-8000000D02*
G75*
G03*
X14500000Y-7700000I0J300000D01*
G01*
X8300000Y-5000000D02*
X14200000Y-5000000D01*
X11050000Y-8000000D02*
X11450000Y-8000000D01*
X13050000Y-8000000D02*
X13450000Y-8000000D01*
X9075000Y-8000000D02*
X9475000Y-8000000D01*
D11*
D12*
X8215000Y-5215000D02*
X8485000Y-5485000D01*
X8485000Y-5215000D02*
X8215000Y-5485000D01*
X8215000Y-7515000D02*
X8485000Y-7785000D01*
X8485000Y-7515000D02*
X8215000Y-7785000D01*
X14015000Y-5215000D02*
X14285000Y-5485000D01*
X14285000Y-5215000D02*
X14015000Y-5485000D01*
X14015000Y-7515000D02*
X14285000Y-7785000D01*
X14285000Y-7515000D02*
X14015000Y-7785000D01*
D11*
X8252619Y-8315476D02*
X8252619Y-8115476D01*
X8300238Y-8115476D01*
X8328809Y-8125000D01*
X8347857Y-8144048D01*
X8357381Y-8163095D01*
X8366905Y-8201190D01*
X8366905Y-8229762D01*
X8357381Y-8267857D01*
X8347857Y-8286905D01*
X8328809Y-8305952D01*
X8300238Y-8315476D01*
X8252619Y-8315476D01*
X8452619Y-8315476D02*
X8452619Y-8182143D01*
X8452619Y-8220238D02*
X8462143Y-8201190D01*
X8471667Y-8191667D01*
X8490714Y-8182143D01*
X8509762Y-8182143D01*
X8576429Y-8315476D02*
X8576429Y-8182143D01*
X8576429Y-8115476D02*
X8566905Y-8125000D01*
X8576429Y-8134524D01*
X8585952Y-8125000D01*
X8576429Y-8115476D01*
X8576429Y-8134524D01*
X8700238Y-8315476D02*
X8681190Y-8305952D01*
X8671667Y-8286905D01*
X8671667Y-8115476D01*
X8805000Y-8315476D02*
X8785952Y-8305952D01*
X8776429Y-8286905D01*
X8776429Y-8115476D01*
X9033571Y-8315476D02*
X9033571Y-8115476D01*
X9100238Y-8258333D01*
X9166905Y-8115476D01*
X9166905Y-8315476D01*
X9347857Y-8315476D02*
X9347857Y-8210714D01*
X9338333Y-8191667D01*
X9319286Y-8182143D01*
X9281190Y-8182143D01*
X9262143Y-8191667D01*
X9347857Y-8305952D02*
X9328810Y-8315476D01*
X9281190Y-8315476D01*
X9262143Y-8305952D01*
X9252619Y-8286905D01*
X9252619Y-8267857D01*
X9262143Y-8248809D01*
X9281190Y-8239286D01*
X9328810Y-8239286D01*
X9347857Y-8229762D01*
X9443095Y-8182143D02*
X9443095Y-8382143D01*
X9443095Y-8191667D02*
X9462143Y-8182143D01*
X9500238Y-8182143D01*
X9519286Y-8191667D01*
X9528810Y-8201190D01*
X9538333Y-8220238D01*
X9538333Y-8277381D01*
X9528810Y-8296428D01*
X9519286Y-8305952D01*
X9500238Y-8315476D01*
X9462143Y-8315476D01*
X9443095Y-8305952D01*
X9624048Y-8296428D02*
X9633571Y-8305952D01*
X9624048Y-8315476D01*
X9614524Y-8305952D01*
X9624048Y-8296428D01*
X9624048Y-8315476D01*
X9624048Y-8191667D02*
X9633571Y-8201190D01*
X9624048Y-8210714D01*
X9614524Y-8201190D01*
X9624048Y-8191667D01*
X9624048Y-8210714D01*
X7795000Y-8545000D02*
X7995000Y-8745000D01*
X7995000Y-8545000D02*
X7795000Y-8745000D01*
X8243095Y-8554524D02*
X8252619Y-8545000D01*
X8271667Y-8535476D01*
X8319286Y-8535476D01*
X8338333Y-8545000D01*
X8347857Y-8554524D01*
X8357381Y-8573571D01*
X8357381Y-8592619D01*
X8347857Y-8621190D01*
X8233571Y-8735476D01*
X8357381Y-8735476D01*
X8443095Y-8716429D02*
X8452619Y-8725952D01*
X8443095Y-8735476D01*
X8433571Y-8725952D01*
X8443095Y-8716429D01*
X8443095Y-8735476D01*
X8519286Y-8535476D02*
X8652619Y-8535476D01*
X8566905Y-8735476D01*
X8766905Y-8535476D02*
X8785952Y-8535476D01*
X8805000Y-8545000D01*
X8814524Y-8554524D01*
X8824048Y-8573571D01*
X8833571Y-8611667D01*
X8833571Y-8659286D01*
X8824048Y-8697381D01*
X8814524Y-8716429D01*
X8805000Y-8725952D01*
X8785952Y-8735476D01*
X8766905Y-8735476D01*
X8747857Y-8725952D01*
X8738333Y-8716429D01*
X8728810Y-8697381D01*
X8719286Y-8659286D01*
X8719286Y-8611667D01*
X8728810Y-8573571D01*
X8738333Y-8554524D01*
X8747857Y-8545000D01*
X8766905Y-8535476D01*
X8957381Y-8535476D02*
X8976429Y-8535476D01*
X8995476Y-8545000D01*
X9005000Y-8554524D01*
X9014524Y-8573571D01*
X9024048Y-8611667D01*
X9024048Y-8659286D01*
X9014524Y-8697381D01*
X9005000Y-8716429D01*
X8995476Y-8725952D01*
X8976429Y-8735476D01*
X8957381Y-8735476D01*
X8938333Y-8725952D01*
X8928810Y-8716429D01*
X8919286Y-8697381D01*
X8909762Y-8659286D01*
X8909762Y-8611667D01*
X8919286Y-8573571D01*
X8928810Y-8554524D01*
X8938333Y-8545000D01*
X8957381Y-8535476D01*
X9109762Y-8735476D02*
X9109762Y-8602143D01*
X9109762Y-8621190D02*
X9119286Y-8611667D01*
X9138333Y-8602143D01*
X9166905Y-8602143D01*
X9185952Y-8611667D01*
X9195476Y-8630714D01*
X9195476Y-8735476D01*
X9195476Y-8630714D02*
X9205000Y-8611667D01*
X9224048Y-8602143D01*
X9252619Y-8602143D01*
X9271667Y-8611667D01*
X9281190Y-8630714D01*
X9281190Y-8735476D01*
X9376429Y-8735476D02*
X9376429Y-8602143D01*
X9376429Y-8621190D02*
X9385952Y-8611667D01*
X9405000Y-8602143D01*
X9433571Y-8602143D01*
X9452619Y-8611667D01*
X9462143Y-8630714D01*
X9462143Y-8735476D01*
X9462143Y-8630714D02*
X9471667Y-8611667D01*
X9490714Y-8602143D01*
X9519286Y-8602143D01*
X9538333Y-8611667D01*
X9547857Y-8630714D01*
X9547857Y-8735476D01*
X9938333Y-8525952D02*
X9766905Y-8783095D01*
X10195476Y-8535476D02*
X10214524Y-8535476D01*
X10233571Y-8545000D01*
X10243095Y-8554524D01*
X10252619Y-8573571D01*
X10262143Y-8611667D01*
X10262143Y-8659286D01*
X10252619Y-8697381D01*
X10243095Y-8716429D01*
X10233571Y-8725952D01*
X10214524Y-8735476D01*
X10195476Y-8735476D01*
X10176429Y-8725952D01*
X10166905Y-8716429D01*
X10157381Y-8697381D01*
X10147857Y-8659286D01*
X10147857Y-8611667D01*
X10157381Y-8573571D01*
X10166905Y-8554524D01*
X10176429Y-8545000D01*
X10195476Y-8535476D01*
X10347857Y-8716429D02*
X10357381Y-8725952D01*
X10347857Y-8735476D01*
X10338333Y-8725952D01*
X10347857Y-8716429D01*
X10347857Y-8735476D01*
X10547857Y-8735476D02*
X10433571Y-8735476D01*
X10490714Y-8735476D02*
X10490714Y-8535476D01*
X10471667Y-8564048D01*
X10452619Y-8583095D01*
X10433571Y-8592619D01*
X10671667Y-8535476D02*
X10690714Y-8535476D01*
X10709762Y-8545000D01*
X10719286Y-8554524D01*
X10728810Y-8573571D01*
X10738333Y-8611667D01*
X10738333Y-8659286D01*
X10728810Y-8697381D01*
X10719286Y-8716429D01*
X10709762Y-8725952D01*
X10690714Y-8735476D01*
X10671667Y-8735476D01*
X10652619Y-8725952D01*
X10643095Y-8716429D01*
X10633571Y-8697381D01*
X10624048Y-8659286D01*
X10624048Y-8611667D01*
X10633571Y-8573571D01*
X10643095Y-8554524D01*
X10652619Y-8545000D01*
X10671667Y-8535476D01*
X10909762Y-8535476D02*
X10871667Y-8535476D01*
X10852619Y-8545000D01*
X10843095Y-8554524D01*
X10824048Y-8583095D01*
X10814524Y-8621190D01*
X10814524Y-8697381D01*
X10824048Y-8716429D01*
X10833571Y-8725952D01*
X10852619Y-8735476D01*
X10890714Y-8735476D01*
X10909762Y-8725952D01*
X10919286Y-8716429D01*
X10928810Y-8697381D01*
X10928810Y-8649762D01*
X10919286Y-8630714D01*
X10909762Y-8621190D01*
X10890714Y-8611667D01*
X10852619Y-8611667D01*
X10833571Y-8621190D01*
X10824048Y-8630714D01*
X10814524Y-8649762D01*
X10995476Y-8535476D02*
X11119286Y-8535476D01*
X11052619Y-8611667D01*
X11081190Y-8611667D01*
X11100238Y-8621190D01*
X11109762Y-8630714D01*
X11119286Y-8649762D01*
X11119286Y-8697381D01*
X11109762Y-8716429D01*
X11100238Y-8725952D01*
X11081190Y-8735476D01*
X11024048Y-8735476D01*
X11005000Y-8725952D01*
X10995476Y-8716429D01*
X11195476Y-8535476D02*
X11195476Y-8573571D01*
X11271667Y-8535476D02*
X11271667Y-8573571D01*
X11566905Y-8811667D02*
X11557381Y-8802143D01*
X11538333Y-8773571D01*
X11528809Y-8754524D01*
X11519286Y-8725952D01*
X11509762Y-8678333D01*
X11509762Y-8640238D01*
X11519286Y-8592619D01*
X11528809Y-8564048D01*
X11538333Y-8545000D01*
X11557381Y-8516429D01*
X11566905Y-8506905D01*
X11728809Y-8602143D02*
X11728809Y-8735476D01*
X11681190Y-8525952D02*
X11633571Y-8668810D01*
X11757381Y-8668810D01*
X11985952Y-8735476D02*
X11985952Y-8535476D01*
X12071667Y-8735476D02*
X12071667Y-8630714D01*
X12062143Y-8611667D01*
X12043095Y-8602143D01*
X12014524Y-8602143D01*
X11995476Y-8611667D01*
X11985952Y-8621190D01*
X12195476Y-8735476D02*
X12176428Y-8725952D01*
X12166905Y-8716429D01*
X12157381Y-8697381D01*
X12157381Y-8640238D01*
X12166905Y-8621190D01*
X12176428Y-8611667D01*
X12195476Y-8602143D01*
X12224048Y-8602143D01*
X12243095Y-8611667D01*
X12252619Y-8621190D01*
X12262143Y-8640238D01*
X12262143Y-8697381D01*
X12252619Y-8716429D01*
X12243095Y-8725952D01*
X12224048Y-8735476D01*
X12195476Y-8735476D01*
X12376428Y-8735476D02*
X12357381Y-8725952D01*
X12347857Y-8706905D01*
X12347857Y-8535476D01*
X12528809Y-8725952D02*
X12509762Y-8735476D01*
X12471667Y-8735476D01*
X12452619Y-8725952D01*
X12443095Y-8706905D01*
X12443095Y-8630714D01*
X12452619Y-8611667D01*
X12471667Y-8602143D01*
X12509762Y-8602143D01*
X12528809Y-8611667D01*
X12538333Y-8630714D01*
X12538333Y-8649762D01*
X12443095Y-8668810D01*
X12614524Y-8725952D02*
X12633571Y-8735476D01*
X12671667Y-8735476D01*
X12690714Y-8725952D01*
X12700238Y-8706905D01*
X12700238Y-8697381D01*
X12690714Y-8678333D01*
X12671667Y-8668810D01*
X12643095Y-8668810D01*
X12624048Y-8659286D01*
X12614524Y-8640238D01*
X12614524Y-8630714D01*
X12624048Y-8611667D01*
X12643095Y-8602143D01*
X12671667Y-8602143D01*
X12690714Y-8611667D01*
X12766905Y-8811667D02*
X12776428Y-8802143D01*
X12795476Y-8773571D01*
X12805000Y-8754524D01*
X12814524Y-8725952D01*
X12824048Y-8678333D01*
X12824048Y-8640238D01*
X12814524Y-8592619D01*
X12805000Y-8564048D01*
X12795476Y-8545000D01*
X12776428Y-8516429D01*
X12766905Y-8506905D01*
X13128809Y-8811667D02*
X13119286Y-8802143D01*
X13100238Y-8773571D01*
X13090714Y-8754524D01*
X13081190Y-8725952D01*
X13071667Y-8678333D01*
X13071667Y-8640238D01*
X13081190Y-8592619D01*
X13090714Y-8564048D01*
X13100238Y-8545000D01*
X13119286Y-8516429D01*
X13128809Y-8506905D01*
X13205000Y-8602143D02*
X13205000Y-8735476D01*
X13205000Y-8621190D02*
X13214524Y-8611667D01*
X13233571Y-8602143D01*
X13262143Y-8602143D01*
X13281190Y-8611667D01*
X13290714Y-8630714D01*
X13290714Y-8735476D01*
X13414524Y-8735476D02*
X13395476Y-8725952D01*
X13385952Y-8716429D01*
X13376428Y-8697381D01*
X13376428Y-8640238D01*
X13385952Y-8621190D01*
X13395476Y-8611667D01*
X13414524Y-8602143D01*
X13443095Y-8602143D01*
X13462143Y-8611667D01*
X13471667Y-8621190D01*
X13481190Y-8640238D01*
X13481190Y-8697381D01*
X13471667Y-8716429D01*
X13462143Y-8725952D01*
X13443095Y-8735476D01*
X13414524Y-8735476D01*
X13538333Y-8602143D02*
X13614524Y-8602143D01*
X13566905Y-8535476D02*
X13566905Y-8706905D01*
X13576428Y-8725952D01*
X13595476Y-8735476D01*
X13614524Y-8735476D01*
X13833571Y-8602143D02*
X13833571Y-8802143D01*
X13833571Y-8611667D02*
X13852619Y-8602143D01*
X13890714Y-8602143D01*
X13909762Y-8611667D01*
X13919286Y-8621190D01*
X13928809Y-8640238D01*
X13928809Y-8697381D01*
X13919286Y-8716429D01*
X13909762Y-8725952D01*
X13890714Y-8735476D01*
X13852619Y-8735476D01*
X13833571Y-8725952D01*
X14043095Y-8735476D02*
X14024048Y-8725952D01*
X14014524Y-8706905D01*
X14014524Y-8535476D01*
X14205000Y-8735476D02*
X14205000Y-8630714D01*
X14195476Y-8611667D01*
X14176428Y-8602143D01*
X14138333Y-8602143D01*
X14119286Y-8611667D01*
X14205000Y-8725952D02*
X14185952Y-8735476D01*
X14138333Y-8735476D01*
X14119286Y-8725952D01*
X14109762Y-8706905D01*
X14109762Y-8687857D01*
X14119286Y-8668810D01*
X14138333Y-8659286D01*
X14185952Y-8659286D01*
X14205000Y-8649762D01*
X14271667Y-8602143D02*
X14347857Y-8602143D01*
X14300238Y-8535476D02*
X14300238Y-8706905D01*
X14309762Y-8725952D01*
X14328809Y-8735476D01*
X14347857Y-8735476D01*
X14490714Y-8725952D02*
X14471667Y-8735476D01*
X14433571Y-8735476D01*
X14414524Y-8725952D01*
X14405000Y-8706905D01*
X14405000Y-8630714D01*
X14414524Y-8611667D01*
X14433571Y-8602143D01*
X14471667Y-8602143D01*
X14490714Y-8611667D01*
X14500238Y-8630714D01*
X14500238Y-8649762D01*
X14405000Y-8668810D01*
X14671667Y-8735476D02*
X14671667Y-8535476D01*
X14671667Y-8725952D02*
X14652619Y-8735476D01*
X14614524Y-8735476D01*
X14595476Y-8725952D01*
X14585952Y-8716429D01*
X14576428Y-8697381D01*
X14576428Y-8640238D01*
X14585952Y-8621190D01*
X14595476Y-8611667D01*
X14614524Y-8602143D01*
X14652619Y-8602143D01*
X14671667Y-8611667D01*
X14747857Y-8811667D02*
X14757381Y-8802143D01*
X14776428Y-8773571D01*
X14785952Y-8754524D01*
X14795476Y-8725952D01*
X14805000Y-8678333D01*
X14805000Y-8640238D01*
X14795476Y-8592619D01*
X14785952Y-8564048D01*
X14776428Y-8545000D01*
X14757381Y-8516429D01*
X14747857Y-8506905D01*
M02*
