%FSLAX45Y45*%
G04 Gerber Fmt 4.5, Leading zero omitted, Abs format (unit mm)*
G04 Created by KiCad (PCBNEW (6.0.4)) date 2022-03-24 17:43:34*
%MOMM*%
%LPD*%
G01*
G04 APERTURE LIST*
%TA.AperFunction,Profile*%
%ADD10C,0.100000*%
%TD*%
%ADD11C,0.200000*%
%ADD12C,0.040000*%
%ADD13C,0.100000*%
%ADD14C,0.120000*%
G04 APERTURE END LIST*
D10*
X14500000Y-8550000D02*
X14500000Y-8710000D01*
X10470000Y-11550000D02*
X10470000Y-11250000D01*
X13450000Y-8250000D02*
X14200000Y-8250000D01*
X8000000Y-8550000D02*
X8000000Y-11250000D01*
X8000000Y-11250000D02*
G75*
G03*
X8300000Y-11550000I300000J0D01*
G01*
X14500000Y-8550000D02*
G75*
G03*
X14200000Y-8250000I-300000J0D01*
G01*
X8300000Y-8250000D02*
G75*
G03*
X8000000Y-8550000I0J-300000D01*
G01*
X14200000Y-11550000D02*
G75*
G03*
X14500000Y-11250000I0J300000D01*
G01*
X14500000Y-10750000D02*
X14500000Y-11250000D01*
X10670000Y-11050000D02*
X11920000Y-11050000D01*
X12120000Y-11550000D02*
X14200000Y-11550000D01*
X10670000Y-11050000D02*
G75*
G03*
X10470000Y-11250000I0J-200000D01*
G01*
X12120000Y-11250000D02*
G75*
G03*
X11920000Y-11050000I-200000J0D01*
G01*
X10470000Y-11550000D02*
X8300000Y-11550000D01*
X11450000Y-8250000D02*
X13050000Y-8250000D01*
X12120000Y-11250000D02*
X12120000Y-11550000D01*
X14500000Y-9110000D02*
X14500000Y-10350000D01*
X8300000Y-8250000D02*
X9075000Y-8250000D01*
X9475000Y-8250000D02*
X11050000Y-8250000D01*
X14500000Y-10350000D02*
X14500000Y-10750000D01*
X14500000Y-8710000D02*
X14500000Y-9110000D01*
X13050000Y-8250000D02*
X13450000Y-8250000D01*
X11050000Y-8250000D02*
X11450000Y-8250000D01*
X9075000Y-8250000D02*
X9475000Y-8250000D01*
D11*
D12*
X8080000Y-9380000D02*
X8120000Y-9420000D01*
X8120000Y-9380000D02*
X8080000Y-9420000D01*
X8080000Y-9880000D02*
X8120000Y-9920000D01*
X8120000Y-9880000D02*
X8080000Y-9920000D01*
X8080000Y-10380000D02*
X8120000Y-10420000D01*
X8120000Y-10380000D02*
X8080000Y-10420000D01*
X8480000Y-11430000D02*
X8520000Y-11470000D01*
X8520000Y-11430000D02*
X8480000Y-11470000D01*
X8980000Y-8330000D02*
X9020000Y-8370000D01*
X9020000Y-8330000D02*
X8980000Y-8370000D01*
X8980000Y-11430000D02*
X9020000Y-11470000D01*
X9020000Y-11430000D02*
X8980000Y-11470000D01*
X9480000Y-8330000D02*
X9520000Y-8370000D01*
X9520000Y-8330000D02*
X9480000Y-8370000D01*
X9480000Y-11430000D02*
X9520000Y-11470000D01*
X9520000Y-11430000D02*
X9480000Y-11470000D01*
X9980000Y-8330000D02*
X10020000Y-8370000D01*
X10020000Y-8330000D02*
X9980000Y-8370000D01*
X10480000Y-8330000D02*
X10520000Y-8370000D01*
X10520000Y-8330000D02*
X10480000Y-8370000D01*
X10730000Y-10930000D02*
X10770000Y-10970000D01*
X10770000Y-10930000D02*
X10730000Y-10970000D01*
X10980000Y-8330000D02*
X11020000Y-8370000D01*
X11020000Y-8330000D02*
X10980000Y-8370000D01*
X11230000Y-10930000D02*
X11270000Y-10970000D01*
X11270000Y-10930000D02*
X11230000Y-10970000D01*
X11480000Y-8330000D02*
X11520000Y-8370000D01*
X11520000Y-8330000D02*
X11480000Y-8370000D01*
X11730000Y-10930000D02*
X11770000Y-10970000D01*
X11770000Y-10930000D02*
X11730000Y-10970000D01*
X11980000Y-8330000D02*
X12020000Y-8370000D01*
X12020000Y-8330000D02*
X11980000Y-8370000D01*
X12480000Y-8330000D02*
X12520000Y-8370000D01*
X12520000Y-8330000D02*
X12480000Y-8370000D01*
X12980000Y-8330000D02*
X13020000Y-8370000D01*
X13020000Y-8330000D02*
X12980000Y-8370000D01*
X12980000Y-11430000D02*
X13020000Y-11470000D01*
X13020000Y-11430000D02*
X12980000Y-11470000D01*
X13480000Y-8330000D02*
X13520000Y-8370000D01*
X13520000Y-8330000D02*
X13480000Y-8370000D01*
X13480000Y-11430000D02*
X13520000Y-11470000D01*
X13520000Y-11430000D02*
X13480000Y-11470000D01*
X13980000Y-11430000D02*
X14020000Y-11470000D01*
X14020000Y-11430000D02*
X13980000Y-11470000D01*
X14380000Y-9380000D02*
X14420000Y-9420000D01*
X14420000Y-9380000D02*
X14380000Y-9420000D01*
X14380000Y-9880000D02*
X14420000Y-9920000D01*
X14420000Y-9880000D02*
X14380000Y-9920000D01*
X14380000Y-10380000D02*
X14420000Y-10420000D01*
X14420000Y-10380000D02*
X14380000Y-10420000D01*
D13*
X10708000Y-10045000D02*
G75*
G03*
X10708000Y-10045000I-50000J0D01*
G01*
X10919000Y-8849000D02*
G75*
G03*
X10919000Y-8849000I-50000J0D01*
G01*
X10962000Y-10045000D02*
G75*
G03*
X10962000Y-10045000I-50000J0D01*
G01*
X11173000Y-8849000D02*
G75*
G03*
X11173000Y-8849000I-50000J0D01*
G01*
X11216000Y-10045000D02*
G75*
G03*
X11216000Y-10045000I-50000J0D01*
G01*
X11427000Y-8849000D02*
G75*
G03*
X11427000Y-8849000I-50000J0D01*
G01*
X11470000Y-10045000D02*
G75*
G03*
X11470000Y-10045000I-50000J0D01*
G01*
X11681000Y-8849000D02*
G75*
G03*
X11681000Y-8849000I-50000J0D01*
G01*
X11724000Y-10045000D02*
G75*
G03*
X11724000Y-10045000I-50000J0D01*
G01*
X11978000Y-10045000D02*
G75*
G03*
X11978000Y-10045000I-50000J0D01*
G01*
D14*
X8850000Y-9215000D02*
X8850000Y-9335000D01*
X8790000Y-9275000D02*
X8910000Y-9275000D01*
X8850000Y-10465000D02*
X8850000Y-10585000D01*
X8790000Y-10525000D02*
X8910000Y-10525000D01*
X9350000Y-9215000D02*
X9350000Y-9335000D01*
X9290000Y-9275000D02*
X9410000Y-9275000D01*
X9350000Y-10465000D02*
X9350000Y-10585000D01*
X9290000Y-10525000D02*
X9410000Y-10525000D01*
X13150000Y-9215000D02*
X13150000Y-9335000D01*
X13090000Y-9275000D02*
X13210000Y-9275000D01*
X13150000Y-10465000D02*
X13150000Y-10585000D01*
X13090000Y-10525000D02*
X13210000Y-10525000D01*
X13650000Y-9215000D02*
X13650000Y-9335000D01*
X13590000Y-9275000D02*
X13710000Y-9275000D01*
X13650000Y-10465000D02*
X13650000Y-10585000D01*
X13590000Y-10525000D02*
X13710000Y-10525000D01*
D11*
X8252619Y-11865476D02*
X8252619Y-11665476D01*
X8300238Y-11665476D01*
X8328809Y-11675000D01*
X8347857Y-11694048D01*
X8357381Y-11713095D01*
X8366905Y-11751190D01*
X8366905Y-11779762D01*
X8357381Y-11817857D01*
X8347857Y-11836905D01*
X8328809Y-11855952D01*
X8300238Y-11865476D01*
X8252619Y-11865476D01*
X8452619Y-11865476D02*
X8452619Y-11732143D01*
X8452619Y-11770238D02*
X8462143Y-11751190D01*
X8471667Y-11741667D01*
X8490714Y-11732143D01*
X8509762Y-11732143D01*
X8576429Y-11865476D02*
X8576429Y-11732143D01*
X8576429Y-11665476D02*
X8566905Y-11675000D01*
X8576429Y-11684524D01*
X8585952Y-11675000D01*
X8576429Y-11665476D01*
X8576429Y-11684524D01*
X8700238Y-11865476D02*
X8681190Y-11855952D01*
X8671667Y-11836905D01*
X8671667Y-11665476D01*
X8805000Y-11865476D02*
X8785952Y-11855952D01*
X8776429Y-11836905D01*
X8776429Y-11665476D01*
X9033571Y-11865476D02*
X9033571Y-11665476D01*
X9100238Y-11808333D01*
X9166905Y-11665476D01*
X9166905Y-11865476D01*
X9347857Y-11865476D02*
X9347857Y-11760714D01*
X9338333Y-11741667D01*
X9319286Y-11732143D01*
X9281190Y-11732143D01*
X9262143Y-11741667D01*
X9347857Y-11855952D02*
X9328810Y-11865476D01*
X9281190Y-11865476D01*
X9262143Y-11855952D01*
X9252619Y-11836905D01*
X9252619Y-11817857D01*
X9262143Y-11798809D01*
X9281190Y-11789286D01*
X9328810Y-11789286D01*
X9347857Y-11779762D01*
X9443095Y-11732143D02*
X9443095Y-11932143D01*
X9443095Y-11741667D02*
X9462143Y-11732143D01*
X9500238Y-11732143D01*
X9519286Y-11741667D01*
X9528810Y-11751190D01*
X9538333Y-11770238D01*
X9538333Y-11827381D01*
X9528810Y-11846428D01*
X9519286Y-11855952D01*
X9500238Y-11865476D01*
X9462143Y-11865476D01*
X9443095Y-11855952D01*
X9624048Y-11846428D02*
X9633571Y-11855952D01*
X9624048Y-11865476D01*
X9614524Y-11855952D01*
X9624048Y-11846428D01*
X9624048Y-11865476D01*
X9624048Y-11741667D02*
X9633571Y-11751190D01*
X9624048Y-11760714D01*
X9614524Y-11751190D01*
X9624048Y-11741667D01*
X9624048Y-11760714D01*
D12*
X7955000Y-12175000D02*
X7995000Y-12215000D01*
X7995000Y-12175000D02*
X7955000Y-12215000D01*
D11*
X8290714Y-12085476D02*
X8309762Y-12085476D01*
X8328809Y-12095000D01*
X8338333Y-12104524D01*
X8347857Y-12123571D01*
X8357381Y-12161667D01*
X8357381Y-12209286D01*
X8347857Y-12247381D01*
X8338333Y-12266428D01*
X8328809Y-12275952D01*
X8309762Y-12285476D01*
X8290714Y-12285476D01*
X8271667Y-12275952D01*
X8262143Y-12266428D01*
X8252619Y-12247381D01*
X8243095Y-12209286D01*
X8243095Y-12161667D01*
X8252619Y-12123571D01*
X8262143Y-12104524D01*
X8271667Y-12095000D01*
X8290714Y-12085476D01*
X8443095Y-12266428D02*
X8452619Y-12275952D01*
X8443095Y-12285476D01*
X8433571Y-12275952D01*
X8443095Y-12266428D01*
X8443095Y-12285476D01*
X8624048Y-12152143D02*
X8624048Y-12285476D01*
X8576429Y-12075952D02*
X8528810Y-12218809D01*
X8652619Y-12218809D01*
X8766905Y-12085476D02*
X8785952Y-12085476D01*
X8805000Y-12095000D01*
X8814524Y-12104524D01*
X8824048Y-12123571D01*
X8833571Y-12161667D01*
X8833571Y-12209286D01*
X8824048Y-12247381D01*
X8814524Y-12266428D01*
X8805000Y-12275952D01*
X8785952Y-12285476D01*
X8766905Y-12285476D01*
X8747857Y-12275952D01*
X8738333Y-12266428D01*
X8728810Y-12247381D01*
X8719286Y-12209286D01*
X8719286Y-12161667D01*
X8728810Y-12123571D01*
X8738333Y-12104524D01*
X8747857Y-12095000D01*
X8766905Y-12085476D01*
X8957381Y-12085476D02*
X8976429Y-12085476D01*
X8995476Y-12095000D01*
X9005000Y-12104524D01*
X9014524Y-12123571D01*
X9024048Y-12161667D01*
X9024048Y-12209286D01*
X9014524Y-12247381D01*
X9005000Y-12266428D01*
X8995476Y-12275952D01*
X8976429Y-12285476D01*
X8957381Y-12285476D01*
X8938333Y-12275952D01*
X8928810Y-12266428D01*
X8919286Y-12247381D01*
X8909762Y-12209286D01*
X8909762Y-12161667D01*
X8919286Y-12123571D01*
X8928810Y-12104524D01*
X8938333Y-12095000D01*
X8957381Y-12085476D01*
X9109762Y-12285476D02*
X9109762Y-12152143D01*
X9109762Y-12171190D02*
X9119286Y-12161667D01*
X9138333Y-12152143D01*
X9166905Y-12152143D01*
X9185952Y-12161667D01*
X9195476Y-12180714D01*
X9195476Y-12285476D01*
X9195476Y-12180714D02*
X9205000Y-12161667D01*
X9224048Y-12152143D01*
X9252619Y-12152143D01*
X9271667Y-12161667D01*
X9281190Y-12180714D01*
X9281190Y-12285476D01*
X9376429Y-12285476D02*
X9376429Y-12152143D01*
X9376429Y-12171190D02*
X9385952Y-12161667D01*
X9405000Y-12152143D01*
X9433571Y-12152143D01*
X9452619Y-12161667D01*
X9462143Y-12180714D01*
X9462143Y-12285476D01*
X9462143Y-12180714D02*
X9471667Y-12161667D01*
X9490714Y-12152143D01*
X9519286Y-12152143D01*
X9538333Y-12161667D01*
X9547857Y-12180714D01*
X9547857Y-12285476D01*
X9938333Y-12075952D02*
X9766905Y-12333095D01*
X10195476Y-12085476D02*
X10214524Y-12085476D01*
X10233571Y-12095000D01*
X10243095Y-12104524D01*
X10252619Y-12123571D01*
X10262143Y-12161667D01*
X10262143Y-12209286D01*
X10252619Y-12247381D01*
X10243095Y-12266428D01*
X10233571Y-12275952D01*
X10214524Y-12285476D01*
X10195476Y-12285476D01*
X10176429Y-12275952D01*
X10166905Y-12266428D01*
X10157381Y-12247381D01*
X10147857Y-12209286D01*
X10147857Y-12161667D01*
X10157381Y-12123571D01*
X10166905Y-12104524D01*
X10176429Y-12095000D01*
X10195476Y-12085476D01*
X10347857Y-12266428D02*
X10357381Y-12275952D01*
X10347857Y-12285476D01*
X10338333Y-12275952D01*
X10347857Y-12266428D01*
X10347857Y-12285476D01*
X10481190Y-12085476D02*
X10500238Y-12085476D01*
X10519286Y-12095000D01*
X10528810Y-12104524D01*
X10538333Y-12123571D01*
X10547857Y-12161667D01*
X10547857Y-12209286D01*
X10538333Y-12247381D01*
X10528810Y-12266428D01*
X10519286Y-12275952D01*
X10500238Y-12285476D01*
X10481190Y-12285476D01*
X10462143Y-12275952D01*
X10452619Y-12266428D01*
X10443095Y-12247381D01*
X10433571Y-12209286D01*
X10433571Y-12161667D01*
X10443095Y-12123571D01*
X10452619Y-12104524D01*
X10462143Y-12095000D01*
X10481190Y-12085476D01*
X10738333Y-12285476D02*
X10624048Y-12285476D01*
X10681190Y-12285476D02*
X10681190Y-12085476D01*
X10662143Y-12114048D01*
X10643095Y-12133095D01*
X10624048Y-12142619D01*
X10919286Y-12085476D02*
X10824048Y-12085476D01*
X10814524Y-12180714D01*
X10824048Y-12171190D01*
X10843095Y-12161667D01*
X10890714Y-12161667D01*
X10909762Y-12171190D01*
X10919286Y-12180714D01*
X10928810Y-12199762D01*
X10928810Y-12247381D01*
X10919286Y-12266428D01*
X10909762Y-12275952D01*
X10890714Y-12285476D01*
X10843095Y-12285476D01*
X10824048Y-12275952D01*
X10814524Y-12266428D01*
X10995476Y-12085476D02*
X11128810Y-12085476D01*
X11043095Y-12285476D01*
X11195476Y-12085476D02*
X11195476Y-12123571D01*
X11271667Y-12085476D02*
X11271667Y-12123571D01*
X11566905Y-12361667D02*
X11557381Y-12352143D01*
X11538333Y-12323571D01*
X11528809Y-12304524D01*
X11519286Y-12275952D01*
X11509762Y-12228333D01*
X11509762Y-12190238D01*
X11519286Y-12142619D01*
X11528809Y-12114048D01*
X11538333Y-12095000D01*
X11557381Y-12066428D01*
X11566905Y-12056905D01*
X11633571Y-12104524D02*
X11643095Y-12095000D01*
X11662143Y-12085476D01*
X11709762Y-12085476D01*
X11728809Y-12095000D01*
X11738333Y-12104524D01*
X11747857Y-12123571D01*
X11747857Y-12142619D01*
X11738333Y-12171190D01*
X11624048Y-12285476D01*
X11747857Y-12285476D01*
X11928809Y-12085476D02*
X11833571Y-12085476D01*
X11824048Y-12180714D01*
X11833571Y-12171190D01*
X11852619Y-12161667D01*
X11900238Y-12161667D01*
X11919286Y-12171190D01*
X11928809Y-12180714D01*
X11938333Y-12199762D01*
X11938333Y-12247381D01*
X11928809Y-12266428D01*
X11919286Y-12275952D01*
X11900238Y-12285476D01*
X11852619Y-12285476D01*
X11833571Y-12275952D01*
X11824048Y-12266428D01*
X12176428Y-12285476D02*
X12176428Y-12085476D01*
X12262143Y-12285476D02*
X12262143Y-12180714D01*
X12252619Y-12161667D01*
X12233571Y-12152143D01*
X12205000Y-12152143D01*
X12185952Y-12161667D01*
X12176428Y-12171190D01*
X12385952Y-12285476D02*
X12366905Y-12275952D01*
X12357381Y-12266428D01*
X12347857Y-12247381D01*
X12347857Y-12190238D01*
X12357381Y-12171190D01*
X12366905Y-12161667D01*
X12385952Y-12152143D01*
X12414524Y-12152143D01*
X12433571Y-12161667D01*
X12443095Y-12171190D01*
X12452619Y-12190238D01*
X12452619Y-12247381D01*
X12443095Y-12266428D01*
X12433571Y-12275952D01*
X12414524Y-12285476D01*
X12385952Y-12285476D01*
X12566905Y-12285476D02*
X12547857Y-12275952D01*
X12538333Y-12256905D01*
X12538333Y-12085476D01*
X12719286Y-12275952D02*
X12700238Y-12285476D01*
X12662143Y-12285476D01*
X12643095Y-12275952D01*
X12633571Y-12256905D01*
X12633571Y-12180714D01*
X12643095Y-12161667D01*
X12662143Y-12152143D01*
X12700238Y-12152143D01*
X12719286Y-12161667D01*
X12728809Y-12180714D01*
X12728809Y-12199762D01*
X12633571Y-12218809D01*
X12805000Y-12275952D02*
X12824048Y-12285476D01*
X12862143Y-12285476D01*
X12881190Y-12275952D01*
X12890714Y-12256905D01*
X12890714Y-12247381D01*
X12881190Y-12228333D01*
X12862143Y-12218809D01*
X12833571Y-12218809D01*
X12814524Y-12209286D01*
X12805000Y-12190238D01*
X12805000Y-12180714D01*
X12814524Y-12161667D01*
X12833571Y-12152143D01*
X12862143Y-12152143D01*
X12881190Y-12161667D01*
X12957381Y-12361667D02*
X12966905Y-12352143D01*
X12985952Y-12323571D01*
X12995476Y-12304524D01*
X13005000Y-12275952D01*
X13014524Y-12228333D01*
X13014524Y-12190238D01*
X13005000Y-12142619D01*
X12995476Y-12114048D01*
X12985952Y-12095000D01*
X12966905Y-12066428D01*
X12957381Y-12056905D01*
D13*
X7995000Y-12459000D02*
G75*
G03*
X7995000Y-12459000I-50000J0D01*
G01*
D11*
X8357381Y-12549476D02*
X8243095Y-12549476D01*
X8300238Y-12549476D02*
X8300238Y-12349476D01*
X8281190Y-12378048D01*
X8262143Y-12397095D01*
X8243095Y-12406619D01*
X8443095Y-12530428D02*
X8452619Y-12539952D01*
X8443095Y-12549476D01*
X8433571Y-12539952D01*
X8443095Y-12530428D01*
X8443095Y-12549476D01*
X8576429Y-12349476D02*
X8595476Y-12349476D01*
X8614524Y-12359000D01*
X8624048Y-12368524D01*
X8633571Y-12387571D01*
X8643095Y-12425667D01*
X8643095Y-12473286D01*
X8633571Y-12511381D01*
X8624048Y-12530428D01*
X8614524Y-12539952D01*
X8595476Y-12549476D01*
X8576429Y-12549476D01*
X8557381Y-12539952D01*
X8547857Y-12530428D01*
X8538333Y-12511381D01*
X8528810Y-12473286D01*
X8528810Y-12425667D01*
X8538333Y-12387571D01*
X8547857Y-12368524D01*
X8557381Y-12359000D01*
X8576429Y-12349476D01*
X8766905Y-12349476D02*
X8785952Y-12349476D01*
X8805000Y-12359000D01*
X8814524Y-12368524D01*
X8824048Y-12387571D01*
X8833571Y-12425667D01*
X8833571Y-12473286D01*
X8824048Y-12511381D01*
X8814524Y-12530428D01*
X8805000Y-12539952D01*
X8785952Y-12549476D01*
X8766905Y-12549476D01*
X8747857Y-12539952D01*
X8738333Y-12530428D01*
X8728810Y-12511381D01*
X8719286Y-12473286D01*
X8719286Y-12425667D01*
X8728810Y-12387571D01*
X8738333Y-12368524D01*
X8747857Y-12359000D01*
X8766905Y-12349476D01*
X8957381Y-12349476D02*
X8976429Y-12349476D01*
X8995476Y-12359000D01*
X9005000Y-12368524D01*
X9014524Y-12387571D01*
X9024048Y-12425667D01*
X9024048Y-12473286D01*
X9014524Y-12511381D01*
X9005000Y-12530428D01*
X8995476Y-12539952D01*
X8976429Y-12549476D01*
X8957381Y-12549476D01*
X8938333Y-12539952D01*
X8928810Y-12530428D01*
X8919286Y-12511381D01*
X8909762Y-12473286D01*
X8909762Y-12425667D01*
X8919286Y-12387571D01*
X8928810Y-12368524D01*
X8938333Y-12359000D01*
X8957381Y-12349476D01*
X9109762Y-12549476D02*
X9109762Y-12416143D01*
X9109762Y-12435190D02*
X9119286Y-12425667D01*
X9138333Y-12416143D01*
X9166905Y-12416143D01*
X9185952Y-12425667D01*
X9195476Y-12444714D01*
X9195476Y-12549476D01*
X9195476Y-12444714D02*
X9205000Y-12425667D01*
X9224048Y-12416143D01*
X9252619Y-12416143D01*
X9271667Y-12425667D01*
X9281190Y-12444714D01*
X9281190Y-12549476D01*
X9376429Y-12549476D02*
X9376429Y-12416143D01*
X9376429Y-12435190D02*
X9385952Y-12425667D01*
X9405000Y-12416143D01*
X9433571Y-12416143D01*
X9452619Y-12425667D01*
X9462143Y-12444714D01*
X9462143Y-12549476D01*
X9462143Y-12444714D02*
X9471667Y-12425667D01*
X9490714Y-12416143D01*
X9519286Y-12416143D01*
X9538333Y-12425667D01*
X9547857Y-12444714D01*
X9547857Y-12549476D01*
X9938333Y-12339952D02*
X9766905Y-12597095D01*
X10195476Y-12349476D02*
X10214524Y-12349476D01*
X10233571Y-12359000D01*
X10243095Y-12368524D01*
X10252619Y-12387571D01*
X10262143Y-12425667D01*
X10262143Y-12473286D01*
X10252619Y-12511381D01*
X10243095Y-12530428D01*
X10233571Y-12539952D01*
X10214524Y-12549476D01*
X10195476Y-12549476D01*
X10176429Y-12539952D01*
X10166905Y-12530428D01*
X10157381Y-12511381D01*
X10147857Y-12473286D01*
X10147857Y-12425667D01*
X10157381Y-12387571D01*
X10166905Y-12368524D01*
X10176429Y-12359000D01*
X10195476Y-12349476D01*
X10347857Y-12530428D02*
X10357381Y-12539952D01*
X10347857Y-12549476D01*
X10338333Y-12539952D01*
X10347857Y-12530428D01*
X10347857Y-12549476D01*
X10481190Y-12349476D02*
X10500238Y-12349476D01*
X10519286Y-12359000D01*
X10528810Y-12368524D01*
X10538333Y-12387571D01*
X10547857Y-12425667D01*
X10547857Y-12473286D01*
X10538333Y-12511381D01*
X10528810Y-12530428D01*
X10519286Y-12539952D01*
X10500238Y-12549476D01*
X10481190Y-12549476D01*
X10462143Y-12539952D01*
X10452619Y-12530428D01*
X10443095Y-12511381D01*
X10433571Y-12473286D01*
X10433571Y-12425667D01*
X10443095Y-12387571D01*
X10452619Y-12368524D01*
X10462143Y-12359000D01*
X10481190Y-12349476D01*
X10614524Y-12349476D02*
X10738333Y-12349476D01*
X10671667Y-12425667D01*
X10700238Y-12425667D01*
X10719286Y-12435190D01*
X10728810Y-12444714D01*
X10738333Y-12463762D01*
X10738333Y-12511381D01*
X10728810Y-12530428D01*
X10719286Y-12539952D01*
X10700238Y-12549476D01*
X10643095Y-12549476D01*
X10624048Y-12539952D01*
X10614524Y-12530428D01*
X10833571Y-12549476D02*
X10871667Y-12549476D01*
X10890714Y-12539952D01*
X10900238Y-12530428D01*
X10919286Y-12501857D01*
X10928810Y-12463762D01*
X10928810Y-12387571D01*
X10919286Y-12368524D01*
X10909762Y-12359000D01*
X10890714Y-12349476D01*
X10852619Y-12349476D01*
X10833571Y-12359000D01*
X10824048Y-12368524D01*
X10814524Y-12387571D01*
X10814524Y-12435190D01*
X10824048Y-12454238D01*
X10833571Y-12463762D01*
X10852619Y-12473286D01*
X10890714Y-12473286D01*
X10909762Y-12463762D01*
X10919286Y-12454238D01*
X10928810Y-12435190D01*
X11100238Y-12416143D02*
X11100238Y-12549476D01*
X11052619Y-12339952D02*
X11005000Y-12482809D01*
X11128810Y-12482809D01*
X11195476Y-12349476D02*
X11195476Y-12387571D01*
X11271667Y-12349476D02*
X11271667Y-12387571D01*
X11566905Y-12625667D02*
X11557381Y-12616143D01*
X11538333Y-12587571D01*
X11528809Y-12568524D01*
X11519286Y-12539952D01*
X11509762Y-12492333D01*
X11509762Y-12454238D01*
X11519286Y-12406619D01*
X11528809Y-12378048D01*
X11538333Y-12359000D01*
X11557381Y-12330428D01*
X11566905Y-12320905D01*
X11747857Y-12549476D02*
X11633571Y-12549476D01*
X11690714Y-12549476D02*
X11690714Y-12349476D01*
X11671667Y-12378048D01*
X11652619Y-12397095D01*
X11633571Y-12406619D01*
X11871667Y-12349476D02*
X11890714Y-12349476D01*
X11909762Y-12359000D01*
X11919286Y-12368524D01*
X11928809Y-12387571D01*
X11938333Y-12425667D01*
X11938333Y-12473286D01*
X11928809Y-12511381D01*
X11919286Y-12530428D01*
X11909762Y-12539952D01*
X11890714Y-12549476D01*
X11871667Y-12549476D01*
X11852619Y-12539952D01*
X11843095Y-12530428D01*
X11833571Y-12511381D01*
X11824048Y-12473286D01*
X11824048Y-12425667D01*
X11833571Y-12387571D01*
X11843095Y-12368524D01*
X11852619Y-12359000D01*
X11871667Y-12349476D01*
X12176428Y-12549476D02*
X12176428Y-12349476D01*
X12262143Y-12549476D02*
X12262143Y-12444714D01*
X12252619Y-12425667D01*
X12233571Y-12416143D01*
X12205000Y-12416143D01*
X12185952Y-12425667D01*
X12176428Y-12435190D01*
X12385952Y-12549476D02*
X12366905Y-12539952D01*
X12357381Y-12530428D01*
X12347857Y-12511381D01*
X12347857Y-12454238D01*
X12357381Y-12435190D01*
X12366905Y-12425667D01*
X12385952Y-12416143D01*
X12414524Y-12416143D01*
X12433571Y-12425667D01*
X12443095Y-12435190D01*
X12452619Y-12454238D01*
X12452619Y-12511381D01*
X12443095Y-12530428D01*
X12433571Y-12539952D01*
X12414524Y-12549476D01*
X12385952Y-12549476D01*
X12566905Y-12549476D02*
X12547857Y-12539952D01*
X12538333Y-12520905D01*
X12538333Y-12349476D01*
X12719286Y-12539952D02*
X12700238Y-12549476D01*
X12662143Y-12549476D01*
X12643095Y-12539952D01*
X12633571Y-12520905D01*
X12633571Y-12444714D01*
X12643095Y-12425667D01*
X12662143Y-12416143D01*
X12700238Y-12416143D01*
X12719286Y-12425667D01*
X12728809Y-12444714D01*
X12728809Y-12463762D01*
X12633571Y-12482809D01*
X12805000Y-12539952D02*
X12824048Y-12549476D01*
X12862143Y-12549476D01*
X12881190Y-12539952D01*
X12890714Y-12520905D01*
X12890714Y-12511381D01*
X12881190Y-12492333D01*
X12862143Y-12482809D01*
X12833571Y-12482809D01*
X12814524Y-12473286D01*
X12805000Y-12454238D01*
X12805000Y-12444714D01*
X12814524Y-12425667D01*
X12833571Y-12416143D01*
X12862143Y-12416143D01*
X12881190Y-12425667D01*
X12957381Y-12625667D02*
X12966905Y-12616143D01*
X12985952Y-12587571D01*
X12995476Y-12568524D01*
X13005000Y-12539952D01*
X13014524Y-12492333D01*
X13014524Y-12454238D01*
X13005000Y-12406619D01*
X12995476Y-12378048D01*
X12985952Y-12359000D01*
X12966905Y-12330428D01*
X12957381Y-12320905D01*
D14*
X7935000Y-12663000D02*
X7935000Y-12783000D01*
X7875000Y-12723000D02*
X7995000Y-12723000D01*
D11*
X8357381Y-12813476D02*
X8243095Y-12813476D01*
X8300238Y-12813476D02*
X8300238Y-12613476D01*
X8281190Y-12642048D01*
X8262143Y-12661095D01*
X8243095Y-12670619D01*
X8443095Y-12794428D02*
X8452619Y-12803952D01*
X8443095Y-12813476D01*
X8433571Y-12803952D01*
X8443095Y-12794428D01*
X8443095Y-12813476D01*
X8528810Y-12632524D02*
X8538333Y-12623000D01*
X8557381Y-12613476D01*
X8605000Y-12613476D01*
X8624048Y-12623000D01*
X8633571Y-12632524D01*
X8643095Y-12651571D01*
X8643095Y-12670619D01*
X8633571Y-12699190D01*
X8519286Y-12813476D01*
X8643095Y-12813476D01*
X8766905Y-12613476D02*
X8785952Y-12613476D01*
X8805000Y-12623000D01*
X8814524Y-12632524D01*
X8824048Y-12651571D01*
X8833571Y-12689667D01*
X8833571Y-12737286D01*
X8824048Y-12775381D01*
X8814524Y-12794428D01*
X8805000Y-12803952D01*
X8785952Y-12813476D01*
X8766905Y-12813476D01*
X8747857Y-12803952D01*
X8738333Y-12794428D01*
X8728810Y-12775381D01*
X8719286Y-12737286D01*
X8719286Y-12689667D01*
X8728810Y-12651571D01*
X8738333Y-12632524D01*
X8747857Y-12623000D01*
X8766905Y-12613476D01*
X8957381Y-12613476D02*
X8976429Y-12613476D01*
X8995476Y-12623000D01*
X9005000Y-12632524D01*
X9014524Y-12651571D01*
X9024048Y-12689667D01*
X9024048Y-12737286D01*
X9014524Y-12775381D01*
X9005000Y-12794428D01*
X8995476Y-12803952D01*
X8976429Y-12813476D01*
X8957381Y-12813476D01*
X8938333Y-12803952D01*
X8928810Y-12794428D01*
X8919286Y-12775381D01*
X8909762Y-12737286D01*
X8909762Y-12689667D01*
X8919286Y-12651571D01*
X8928810Y-12632524D01*
X8938333Y-12623000D01*
X8957381Y-12613476D01*
X9109762Y-12813476D02*
X9109762Y-12680143D01*
X9109762Y-12699190D02*
X9119286Y-12689667D01*
X9138333Y-12680143D01*
X9166905Y-12680143D01*
X9185952Y-12689667D01*
X9195476Y-12708714D01*
X9195476Y-12813476D01*
X9195476Y-12708714D02*
X9205000Y-12689667D01*
X9224048Y-12680143D01*
X9252619Y-12680143D01*
X9271667Y-12689667D01*
X9281190Y-12708714D01*
X9281190Y-12813476D01*
X9376429Y-12813476D02*
X9376429Y-12680143D01*
X9376429Y-12699190D02*
X9385952Y-12689667D01*
X9405000Y-12680143D01*
X9433571Y-12680143D01*
X9452619Y-12689667D01*
X9462143Y-12708714D01*
X9462143Y-12813476D01*
X9462143Y-12708714D02*
X9471667Y-12689667D01*
X9490714Y-12680143D01*
X9519286Y-12680143D01*
X9538333Y-12689667D01*
X9547857Y-12708714D01*
X9547857Y-12813476D01*
X9938333Y-12603952D02*
X9766905Y-12861095D01*
X10195476Y-12613476D02*
X10214524Y-12613476D01*
X10233571Y-12623000D01*
X10243095Y-12632524D01*
X10252619Y-12651571D01*
X10262143Y-12689667D01*
X10262143Y-12737286D01*
X10252619Y-12775381D01*
X10243095Y-12794428D01*
X10233571Y-12803952D01*
X10214524Y-12813476D01*
X10195476Y-12813476D01*
X10176429Y-12803952D01*
X10166905Y-12794428D01*
X10157381Y-12775381D01*
X10147857Y-12737286D01*
X10147857Y-12689667D01*
X10157381Y-12651571D01*
X10166905Y-12632524D01*
X10176429Y-12623000D01*
X10195476Y-12613476D01*
X10347857Y-12794428D02*
X10357381Y-12803952D01*
X10347857Y-12813476D01*
X10338333Y-12803952D01*
X10347857Y-12794428D01*
X10347857Y-12813476D01*
X10481190Y-12613476D02*
X10500238Y-12613476D01*
X10519286Y-12623000D01*
X10528810Y-12632524D01*
X10538333Y-12651571D01*
X10547857Y-12689667D01*
X10547857Y-12737286D01*
X10538333Y-12775381D01*
X10528810Y-12794428D01*
X10519286Y-12803952D01*
X10500238Y-12813476D01*
X10481190Y-12813476D01*
X10462143Y-12803952D01*
X10452619Y-12794428D01*
X10443095Y-12775381D01*
X10433571Y-12737286D01*
X10433571Y-12689667D01*
X10443095Y-12651571D01*
X10452619Y-12632524D01*
X10462143Y-12623000D01*
X10481190Y-12613476D01*
X10719286Y-12680143D02*
X10719286Y-12813476D01*
X10671667Y-12603952D02*
X10624048Y-12746809D01*
X10747857Y-12746809D01*
X10805000Y-12613476D02*
X10938333Y-12613476D01*
X10852619Y-12813476D01*
X11005000Y-12632524D02*
X11014524Y-12623000D01*
X11033571Y-12613476D01*
X11081190Y-12613476D01*
X11100238Y-12623000D01*
X11109762Y-12632524D01*
X11119286Y-12651571D01*
X11119286Y-12670619D01*
X11109762Y-12699190D01*
X10995476Y-12813476D01*
X11119286Y-12813476D01*
X11195476Y-12613476D02*
X11195476Y-12651571D01*
X11271667Y-12613476D02*
X11271667Y-12651571D01*
X11566905Y-12889667D02*
X11557381Y-12880143D01*
X11538333Y-12851571D01*
X11528809Y-12832524D01*
X11519286Y-12803952D01*
X11509762Y-12756333D01*
X11509762Y-12718238D01*
X11519286Y-12670619D01*
X11528809Y-12642048D01*
X11538333Y-12623000D01*
X11557381Y-12594428D01*
X11566905Y-12584905D01*
X11671667Y-12699190D02*
X11652619Y-12689667D01*
X11643095Y-12680143D01*
X11633571Y-12661095D01*
X11633571Y-12651571D01*
X11643095Y-12632524D01*
X11652619Y-12623000D01*
X11671667Y-12613476D01*
X11709762Y-12613476D01*
X11728809Y-12623000D01*
X11738333Y-12632524D01*
X11747857Y-12651571D01*
X11747857Y-12661095D01*
X11738333Y-12680143D01*
X11728809Y-12689667D01*
X11709762Y-12699190D01*
X11671667Y-12699190D01*
X11652619Y-12708714D01*
X11643095Y-12718238D01*
X11633571Y-12737286D01*
X11633571Y-12775381D01*
X11643095Y-12794428D01*
X11652619Y-12803952D01*
X11671667Y-12813476D01*
X11709762Y-12813476D01*
X11728809Y-12803952D01*
X11738333Y-12794428D01*
X11747857Y-12775381D01*
X11747857Y-12737286D01*
X11738333Y-12718238D01*
X11728809Y-12708714D01*
X11709762Y-12699190D01*
X11985952Y-12813476D02*
X11985952Y-12613476D01*
X12071667Y-12813476D02*
X12071667Y-12708714D01*
X12062143Y-12689667D01*
X12043095Y-12680143D01*
X12014524Y-12680143D01*
X11995476Y-12689667D01*
X11985952Y-12699190D01*
X12195476Y-12813476D02*
X12176428Y-12803952D01*
X12166905Y-12794428D01*
X12157381Y-12775381D01*
X12157381Y-12718238D01*
X12166905Y-12699190D01*
X12176428Y-12689667D01*
X12195476Y-12680143D01*
X12224048Y-12680143D01*
X12243095Y-12689667D01*
X12252619Y-12699190D01*
X12262143Y-12718238D01*
X12262143Y-12775381D01*
X12252619Y-12794428D01*
X12243095Y-12803952D01*
X12224048Y-12813476D01*
X12195476Y-12813476D01*
X12376428Y-12813476D02*
X12357381Y-12803952D01*
X12347857Y-12784905D01*
X12347857Y-12613476D01*
X12528809Y-12803952D02*
X12509762Y-12813476D01*
X12471667Y-12813476D01*
X12452619Y-12803952D01*
X12443095Y-12784905D01*
X12443095Y-12708714D01*
X12452619Y-12689667D01*
X12471667Y-12680143D01*
X12509762Y-12680143D01*
X12528809Y-12689667D01*
X12538333Y-12708714D01*
X12538333Y-12727762D01*
X12443095Y-12746809D01*
X12614524Y-12803952D02*
X12633571Y-12813476D01*
X12671667Y-12813476D01*
X12690714Y-12803952D01*
X12700238Y-12784905D01*
X12700238Y-12775381D01*
X12690714Y-12756333D01*
X12671667Y-12746809D01*
X12643095Y-12746809D01*
X12624048Y-12737286D01*
X12614524Y-12718238D01*
X12614524Y-12708714D01*
X12624048Y-12689667D01*
X12643095Y-12680143D01*
X12671667Y-12680143D01*
X12690714Y-12689667D01*
X12766905Y-12889667D02*
X12776428Y-12880143D01*
X12795476Y-12851571D01*
X12805000Y-12832524D01*
X12814524Y-12803952D01*
X12824048Y-12756333D01*
X12824048Y-12718238D01*
X12814524Y-12670619D01*
X12805000Y-12642048D01*
X12795476Y-12623000D01*
X12776428Y-12594428D01*
X12766905Y-12584905D01*
M02*
