%FSLAX45Y45*%
G04 Gerber Fmt 4.5, Leading zero omitted, Abs format (unit mm)*
G04 Created by KiCad (PCBNEW (6.0.4)) date 2022-03-24 17:43:34*
%MOMM*%
%LPD*%
G01*
G04 APERTURE LIST*
%TA.AperFunction,Profile*%
%ADD10C,0.100000*%
%TD*%
%ADD11C,0.200000*%
%ADD12C,0.220000*%
%ADD13C,0.270000*%
G04 APERTURE END LIST*
D10*
X14500000Y-8550000D02*
X14500000Y-8710000D01*
X10470000Y-11550000D02*
X10470000Y-11250000D01*
X13450000Y-8250000D02*
X14200000Y-8250000D01*
X8000000Y-8550000D02*
X8000000Y-11250000D01*
X8000000Y-11250000D02*
G75*
G03*
X8300000Y-11550000I300000J0D01*
G01*
X14500000Y-8550000D02*
G75*
G03*
X14200000Y-8250000I-300000J0D01*
G01*
X8300000Y-8250000D02*
G75*
G03*
X8000000Y-8550000I0J-300000D01*
G01*
X14200000Y-11550000D02*
G75*
G03*
X14500000Y-11250000I0J300000D01*
G01*
X14500000Y-10750000D02*
X14500000Y-11250000D01*
X10670000Y-11050000D02*
X11920000Y-11050000D01*
X12120000Y-11550000D02*
X14200000Y-11550000D01*
X10670000Y-11050000D02*
G75*
G03*
X10470000Y-11250000I0J-200000D01*
G01*
X12120000Y-11250000D02*
G75*
G03*
X11920000Y-11050000I-200000J0D01*
G01*
X10470000Y-11550000D02*
X8300000Y-11550000D01*
X11450000Y-8250000D02*
X13050000Y-8250000D01*
X12120000Y-11250000D02*
X12120000Y-11550000D01*
X14500000Y-9110000D02*
X14500000Y-10350000D01*
X8300000Y-8250000D02*
X9075000Y-8250000D01*
X9475000Y-8250000D02*
X11050000Y-8250000D01*
X14500000Y-10350000D02*
X14500000Y-10750000D01*
X14500000Y-8710000D02*
X14500000Y-9110000D01*
X13050000Y-8250000D02*
X13450000Y-8250000D01*
X11050000Y-8250000D02*
X11450000Y-8250000D01*
X9075000Y-8250000D02*
X9475000Y-8250000D01*
D11*
D12*
X9975000Y-8789000D02*
X10195000Y-9009000D01*
X10195000Y-8789000D02*
X9975000Y-9009000D01*
X9975000Y-11169000D02*
X10195000Y-11389000D01*
X10195000Y-11169000D02*
X9975000Y-11389000D01*
X12305000Y-8789000D02*
X12525000Y-9009000D01*
X12525000Y-8789000D02*
X12305000Y-9009000D01*
X12305000Y-11169000D02*
X12525000Y-11389000D01*
X12525000Y-11169000D02*
X12305000Y-11389000D01*
D13*
X8485000Y-8600000D02*
G75*
G03*
X8485000Y-8600000I-135000J0D01*
G01*
X8485000Y-10900000D02*
G75*
G03*
X8485000Y-10900000I-135000J0D01*
G01*
X14285000Y-8600000D02*
G75*
G03*
X14285000Y-8600000I-135000J0D01*
G01*
X14285000Y-10900000D02*
G75*
G03*
X14285000Y-10900000I-135000J0D01*
G01*
D11*
X8252619Y-11865476D02*
X8252619Y-11665476D01*
X8300238Y-11665476D01*
X8328809Y-11675000D01*
X8347857Y-11694048D01*
X8357381Y-11713095D01*
X8366905Y-11751190D01*
X8366905Y-11779762D01*
X8357381Y-11817857D01*
X8347857Y-11836905D01*
X8328809Y-11855952D01*
X8300238Y-11865476D01*
X8252619Y-11865476D01*
X8452619Y-11865476D02*
X8452619Y-11732143D01*
X8452619Y-11770238D02*
X8462143Y-11751190D01*
X8471667Y-11741667D01*
X8490714Y-11732143D01*
X8509762Y-11732143D01*
X8576429Y-11865476D02*
X8576429Y-11732143D01*
X8576429Y-11665476D02*
X8566905Y-11675000D01*
X8576429Y-11684524D01*
X8585952Y-11675000D01*
X8576429Y-11665476D01*
X8576429Y-11684524D01*
X8700238Y-11865476D02*
X8681190Y-11855952D01*
X8671667Y-11836905D01*
X8671667Y-11665476D01*
X8805000Y-11865476D02*
X8785952Y-11855952D01*
X8776429Y-11836905D01*
X8776429Y-11665476D01*
X9033571Y-11865476D02*
X9033571Y-11665476D01*
X9100238Y-11808333D01*
X9166905Y-11665476D01*
X9166905Y-11865476D01*
X9347857Y-11865476D02*
X9347857Y-11760714D01*
X9338333Y-11741667D01*
X9319286Y-11732143D01*
X9281190Y-11732143D01*
X9262143Y-11741667D01*
X9347857Y-11855952D02*
X9328810Y-11865476D01*
X9281190Y-11865476D01*
X9262143Y-11855952D01*
X9252619Y-11836905D01*
X9252619Y-11817857D01*
X9262143Y-11798809D01*
X9281190Y-11789286D01*
X9328810Y-11789286D01*
X9347857Y-11779762D01*
X9443095Y-11732143D02*
X9443095Y-11932143D01*
X9443095Y-11741667D02*
X9462143Y-11732143D01*
X9500238Y-11732143D01*
X9519286Y-11741667D01*
X9528810Y-11751190D01*
X9538333Y-11770238D01*
X9538333Y-11827381D01*
X9528810Y-11846428D01*
X9519286Y-11855952D01*
X9500238Y-11865476D01*
X9462143Y-11865476D01*
X9443095Y-11855952D01*
X9624048Y-11846428D02*
X9633571Y-11855952D01*
X9624048Y-11865476D01*
X9614524Y-11855952D01*
X9624048Y-11846428D01*
X9624048Y-11865476D01*
X9624048Y-11741667D02*
X9633571Y-11751190D01*
X9624048Y-11760714D01*
X9614524Y-11751190D01*
X9624048Y-11741667D01*
X9624048Y-11760714D01*
X7795000Y-12095000D02*
X7995000Y-12295000D01*
X7995000Y-12095000D02*
X7795000Y-12295000D01*
X8243095Y-12104524D02*
X8252619Y-12095000D01*
X8271667Y-12085476D01*
X8319286Y-12085476D01*
X8338333Y-12095000D01*
X8347857Y-12104524D01*
X8357381Y-12123571D01*
X8357381Y-12142619D01*
X8347857Y-12171190D01*
X8233571Y-12285476D01*
X8357381Y-12285476D01*
X8443095Y-12266428D02*
X8452619Y-12275952D01*
X8443095Y-12285476D01*
X8433571Y-12275952D01*
X8443095Y-12266428D01*
X8443095Y-12285476D01*
X8528810Y-12104524D02*
X8538333Y-12095000D01*
X8557381Y-12085476D01*
X8605000Y-12085476D01*
X8624048Y-12095000D01*
X8633571Y-12104524D01*
X8643095Y-12123571D01*
X8643095Y-12142619D01*
X8633571Y-12171190D01*
X8519286Y-12285476D01*
X8643095Y-12285476D01*
X8766905Y-12085476D02*
X8785952Y-12085476D01*
X8805000Y-12095000D01*
X8814524Y-12104524D01*
X8824048Y-12123571D01*
X8833571Y-12161667D01*
X8833571Y-12209286D01*
X8824048Y-12247381D01*
X8814524Y-12266428D01*
X8805000Y-12275952D01*
X8785952Y-12285476D01*
X8766905Y-12285476D01*
X8747857Y-12275952D01*
X8738333Y-12266428D01*
X8728810Y-12247381D01*
X8719286Y-12209286D01*
X8719286Y-12161667D01*
X8728810Y-12123571D01*
X8738333Y-12104524D01*
X8747857Y-12095000D01*
X8766905Y-12085476D01*
X8957381Y-12085476D02*
X8976429Y-12085476D01*
X8995476Y-12095000D01*
X9005000Y-12104524D01*
X9014524Y-12123571D01*
X9024048Y-12161667D01*
X9024048Y-12209286D01*
X9014524Y-12247381D01*
X9005000Y-12266428D01*
X8995476Y-12275952D01*
X8976429Y-12285476D01*
X8957381Y-12285476D01*
X8938333Y-12275952D01*
X8928810Y-12266428D01*
X8919286Y-12247381D01*
X8909762Y-12209286D01*
X8909762Y-12161667D01*
X8919286Y-12123571D01*
X8928810Y-12104524D01*
X8938333Y-12095000D01*
X8957381Y-12085476D01*
X9109762Y-12285476D02*
X9109762Y-12152143D01*
X9109762Y-12171190D02*
X9119286Y-12161667D01*
X9138333Y-12152143D01*
X9166905Y-12152143D01*
X9185952Y-12161667D01*
X9195476Y-12180714D01*
X9195476Y-12285476D01*
X9195476Y-12180714D02*
X9205000Y-12161667D01*
X9224048Y-12152143D01*
X9252619Y-12152143D01*
X9271667Y-12161667D01*
X9281190Y-12180714D01*
X9281190Y-12285476D01*
X9376429Y-12285476D02*
X9376429Y-12152143D01*
X9376429Y-12171190D02*
X9385952Y-12161667D01*
X9405000Y-12152143D01*
X9433571Y-12152143D01*
X9452619Y-12161667D01*
X9462143Y-12180714D01*
X9462143Y-12285476D01*
X9462143Y-12180714D02*
X9471667Y-12161667D01*
X9490714Y-12152143D01*
X9519286Y-12152143D01*
X9538333Y-12161667D01*
X9547857Y-12180714D01*
X9547857Y-12285476D01*
X9938333Y-12075952D02*
X9766905Y-12333095D01*
X10195476Y-12085476D02*
X10214524Y-12085476D01*
X10233571Y-12095000D01*
X10243095Y-12104524D01*
X10252619Y-12123571D01*
X10262143Y-12161667D01*
X10262143Y-12209286D01*
X10252619Y-12247381D01*
X10243095Y-12266428D01*
X10233571Y-12275952D01*
X10214524Y-12285476D01*
X10195476Y-12285476D01*
X10176429Y-12275952D01*
X10166905Y-12266428D01*
X10157381Y-12247381D01*
X10147857Y-12209286D01*
X10147857Y-12161667D01*
X10157381Y-12123571D01*
X10166905Y-12104524D01*
X10176429Y-12095000D01*
X10195476Y-12085476D01*
X10347857Y-12266428D02*
X10357381Y-12275952D01*
X10347857Y-12285476D01*
X10338333Y-12275952D01*
X10347857Y-12266428D01*
X10347857Y-12285476D01*
X10481190Y-12085476D02*
X10500238Y-12085476D01*
X10519286Y-12095000D01*
X10528810Y-12104524D01*
X10538333Y-12123571D01*
X10547857Y-12161667D01*
X10547857Y-12209286D01*
X10538333Y-12247381D01*
X10528810Y-12266428D01*
X10519286Y-12275952D01*
X10500238Y-12285476D01*
X10481190Y-12285476D01*
X10462143Y-12275952D01*
X10452619Y-12266428D01*
X10443095Y-12247381D01*
X10433571Y-12209286D01*
X10433571Y-12161667D01*
X10443095Y-12123571D01*
X10452619Y-12104524D01*
X10462143Y-12095000D01*
X10481190Y-12085476D01*
X10662143Y-12171190D02*
X10643095Y-12161667D01*
X10633571Y-12152143D01*
X10624048Y-12133095D01*
X10624048Y-12123571D01*
X10633571Y-12104524D01*
X10643095Y-12095000D01*
X10662143Y-12085476D01*
X10700238Y-12085476D01*
X10719286Y-12095000D01*
X10728810Y-12104524D01*
X10738333Y-12123571D01*
X10738333Y-12133095D01*
X10728810Y-12152143D01*
X10719286Y-12161667D01*
X10700238Y-12171190D01*
X10662143Y-12171190D01*
X10643095Y-12180714D01*
X10633571Y-12190238D01*
X10624048Y-12209286D01*
X10624048Y-12247381D01*
X10633571Y-12266428D01*
X10643095Y-12275952D01*
X10662143Y-12285476D01*
X10700238Y-12285476D01*
X10719286Y-12275952D01*
X10728810Y-12266428D01*
X10738333Y-12247381D01*
X10738333Y-12209286D01*
X10728810Y-12190238D01*
X10719286Y-12180714D01*
X10700238Y-12171190D01*
X10909762Y-12085476D02*
X10871667Y-12085476D01*
X10852619Y-12095000D01*
X10843095Y-12104524D01*
X10824048Y-12133095D01*
X10814524Y-12171190D01*
X10814524Y-12247381D01*
X10824048Y-12266428D01*
X10833571Y-12275952D01*
X10852619Y-12285476D01*
X10890714Y-12285476D01*
X10909762Y-12275952D01*
X10919286Y-12266428D01*
X10928810Y-12247381D01*
X10928810Y-12199762D01*
X10919286Y-12180714D01*
X10909762Y-12171190D01*
X10890714Y-12161667D01*
X10852619Y-12161667D01*
X10833571Y-12171190D01*
X10824048Y-12180714D01*
X10814524Y-12199762D01*
X11100238Y-12085476D02*
X11062143Y-12085476D01*
X11043095Y-12095000D01*
X11033571Y-12104524D01*
X11014524Y-12133095D01*
X11005000Y-12171190D01*
X11005000Y-12247381D01*
X11014524Y-12266428D01*
X11024048Y-12275952D01*
X11043095Y-12285476D01*
X11081190Y-12285476D01*
X11100238Y-12275952D01*
X11109762Y-12266428D01*
X11119286Y-12247381D01*
X11119286Y-12199762D01*
X11109762Y-12180714D01*
X11100238Y-12171190D01*
X11081190Y-12161667D01*
X11043095Y-12161667D01*
X11024048Y-12171190D01*
X11014524Y-12180714D01*
X11005000Y-12199762D01*
X11195476Y-12085476D02*
X11195476Y-12123571D01*
X11271667Y-12085476D02*
X11271667Y-12123571D01*
X11566905Y-12361667D02*
X11557381Y-12352143D01*
X11538333Y-12323571D01*
X11528809Y-12304524D01*
X11519286Y-12275952D01*
X11509762Y-12228333D01*
X11509762Y-12190238D01*
X11519286Y-12142619D01*
X11528809Y-12114048D01*
X11538333Y-12095000D01*
X11557381Y-12066428D01*
X11566905Y-12056905D01*
X11728809Y-12152143D02*
X11728809Y-12285476D01*
X11681190Y-12075952D02*
X11633571Y-12218809D01*
X11757381Y-12218809D01*
X11985952Y-12285476D02*
X11985952Y-12085476D01*
X12071667Y-12285476D02*
X12071667Y-12180714D01*
X12062143Y-12161667D01*
X12043095Y-12152143D01*
X12014524Y-12152143D01*
X11995476Y-12161667D01*
X11985952Y-12171190D01*
X12195476Y-12285476D02*
X12176428Y-12275952D01*
X12166905Y-12266428D01*
X12157381Y-12247381D01*
X12157381Y-12190238D01*
X12166905Y-12171190D01*
X12176428Y-12161667D01*
X12195476Y-12152143D01*
X12224048Y-12152143D01*
X12243095Y-12161667D01*
X12252619Y-12171190D01*
X12262143Y-12190238D01*
X12262143Y-12247381D01*
X12252619Y-12266428D01*
X12243095Y-12275952D01*
X12224048Y-12285476D01*
X12195476Y-12285476D01*
X12376428Y-12285476D02*
X12357381Y-12275952D01*
X12347857Y-12256905D01*
X12347857Y-12085476D01*
X12528809Y-12275952D02*
X12509762Y-12285476D01*
X12471667Y-12285476D01*
X12452619Y-12275952D01*
X12443095Y-12256905D01*
X12443095Y-12180714D01*
X12452619Y-12161667D01*
X12471667Y-12152143D01*
X12509762Y-12152143D01*
X12528809Y-12161667D01*
X12538333Y-12180714D01*
X12538333Y-12199762D01*
X12443095Y-12218809D01*
X12614524Y-12275952D02*
X12633571Y-12285476D01*
X12671667Y-12285476D01*
X12690714Y-12275952D01*
X12700238Y-12256905D01*
X12700238Y-12247381D01*
X12690714Y-12228333D01*
X12671667Y-12218809D01*
X12643095Y-12218809D01*
X12624048Y-12209286D01*
X12614524Y-12190238D01*
X12614524Y-12180714D01*
X12624048Y-12161667D01*
X12643095Y-12152143D01*
X12671667Y-12152143D01*
X12690714Y-12161667D01*
X12766905Y-12361667D02*
X12776428Y-12352143D01*
X12795476Y-12323571D01*
X12805000Y-12304524D01*
X12814524Y-12275952D01*
X12824048Y-12228333D01*
X12824048Y-12190238D01*
X12814524Y-12142619D01*
X12805000Y-12114048D01*
X12795476Y-12095000D01*
X12776428Y-12066428D01*
X12766905Y-12056905D01*
X13128809Y-12361667D02*
X13119286Y-12352143D01*
X13100238Y-12323571D01*
X13090714Y-12304524D01*
X13081190Y-12275952D01*
X13071667Y-12228333D01*
X13071667Y-12190238D01*
X13081190Y-12142619D01*
X13090714Y-12114048D01*
X13100238Y-12095000D01*
X13119286Y-12066428D01*
X13128809Y-12056905D01*
X13205000Y-12152143D02*
X13205000Y-12285476D01*
X13205000Y-12171190D02*
X13214524Y-12161667D01*
X13233571Y-12152143D01*
X13262143Y-12152143D01*
X13281190Y-12161667D01*
X13290714Y-12180714D01*
X13290714Y-12285476D01*
X13414524Y-12285476D02*
X13395476Y-12275952D01*
X13385952Y-12266428D01*
X13376428Y-12247381D01*
X13376428Y-12190238D01*
X13385952Y-12171190D01*
X13395476Y-12161667D01*
X13414524Y-12152143D01*
X13443095Y-12152143D01*
X13462143Y-12161667D01*
X13471667Y-12171190D01*
X13481190Y-12190238D01*
X13481190Y-12247381D01*
X13471667Y-12266428D01*
X13462143Y-12275952D01*
X13443095Y-12285476D01*
X13414524Y-12285476D01*
X13538333Y-12152143D02*
X13614524Y-12152143D01*
X13566905Y-12085476D02*
X13566905Y-12256905D01*
X13576428Y-12275952D01*
X13595476Y-12285476D01*
X13614524Y-12285476D01*
X13833571Y-12152143D02*
X13833571Y-12352143D01*
X13833571Y-12161667D02*
X13852619Y-12152143D01*
X13890714Y-12152143D01*
X13909762Y-12161667D01*
X13919286Y-12171190D01*
X13928809Y-12190238D01*
X13928809Y-12247381D01*
X13919286Y-12266428D01*
X13909762Y-12275952D01*
X13890714Y-12285476D01*
X13852619Y-12285476D01*
X13833571Y-12275952D01*
X14043095Y-12285476D02*
X14024048Y-12275952D01*
X14014524Y-12256905D01*
X14014524Y-12085476D01*
X14205000Y-12285476D02*
X14205000Y-12180714D01*
X14195476Y-12161667D01*
X14176428Y-12152143D01*
X14138333Y-12152143D01*
X14119286Y-12161667D01*
X14205000Y-12275952D02*
X14185952Y-12285476D01*
X14138333Y-12285476D01*
X14119286Y-12275952D01*
X14109762Y-12256905D01*
X14109762Y-12237857D01*
X14119286Y-12218809D01*
X14138333Y-12209286D01*
X14185952Y-12209286D01*
X14205000Y-12199762D01*
X14271667Y-12152143D02*
X14347857Y-12152143D01*
X14300238Y-12085476D02*
X14300238Y-12256905D01*
X14309762Y-12275952D01*
X14328809Y-12285476D01*
X14347857Y-12285476D01*
X14490714Y-12275952D02*
X14471667Y-12285476D01*
X14433571Y-12285476D01*
X14414524Y-12275952D01*
X14405000Y-12256905D01*
X14405000Y-12180714D01*
X14414524Y-12161667D01*
X14433571Y-12152143D01*
X14471667Y-12152143D01*
X14490714Y-12161667D01*
X14500238Y-12180714D01*
X14500238Y-12199762D01*
X14405000Y-12218809D01*
X14671667Y-12285476D02*
X14671667Y-12085476D01*
X14671667Y-12275952D02*
X14652619Y-12285476D01*
X14614524Y-12285476D01*
X14595476Y-12275952D01*
X14585952Y-12266428D01*
X14576428Y-12247381D01*
X14576428Y-12190238D01*
X14585952Y-12171190D01*
X14595476Y-12161667D01*
X14614524Y-12152143D01*
X14652619Y-12152143D01*
X14671667Y-12161667D01*
X14747857Y-12361667D02*
X14757381Y-12352143D01*
X14776428Y-12323571D01*
X14785952Y-12304524D01*
X14795476Y-12275952D01*
X14805000Y-12228333D01*
X14805000Y-12190238D01*
X14795476Y-12142619D01*
X14785952Y-12114048D01*
X14776428Y-12095000D01*
X14757381Y-12066428D01*
X14747857Y-12056905D01*
X7995000Y-12515000D02*
G75*
G03*
X7995000Y-12515000I-100000J0D01*
G01*
X8243095Y-12424524D02*
X8252619Y-12415000D01*
X8271667Y-12405476D01*
X8319286Y-12405476D01*
X8338333Y-12415000D01*
X8347857Y-12424524D01*
X8357381Y-12443571D01*
X8357381Y-12462619D01*
X8347857Y-12491190D01*
X8233571Y-12605476D01*
X8357381Y-12605476D01*
X8443095Y-12586428D02*
X8452619Y-12595952D01*
X8443095Y-12605476D01*
X8433571Y-12595952D01*
X8443095Y-12586428D01*
X8443095Y-12605476D01*
X8519286Y-12405476D02*
X8652619Y-12405476D01*
X8566905Y-12605476D01*
X8766905Y-12405476D02*
X8785952Y-12405476D01*
X8805000Y-12415000D01*
X8814524Y-12424524D01*
X8824048Y-12443571D01*
X8833571Y-12481667D01*
X8833571Y-12529286D01*
X8824048Y-12567381D01*
X8814524Y-12586428D01*
X8805000Y-12595952D01*
X8785952Y-12605476D01*
X8766905Y-12605476D01*
X8747857Y-12595952D01*
X8738333Y-12586428D01*
X8728810Y-12567381D01*
X8719286Y-12529286D01*
X8719286Y-12481667D01*
X8728810Y-12443571D01*
X8738333Y-12424524D01*
X8747857Y-12415000D01*
X8766905Y-12405476D01*
X8957381Y-12405476D02*
X8976429Y-12405476D01*
X8995476Y-12415000D01*
X9005000Y-12424524D01*
X9014524Y-12443571D01*
X9024048Y-12481667D01*
X9024048Y-12529286D01*
X9014524Y-12567381D01*
X9005000Y-12586428D01*
X8995476Y-12595952D01*
X8976429Y-12605476D01*
X8957381Y-12605476D01*
X8938333Y-12595952D01*
X8928810Y-12586428D01*
X8919286Y-12567381D01*
X8909762Y-12529286D01*
X8909762Y-12481667D01*
X8919286Y-12443571D01*
X8928810Y-12424524D01*
X8938333Y-12415000D01*
X8957381Y-12405476D01*
X9109762Y-12605476D02*
X9109762Y-12472143D01*
X9109762Y-12491190D02*
X9119286Y-12481667D01*
X9138333Y-12472143D01*
X9166905Y-12472143D01*
X9185952Y-12481667D01*
X9195476Y-12500714D01*
X9195476Y-12605476D01*
X9195476Y-12500714D02*
X9205000Y-12481667D01*
X9224048Y-12472143D01*
X9252619Y-12472143D01*
X9271667Y-12481667D01*
X9281190Y-12500714D01*
X9281190Y-12605476D01*
X9376429Y-12605476D02*
X9376429Y-12472143D01*
X9376429Y-12491190D02*
X9385952Y-12481667D01*
X9405000Y-12472143D01*
X9433571Y-12472143D01*
X9452619Y-12481667D01*
X9462143Y-12500714D01*
X9462143Y-12605476D01*
X9462143Y-12500714D02*
X9471667Y-12481667D01*
X9490714Y-12472143D01*
X9519286Y-12472143D01*
X9538333Y-12481667D01*
X9547857Y-12500714D01*
X9547857Y-12605476D01*
X9938333Y-12395952D02*
X9766905Y-12653095D01*
X10195476Y-12405476D02*
X10214524Y-12405476D01*
X10233571Y-12415000D01*
X10243095Y-12424524D01*
X10252619Y-12443571D01*
X10262143Y-12481667D01*
X10262143Y-12529286D01*
X10252619Y-12567381D01*
X10243095Y-12586428D01*
X10233571Y-12595952D01*
X10214524Y-12605476D01*
X10195476Y-12605476D01*
X10176429Y-12595952D01*
X10166905Y-12586428D01*
X10157381Y-12567381D01*
X10147857Y-12529286D01*
X10147857Y-12481667D01*
X10157381Y-12443571D01*
X10166905Y-12424524D01*
X10176429Y-12415000D01*
X10195476Y-12405476D01*
X10347857Y-12586428D02*
X10357381Y-12595952D01*
X10347857Y-12605476D01*
X10338333Y-12595952D01*
X10347857Y-12586428D01*
X10347857Y-12605476D01*
X10547857Y-12605476D02*
X10433571Y-12605476D01*
X10490714Y-12605476D02*
X10490714Y-12405476D01*
X10471667Y-12434048D01*
X10452619Y-12453095D01*
X10433571Y-12462619D01*
X10671667Y-12405476D02*
X10690714Y-12405476D01*
X10709762Y-12415000D01*
X10719286Y-12424524D01*
X10728810Y-12443571D01*
X10738333Y-12481667D01*
X10738333Y-12529286D01*
X10728810Y-12567381D01*
X10719286Y-12586428D01*
X10709762Y-12595952D01*
X10690714Y-12605476D01*
X10671667Y-12605476D01*
X10652619Y-12595952D01*
X10643095Y-12586428D01*
X10633571Y-12567381D01*
X10624048Y-12529286D01*
X10624048Y-12481667D01*
X10633571Y-12443571D01*
X10643095Y-12424524D01*
X10652619Y-12415000D01*
X10671667Y-12405476D01*
X10909762Y-12405476D02*
X10871667Y-12405476D01*
X10852619Y-12415000D01*
X10843095Y-12424524D01*
X10824048Y-12453095D01*
X10814524Y-12491190D01*
X10814524Y-12567381D01*
X10824048Y-12586428D01*
X10833571Y-12595952D01*
X10852619Y-12605476D01*
X10890714Y-12605476D01*
X10909762Y-12595952D01*
X10919286Y-12586428D01*
X10928810Y-12567381D01*
X10928810Y-12519762D01*
X10919286Y-12500714D01*
X10909762Y-12491190D01*
X10890714Y-12481667D01*
X10852619Y-12481667D01*
X10833571Y-12491190D01*
X10824048Y-12500714D01*
X10814524Y-12519762D01*
X10995476Y-12405476D02*
X11119286Y-12405476D01*
X11052619Y-12481667D01*
X11081190Y-12481667D01*
X11100238Y-12491190D01*
X11109762Y-12500714D01*
X11119286Y-12519762D01*
X11119286Y-12567381D01*
X11109762Y-12586428D01*
X11100238Y-12595952D01*
X11081190Y-12605476D01*
X11024048Y-12605476D01*
X11005000Y-12595952D01*
X10995476Y-12586428D01*
X11195476Y-12405476D02*
X11195476Y-12443571D01*
X11271667Y-12405476D02*
X11271667Y-12443571D01*
X11566905Y-12681667D02*
X11557381Y-12672143D01*
X11538333Y-12643571D01*
X11528809Y-12624524D01*
X11519286Y-12595952D01*
X11509762Y-12548333D01*
X11509762Y-12510238D01*
X11519286Y-12462619D01*
X11528809Y-12434048D01*
X11538333Y-12415000D01*
X11557381Y-12386428D01*
X11566905Y-12376905D01*
X11728809Y-12472143D02*
X11728809Y-12605476D01*
X11681190Y-12395952D02*
X11633571Y-12538809D01*
X11757381Y-12538809D01*
X11985952Y-12605476D02*
X11985952Y-12405476D01*
X12071667Y-12605476D02*
X12071667Y-12500714D01*
X12062143Y-12481667D01*
X12043095Y-12472143D01*
X12014524Y-12472143D01*
X11995476Y-12481667D01*
X11985952Y-12491190D01*
X12195476Y-12605476D02*
X12176428Y-12595952D01*
X12166905Y-12586428D01*
X12157381Y-12567381D01*
X12157381Y-12510238D01*
X12166905Y-12491190D01*
X12176428Y-12481667D01*
X12195476Y-12472143D01*
X12224048Y-12472143D01*
X12243095Y-12481667D01*
X12252619Y-12491190D01*
X12262143Y-12510238D01*
X12262143Y-12567381D01*
X12252619Y-12586428D01*
X12243095Y-12595952D01*
X12224048Y-12605476D01*
X12195476Y-12605476D01*
X12376428Y-12605476D02*
X12357381Y-12595952D01*
X12347857Y-12576905D01*
X12347857Y-12405476D01*
X12528809Y-12595952D02*
X12509762Y-12605476D01*
X12471667Y-12605476D01*
X12452619Y-12595952D01*
X12443095Y-12576905D01*
X12443095Y-12500714D01*
X12452619Y-12481667D01*
X12471667Y-12472143D01*
X12509762Y-12472143D01*
X12528809Y-12481667D01*
X12538333Y-12500714D01*
X12538333Y-12519762D01*
X12443095Y-12538809D01*
X12614524Y-12595952D02*
X12633571Y-12605476D01*
X12671667Y-12605476D01*
X12690714Y-12595952D01*
X12700238Y-12576905D01*
X12700238Y-12567381D01*
X12690714Y-12548333D01*
X12671667Y-12538809D01*
X12643095Y-12538809D01*
X12624048Y-12529286D01*
X12614524Y-12510238D01*
X12614524Y-12500714D01*
X12624048Y-12481667D01*
X12643095Y-12472143D01*
X12671667Y-12472143D01*
X12690714Y-12481667D01*
X12766905Y-12681667D02*
X12776428Y-12672143D01*
X12795476Y-12643571D01*
X12805000Y-12624524D01*
X12814524Y-12595952D01*
X12824048Y-12548333D01*
X12824048Y-12510238D01*
X12814524Y-12462619D01*
X12805000Y-12434048D01*
X12795476Y-12415000D01*
X12776428Y-12386428D01*
X12766905Y-12376905D01*
X13128809Y-12681667D02*
X13119286Y-12672143D01*
X13100238Y-12643571D01*
X13090714Y-12624524D01*
X13081190Y-12595952D01*
X13071667Y-12548333D01*
X13071667Y-12510238D01*
X13081190Y-12462619D01*
X13090714Y-12434048D01*
X13100238Y-12415000D01*
X13119286Y-12386428D01*
X13128809Y-12376905D01*
X13205000Y-12472143D02*
X13205000Y-12605476D01*
X13205000Y-12491190D02*
X13214524Y-12481667D01*
X13233571Y-12472143D01*
X13262143Y-12472143D01*
X13281190Y-12481667D01*
X13290714Y-12500714D01*
X13290714Y-12605476D01*
X13414524Y-12605476D02*
X13395476Y-12595952D01*
X13385952Y-12586428D01*
X13376428Y-12567381D01*
X13376428Y-12510238D01*
X13385952Y-12491190D01*
X13395476Y-12481667D01*
X13414524Y-12472143D01*
X13443095Y-12472143D01*
X13462143Y-12481667D01*
X13471667Y-12491190D01*
X13481190Y-12510238D01*
X13481190Y-12567381D01*
X13471667Y-12586428D01*
X13462143Y-12595952D01*
X13443095Y-12605476D01*
X13414524Y-12605476D01*
X13538333Y-12472143D02*
X13614524Y-12472143D01*
X13566905Y-12405476D02*
X13566905Y-12576905D01*
X13576428Y-12595952D01*
X13595476Y-12605476D01*
X13614524Y-12605476D01*
X13833571Y-12472143D02*
X13833571Y-12672143D01*
X13833571Y-12481667D02*
X13852619Y-12472143D01*
X13890714Y-12472143D01*
X13909762Y-12481667D01*
X13919286Y-12491190D01*
X13928809Y-12510238D01*
X13928809Y-12567381D01*
X13919286Y-12586428D01*
X13909762Y-12595952D01*
X13890714Y-12605476D01*
X13852619Y-12605476D01*
X13833571Y-12595952D01*
X14043095Y-12605476D02*
X14024048Y-12595952D01*
X14014524Y-12576905D01*
X14014524Y-12405476D01*
X14205000Y-12605476D02*
X14205000Y-12500714D01*
X14195476Y-12481667D01*
X14176428Y-12472143D01*
X14138333Y-12472143D01*
X14119286Y-12481667D01*
X14205000Y-12595952D02*
X14185952Y-12605476D01*
X14138333Y-12605476D01*
X14119286Y-12595952D01*
X14109762Y-12576905D01*
X14109762Y-12557857D01*
X14119286Y-12538809D01*
X14138333Y-12529286D01*
X14185952Y-12529286D01*
X14205000Y-12519762D01*
X14271667Y-12472143D02*
X14347857Y-12472143D01*
X14300238Y-12405476D02*
X14300238Y-12576905D01*
X14309762Y-12595952D01*
X14328809Y-12605476D01*
X14347857Y-12605476D01*
X14490714Y-12595952D02*
X14471667Y-12605476D01*
X14433571Y-12605476D01*
X14414524Y-12595952D01*
X14405000Y-12576905D01*
X14405000Y-12500714D01*
X14414524Y-12481667D01*
X14433571Y-12472143D01*
X14471667Y-12472143D01*
X14490714Y-12481667D01*
X14500238Y-12500714D01*
X14500238Y-12519762D01*
X14405000Y-12538809D01*
X14671667Y-12605476D02*
X14671667Y-12405476D01*
X14671667Y-12595952D02*
X14652619Y-12605476D01*
X14614524Y-12605476D01*
X14595476Y-12595952D01*
X14585952Y-12586428D01*
X14576428Y-12567381D01*
X14576428Y-12510238D01*
X14585952Y-12491190D01*
X14595476Y-12481667D01*
X14614524Y-12472143D01*
X14652619Y-12472143D01*
X14671667Y-12481667D01*
X14747857Y-12681667D02*
X14757381Y-12672143D01*
X14776428Y-12643571D01*
X14785952Y-12624524D01*
X14795476Y-12595952D01*
X14805000Y-12548333D01*
X14805000Y-12510238D01*
X14795476Y-12462619D01*
X14785952Y-12434048D01*
X14776428Y-12415000D01*
X14757381Y-12386428D01*
X14747857Y-12376905D01*
M02*
