G04 #@! TF.GenerationSoftware,KiCad,Pcbnew,(6.0.4)*
G04 #@! TF.CreationDate,2022-03-24T17:43:31+01:00*
G04 #@! TF.ProjectId,MT32pi-MiSTer,4d543332-7069-42d4-9d69-535465722e6b,rev?*
G04 #@! TF.SameCoordinates,Original*
G04 #@! TF.FileFunction,Copper,L2,Bot*
G04 #@! TF.FilePolarity,Positive*
%FSLAX46Y46*%
G04 Gerber Fmt 4.6, Leading zero omitted, Abs format (unit mm)*
G04 Created by KiCad (PCBNEW (6.0.4)) date 2022-03-24 17:43:31*
%MOMM*%
%LPD*%
G01*
G04 APERTURE LIST*
G04 Aperture macros list*
%AMRoundRect*
0 Rectangle with rounded corners*
0 $1 Rounding radius*
0 $2 $3 $4 $5 $6 $7 $8 $9 X,Y pos of 4 corners*
0 Add a 4 corners polygon primitive as box body*
4,1,4,$2,$3,$4,$5,$6,$7,$8,$9,$2,$3,0*
0 Add four circle primitives for the rounded corners*
1,1,$1+$1,$2,$3*
1,1,$1+$1,$4,$5*
1,1,$1+$1,$6,$7*
1,1,$1+$1,$8,$9*
0 Add four rect primitives between the rounded corners*
20,1,$1+$1,$2,$3,$4,$5,0*
20,1,$1+$1,$4,$5,$6,$7,0*
20,1,$1+$1,$6,$7,$8,$9,0*
20,1,$1+$1,$8,$9,$2,$3,0*%
G04 Aperture macros list end*
G04 #@! TA.AperFunction,ComponentPad*
%ADD10O,2.500000X3.000000*%
G04 #@! TD*
G04 #@! TA.AperFunction,SMDPad,CuDef*
%ADD11RoundRect,0.250000X-0.250000X-0.475000X0.250000X-0.475000X0.250000X0.475000X-0.250000X0.475000X0*%
G04 #@! TD*
G04 #@! TA.AperFunction,ComponentPad*
%ADD12R,1.700000X1.700000*%
G04 #@! TD*
G04 #@! TA.AperFunction,ComponentPad*
%ADD13O,1.700000X1.700000*%
G04 #@! TD*
G04 #@! TA.AperFunction,ViaPad*
%ADD14C,0.800000*%
G04 #@! TD*
G04 #@! TA.AperFunction,Conductor*
%ADD15C,0.800000*%
G04 #@! TD*
G04 APERTURE END LIST*
D10*
X131500000Y-92750000D03*
X131500000Y-105250000D03*
X136500000Y-105250000D03*
X136500000Y-92750000D03*
D11*
X113800000Y-91300000D03*
X115700000Y-91300000D03*
D10*
X93500000Y-105250000D03*
X93500000Y-92750000D03*
X88500000Y-92750000D03*
X88500000Y-105250000D03*
D12*
X108690000Y-88490000D03*
D13*
X111230000Y-88490000D03*
X113770000Y-88490000D03*
X116310000Y-88490000D03*
D12*
X119280000Y-100450000D03*
D13*
X116740000Y-100450000D03*
X114200000Y-100450000D03*
X111660000Y-100450000D03*
X109120000Y-100450000D03*
X106580000Y-100450000D03*
D14*
X125000000Y-83500000D03*
X130000000Y-114500000D03*
X81000000Y-104000000D03*
X135000000Y-114500000D03*
X110000000Y-83500000D03*
X144000000Y-104000000D03*
X135000000Y-83500000D03*
X117500000Y-109500000D03*
X105000000Y-83500000D03*
X100000000Y-83500000D03*
X81000000Y-94000000D03*
X115000000Y-83500000D03*
X90000000Y-83500000D03*
X144000000Y-94000000D03*
X81000000Y-99000000D03*
X90000000Y-114500000D03*
X140000000Y-114500000D03*
X85000000Y-114500000D03*
X130000000Y-83500000D03*
X112500000Y-109500000D03*
X144000000Y-99000000D03*
X120000000Y-83500000D03*
X95000000Y-114500000D03*
X95000000Y-83500000D03*
X107500000Y-109500000D03*
D15*
X113800000Y-88520000D02*
X113770000Y-88490000D01*
X113800000Y-91300000D02*
X113800000Y-88520000D01*
X110122000Y-91300000D02*
X113800000Y-91300000D01*
X109120000Y-100450000D02*
X109120000Y-92302000D01*
X109120000Y-92302000D02*
X110122000Y-91300000D01*
G04 #@! TA.AperFunction,Conductor*
G36*
X141970018Y-83010000D02*
G01*
X141984851Y-83012310D01*
X141984855Y-83012310D01*
X141993724Y-83013691D01*
X142010923Y-83011442D01*
X142034863Y-83010609D01*
X142292710Y-83026206D01*
X142307814Y-83028040D01*
X142379786Y-83041229D01*
X142588760Y-83079525D01*
X142603526Y-83083164D01*
X142876231Y-83168142D01*
X142890445Y-83173534D01*
X143108223Y-83271547D01*
X143150906Y-83290757D01*
X143164379Y-83297828D01*
X143408813Y-83445595D01*
X143421334Y-83454238D01*
X143646171Y-83630385D01*
X143657560Y-83640475D01*
X143859525Y-83842440D01*
X143869615Y-83853829D01*
X144045762Y-84078666D01*
X144054405Y-84091187D01*
X144128171Y-84213209D01*
X144187873Y-84311967D01*
X144202172Y-84335621D01*
X144209242Y-84349092D01*
X144326466Y-84609555D01*
X144331858Y-84623769D01*
X144366170Y-84733881D01*
X144416836Y-84896473D01*
X144420475Y-84911240D01*
X144440279Y-85019304D01*
X144471960Y-85192186D01*
X144473794Y-85207290D01*
X144488953Y-85457904D01*
X144487692Y-85484716D01*
X144487690Y-85484852D01*
X144486309Y-85493724D01*
X144487473Y-85502626D01*
X144487473Y-85502628D01*
X144490436Y-85525283D01*
X144491500Y-85541621D01*
X144491500Y-112450633D01*
X144490000Y-112470018D01*
X144487690Y-112484851D01*
X144487690Y-112484855D01*
X144486309Y-112493724D01*
X144488136Y-112507693D01*
X144488558Y-112510919D01*
X144489391Y-112534863D01*
X144473794Y-112792710D01*
X144471960Y-112807814D01*
X144420477Y-113088754D01*
X144416836Y-113103526D01*
X144357743Y-113293164D01*
X144331859Y-113376227D01*
X144326466Y-113390445D01*
X144209243Y-113650906D01*
X144202172Y-113664379D01*
X144054405Y-113908813D01*
X144045762Y-113921334D01*
X143869615Y-114146171D01*
X143859525Y-114157560D01*
X143657560Y-114359525D01*
X143646171Y-114369615D01*
X143421334Y-114545762D01*
X143408813Y-114554405D01*
X143164379Y-114702172D01*
X143150908Y-114709242D01*
X142890445Y-114826466D01*
X142876231Y-114831858D01*
X142603527Y-114916836D01*
X142588760Y-114920475D01*
X142379786Y-114958771D01*
X142307814Y-114971960D01*
X142292710Y-114973794D01*
X142042096Y-114988953D01*
X142015284Y-114987692D01*
X142015148Y-114987690D01*
X142006276Y-114986309D01*
X141997374Y-114987473D01*
X141997372Y-114987473D01*
X141982707Y-114989391D01*
X141974714Y-114990436D01*
X141958379Y-114991500D01*
X121834500Y-114991500D01*
X121766379Y-114971498D01*
X121719886Y-114917842D01*
X121708500Y-114865500D01*
X121708500Y-112790000D01*
X122536526Y-112790000D01*
X122556391Y-113042403D01*
X122557545Y-113047210D01*
X122557546Y-113047216D01*
X122571065Y-113103527D01*
X122615495Y-113288591D01*
X122617388Y-113293162D01*
X122617389Y-113293164D01*
X122654807Y-113383498D01*
X122712384Y-113522502D01*
X122844672Y-113738376D01*
X122847883Y-113742135D01*
X123000934Y-113921334D01*
X123009102Y-113930898D01*
X123201624Y-114095328D01*
X123417498Y-114227616D01*
X123422068Y-114229509D01*
X123422072Y-114229511D01*
X123646836Y-114322611D01*
X123651409Y-114324505D01*
X123736032Y-114344821D01*
X123892784Y-114382454D01*
X123892790Y-114382455D01*
X123897597Y-114383609D01*
X123997416Y-114391465D01*
X124084345Y-114398307D01*
X124084352Y-114398307D01*
X124086801Y-114398500D01*
X124213199Y-114398500D01*
X124215648Y-114398307D01*
X124215655Y-114398307D01*
X124302584Y-114391465D01*
X124402403Y-114383609D01*
X124407210Y-114382455D01*
X124407216Y-114382454D01*
X124563968Y-114344821D01*
X124648591Y-114324505D01*
X124653164Y-114322611D01*
X124877928Y-114229511D01*
X124877932Y-114229509D01*
X124882502Y-114227616D01*
X125098376Y-114095328D01*
X125290898Y-113930898D01*
X125299067Y-113921334D01*
X125452117Y-113742135D01*
X125455328Y-113738376D01*
X125587616Y-113522502D01*
X125645194Y-113383498D01*
X125682611Y-113293164D01*
X125682612Y-113293162D01*
X125684505Y-113288591D01*
X125728935Y-113103527D01*
X125742454Y-113047216D01*
X125742455Y-113047210D01*
X125743609Y-113042403D01*
X125763474Y-112790000D01*
X125743609Y-112537597D01*
X125742349Y-112532345D01*
X125685660Y-112296221D01*
X125684505Y-112291409D01*
X125647006Y-112200878D01*
X125589511Y-112062072D01*
X125589509Y-112062068D01*
X125587616Y-112057498D01*
X125455328Y-111841624D01*
X125290898Y-111649102D01*
X125098376Y-111484672D01*
X124882502Y-111352384D01*
X124877932Y-111350491D01*
X124877928Y-111350489D01*
X124653164Y-111257389D01*
X124653162Y-111257388D01*
X124648591Y-111255495D01*
X124563968Y-111235179D01*
X124407216Y-111197546D01*
X124407210Y-111197545D01*
X124402403Y-111196391D01*
X124302584Y-111188535D01*
X124215655Y-111181693D01*
X124215648Y-111181693D01*
X124213199Y-111181500D01*
X124086801Y-111181500D01*
X124084352Y-111181693D01*
X124084345Y-111181693D01*
X123997416Y-111188535D01*
X123897597Y-111196391D01*
X123892790Y-111197545D01*
X123892784Y-111197546D01*
X123736032Y-111235179D01*
X123651409Y-111255495D01*
X123646838Y-111257388D01*
X123646836Y-111257389D01*
X123422072Y-111350489D01*
X123422068Y-111350491D01*
X123417498Y-111352384D01*
X123201624Y-111484672D01*
X123009102Y-111649102D01*
X122844672Y-111841624D01*
X122712384Y-112057498D01*
X122710491Y-112062068D01*
X122710489Y-112062072D01*
X122652994Y-112200878D01*
X122615495Y-112291409D01*
X122614340Y-112296221D01*
X122557652Y-112532345D01*
X122556391Y-112537597D01*
X122536526Y-112790000D01*
X121708500Y-112790000D01*
X121708500Y-112553250D01*
X121710246Y-112532345D01*
X121712770Y-112517344D01*
X121712770Y-112517341D01*
X121713576Y-112512552D01*
X121713729Y-112500000D01*
X121713040Y-112495190D01*
X121712882Y-112492763D01*
X121712303Y-112487067D01*
X121694992Y-112200878D01*
X121694991Y-112200873D01*
X121694762Y-112197081D01*
X121640059Y-111898579D01*
X121549775Y-111608848D01*
X121425226Y-111332111D01*
X121268228Y-111072405D01*
X121219683Y-111010441D01*
X121201480Y-110987207D01*
X121081071Y-110833516D01*
X120866484Y-110618929D01*
X120627595Y-110431772D01*
X120450094Y-110324469D01*
X120371150Y-110276745D01*
X120371146Y-110276743D01*
X120367889Y-110274774D01*
X120229521Y-110212500D01*
X120094628Y-110151789D01*
X120094622Y-110151787D01*
X120091152Y-110150225D01*
X119801421Y-110059941D01*
X119502919Y-110005238D01*
X119499125Y-110005009D01*
X119499121Y-110005008D01*
X119366717Y-109996999D01*
X119230841Y-109988780D01*
X119217554Y-109987265D01*
X119212552Y-109986424D01*
X119206276Y-109986348D01*
X119204860Y-109986330D01*
X119204857Y-109986330D01*
X119200000Y-109986271D01*
X119175679Y-109989754D01*
X119172376Y-109990227D01*
X119154514Y-109991500D01*
X106753250Y-109991500D01*
X106732345Y-109989754D01*
X106717344Y-109987230D01*
X106717341Y-109987230D01*
X106712552Y-109986424D01*
X106706276Y-109986347D01*
X106704859Y-109986330D01*
X106704856Y-109986330D01*
X106700000Y-109986271D01*
X106695190Y-109986960D01*
X106692763Y-109987118D01*
X106687067Y-109987697D01*
X106400878Y-110005008D01*
X106400873Y-110005009D01*
X106397081Y-110005238D01*
X106098579Y-110059941D01*
X105808848Y-110150225D01*
X105805378Y-110151787D01*
X105805372Y-110151789D01*
X105670479Y-110212500D01*
X105532111Y-110274774D01*
X105528854Y-110276743D01*
X105528850Y-110276745D01*
X105449906Y-110324469D01*
X105272405Y-110431772D01*
X105033516Y-110618929D01*
X104818929Y-110833516D01*
X104698520Y-110987207D01*
X104680318Y-111010441D01*
X104631772Y-111072405D01*
X104474774Y-111332111D01*
X104350225Y-111608848D01*
X104259941Y-111898579D01*
X104205238Y-112197081D01*
X104205009Y-112200871D01*
X104205008Y-112200877D01*
X104188279Y-112477454D01*
X104187718Y-112482655D01*
X104187711Y-112483272D01*
X104187875Y-112483669D01*
X104186309Y-112493724D01*
X104186983Y-112498878D01*
X104186915Y-112500000D01*
X104187130Y-112500000D01*
X104188122Y-112507587D01*
X104190436Y-112525283D01*
X104191500Y-112541620D01*
X104191500Y-114865500D01*
X104171498Y-114933621D01*
X104117842Y-114980114D01*
X104065500Y-114991500D01*
X83049367Y-114991500D01*
X83029982Y-114990000D01*
X83015149Y-114987690D01*
X83015145Y-114987690D01*
X83006276Y-114986309D01*
X82989077Y-114988558D01*
X82965137Y-114989391D01*
X82707290Y-114973794D01*
X82692186Y-114971960D01*
X82620214Y-114958771D01*
X82411240Y-114920475D01*
X82396473Y-114916836D01*
X82123769Y-114831858D01*
X82109555Y-114826466D01*
X81849092Y-114709242D01*
X81835621Y-114702172D01*
X81591187Y-114554405D01*
X81578666Y-114545762D01*
X81353829Y-114369615D01*
X81342440Y-114359525D01*
X81140475Y-114157560D01*
X81130385Y-114146171D01*
X80954238Y-113921334D01*
X80945595Y-113908813D01*
X80797828Y-113664379D01*
X80790757Y-113650906D01*
X80673534Y-113390445D01*
X80668141Y-113376227D01*
X80642258Y-113293164D01*
X80583164Y-113103526D01*
X80579523Y-113088754D01*
X80528040Y-112807814D01*
X80526206Y-112792710D01*
X80526042Y-112790000D01*
X99236526Y-112790000D01*
X99256391Y-113042403D01*
X99257545Y-113047210D01*
X99257546Y-113047216D01*
X99271065Y-113103527D01*
X99315495Y-113288591D01*
X99317388Y-113293162D01*
X99317389Y-113293164D01*
X99354807Y-113383498D01*
X99412384Y-113522502D01*
X99544672Y-113738376D01*
X99547883Y-113742135D01*
X99700934Y-113921334D01*
X99709102Y-113930898D01*
X99901624Y-114095328D01*
X100117498Y-114227616D01*
X100122068Y-114229509D01*
X100122072Y-114229511D01*
X100346836Y-114322611D01*
X100351409Y-114324505D01*
X100436032Y-114344821D01*
X100592784Y-114382454D01*
X100592790Y-114382455D01*
X100597597Y-114383609D01*
X100697416Y-114391465D01*
X100784345Y-114398307D01*
X100784352Y-114398307D01*
X100786801Y-114398500D01*
X100913199Y-114398500D01*
X100915648Y-114398307D01*
X100915655Y-114398307D01*
X101002584Y-114391465D01*
X101102403Y-114383609D01*
X101107210Y-114382455D01*
X101107216Y-114382454D01*
X101263968Y-114344821D01*
X101348591Y-114324505D01*
X101353164Y-114322611D01*
X101577928Y-114229511D01*
X101577932Y-114229509D01*
X101582502Y-114227616D01*
X101798376Y-114095328D01*
X101990898Y-113930898D01*
X101999067Y-113921334D01*
X102152117Y-113742135D01*
X102155328Y-113738376D01*
X102287616Y-113522502D01*
X102345194Y-113383498D01*
X102382611Y-113293164D01*
X102382612Y-113293162D01*
X102384505Y-113288591D01*
X102428935Y-113103527D01*
X102442454Y-113047216D01*
X102442455Y-113047210D01*
X102443609Y-113042403D01*
X102463474Y-112790000D01*
X102443609Y-112537597D01*
X102442349Y-112532345D01*
X102385660Y-112296221D01*
X102384505Y-112291409D01*
X102347006Y-112200878D01*
X102289511Y-112062072D01*
X102289509Y-112062068D01*
X102287616Y-112057498D01*
X102155328Y-111841624D01*
X101990898Y-111649102D01*
X101798376Y-111484672D01*
X101582502Y-111352384D01*
X101577932Y-111350491D01*
X101577928Y-111350489D01*
X101353164Y-111257389D01*
X101353162Y-111257388D01*
X101348591Y-111255495D01*
X101263968Y-111235179D01*
X101107216Y-111197546D01*
X101107210Y-111197545D01*
X101102403Y-111196391D01*
X101002584Y-111188535D01*
X100915655Y-111181693D01*
X100915648Y-111181693D01*
X100913199Y-111181500D01*
X100786801Y-111181500D01*
X100784352Y-111181693D01*
X100784345Y-111181693D01*
X100697416Y-111188535D01*
X100597597Y-111196391D01*
X100592790Y-111197545D01*
X100592784Y-111197546D01*
X100436032Y-111235179D01*
X100351409Y-111255495D01*
X100346838Y-111257388D01*
X100346836Y-111257389D01*
X100122072Y-111350489D01*
X100122068Y-111350491D01*
X100117498Y-111352384D01*
X99901624Y-111484672D01*
X99709102Y-111649102D01*
X99544672Y-111841624D01*
X99412384Y-112057498D01*
X99410491Y-112062068D01*
X99410489Y-112062072D01*
X99352994Y-112200878D01*
X99315495Y-112291409D01*
X99314340Y-112296221D01*
X99257652Y-112532345D01*
X99256391Y-112537597D01*
X99236526Y-112790000D01*
X80526042Y-112790000D01*
X80511269Y-112545768D01*
X80512520Y-112522216D01*
X80512334Y-112522199D01*
X80512769Y-112517350D01*
X80513576Y-112512552D01*
X80513729Y-112500000D01*
X80509773Y-112472376D01*
X80508500Y-112454514D01*
X80508500Y-109042277D01*
X81637009Y-109042277D01*
X81662625Y-109310769D01*
X81663710Y-109315203D01*
X81663711Y-109315209D01*
X81725645Y-109568312D01*
X81726731Y-109572750D01*
X81827985Y-109822733D01*
X81964265Y-110055482D01*
X82039127Y-110149092D01*
X82084686Y-110206060D01*
X82132716Y-110266119D01*
X82329809Y-110450234D01*
X82551416Y-110603968D01*
X82555499Y-110605999D01*
X82555502Y-110606001D01*
X82576759Y-110616576D01*
X82792894Y-110724101D01*
X82797228Y-110725522D01*
X82797231Y-110725523D01*
X83044853Y-110806698D01*
X83044859Y-110806699D01*
X83049186Y-110808118D01*
X83053677Y-110808898D01*
X83053678Y-110808898D01*
X83311140Y-110853601D01*
X83311148Y-110853602D01*
X83314921Y-110854257D01*
X83318758Y-110854448D01*
X83398578Y-110858422D01*
X83398586Y-110858422D01*
X83400149Y-110858500D01*
X83568512Y-110858500D01*
X83570780Y-110858335D01*
X83570792Y-110858335D01*
X83701884Y-110848823D01*
X83769004Y-110843953D01*
X83773459Y-110842969D01*
X83773462Y-110842969D01*
X84027912Y-110786791D01*
X84027916Y-110786790D01*
X84032372Y-110785806D01*
X84158480Y-110738028D01*
X84280318Y-110691868D01*
X84280321Y-110691867D01*
X84284588Y-110690250D01*
X84520368Y-110559286D01*
X84734773Y-110395657D01*
X84923312Y-110202792D01*
X85082034Y-109984730D01*
X85165190Y-109826676D01*
X85205490Y-109750079D01*
X85205493Y-109750073D01*
X85207615Y-109746039D01*
X85270378Y-109568312D01*
X85295902Y-109496033D01*
X85295902Y-109496032D01*
X85297425Y-109491720D01*
X85349581Y-109227100D01*
X85358782Y-109042277D01*
X139637009Y-109042277D01*
X139662625Y-109310769D01*
X139663710Y-109315203D01*
X139663711Y-109315209D01*
X139725645Y-109568312D01*
X139726731Y-109572750D01*
X139827985Y-109822733D01*
X139964265Y-110055482D01*
X140039127Y-110149092D01*
X140084686Y-110206060D01*
X140132716Y-110266119D01*
X140329809Y-110450234D01*
X140551416Y-110603968D01*
X140555499Y-110605999D01*
X140555502Y-110606001D01*
X140576759Y-110616576D01*
X140792894Y-110724101D01*
X140797228Y-110725522D01*
X140797231Y-110725523D01*
X141044853Y-110806698D01*
X141044859Y-110806699D01*
X141049186Y-110808118D01*
X141053677Y-110808898D01*
X141053678Y-110808898D01*
X141311140Y-110853601D01*
X141311148Y-110853602D01*
X141314921Y-110854257D01*
X141318758Y-110854448D01*
X141398578Y-110858422D01*
X141398586Y-110858422D01*
X141400149Y-110858500D01*
X141568512Y-110858500D01*
X141570780Y-110858335D01*
X141570792Y-110858335D01*
X141701884Y-110848823D01*
X141769004Y-110843953D01*
X141773459Y-110842969D01*
X141773462Y-110842969D01*
X142027912Y-110786791D01*
X142027916Y-110786790D01*
X142032372Y-110785806D01*
X142158480Y-110738028D01*
X142280318Y-110691868D01*
X142280321Y-110691867D01*
X142284588Y-110690250D01*
X142520368Y-110559286D01*
X142734773Y-110395657D01*
X142923312Y-110202792D01*
X143082034Y-109984730D01*
X143165190Y-109826676D01*
X143205490Y-109750079D01*
X143205493Y-109750073D01*
X143207615Y-109746039D01*
X143270378Y-109568312D01*
X143295902Y-109496033D01*
X143295902Y-109496032D01*
X143297425Y-109491720D01*
X143349581Y-109227100D01*
X143358782Y-109042277D01*
X143362764Y-108962292D01*
X143362764Y-108962286D01*
X143362991Y-108957723D01*
X143337375Y-108689231D01*
X143292042Y-108503967D01*
X143274355Y-108431688D01*
X143273269Y-108427250D01*
X143172015Y-108177267D01*
X143035735Y-107944518D01*
X142917928Y-107797208D01*
X142870136Y-107737447D01*
X142870135Y-107737445D01*
X142867284Y-107733881D01*
X142670191Y-107549766D01*
X142448584Y-107396032D01*
X142444501Y-107394001D01*
X142444498Y-107393999D01*
X142279606Y-107311967D01*
X142207106Y-107275899D01*
X142202772Y-107274478D01*
X142202769Y-107274477D01*
X141955147Y-107193302D01*
X141955141Y-107193301D01*
X141950814Y-107191882D01*
X141946322Y-107191102D01*
X141688860Y-107146399D01*
X141688852Y-107146398D01*
X141685079Y-107145743D01*
X141673817Y-107145182D01*
X141601422Y-107141578D01*
X141601414Y-107141578D01*
X141599851Y-107141500D01*
X141431488Y-107141500D01*
X141429220Y-107141665D01*
X141429208Y-107141665D01*
X141298116Y-107151177D01*
X141230996Y-107156047D01*
X141226541Y-107157031D01*
X141226538Y-107157031D01*
X140972088Y-107213209D01*
X140972084Y-107213210D01*
X140967628Y-107214194D01*
X140911946Y-107235290D01*
X140719682Y-107308132D01*
X140719679Y-107308133D01*
X140715412Y-107309750D01*
X140479632Y-107440714D01*
X140265227Y-107604343D01*
X140076688Y-107797208D01*
X139917966Y-108015270D01*
X139915844Y-108019304D01*
X139794510Y-108249921D01*
X139794507Y-108249927D01*
X139792385Y-108253961D01*
X139790865Y-108258266D01*
X139790863Y-108258270D01*
X139704098Y-108503967D01*
X139702575Y-108508280D01*
X139650419Y-108772900D01*
X139650192Y-108777453D01*
X139650192Y-108777456D01*
X139640991Y-108962292D01*
X139637009Y-109042277D01*
X85358782Y-109042277D01*
X85362764Y-108962292D01*
X85362764Y-108962286D01*
X85362991Y-108957723D01*
X85337375Y-108689231D01*
X85292042Y-108503967D01*
X85274355Y-108431688D01*
X85273269Y-108427250D01*
X85172015Y-108177267D01*
X85035735Y-107944518D01*
X84917928Y-107797208D01*
X84870136Y-107737447D01*
X84870135Y-107737445D01*
X84867284Y-107733881D01*
X84670191Y-107549766D01*
X84448584Y-107396032D01*
X84444501Y-107394001D01*
X84444498Y-107393999D01*
X84279606Y-107311967D01*
X84207106Y-107275899D01*
X84202772Y-107274478D01*
X84202769Y-107274477D01*
X83955147Y-107193302D01*
X83955141Y-107193301D01*
X83950814Y-107191882D01*
X83946322Y-107191102D01*
X83688860Y-107146399D01*
X83688852Y-107146398D01*
X83685079Y-107145743D01*
X83673817Y-107145182D01*
X83601422Y-107141578D01*
X83601414Y-107141578D01*
X83599851Y-107141500D01*
X83431488Y-107141500D01*
X83429220Y-107141665D01*
X83429208Y-107141665D01*
X83298116Y-107151177D01*
X83230996Y-107156047D01*
X83226541Y-107157031D01*
X83226538Y-107157031D01*
X82972088Y-107213209D01*
X82972084Y-107213210D01*
X82967628Y-107214194D01*
X82911946Y-107235290D01*
X82719682Y-107308132D01*
X82719679Y-107308133D01*
X82715412Y-107309750D01*
X82479632Y-107440714D01*
X82265227Y-107604343D01*
X82076688Y-107797208D01*
X81917966Y-108015270D01*
X81915844Y-108019304D01*
X81794510Y-108249921D01*
X81794507Y-108249927D01*
X81792385Y-108253961D01*
X81790865Y-108258266D01*
X81790863Y-108258270D01*
X81704098Y-108503967D01*
X81702575Y-108508280D01*
X81650419Y-108772900D01*
X81650192Y-108777453D01*
X81650192Y-108777456D01*
X81640991Y-108962292D01*
X81637009Y-109042277D01*
X80508500Y-109042277D01*
X80508500Y-105563998D01*
X86742000Y-105563998D01*
X86742173Y-105568673D01*
X86756088Y-105755926D01*
X86757464Y-105765132D01*
X86813071Y-106010874D01*
X86815795Y-106019785D01*
X86907112Y-106254608D01*
X86911123Y-106263017D01*
X87036146Y-106481760D01*
X87041357Y-106489486D01*
X87197341Y-106687350D01*
X87203634Y-106694218D01*
X87387144Y-106866848D01*
X87394398Y-106872722D01*
X87601403Y-107016327D01*
X87609438Y-107021060D01*
X87835407Y-107132495D01*
X87844040Y-107135983D01*
X88083994Y-107212793D01*
X88093076Y-107214973D01*
X88228120Y-107236967D01*
X88241714Y-107235271D01*
X88245865Y-107221606D01*
X88754000Y-107221606D01*
X88758018Y-107235290D01*
X88771710Y-107237311D01*
X88861904Y-107225036D01*
X88871022Y-107223098D01*
X89112902Y-107152596D01*
X89121633Y-107149333D01*
X89350442Y-107043849D01*
X89358594Y-107039330D01*
X89569291Y-106901192D01*
X89576696Y-106895509D01*
X89764654Y-106727751D01*
X89771139Y-106721035D01*
X89932239Y-106527334D01*
X89937654Y-106519742D01*
X90068354Y-106304354D01*
X90072592Y-106296037D01*
X90170019Y-106063701D01*
X90172980Y-106054851D01*
X90234994Y-105810669D01*
X90236616Y-105801472D01*
X90257684Y-105592247D01*
X90258000Y-105585955D01*
X90258000Y-105566354D01*
X91741500Y-105566354D01*
X91741673Y-105568679D01*
X91741673Y-105568685D01*
X91742957Y-105585955D01*
X91755939Y-105760652D01*
X91756968Y-105765200D01*
X91756969Y-105765206D01*
X91799147Y-105951601D01*
X91813623Y-106015577D01*
X91908353Y-106259177D01*
X92038049Y-106486098D01*
X92199862Y-106691357D01*
X92390237Y-106870443D01*
X92542563Y-106976116D01*
X92600527Y-107016327D01*
X92604991Y-107019424D01*
X92609181Y-107021490D01*
X92609184Y-107021492D01*
X92835219Y-107132960D01*
X92835222Y-107132961D01*
X92839407Y-107135025D01*
X92843850Y-107136447D01*
X92843852Y-107136448D01*
X93017029Y-107191882D01*
X93088335Y-107214707D01*
X93346307Y-107256721D01*
X93460058Y-107258210D01*
X93602978Y-107260081D01*
X93602981Y-107260081D01*
X93607655Y-107260142D01*
X93866638Y-107224896D01*
X93877926Y-107221606D01*
X93982580Y-107191102D01*
X94117567Y-107151757D01*
X94129190Y-107146399D01*
X94172112Y-107126611D01*
X94354928Y-107042332D01*
X94404976Y-107009519D01*
X94569596Y-106901590D01*
X94569601Y-106901586D01*
X94573509Y-106899024D01*
X94768506Y-106724982D01*
X94935637Y-106524030D01*
X95071229Y-106300581D01*
X95172303Y-106059545D01*
X95236641Y-105806217D01*
X95258500Y-105589133D01*
X95258500Y-105566354D01*
X129741500Y-105566354D01*
X129741673Y-105568679D01*
X129741673Y-105568685D01*
X129742957Y-105585955D01*
X129755939Y-105760652D01*
X129756968Y-105765200D01*
X129756969Y-105765206D01*
X129799147Y-105951601D01*
X129813623Y-106015577D01*
X129908353Y-106259177D01*
X130038049Y-106486098D01*
X130199862Y-106691357D01*
X130390237Y-106870443D01*
X130542563Y-106976116D01*
X130600527Y-107016327D01*
X130604991Y-107019424D01*
X130609181Y-107021490D01*
X130609184Y-107021492D01*
X130835219Y-107132960D01*
X130835222Y-107132961D01*
X130839407Y-107135025D01*
X130843850Y-107136447D01*
X130843852Y-107136448D01*
X131017029Y-107191882D01*
X131088335Y-107214707D01*
X131346307Y-107256721D01*
X131460058Y-107258210D01*
X131602978Y-107260081D01*
X131602981Y-107260081D01*
X131607655Y-107260142D01*
X131866638Y-107224896D01*
X131877926Y-107221606D01*
X131982580Y-107191102D01*
X132117567Y-107151757D01*
X132129190Y-107146399D01*
X132172112Y-107126611D01*
X132354928Y-107042332D01*
X132404976Y-107009519D01*
X132569596Y-106901590D01*
X132569601Y-106901586D01*
X132573509Y-106899024D01*
X132768506Y-106724982D01*
X132935637Y-106524030D01*
X133071229Y-106300581D01*
X133172303Y-106059545D01*
X133236641Y-105806217D01*
X133258500Y-105589133D01*
X133258500Y-105563998D01*
X134742000Y-105563998D01*
X134742173Y-105568673D01*
X134756088Y-105755926D01*
X134757464Y-105765132D01*
X134813071Y-106010874D01*
X134815795Y-106019785D01*
X134907112Y-106254608D01*
X134911123Y-106263017D01*
X135036146Y-106481760D01*
X135041357Y-106489486D01*
X135197341Y-106687350D01*
X135203634Y-106694218D01*
X135387144Y-106866848D01*
X135394398Y-106872722D01*
X135601403Y-107016327D01*
X135609438Y-107021060D01*
X135835407Y-107132495D01*
X135844040Y-107135983D01*
X136083994Y-107212793D01*
X136093076Y-107214973D01*
X136228120Y-107236967D01*
X136241714Y-107235271D01*
X136245865Y-107221606D01*
X136754000Y-107221606D01*
X136758018Y-107235290D01*
X136771710Y-107237311D01*
X136861904Y-107225036D01*
X136871022Y-107223098D01*
X137112902Y-107152596D01*
X137121633Y-107149333D01*
X137350442Y-107043849D01*
X137358594Y-107039330D01*
X137569291Y-106901192D01*
X137576696Y-106895509D01*
X137764654Y-106727751D01*
X137771139Y-106721035D01*
X137932239Y-106527334D01*
X137937654Y-106519742D01*
X138068354Y-106304354D01*
X138072592Y-106296037D01*
X138170019Y-106063701D01*
X138172980Y-106054851D01*
X138234994Y-105810669D01*
X138236616Y-105801472D01*
X138257684Y-105592247D01*
X138258000Y-105585955D01*
X138258000Y-105522115D01*
X138253525Y-105506876D01*
X138252135Y-105505671D01*
X138244452Y-105504000D01*
X136772115Y-105504000D01*
X136756876Y-105508475D01*
X136755671Y-105509865D01*
X136754000Y-105517548D01*
X136754000Y-107221606D01*
X136245865Y-107221606D01*
X136246000Y-107221161D01*
X136246000Y-105522115D01*
X136241525Y-105506876D01*
X136240135Y-105505671D01*
X136232452Y-105504000D01*
X134760115Y-105504000D01*
X134744876Y-105508475D01*
X134743671Y-105509865D01*
X134742000Y-105517548D01*
X134742000Y-105563998D01*
X133258500Y-105563998D01*
X133258500Y-104977885D01*
X134742000Y-104977885D01*
X134746475Y-104993124D01*
X134747865Y-104994329D01*
X134755548Y-104996000D01*
X136227885Y-104996000D01*
X136243124Y-104991525D01*
X136244329Y-104990135D01*
X136246000Y-104982452D01*
X136246000Y-104977885D01*
X136754000Y-104977885D01*
X136758475Y-104993124D01*
X136759865Y-104994329D01*
X136767548Y-104996000D01*
X138239885Y-104996000D01*
X138255124Y-104991525D01*
X138256329Y-104990135D01*
X138258000Y-104982452D01*
X138258000Y-104936002D01*
X138257827Y-104931327D01*
X138243912Y-104744074D01*
X138242536Y-104734868D01*
X138186929Y-104489126D01*
X138184205Y-104480215D01*
X138092888Y-104245392D01*
X138088877Y-104236983D01*
X137963854Y-104018240D01*
X137958643Y-104010514D01*
X137802659Y-103812650D01*
X137796366Y-103805782D01*
X137612856Y-103633152D01*
X137605602Y-103627278D01*
X137398597Y-103483673D01*
X137390562Y-103478940D01*
X137164593Y-103367505D01*
X137155960Y-103364017D01*
X136916006Y-103287207D01*
X136906924Y-103285027D01*
X136771880Y-103263033D01*
X136758286Y-103264729D01*
X136754000Y-103278839D01*
X136754000Y-104977885D01*
X136246000Y-104977885D01*
X136246000Y-103278394D01*
X136241982Y-103264710D01*
X136228290Y-103262689D01*
X136138096Y-103274964D01*
X136128978Y-103276902D01*
X135887098Y-103347404D01*
X135878367Y-103350667D01*
X135649558Y-103456151D01*
X135641406Y-103460670D01*
X135430709Y-103598808D01*
X135423304Y-103604491D01*
X135235346Y-103772249D01*
X135228861Y-103778965D01*
X135067761Y-103972666D01*
X135062346Y-103980258D01*
X134931646Y-104195646D01*
X134927408Y-104203963D01*
X134829981Y-104436299D01*
X134827020Y-104445149D01*
X134765006Y-104689331D01*
X134763384Y-104698528D01*
X134742316Y-104907753D01*
X134742000Y-104914045D01*
X134742000Y-104977885D01*
X133258500Y-104977885D01*
X133258500Y-104933646D01*
X133258327Y-104931315D01*
X133244407Y-104744000D01*
X133244406Y-104743996D01*
X133244061Y-104739348D01*
X133234825Y-104698528D01*
X133187408Y-104488980D01*
X133186377Y-104484423D01*
X133091647Y-104240823D01*
X132961951Y-104013902D01*
X132800138Y-103808643D01*
X132609763Y-103629557D01*
X132457437Y-103523884D01*
X132398851Y-103483241D01*
X132398848Y-103483239D01*
X132395009Y-103480576D01*
X132354644Y-103460670D01*
X132164781Y-103367040D01*
X132164778Y-103367039D01*
X132160593Y-103364975D01*
X132114449Y-103350204D01*
X131916123Y-103286720D01*
X131911665Y-103285293D01*
X131653693Y-103243279D01*
X131539942Y-103241790D01*
X131397022Y-103239919D01*
X131397019Y-103239919D01*
X131392345Y-103239858D01*
X131133362Y-103275104D01*
X131128876Y-103276412D01*
X131128874Y-103276412D01*
X131098405Y-103285293D01*
X130882433Y-103348243D01*
X130878180Y-103350203D01*
X130878179Y-103350204D01*
X130827888Y-103373389D01*
X130645072Y-103457668D01*
X130606067Y-103483241D01*
X130430404Y-103598410D01*
X130430399Y-103598414D01*
X130426491Y-103600976D01*
X130231494Y-103775018D01*
X130064363Y-103975970D01*
X129928771Y-104199419D01*
X129827697Y-104440455D01*
X129763359Y-104693783D01*
X129741500Y-104910867D01*
X129741500Y-105566354D01*
X95258500Y-105566354D01*
X95258500Y-104933646D01*
X95258327Y-104931315D01*
X95244407Y-104744000D01*
X95244406Y-104743996D01*
X95244061Y-104739348D01*
X95234825Y-104698528D01*
X95187408Y-104488980D01*
X95186377Y-104484423D01*
X95091647Y-104240823D01*
X94961951Y-104013902D01*
X94800138Y-103808643D01*
X94609763Y-103629557D01*
X94457437Y-103523884D01*
X94398851Y-103483241D01*
X94398848Y-103483239D01*
X94395009Y-103480576D01*
X94354644Y-103460670D01*
X94164781Y-103367040D01*
X94164778Y-103367039D01*
X94160593Y-103364975D01*
X94114449Y-103350204D01*
X93916123Y-103286720D01*
X93911665Y-103285293D01*
X93653693Y-103243279D01*
X93539942Y-103241790D01*
X93397022Y-103239919D01*
X93397019Y-103239919D01*
X93392345Y-103239858D01*
X93133362Y-103275104D01*
X93128876Y-103276412D01*
X93128874Y-103276412D01*
X93098405Y-103285293D01*
X92882433Y-103348243D01*
X92878180Y-103350203D01*
X92878179Y-103350204D01*
X92827888Y-103373389D01*
X92645072Y-103457668D01*
X92606067Y-103483241D01*
X92430404Y-103598410D01*
X92430399Y-103598414D01*
X92426491Y-103600976D01*
X92231494Y-103775018D01*
X92064363Y-103975970D01*
X91928771Y-104199419D01*
X91827697Y-104440455D01*
X91763359Y-104693783D01*
X91741500Y-104910867D01*
X91741500Y-105566354D01*
X90258000Y-105566354D01*
X90258000Y-105522115D01*
X90253525Y-105506876D01*
X90252135Y-105505671D01*
X90244452Y-105504000D01*
X88772115Y-105504000D01*
X88756876Y-105508475D01*
X88755671Y-105509865D01*
X88754000Y-105517548D01*
X88754000Y-107221606D01*
X88245865Y-107221606D01*
X88246000Y-107221161D01*
X88246000Y-105522115D01*
X88241525Y-105506876D01*
X88240135Y-105505671D01*
X88232452Y-105504000D01*
X86760115Y-105504000D01*
X86744876Y-105508475D01*
X86743671Y-105509865D01*
X86742000Y-105517548D01*
X86742000Y-105563998D01*
X80508500Y-105563998D01*
X80508500Y-104977885D01*
X86742000Y-104977885D01*
X86746475Y-104993124D01*
X86747865Y-104994329D01*
X86755548Y-104996000D01*
X88227885Y-104996000D01*
X88243124Y-104991525D01*
X88244329Y-104990135D01*
X88246000Y-104982452D01*
X88246000Y-104977885D01*
X88754000Y-104977885D01*
X88758475Y-104993124D01*
X88759865Y-104994329D01*
X88767548Y-104996000D01*
X90239885Y-104996000D01*
X90255124Y-104991525D01*
X90256329Y-104990135D01*
X90258000Y-104982452D01*
X90258000Y-104936002D01*
X90257827Y-104931327D01*
X90243912Y-104744074D01*
X90242536Y-104734868D01*
X90186929Y-104489126D01*
X90184205Y-104480215D01*
X90092888Y-104245392D01*
X90088877Y-104236983D01*
X89963854Y-104018240D01*
X89958643Y-104010514D01*
X89802659Y-103812650D01*
X89796366Y-103805782D01*
X89612856Y-103633152D01*
X89605602Y-103627278D01*
X89398597Y-103483673D01*
X89390562Y-103478940D01*
X89164593Y-103367505D01*
X89155960Y-103364017D01*
X88916006Y-103287207D01*
X88906924Y-103285027D01*
X88771880Y-103263033D01*
X88758286Y-103264729D01*
X88754000Y-103278839D01*
X88754000Y-104977885D01*
X88246000Y-104977885D01*
X88246000Y-103278394D01*
X88241982Y-103264710D01*
X88228290Y-103262689D01*
X88138096Y-103274964D01*
X88128978Y-103276902D01*
X87887098Y-103347404D01*
X87878367Y-103350667D01*
X87649558Y-103456151D01*
X87641406Y-103460670D01*
X87430709Y-103598808D01*
X87423304Y-103604491D01*
X87235346Y-103772249D01*
X87228861Y-103778965D01*
X87067761Y-103972666D01*
X87062346Y-103980258D01*
X86931646Y-104195646D01*
X86927408Y-104203963D01*
X86829981Y-104436299D01*
X86827020Y-104445149D01*
X86765006Y-104689331D01*
X86763384Y-104698528D01*
X86742316Y-104907753D01*
X86742000Y-104914045D01*
X86742000Y-104977885D01*
X80508500Y-104977885D01*
X80508500Y-100717966D01*
X105248257Y-100717966D01*
X105278565Y-100852446D01*
X105281645Y-100862275D01*
X105361770Y-101059603D01*
X105366413Y-101068794D01*
X105477694Y-101250388D01*
X105483777Y-101258699D01*
X105623213Y-101419667D01*
X105630580Y-101426883D01*
X105794434Y-101562916D01*
X105802881Y-101568831D01*
X105986756Y-101676279D01*
X105996042Y-101680729D01*
X106195001Y-101756703D01*
X106204899Y-101759579D01*
X106308250Y-101780606D01*
X106322299Y-101779410D01*
X106326000Y-101769065D01*
X106326000Y-101768517D01*
X106834000Y-101768517D01*
X106838064Y-101782359D01*
X106851478Y-101784393D01*
X106858184Y-101783534D01*
X106868262Y-101781392D01*
X107072255Y-101720191D01*
X107081842Y-101716433D01*
X107273095Y-101622739D01*
X107281945Y-101617464D01*
X107455328Y-101493792D01*
X107463200Y-101487139D01*
X107614052Y-101336812D01*
X107620730Y-101328965D01*
X107748022Y-101151819D01*
X107749279Y-101152722D01*
X107796373Y-101109362D01*
X107866311Y-101097145D01*
X107931751Y-101124678D01*
X107959579Y-101156511D01*
X108019987Y-101255088D01*
X108166250Y-101423938D01*
X108338126Y-101566632D01*
X108531000Y-101679338D01*
X108739692Y-101759030D01*
X108744760Y-101760061D01*
X108744763Y-101760062D01*
X108839862Y-101779410D01*
X108958597Y-101803567D01*
X108963772Y-101803757D01*
X108963774Y-101803757D01*
X109176673Y-101811564D01*
X109176677Y-101811564D01*
X109181837Y-101811753D01*
X109186957Y-101811097D01*
X109186959Y-101811097D01*
X109398288Y-101784025D01*
X109398289Y-101784025D01*
X109403416Y-101783368D01*
X109408366Y-101781883D01*
X109612429Y-101720661D01*
X109612434Y-101720659D01*
X109617384Y-101719174D01*
X109817994Y-101620896D01*
X109999860Y-101491173D01*
X110158096Y-101333489D01*
X110288453Y-101152077D01*
X110289776Y-101153028D01*
X110336645Y-101109857D01*
X110406580Y-101097625D01*
X110472026Y-101125144D01*
X110499875Y-101156994D01*
X110559987Y-101255088D01*
X110706250Y-101423938D01*
X110878126Y-101566632D01*
X111071000Y-101679338D01*
X111279692Y-101759030D01*
X111284760Y-101760061D01*
X111284763Y-101760062D01*
X111379862Y-101779410D01*
X111498597Y-101803567D01*
X111503772Y-101803757D01*
X111503774Y-101803757D01*
X111716673Y-101811564D01*
X111716677Y-101811564D01*
X111721837Y-101811753D01*
X111726957Y-101811097D01*
X111726959Y-101811097D01*
X111938288Y-101784025D01*
X111938289Y-101784025D01*
X111943416Y-101783368D01*
X111948366Y-101781883D01*
X112152429Y-101720661D01*
X112152434Y-101720659D01*
X112157384Y-101719174D01*
X112357994Y-101620896D01*
X112539860Y-101491173D01*
X112698096Y-101333489D01*
X112828453Y-101152077D01*
X112829776Y-101153028D01*
X112876645Y-101109857D01*
X112946580Y-101097625D01*
X113012026Y-101125144D01*
X113039875Y-101156994D01*
X113099987Y-101255088D01*
X113246250Y-101423938D01*
X113418126Y-101566632D01*
X113611000Y-101679338D01*
X113819692Y-101759030D01*
X113824760Y-101760061D01*
X113824763Y-101760062D01*
X113919862Y-101779410D01*
X114038597Y-101803567D01*
X114043772Y-101803757D01*
X114043774Y-101803757D01*
X114256673Y-101811564D01*
X114256677Y-101811564D01*
X114261837Y-101811753D01*
X114266957Y-101811097D01*
X114266959Y-101811097D01*
X114478288Y-101784025D01*
X114478289Y-101784025D01*
X114483416Y-101783368D01*
X114488366Y-101781883D01*
X114692429Y-101720661D01*
X114692434Y-101720659D01*
X114697384Y-101719174D01*
X114897994Y-101620896D01*
X115079860Y-101491173D01*
X115238096Y-101333489D01*
X115368453Y-101152077D01*
X115369776Y-101153028D01*
X115416645Y-101109857D01*
X115486580Y-101097625D01*
X115552026Y-101125144D01*
X115579875Y-101156994D01*
X115639987Y-101255088D01*
X115786250Y-101423938D01*
X115958126Y-101566632D01*
X116151000Y-101679338D01*
X116359692Y-101759030D01*
X116364760Y-101760061D01*
X116364763Y-101760062D01*
X116459862Y-101779410D01*
X116578597Y-101803567D01*
X116583772Y-101803757D01*
X116583774Y-101803757D01*
X116796673Y-101811564D01*
X116796677Y-101811564D01*
X116801837Y-101811753D01*
X116806957Y-101811097D01*
X116806959Y-101811097D01*
X117018288Y-101784025D01*
X117018289Y-101784025D01*
X117023416Y-101783368D01*
X117028366Y-101781883D01*
X117232429Y-101720661D01*
X117232434Y-101720659D01*
X117237384Y-101719174D01*
X117437994Y-101620896D01*
X117619860Y-101491173D01*
X117728091Y-101383319D01*
X117790462Y-101349404D01*
X117861268Y-101354592D01*
X117918030Y-101397238D01*
X117935012Y-101428341D01*
X117979385Y-101546705D01*
X118066739Y-101663261D01*
X118183295Y-101750615D01*
X118319684Y-101801745D01*
X118381866Y-101808500D01*
X120178134Y-101808500D01*
X120240316Y-101801745D01*
X120376705Y-101750615D01*
X120493261Y-101663261D01*
X120580615Y-101546705D01*
X120631745Y-101410316D01*
X120638500Y-101348134D01*
X120638500Y-99551866D01*
X120631745Y-99489684D01*
X120580615Y-99353295D01*
X120493261Y-99236739D01*
X120376705Y-99149385D01*
X120240316Y-99098255D01*
X120178134Y-99091500D01*
X118381866Y-99091500D01*
X118319684Y-99098255D01*
X118183295Y-99149385D01*
X118066739Y-99236739D01*
X117979385Y-99353295D01*
X117976233Y-99361703D01*
X117934919Y-99471907D01*
X117892277Y-99528671D01*
X117825716Y-99553371D01*
X117756367Y-99538163D01*
X117723743Y-99512476D01*
X117673151Y-99456875D01*
X117673142Y-99456866D01*
X117669670Y-99453051D01*
X117665619Y-99449852D01*
X117665615Y-99449848D01*
X117498414Y-99317800D01*
X117498410Y-99317798D01*
X117494359Y-99314598D01*
X117458028Y-99294542D01*
X117442136Y-99285769D01*
X117298789Y-99206638D01*
X117293920Y-99204914D01*
X117293916Y-99204912D01*
X117093087Y-99133795D01*
X117093083Y-99133794D01*
X117088212Y-99132069D01*
X117083119Y-99131162D01*
X117083116Y-99131161D01*
X116873373Y-99093800D01*
X116873367Y-99093799D01*
X116868284Y-99092894D01*
X116794452Y-99091992D01*
X116650081Y-99090228D01*
X116650079Y-99090228D01*
X116644911Y-99090165D01*
X116424091Y-99123955D01*
X116211756Y-99193357D01*
X116013607Y-99296507D01*
X116009474Y-99299610D01*
X116009471Y-99299612D01*
X115839100Y-99427530D01*
X115834965Y-99430635D01*
X115809541Y-99457240D01*
X115741280Y-99528671D01*
X115680629Y-99592138D01*
X115573201Y-99749621D01*
X115518293Y-99794621D01*
X115447768Y-99802792D01*
X115384021Y-99771538D01*
X115363324Y-99747054D01*
X115282822Y-99622617D01*
X115282820Y-99622614D01*
X115280014Y-99618277D01*
X115129670Y-99453051D01*
X115125619Y-99449852D01*
X115125615Y-99449848D01*
X114958414Y-99317800D01*
X114958410Y-99317798D01*
X114954359Y-99314598D01*
X114918028Y-99294542D01*
X114902136Y-99285769D01*
X114758789Y-99206638D01*
X114753920Y-99204914D01*
X114753916Y-99204912D01*
X114553087Y-99133795D01*
X114553083Y-99133794D01*
X114548212Y-99132069D01*
X114543119Y-99131162D01*
X114543116Y-99131161D01*
X114333373Y-99093800D01*
X114333367Y-99093799D01*
X114328284Y-99092894D01*
X114254452Y-99091992D01*
X114110081Y-99090228D01*
X114110079Y-99090228D01*
X114104911Y-99090165D01*
X113884091Y-99123955D01*
X113671756Y-99193357D01*
X113473607Y-99296507D01*
X113469474Y-99299610D01*
X113469471Y-99299612D01*
X113299100Y-99427530D01*
X113294965Y-99430635D01*
X113269541Y-99457240D01*
X113201280Y-99528671D01*
X113140629Y-99592138D01*
X113033201Y-99749621D01*
X112978293Y-99794621D01*
X112907768Y-99802792D01*
X112844021Y-99771538D01*
X112823324Y-99747054D01*
X112742822Y-99622617D01*
X112742820Y-99622614D01*
X112740014Y-99618277D01*
X112589670Y-99453051D01*
X112585619Y-99449852D01*
X112585615Y-99449848D01*
X112418414Y-99317800D01*
X112418410Y-99317798D01*
X112414359Y-99314598D01*
X112378028Y-99294542D01*
X112362136Y-99285769D01*
X112218789Y-99206638D01*
X112213920Y-99204914D01*
X112213916Y-99204912D01*
X112013087Y-99133795D01*
X112013083Y-99133794D01*
X112008212Y-99132069D01*
X112003119Y-99131162D01*
X112003116Y-99131161D01*
X111793373Y-99093800D01*
X111793367Y-99093799D01*
X111788284Y-99092894D01*
X111714452Y-99091992D01*
X111570081Y-99090228D01*
X111570079Y-99090228D01*
X111564911Y-99090165D01*
X111344091Y-99123955D01*
X111131756Y-99193357D01*
X110933607Y-99296507D01*
X110929474Y-99299610D01*
X110929471Y-99299612D01*
X110759100Y-99427530D01*
X110754965Y-99430635D01*
X110729541Y-99457240D01*
X110661280Y-99528671D01*
X110600629Y-99592138D01*
X110493201Y-99749621D01*
X110438293Y-99794621D01*
X110367768Y-99802792D01*
X110304021Y-99771538D01*
X110283324Y-99747054D01*
X110202822Y-99622617D01*
X110202820Y-99622614D01*
X110200014Y-99618277D01*
X110180405Y-99596727D01*
X110061307Y-99465839D01*
X110030255Y-99401993D01*
X110028500Y-99381039D01*
X110028500Y-93066354D01*
X129741500Y-93066354D01*
X129741673Y-93068679D01*
X129741673Y-93068685D01*
X129742957Y-93085955D01*
X129755939Y-93260652D01*
X129756968Y-93265200D01*
X129756969Y-93265206D01*
X129799147Y-93451601D01*
X129813623Y-93515577D01*
X129908353Y-93759177D01*
X130038049Y-93986098D01*
X130199862Y-94191357D01*
X130390237Y-94370443D01*
X130542563Y-94476116D01*
X130600527Y-94516327D01*
X130604991Y-94519424D01*
X130609181Y-94521490D01*
X130609184Y-94521492D01*
X130835219Y-94632960D01*
X130835222Y-94632961D01*
X130839407Y-94635025D01*
X130843850Y-94636447D01*
X130843852Y-94636448D01*
X131082356Y-94712793D01*
X131088335Y-94714707D01*
X131346307Y-94756721D01*
X131460058Y-94758210D01*
X131602978Y-94760081D01*
X131602981Y-94760081D01*
X131607655Y-94760142D01*
X131866638Y-94724896D01*
X131877926Y-94721606D01*
X131938664Y-94703902D01*
X132117567Y-94651757D01*
X132151784Y-94635983D01*
X132172112Y-94626611D01*
X132354928Y-94542332D01*
X132404976Y-94509519D01*
X132569596Y-94401590D01*
X132569601Y-94401586D01*
X132573509Y-94399024D01*
X132768506Y-94224982D01*
X132935637Y-94024030D01*
X133071229Y-93800581D01*
X133172303Y-93559545D01*
X133236641Y-93306217D01*
X133258500Y-93089133D01*
X133258500Y-93063998D01*
X134742000Y-93063998D01*
X134742173Y-93068673D01*
X134756088Y-93255926D01*
X134757464Y-93265132D01*
X134813071Y-93510874D01*
X134815795Y-93519785D01*
X134907112Y-93754608D01*
X134911123Y-93763017D01*
X135036146Y-93981760D01*
X135041357Y-93989486D01*
X135197341Y-94187350D01*
X135203634Y-94194218D01*
X135387144Y-94366848D01*
X135394398Y-94372722D01*
X135601403Y-94516327D01*
X135609438Y-94521060D01*
X135835407Y-94632495D01*
X135844040Y-94635983D01*
X136083994Y-94712793D01*
X136093076Y-94714973D01*
X136228120Y-94736967D01*
X136241714Y-94735271D01*
X136245865Y-94721606D01*
X136754000Y-94721606D01*
X136758018Y-94735290D01*
X136771710Y-94737311D01*
X136861904Y-94725036D01*
X136871022Y-94723098D01*
X137112902Y-94652596D01*
X137121633Y-94649333D01*
X137350442Y-94543849D01*
X137358594Y-94539330D01*
X137569291Y-94401192D01*
X137576696Y-94395509D01*
X137764654Y-94227751D01*
X137771139Y-94221035D01*
X137932239Y-94027334D01*
X137937654Y-94019742D01*
X138068354Y-93804354D01*
X138072592Y-93796037D01*
X138170019Y-93563701D01*
X138172980Y-93554851D01*
X138234994Y-93310669D01*
X138236616Y-93301472D01*
X138257684Y-93092247D01*
X138258000Y-93085955D01*
X138258000Y-93022115D01*
X138253525Y-93006876D01*
X138252135Y-93005671D01*
X138244452Y-93004000D01*
X136772115Y-93004000D01*
X136756876Y-93008475D01*
X136755671Y-93009865D01*
X136754000Y-93017548D01*
X136754000Y-94721606D01*
X136245865Y-94721606D01*
X136246000Y-94721161D01*
X136246000Y-93022115D01*
X136241525Y-93006876D01*
X136240135Y-93005671D01*
X136232452Y-93004000D01*
X134760115Y-93004000D01*
X134744876Y-93008475D01*
X134743671Y-93009865D01*
X134742000Y-93017548D01*
X134742000Y-93063998D01*
X133258500Y-93063998D01*
X133258500Y-92477885D01*
X134742000Y-92477885D01*
X134746475Y-92493124D01*
X134747865Y-92494329D01*
X134755548Y-92496000D01*
X136227885Y-92496000D01*
X136243124Y-92491525D01*
X136244329Y-92490135D01*
X136246000Y-92482452D01*
X136246000Y-92477885D01*
X136754000Y-92477885D01*
X136758475Y-92493124D01*
X136759865Y-92494329D01*
X136767548Y-92496000D01*
X138239885Y-92496000D01*
X138255124Y-92491525D01*
X138256329Y-92490135D01*
X138258000Y-92482452D01*
X138258000Y-92436002D01*
X138257827Y-92431327D01*
X138243911Y-92244068D01*
X138242536Y-92234868D01*
X138186929Y-91989126D01*
X138184205Y-91980215D01*
X138092888Y-91745392D01*
X138088877Y-91736983D01*
X137963854Y-91518240D01*
X137958643Y-91510514D01*
X137802659Y-91312650D01*
X137796366Y-91305782D01*
X137612856Y-91133152D01*
X137605602Y-91127278D01*
X137398597Y-90983673D01*
X137390562Y-90978940D01*
X137164593Y-90867505D01*
X137155960Y-90864017D01*
X136916006Y-90787207D01*
X136906924Y-90785027D01*
X136771880Y-90763033D01*
X136758286Y-90764729D01*
X136754000Y-90778839D01*
X136754000Y-92477885D01*
X136246000Y-92477885D01*
X136246000Y-90778394D01*
X136241982Y-90764710D01*
X136228290Y-90762689D01*
X136138096Y-90774964D01*
X136128978Y-90776902D01*
X135887098Y-90847404D01*
X135878367Y-90850667D01*
X135649558Y-90956151D01*
X135641406Y-90960670D01*
X135430709Y-91098808D01*
X135423304Y-91104491D01*
X135235346Y-91272249D01*
X135228861Y-91278965D01*
X135067761Y-91472666D01*
X135062346Y-91480258D01*
X134931646Y-91695646D01*
X134927408Y-91703963D01*
X134829981Y-91936299D01*
X134827020Y-91945149D01*
X134765006Y-92189331D01*
X134763384Y-92198528D01*
X134742316Y-92407753D01*
X134742000Y-92414045D01*
X134742000Y-92477885D01*
X133258500Y-92477885D01*
X133258500Y-92433646D01*
X133258327Y-92431315D01*
X133244407Y-92244000D01*
X133244406Y-92243996D01*
X133244061Y-92239348D01*
X133242842Y-92233958D01*
X133187408Y-91988980D01*
X133186377Y-91984423D01*
X133180283Y-91968751D01*
X133093340Y-91745176D01*
X133093339Y-91745173D01*
X133091647Y-91740823D01*
X133076449Y-91714231D01*
X133019653Y-91614860D01*
X132961951Y-91513902D01*
X132800138Y-91308643D01*
X132609763Y-91129557D01*
X132457437Y-91023884D01*
X132398851Y-90983241D01*
X132398848Y-90983239D01*
X132395009Y-90980576D01*
X132354644Y-90960670D01*
X132164781Y-90867040D01*
X132164778Y-90867039D01*
X132160593Y-90864975D01*
X132114449Y-90850204D01*
X131916123Y-90786720D01*
X131911665Y-90785293D01*
X131653693Y-90743279D01*
X131539942Y-90741790D01*
X131397022Y-90739919D01*
X131397019Y-90739919D01*
X131392345Y-90739858D01*
X131133362Y-90775104D01*
X131128876Y-90776412D01*
X131128874Y-90776412D01*
X131098405Y-90785293D01*
X130882433Y-90848243D01*
X130878180Y-90850203D01*
X130878179Y-90850204D01*
X130827888Y-90873389D01*
X130645072Y-90957668D01*
X130606067Y-90983241D01*
X130430404Y-91098410D01*
X130430399Y-91098414D01*
X130426491Y-91100976D01*
X130231494Y-91275018D01*
X130064363Y-91475970D01*
X130061934Y-91479973D01*
X129941317Y-91678744D01*
X129928771Y-91699419D01*
X129827697Y-91940455D01*
X129763359Y-92193783D01*
X129762891Y-92198434D01*
X129762890Y-92198438D01*
X129757256Y-92254390D01*
X129741500Y-92410867D01*
X129741500Y-93066354D01*
X110028500Y-93066354D01*
X110028500Y-92730503D01*
X110048502Y-92662382D01*
X110065405Y-92641408D01*
X110461408Y-92245405D01*
X110523720Y-92211379D01*
X110550503Y-92208500D01*
X112859317Y-92208500D01*
X112927438Y-92228502D01*
X112951016Y-92249855D01*
X112951522Y-92249348D01*
X113076697Y-92374305D01*
X113082927Y-92378145D01*
X113082928Y-92378146D01*
X113220288Y-92462816D01*
X113227262Y-92467115D01*
X113259733Y-92477885D01*
X113388611Y-92520632D01*
X113388613Y-92520632D01*
X113395139Y-92522797D01*
X113401975Y-92523497D01*
X113401978Y-92523498D01*
X113445031Y-92527909D01*
X113499600Y-92533500D01*
X114100400Y-92533500D01*
X114103646Y-92533163D01*
X114103650Y-92533163D01*
X114199308Y-92523238D01*
X114199312Y-92523237D01*
X114206166Y-92522526D01*
X114212702Y-92520345D01*
X114212704Y-92520345D01*
X114344806Y-92476272D01*
X114373946Y-92466550D01*
X114524348Y-92373478D01*
X114649305Y-92248303D01*
X114652102Y-92243765D01*
X114709353Y-92203176D01*
X114780276Y-92199946D01*
X114841687Y-92235572D01*
X114849062Y-92244068D01*
X114857098Y-92254207D01*
X114971829Y-92368739D01*
X114983240Y-92377751D01*
X115121243Y-92462816D01*
X115134424Y-92468963D01*
X115288710Y-92520138D01*
X115302086Y-92523005D01*
X115396438Y-92532672D01*
X115402854Y-92533000D01*
X115427885Y-92533000D01*
X115443124Y-92528525D01*
X115444329Y-92527135D01*
X115446000Y-92519452D01*
X115446000Y-92514884D01*
X115954000Y-92514884D01*
X115958475Y-92530123D01*
X115959865Y-92531328D01*
X115967548Y-92532999D01*
X115997095Y-92532999D01*
X116003614Y-92532662D01*
X116099206Y-92522743D01*
X116112600Y-92519851D01*
X116266784Y-92468412D01*
X116279962Y-92462239D01*
X116417807Y-92376937D01*
X116429208Y-92367901D01*
X116543739Y-92253171D01*
X116552751Y-92241760D01*
X116637816Y-92103757D01*
X116643963Y-92090576D01*
X116695138Y-91936290D01*
X116698005Y-91922914D01*
X116707672Y-91828562D01*
X116708000Y-91822146D01*
X116708000Y-91572115D01*
X116703525Y-91556876D01*
X116702135Y-91555671D01*
X116694452Y-91554000D01*
X115972115Y-91554000D01*
X115956876Y-91558475D01*
X115955671Y-91559865D01*
X115954000Y-91567548D01*
X115954000Y-92514884D01*
X115446000Y-92514884D01*
X115446000Y-91027885D01*
X115954000Y-91027885D01*
X115958475Y-91043124D01*
X115959865Y-91044329D01*
X115967548Y-91046000D01*
X116689884Y-91046000D01*
X116705123Y-91041525D01*
X116706328Y-91040135D01*
X116707999Y-91032452D01*
X116707999Y-90777905D01*
X116707662Y-90771386D01*
X116697743Y-90675794D01*
X116694851Y-90662400D01*
X116643412Y-90508216D01*
X116637239Y-90495038D01*
X116551937Y-90357193D01*
X116542901Y-90345792D01*
X116428171Y-90231261D01*
X116416760Y-90222249D01*
X116278757Y-90137184D01*
X116265576Y-90131037D01*
X116111290Y-90079862D01*
X116097914Y-90076995D01*
X116040544Y-90071117D01*
X116019279Y-90062433D01*
X116008690Y-90066546D01*
X115998007Y-90067000D01*
X115972115Y-90067000D01*
X115956876Y-90071475D01*
X115955671Y-90072865D01*
X115954000Y-90080548D01*
X115954000Y-91027885D01*
X115446000Y-91027885D01*
X115446000Y-90085116D01*
X115441525Y-90069877D01*
X115440135Y-90068672D01*
X115432452Y-90067001D01*
X115402905Y-90067001D01*
X115396386Y-90067338D01*
X115300794Y-90077257D01*
X115287400Y-90080149D01*
X115133216Y-90131588D01*
X115120038Y-90137761D01*
X114982193Y-90223063D01*
X114970792Y-90232099D01*
X114923673Y-90279300D01*
X114861390Y-90313379D01*
X114790570Y-90308376D01*
X114733697Y-90265879D01*
X114708829Y-90199380D01*
X114708500Y-90190282D01*
X114708500Y-89525058D01*
X114728502Y-89456937D01*
X114745560Y-89435807D01*
X114808096Y-89373489D01*
X114938453Y-89192077D01*
X114939640Y-89192930D01*
X114986960Y-89149362D01*
X115056897Y-89137145D01*
X115122338Y-89164678D01*
X115150166Y-89196511D01*
X115207694Y-89290388D01*
X115213777Y-89298699D01*
X115353213Y-89459667D01*
X115360580Y-89466883D01*
X115524434Y-89602916D01*
X115532881Y-89608831D01*
X115716756Y-89716279D01*
X115726042Y-89720729D01*
X115925001Y-89796703D01*
X115934899Y-89799579D01*
X116023127Y-89817529D01*
X116031173Y-89821783D01*
X116042701Y-89820227D01*
X116052299Y-89819410D01*
X116056000Y-89809065D01*
X116056000Y-89808517D01*
X116564000Y-89808517D01*
X116568064Y-89822359D01*
X116581478Y-89824393D01*
X116588184Y-89823534D01*
X116598262Y-89821392D01*
X116802255Y-89760191D01*
X116811842Y-89756433D01*
X117003095Y-89662739D01*
X117011945Y-89657464D01*
X117185328Y-89533792D01*
X117193200Y-89527139D01*
X117344052Y-89376812D01*
X117350730Y-89368965D01*
X117475003Y-89196020D01*
X117480313Y-89187183D01*
X117574670Y-88996267D01*
X117577151Y-88990000D01*
X122536526Y-88990000D01*
X122556391Y-89242403D01*
X122557545Y-89247210D01*
X122557546Y-89247216D01*
X122586854Y-89369292D01*
X122615495Y-89488591D01*
X122617388Y-89493162D01*
X122617389Y-89493164D01*
X122709994Y-89716731D01*
X122712384Y-89722502D01*
X122844672Y-89938376D01*
X123009102Y-90130898D01*
X123012858Y-90134106D01*
X123032685Y-90151040D01*
X123201624Y-90295328D01*
X123417498Y-90427616D01*
X123422068Y-90429509D01*
X123422072Y-90429511D01*
X123646836Y-90522611D01*
X123651409Y-90524505D01*
X123727310Y-90542727D01*
X123892784Y-90582454D01*
X123892790Y-90582455D01*
X123897597Y-90583609D01*
X123997416Y-90591465D01*
X124084345Y-90598307D01*
X124084352Y-90598307D01*
X124086801Y-90598500D01*
X124213199Y-90598500D01*
X124215648Y-90598307D01*
X124215655Y-90598307D01*
X124302584Y-90591465D01*
X124402403Y-90583609D01*
X124407210Y-90582455D01*
X124407216Y-90582454D01*
X124572690Y-90542727D01*
X124648591Y-90524505D01*
X124653164Y-90522611D01*
X124877928Y-90429511D01*
X124877932Y-90429509D01*
X124882502Y-90427616D01*
X125098376Y-90295328D01*
X125267315Y-90151040D01*
X125287142Y-90134106D01*
X125290898Y-90130898D01*
X125455328Y-89938376D01*
X125587616Y-89722502D01*
X125590007Y-89716731D01*
X125682611Y-89493164D01*
X125682612Y-89493162D01*
X125684505Y-89488591D01*
X125713146Y-89369292D01*
X125742454Y-89247216D01*
X125742455Y-89247210D01*
X125743609Y-89242403D01*
X125763474Y-88990000D01*
X125743609Y-88737597D01*
X125684505Y-88491409D01*
X125682611Y-88486836D01*
X125589511Y-88262072D01*
X125589509Y-88262068D01*
X125587616Y-88257498D01*
X125455328Y-88041624D01*
X125290898Y-87849102D01*
X125098376Y-87684672D01*
X124882502Y-87552384D01*
X124877932Y-87550491D01*
X124877928Y-87550489D01*
X124653164Y-87457389D01*
X124653162Y-87457388D01*
X124648591Y-87455495D01*
X124563968Y-87435179D01*
X124407216Y-87397546D01*
X124407210Y-87397545D01*
X124402403Y-87396391D01*
X124302584Y-87388535D01*
X124215655Y-87381693D01*
X124215648Y-87381693D01*
X124213199Y-87381500D01*
X124086801Y-87381500D01*
X124084352Y-87381693D01*
X124084345Y-87381693D01*
X123997416Y-87388535D01*
X123897597Y-87396391D01*
X123892790Y-87397545D01*
X123892784Y-87397546D01*
X123736032Y-87435179D01*
X123651409Y-87455495D01*
X123646838Y-87457388D01*
X123646836Y-87457389D01*
X123422072Y-87550489D01*
X123422068Y-87550491D01*
X123417498Y-87552384D01*
X123201624Y-87684672D01*
X123009102Y-87849102D01*
X122844672Y-88041624D01*
X122712384Y-88257498D01*
X122710491Y-88262068D01*
X122710489Y-88262072D01*
X122617389Y-88486836D01*
X122615495Y-88491409D01*
X122556391Y-88737597D01*
X122536526Y-88990000D01*
X117577151Y-88990000D01*
X117578469Y-88986672D01*
X117640377Y-88782910D01*
X117642555Y-88772837D01*
X117643986Y-88761962D01*
X117641775Y-88747778D01*
X117628617Y-88744000D01*
X116582115Y-88744000D01*
X116566876Y-88748475D01*
X116565671Y-88749865D01*
X116564000Y-88757548D01*
X116564000Y-89808517D01*
X116056000Y-89808517D01*
X116056000Y-88217885D01*
X116564000Y-88217885D01*
X116568475Y-88233124D01*
X116569865Y-88234329D01*
X116577548Y-88236000D01*
X117628344Y-88236000D01*
X117641875Y-88232027D01*
X117643180Y-88222947D01*
X117601214Y-88055875D01*
X117597894Y-88046124D01*
X117512972Y-87850814D01*
X117508105Y-87841739D01*
X117392426Y-87662926D01*
X117386136Y-87654757D01*
X117242806Y-87497240D01*
X117235273Y-87490215D01*
X117068139Y-87358222D01*
X117059552Y-87352517D01*
X116873117Y-87249599D01*
X116863705Y-87245369D01*
X116662959Y-87174280D01*
X116652988Y-87171646D01*
X116581837Y-87158972D01*
X116568540Y-87160432D01*
X116564000Y-87174989D01*
X116564000Y-88217885D01*
X116056000Y-88217885D01*
X116056000Y-87173102D01*
X116052082Y-87159758D01*
X116037806Y-87157771D01*
X115999324Y-87163660D01*
X115989288Y-87166051D01*
X115786868Y-87232212D01*
X115777359Y-87236209D01*
X115588463Y-87334542D01*
X115579738Y-87340036D01*
X115409433Y-87467905D01*
X115401726Y-87474748D01*
X115254590Y-87628717D01*
X115248109Y-87636722D01*
X115143498Y-87790074D01*
X115088587Y-87835076D01*
X115018062Y-87843247D01*
X114954315Y-87811993D01*
X114933618Y-87787509D01*
X114852822Y-87662617D01*
X114852820Y-87662614D01*
X114850014Y-87658277D01*
X114699670Y-87493051D01*
X114695619Y-87489852D01*
X114695615Y-87489848D01*
X114528414Y-87357800D01*
X114528410Y-87357798D01*
X114524359Y-87354598D01*
X114488028Y-87334542D01*
X114472136Y-87325769D01*
X114328789Y-87246638D01*
X114323920Y-87244914D01*
X114323916Y-87244912D01*
X114123087Y-87173795D01*
X114123083Y-87173794D01*
X114118212Y-87172069D01*
X114113119Y-87171162D01*
X114113116Y-87171161D01*
X113903373Y-87133800D01*
X113903367Y-87133799D01*
X113898284Y-87132894D01*
X113824452Y-87131992D01*
X113680081Y-87130228D01*
X113680079Y-87130228D01*
X113674911Y-87130165D01*
X113454091Y-87163955D01*
X113241756Y-87233357D01*
X113043607Y-87336507D01*
X113039474Y-87339610D01*
X113039471Y-87339612D01*
X112882607Y-87457389D01*
X112864965Y-87470635D01*
X112861393Y-87474373D01*
X112740033Y-87601369D01*
X112710629Y-87632138D01*
X112603201Y-87789621D01*
X112548293Y-87834621D01*
X112477768Y-87842792D01*
X112414021Y-87811538D01*
X112393324Y-87787054D01*
X112312822Y-87662617D01*
X112312820Y-87662614D01*
X112310014Y-87658277D01*
X112159670Y-87493051D01*
X112155619Y-87489852D01*
X112155615Y-87489848D01*
X111988414Y-87357800D01*
X111988410Y-87357798D01*
X111984359Y-87354598D01*
X111948028Y-87334542D01*
X111932136Y-87325769D01*
X111788789Y-87246638D01*
X111783920Y-87244914D01*
X111783916Y-87244912D01*
X111583087Y-87173795D01*
X111583083Y-87173794D01*
X111578212Y-87172069D01*
X111573119Y-87171162D01*
X111573116Y-87171161D01*
X111363373Y-87133800D01*
X111363367Y-87133799D01*
X111358284Y-87132894D01*
X111284452Y-87131992D01*
X111140081Y-87130228D01*
X111140079Y-87130228D01*
X111134911Y-87130165D01*
X110914091Y-87163955D01*
X110701756Y-87233357D01*
X110503607Y-87336507D01*
X110499474Y-87339610D01*
X110499471Y-87339612D01*
X110342607Y-87457389D01*
X110324965Y-87470635D01*
X110268537Y-87529684D01*
X110244283Y-87555064D01*
X110182759Y-87590494D01*
X110111846Y-87587037D01*
X110054060Y-87545791D01*
X110035207Y-87512243D01*
X109993767Y-87401703D01*
X109990615Y-87393295D01*
X109903261Y-87276739D01*
X109786705Y-87189385D01*
X109650316Y-87138255D01*
X109588134Y-87131500D01*
X107791866Y-87131500D01*
X107729684Y-87138255D01*
X107593295Y-87189385D01*
X107476739Y-87276739D01*
X107389385Y-87393295D01*
X107338255Y-87529684D01*
X107331500Y-87591866D01*
X107331500Y-89388134D01*
X107338255Y-89450316D01*
X107389385Y-89586705D01*
X107476739Y-89703261D01*
X107593295Y-89790615D01*
X107729684Y-89841745D01*
X107791866Y-89848500D01*
X109588134Y-89848500D01*
X109650316Y-89841745D01*
X109786705Y-89790615D01*
X109903261Y-89703261D01*
X109990615Y-89586705D01*
X109995346Y-89574086D01*
X110034598Y-89469382D01*
X110077240Y-89412618D01*
X110143802Y-89387918D01*
X110213150Y-89403126D01*
X110247817Y-89431114D01*
X110276250Y-89463938D01*
X110448126Y-89606632D01*
X110641000Y-89719338D01*
X110645825Y-89721180D01*
X110645826Y-89721181D01*
X110718612Y-89748975D01*
X110849692Y-89799030D01*
X110854760Y-89800061D01*
X110854763Y-89800062D01*
X110940617Y-89817529D01*
X111068597Y-89843567D01*
X111073772Y-89843757D01*
X111073774Y-89843757D01*
X111286673Y-89851564D01*
X111286677Y-89851564D01*
X111291837Y-89851753D01*
X111296957Y-89851097D01*
X111296959Y-89851097D01*
X111508288Y-89824025D01*
X111508289Y-89824025D01*
X111513416Y-89823368D01*
X111518699Y-89821783D01*
X111722429Y-89760661D01*
X111722434Y-89760659D01*
X111727384Y-89759174D01*
X111927994Y-89660896D01*
X112109860Y-89531173D01*
X112115997Y-89525058D01*
X112253616Y-89387918D01*
X112268096Y-89373489D01*
X112398453Y-89192077D01*
X112399776Y-89193028D01*
X112446645Y-89149857D01*
X112516580Y-89137625D01*
X112582026Y-89165144D01*
X112609875Y-89196994D01*
X112669987Y-89295088D01*
X112816250Y-89463938D01*
X112820225Y-89467238D01*
X112820229Y-89467242D01*
X112845986Y-89488626D01*
X112885621Y-89547529D01*
X112891500Y-89585569D01*
X112891500Y-90265500D01*
X112871498Y-90333621D01*
X112817842Y-90380114D01*
X112765500Y-90391500D01*
X110203417Y-90391500D01*
X110183708Y-90389949D01*
X110169810Y-90387748D01*
X110163223Y-90388093D01*
X110163218Y-90388093D01*
X110101520Y-90391327D01*
X110094926Y-90391500D01*
X110074390Y-90391500D01*
X110071118Y-90391844D01*
X110071116Y-90391844D01*
X110053958Y-90393647D01*
X110047384Y-90394164D01*
X109985692Y-90397397D01*
X109985688Y-90397398D01*
X109979097Y-90397743D01*
X109972716Y-90399453D01*
X109972714Y-90399453D01*
X109965509Y-90401383D01*
X109946075Y-90404985D01*
X109938646Y-90405766D01*
X109938637Y-90405768D01*
X109932072Y-90406458D01*
X109867003Y-90427600D01*
X109860701Y-90429467D01*
X109794630Y-90447171D01*
X109782093Y-90453559D01*
X109763826Y-90461125D01*
X109756728Y-90463431D01*
X109756726Y-90463432D01*
X109750444Y-90465473D01*
X109744722Y-90468776D01*
X109744721Y-90468777D01*
X109691218Y-90499667D01*
X109685423Y-90502814D01*
X109624470Y-90533871D01*
X109619342Y-90538024D01*
X109619340Y-90538025D01*
X109613534Y-90542727D01*
X109597237Y-90553927D01*
X109590776Y-90557657D01*
X109590772Y-90557660D01*
X109585056Y-90560960D01*
X109580150Y-90565377D01*
X109580145Y-90565381D01*
X109534231Y-90606722D01*
X109529216Y-90611006D01*
X109520718Y-90617888D01*
X109513259Y-90623928D01*
X109498744Y-90638443D01*
X109493959Y-90642984D01*
X109443134Y-90688747D01*
X109439255Y-90694086D01*
X109439254Y-90694087D01*
X109434860Y-90700135D01*
X109422019Y-90715168D01*
X108535168Y-91602019D01*
X108520135Y-91614860D01*
X108508747Y-91623134D01*
X108504327Y-91628043D01*
X108462984Y-91673959D01*
X108458443Y-91678744D01*
X108443928Y-91693259D01*
X108441852Y-91695823D01*
X108431006Y-91709216D01*
X108426722Y-91714231D01*
X108385381Y-91760145D01*
X108385377Y-91760150D01*
X108380960Y-91765056D01*
X108377660Y-91770772D01*
X108377657Y-91770776D01*
X108373927Y-91777237D01*
X108362727Y-91793533D01*
X108353871Y-91804470D01*
X108344865Y-91822146D01*
X108322815Y-91865421D01*
X108319669Y-91871215D01*
X108285473Y-91930444D01*
X108283432Y-91936726D01*
X108283431Y-91936728D01*
X108281125Y-91943826D01*
X108273560Y-91962092D01*
X108267171Y-91974630D01*
X108265463Y-91981003D01*
X108265463Y-91981004D01*
X108249469Y-92040695D01*
X108247600Y-92047003D01*
X108226458Y-92112072D01*
X108225768Y-92118637D01*
X108225766Y-92118646D01*
X108224985Y-92126075D01*
X108221383Y-92145509D01*
X108219453Y-92152714D01*
X108217743Y-92159097D01*
X108217398Y-92165688D01*
X108217397Y-92165692D01*
X108214164Y-92227384D01*
X108213647Y-92233958D01*
X108213081Y-92239348D01*
X108211500Y-92254390D01*
X108211500Y-92274926D01*
X108211327Y-92281520D01*
X108207748Y-92349810D01*
X108208780Y-92356325D01*
X108209949Y-92363705D01*
X108211500Y-92383417D01*
X108211500Y-99383737D01*
X108191498Y-99451858D01*
X108176594Y-99470788D01*
X108095849Y-99555283D01*
X108060629Y-99592138D01*
X108057720Y-99596403D01*
X108057714Y-99596411D01*
X108045409Y-99614450D01*
X107953204Y-99749618D01*
X107952898Y-99750066D01*
X107897987Y-99795069D01*
X107827462Y-99803240D01*
X107763715Y-99771986D01*
X107743018Y-99747502D01*
X107662426Y-99622926D01*
X107656136Y-99614757D01*
X107512806Y-99457240D01*
X107505273Y-99450215D01*
X107338139Y-99318222D01*
X107329552Y-99312517D01*
X107143117Y-99209599D01*
X107133705Y-99205369D01*
X106932959Y-99134280D01*
X106922988Y-99131646D01*
X106851837Y-99118972D01*
X106838540Y-99120432D01*
X106834000Y-99134989D01*
X106834000Y-101768517D01*
X106326000Y-101768517D01*
X106326000Y-100722115D01*
X106321525Y-100706876D01*
X106320135Y-100705671D01*
X106312452Y-100704000D01*
X105263225Y-100704000D01*
X105249694Y-100707973D01*
X105248257Y-100717966D01*
X80508500Y-100717966D01*
X80508500Y-100184183D01*
X105244389Y-100184183D01*
X105245912Y-100192607D01*
X105258292Y-100196000D01*
X106307885Y-100196000D01*
X106323124Y-100191525D01*
X106324329Y-100190135D01*
X106326000Y-100182452D01*
X106326000Y-99133102D01*
X106322082Y-99119758D01*
X106307806Y-99117771D01*
X106269324Y-99123660D01*
X106259288Y-99126051D01*
X106056868Y-99192212D01*
X106047359Y-99196209D01*
X105858463Y-99294542D01*
X105849738Y-99300036D01*
X105679433Y-99427905D01*
X105671726Y-99434748D01*
X105524590Y-99588717D01*
X105518104Y-99596727D01*
X105398098Y-99772649D01*
X105393000Y-99781623D01*
X105303338Y-99974783D01*
X105299775Y-99984470D01*
X105244389Y-100184183D01*
X80508500Y-100184183D01*
X80508500Y-93063998D01*
X86742000Y-93063998D01*
X86742173Y-93068673D01*
X86756088Y-93255926D01*
X86757464Y-93265132D01*
X86813071Y-93510874D01*
X86815795Y-93519785D01*
X86907112Y-93754608D01*
X86911123Y-93763017D01*
X87036146Y-93981760D01*
X87041357Y-93989486D01*
X87197341Y-94187350D01*
X87203634Y-94194218D01*
X87387144Y-94366848D01*
X87394398Y-94372722D01*
X87601403Y-94516327D01*
X87609438Y-94521060D01*
X87835407Y-94632495D01*
X87844040Y-94635983D01*
X88083994Y-94712793D01*
X88093076Y-94714973D01*
X88228120Y-94736967D01*
X88241714Y-94735271D01*
X88245865Y-94721606D01*
X88754000Y-94721606D01*
X88758018Y-94735290D01*
X88771710Y-94737311D01*
X88861904Y-94725036D01*
X88871022Y-94723098D01*
X89112902Y-94652596D01*
X89121633Y-94649333D01*
X89350442Y-94543849D01*
X89358594Y-94539330D01*
X89569291Y-94401192D01*
X89576696Y-94395509D01*
X89764654Y-94227751D01*
X89771139Y-94221035D01*
X89932239Y-94027334D01*
X89937654Y-94019742D01*
X90068354Y-93804354D01*
X90072592Y-93796037D01*
X90170019Y-93563701D01*
X90172980Y-93554851D01*
X90234994Y-93310669D01*
X90236616Y-93301472D01*
X90257684Y-93092247D01*
X90258000Y-93085955D01*
X90258000Y-93066354D01*
X91741500Y-93066354D01*
X91741673Y-93068679D01*
X91741673Y-93068685D01*
X91742957Y-93085955D01*
X91755939Y-93260652D01*
X91756968Y-93265200D01*
X91756969Y-93265206D01*
X91799147Y-93451601D01*
X91813623Y-93515577D01*
X91908353Y-93759177D01*
X92038049Y-93986098D01*
X92199862Y-94191357D01*
X92390237Y-94370443D01*
X92542563Y-94476116D01*
X92600527Y-94516327D01*
X92604991Y-94519424D01*
X92609181Y-94521490D01*
X92609184Y-94521492D01*
X92835219Y-94632960D01*
X92835222Y-94632961D01*
X92839407Y-94635025D01*
X92843850Y-94636447D01*
X92843852Y-94636448D01*
X93082356Y-94712793D01*
X93088335Y-94714707D01*
X93346307Y-94756721D01*
X93460058Y-94758210D01*
X93602978Y-94760081D01*
X93602981Y-94760081D01*
X93607655Y-94760142D01*
X93866638Y-94724896D01*
X93877926Y-94721606D01*
X93938664Y-94703902D01*
X94117567Y-94651757D01*
X94151784Y-94635983D01*
X94172112Y-94626611D01*
X94354928Y-94542332D01*
X94404976Y-94509519D01*
X94569596Y-94401590D01*
X94569601Y-94401586D01*
X94573509Y-94399024D01*
X94768506Y-94224982D01*
X94935637Y-94024030D01*
X95071229Y-93800581D01*
X95172303Y-93559545D01*
X95236641Y-93306217D01*
X95258500Y-93089133D01*
X95258500Y-92433646D01*
X95258327Y-92431315D01*
X95244407Y-92244000D01*
X95244406Y-92243996D01*
X95244061Y-92239348D01*
X95242842Y-92233958D01*
X95187408Y-91988980D01*
X95186377Y-91984423D01*
X95180283Y-91968751D01*
X95093340Y-91745176D01*
X95093339Y-91745173D01*
X95091647Y-91740823D01*
X95076449Y-91714231D01*
X95019653Y-91614860D01*
X94961951Y-91513902D01*
X94800138Y-91308643D01*
X94609763Y-91129557D01*
X94457437Y-91023884D01*
X94398851Y-90983241D01*
X94398848Y-90983239D01*
X94395009Y-90980576D01*
X94354644Y-90960670D01*
X94164781Y-90867040D01*
X94164778Y-90867039D01*
X94160593Y-90864975D01*
X94114449Y-90850204D01*
X93916123Y-90786720D01*
X93911665Y-90785293D01*
X93653693Y-90743279D01*
X93539942Y-90741790D01*
X93397022Y-90739919D01*
X93397019Y-90739919D01*
X93392345Y-90739858D01*
X93133362Y-90775104D01*
X93128876Y-90776412D01*
X93128874Y-90776412D01*
X93098405Y-90785293D01*
X92882433Y-90848243D01*
X92878180Y-90850203D01*
X92878179Y-90850204D01*
X92827888Y-90873389D01*
X92645072Y-90957668D01*
X92606067Y-90983241D01*
X92430404Y-91098410D01*
X92430399Y-91098414D01*
X92426491Y-91100976D01*
X92231494Y-91275018D01*
X92064363Y-91475970D01*
X92061934Y-91479973D01*
X91941317Y-91678744D01*
X91928771Y-91699419D01*
X91827697Y-91940455D01*
X91763359Y-92193783D01*
X91762891Y-92198434D01*
X91762890Y-92198438D01*
X91757256Y-92254390D01*
X91741500Y-92410867D01*
X91741500Y-93066354D01*
X90258000Y-93066354D01*
X90258000Y-93022115D01*
X90253525Y-93006876D01*
X90252135Y-93005671D01*
X90244452Y-93004000D01*
X88772115Y-93004000D01*
X88756876Y-93008475D01*
X88755671Y-93009865D01*
X88754000Y-93017548D01*
X88754000Y-94721606D01*
X88245865Y-94721606D01*
X88246000Y-94721161D01*
X88246000Y-93022115D01*
X88241525Y-93006876D01*
X88240135Y-93005671D01*
X88232452Y-93004000D01*
X86760115Y-93004000D01*
X86744876Y-93008475D01*
X86743671Y-93009865D01*
X86742000Y-93017548D01*
X86742000Y-93063998D01*
X80508500Y-93063998D01*
X80508500Y-92477885D01*
X86742000Y-92477885D01*
X86746475Y-92493124D01*
X86747865Y-92494329D01*
X86755548Y-92496000D01*
X88227885Y-92496000D01*
X88243124Y-92491525D01*
X88244329Y-92490135D01*
X88246000Y-92482452D01*
X88246000Y-92477885D01*
X88754000Y-92477885D01*
X88758475Y-92493124D01*
X88759865Y-92494329D01*
X88767548Y-92496000D01*
X90239885Y-92496000D01*
X90255124Y-92491525D01*
X90256329Y-92490135D01*
X90258000Y-92482452D01*
X90258000Y-92436002D01*
X90257827Y-92431327D01*
X90243911Y-92244068D01*
X90242536Y-92234868D01*
X90186929Y-91989126D01*
X90184205Y-91980215D01*
X90092888Y-91745392D01*
X90088877Y-91736983D01*
X89963854Y-91518240D01*
X89958643Y-91510514D01*
X89802659Y-91312650D01*
X89796366Y-91305782D01*
X89612856Y-91133152D01*
X89605602Y-91127278D01*
X89398597Y-90983673D01*
X89390562Y-90978940D01*
X89164593Y-90867505D01*
X89155960Y-90864017D01*
X88916006Y-90787207D01*
X88906924Y-90785027D01*
X88771880Y-90763033D01*
X88758286Y-90764729D01*
X88754000Y-90778839D01*
X88754000Y-92477885D01*
X88246000Y-92477885D01*
X88246000Y-90778394D01*
X88241982Y-90764710D01*
X88228290Y-90762689D01*
X88138096Y-90774964D01*
X88128978Y-90776902D01*
X87887098Y-90847404D01*
X87878367Y-90850667D01*
X87649558Y-90956151D01*
X87641406Y-90960670D01*
X87430709Y-91098808D01*
X87423304Y-91104491D01*
X87235346Y-91272249D01*
X87228861Y-91278965D01*
X87067761Y-91472666D01*
X87062346Y-91480258D01*
X86931646Y-91695646D01*
X86927408Y-91703963D01*
X86829981Y-91936299D01*
X86827020Y-91945149D01*
X86765006Y-92189331D01*
X86763384Y-92198528D01*
X86742316Y-92407753D01*
X86742000Y-92414045D01*
X86742000Y-92477885D01*
X80508500Y-92477885D01*
X80508500Y-88990000D01*
X99236526Y-88990000D01*
X99256391Y-89242403D01*
X99257545Y-89247210D01*
X99257546Y-89247216D01*
X99286854Y-89369292D01*
X99315495Y-89488591D01*
X99317388Y-89493162D01*
X99317389Y-89493164D01*
X99409994Y-89716731D01*
X99412384Y-89722502D01*
X99544672Y-89938376D01*
X99709102Y-90130898D01*
X99712858Y-90134106D01*
X99732685Y-90151040D01*
X99901624Y-90295328D01*
X100117498Y-90427616D01*
X100122068Y-90429509D01*
X100122072Y-90429511D01*
X100346836Y-90522611D01*
X100351409Y-90524505D01*
X100427310Y-90542727D01*
X100592784Y-90582454D01*
X100592790Y-90582455D01*
X100597597Y-90583609D01*
X100697416Y-90591465D01*
X100784345Y-90598307D01*
X100784352Y-90598307D01*
X100786801Y-90598500D01*
X100913199Y-90598500D01*
X100915648Y-90598307D01*
X100915655Y-90598307D01*
X101002584Y-90591465D01*
X101102403Y-90583609D01*
X101107210Y-90582455D01*
X101107216Y-90582454D01*
X101272690Y-90542727D01*
X101348591Y-90524505D01*
X101353164Y-90522611D01*
X101577928Y-90429511D01*
X101577932Y-90429509D01*
X101582502Y-90427616D01*
X101798376Y-90295328D01*
X101967315Y-90151040D01*
X101987142Y-90134106D01*
X101990898Y-90130898D01*
X102155328Y-89938376D01*
X102287616Y-89722502D01*
X102290007Y-89716731D01*
X102382611Y-89493164D01*
X102382612Y-89493162D01*
X102384505Y-89488591D01*
X102413146Y-89369292D01*
X102442454Y-89247216D01*
X102442455Y-89247210D01*
X102443609Y-89242403D01*
X102463474Y-88990000D01*
X102443609Y-88737597D01*
X102384505Y-88491409D01*
X102382611Y-88486836D01*
X102289511Y-88262072D01*
X102289509Y-88262068D01*
X102287616Y-88257498D01*
X102155328Y-88041624D01*
X101990898Y-87849102D01*
X101798376Y-87684672D01*
X101582502Y-87552384D01*
X101577932Y-87550491D01*
X101577928Y-87550489D01*
X101353164Y-87457389D01*
X101353162Y-87457388D01*
X101348591Y-87455495D01*
X101263968Y-87435179D01*
X101107216Y-87397546D01*
X101107210Y-87397545D01*
X101102403Y-87396391D01*
X101002584Y-87388535D01*
X100915655Y-87381693D01*
X100915648Y-87381693D01*
X100913199Y-87381500D01*
X100786801Y-87381500D01*
X100784352Y-87381693D01*
X100784345Y-87381693D01*
X100697416Y-87388535D01*
X100597597Y-87396391D01*
X100592790Y-87397545D01*
X100592784Y-87397546D01*
X100436032Y-87435179D01*
X100351409Y-87455495D01*
X100346838Y-87457388D01*
X100346836Y-87457389D01*
X100122072Y-87550489D01*
X100122068Y-87550491D01*
X100117498Y-87552384D01*
X99901624Y-87684672D01*
X99709102Y-87849102D01*
X99544672Y-88041624D01*
X99412384Y-88257498D01*
X99410491Y-88262068D01*
X99410489Y-88262072D01*
X99317389Y-88486836D01*
X99315495Y-88491409D01*
X99256391Y-88737597D01*
X99236526Y-88990000D01*
X80508500Y-88990000D01*
X80508500Y-86042277D01*
X81637009Y-86042277D01*
X81662625Y-86310769D01*
X81663710Y-86315203D01*
X81663711Y-86315209D01*
X81725645Y-86568312D01*
X81726731Y-86572750D01*
X81827985Y-86822733D01*
X81964265Y-87055482D01*
X82059270Y-87174280D01*
X82119505Y-87249599D01*
X82132716Y-87266119D01*
X82329809Y-87450234D01*
X82551416Y-87603968D01*
X82555499Y-87605999D01*
X82555502Y-87606001D01*
X82608040Y-87632138D01*
X82792894Y-87724101D01*
X82797228Y-87725522D01*
X82797231Y-87725523D01*
X83044853Y-87806698D01*
X83044859Y-87806699D01*
X83049186Y-87808118D01*
X83053677Y-87808898D01*
X83053678Y-87808898D01*
X83311140Y-87853601D01*
X83311148Y-87853602D01*
X83314921Y-87854257D01*
X83318758Y-87854448D01*
X83398578Y-87858422D01*
X83398586Y-87858422D01*
X83400149Y-87858500D01*
X83568512Y-87858500D01*
X83570780Y-87858335D01*
X83570792Y-87858335D01*
X83701884Y-87848823D01*
X83769004Y-87843953D01*
X83773459Y-87842969D01*
X83773462Y-87842969D01*
X84027912Y-87786791D01*
X84027916Y-87786790D01*
X84032372Y-87785806D01*
X84158480Y-87738028D01*
X84280318Y-87691868D01*
X84280321Y-87691867D01*
X84284588Y-87690250D01*
X84520368Y-87559286D01*
X84734773Y-87395657D01*
X84748613Y-87381500D01*
X84877555Y-87249599D01*
X84923312Y-87202792D01*
X85082034Y-86984730D01*
X85165190Y-86826676D01*
X85205490Y-86750079D01*
X85205493Y-86750073D01*
X85207615Y-86746039D01*
X85270378Y-86568312D01*
X85295902Y-86496033D01*
X85295902Y-86496032D01*
X85297425Y-86491720D01*
X85349581Y-86227100D01*
X85358782Y-86042277D01*
X139637009Y-86042277D01*
X139662625Y-86310769D01*
X139663710Y-86315203D01*
X139663711Y-86315209D01*
X139725645Y-86568312D01*
X139726731Y-86572750D01*
X139827985Y-86822733D01*
X139964265Y-87055482D01*
X140059270Y-87174280D01*
X140119505Y-87249599D01*
X140132716Y-87266119D01*
X140329809Y-87450234D01*
X140551416Y-87603968D01*
X140555499Y-87605999D01*
X140555502Y-87606001D01*
X140608040Y-87632138D01*
X140792894Y-87724101D01*
X140797228Y-87725522D01*
X140797231Y-87725523D01*
X141044853Y-87806698D01*
X141044859Y-87806699D01*
X141049186Y-87808118D01*
X141053677Y-87808898D01*
X141053678Y-87808898D01*
X141311140Y-87853601D01*
X141311148Y-87853602D01*
X141314921Y-87854257D01*
X141318758Y-87854448D01*
X141398578Y-87858422D01*
X141398586Y-87858422D01*
X141400149Y-87858500D01*
X141568512Y-87858500D01*
X141570780Y-87858335D01*
X141570792Y-87858335D01*
X141701884Y-87848823D01*
X141769004Y-87843953D01*
X141773459Y-87842969D01*
X141773462Y-87842969D01*
X142027912Y-87786791D01*
X142027916Y-87786790D01*
X142032372Y-87785806D01*
X142158480Y-87738028D01*
X142280318Y-87691868D01*
X142280321Y-87691867D01*
X142284588Y-87690250D01*
X142520368Y-87559286D01*
X142734773Y-87395657D01*
X142748613Y-87381500D01*
X142877555Y-87249599D01*
X142923312Y-87202792D01*
X143082034Y-86984730D01*
X143165190Y-86826676D01*
X143205490Y-86750079D01*
X143205493Y-86750073D01*
X143207615Y-86746039D01*
X143270378Y-86568312D01*
X143295902Y-86496033D01*
X143295902Y-86496032D01*
X143297425Y-86491720D01*
X143349581Y-86227100D01*
X143358782Y-86042277D01*
X143362764Y-85962292D01*
X143362764Y-85962286D01*
X143362991Y-85957723D01*
X143337375Y-85689231D01*
X143298986Y-85532345D01*
X143274355Y-85431688D01*
X143273269Y-85427250D01*
X143172015Y-85177267D01*
X143035735Y-84944518D01*
X142917928Y-84797208D01*
X142870136Y-84737447D01*
X142870135Y-84737445D01*
X142867284Y-84733881D01*
X142670191Y-84549766D01*
X142448584Y-84396032D01*
X142444501Y-84394001D01*
X142444498Y-84393999D01*
X142279606Y-84311967D01*
X142207106Y-84275899D01*
X142202772Y-84274478D01*
X142202769Y-84274477D01*
X141955147Y-84193302D01*
X141955141Y-84193301D01*
X141950814Y-84191882D01*
X141946322Y-84191102D01*
X141688860Y-84146399D01*
X141688852Y-84146398D01*
X141685079Y-84145743D01*
X141673817Y-84145182D01*
X141601422Y-84141578D01*
X141601414Y-84141578D01*
X141599851Y-84141500D01*
X141431488Y-84141500D01*
X141429220Y-84141665D01*
X141429208Y-84141665D01*
X141298116Y-84151177D01*
X141230996Y-84156047D01*
X141226541Y-84157031D01*
X141226538Y-84157031D01*
X140972088Y-84213209D01*
X140972084Y-84213210D01*
X140967628Y-84214194D01*
X140841520Y-84261972D01*
X140719682Y-84308132D01*
X140719679Y-84308133D01*
X140715412Y-84309750D01*
X140479632Y-84440714D01*
X140265227Y-84604343D01*
X140262034Y-84607609D01*
X140262032Y-84607611D01*
X140246233Y-84623773D01*
X140076688Y-84797208D01*
X139917966Y-85015270D01*
X139915844Y-85019304D01*
X139794510Y-85249921D01*
X139794507Y-85249927D01*
X139792385Y-85253961D01*
X139790865Y-85258266D01*
X139790863Y-85258270D01*
X139720365Y-85457904D01*
X139702575Y-85508280D01*
X139650419Y-85772900D01*
X139650192Y-85777453D01*
X139650192Y-85777456D01*
X139640991Y-85962292D01*
X139637009Y-86042277D01*
X85358782Y-86042277D01*
X85362764Y-85962292D01*
X85362764Y-85962286D01*
X85362991Y-85957723D01*
X85337375Y-85689231D01*
X85298986Y-85532345D01*
X85274355Y-85431688D01*
X85273269Y-85427250D01*
X85172015Y-85177267D01*
X85035735Y-84944518D01*
X84917928Y-84797208D01*
X84870136Y-84737447D01*
X84870135Y-84737445D01*
X84867284Y-84733881D01*
X84670191Y-84549766D01*
X84448584Y-84396032D01*
X84444501Y-84394001D01*
X84444498Y-84393999D01*
X84279606Y-84311967D01*
X84207106Y-84275899D01*
X84202772Y-84274478D01*
X84202769Y-84274477D01*
X83955147Y-84193302D01*
X83955141Y-84193301D01*
X83950814Y-84191882D01*
X83946322Y-84191102D01*
X83688860Y-84146399D01*
X83688852Y-84146398D01*
X83685079Y-84145743D01*
X83673817Y-84145182D01*
X83601422Y-84141578D01*
X83601414Y-84141578D01*
X83599851Y-84141500D01*
X83431488Y-84141500D01*
X83429220Y-84141665D01*
X83429208Y-84141665D01*
X83298116Y-84151177D01*
X83230996Y-84156047D01*
X83226541Y-84157031D01*
X83226538Y-84157031D01*
X82972088Y-84213209D01*
X82972084Y-84213210D01*
X82967628Y-84214194D01*
X82841520Y-84261972D01*
X82719682Y-84308132D01*
X82719679Y-84308133D01*
X82715412Y-84309750D01*
X82479632Y-84440714D01*
X82265227Y-84604343D01*
X82262034Y-84607609D01*
X82262032Y-84607611D01*
X82246233Y-84623773D01*
X82076688Y-84797208D01*
X81917966Y-85015270D01*
X81915844Y-85019304D01*
X81794510Y-85249921D01*
X81794507Y-85249927D01*
X81792385Y-85253961D01*
X81790865Y-85258266D01*
X81790863Y-85258270D01*
X81720365Y-85457904D01*
X81702575Y-85508280D01*
X81650419Y-85772900D01*
X81650192Y-85777453D01*
X81650192Y-85777456D01*
X81640991Y-85962292D01*
X81637009Y-86042277D01*
X80508500Y-86042277D01*
X80508500Y-85553250D01*
X80510246Y-85532345D01*
X80512770Y-85517344D01*
X80512770Y-85517341D01*
X80513576Y-85512552D01*
X80513729Y-85500000D01*
X80513040Y-85495186D01*
X80513039Y-85495177D01*
X80511869Y-85487006D01*
X80510827Y-85461540D01*
X80526206Y-85207290D01*
X80528040Y-85192186D01*
X80559721Y-85019304D01*
X80579525Y-84911240D01*
X80583164Y-84896473D01*
X80633830Y-84733881D01*
X80668142Y-84623769D01*
X80673534Y-84609555D01*
X80790758Y-84349092D01*
X80797828Y-84335621D01*
X80812128Y-84311967D01*
X80871829Y-84213209D01*
X80945595Y-84091187D01*
X80954238Y-84078666D01*
X81130385Y-83853829D01*
X81140475Y-83842440D01*
X81342440Y-83640475D01*
X81353829Y-83630385D01*
X81578666Y-83454238D01*
X81591187Y-83445595D01*
X81835621Y-83297828D01*
X81849094Y-83290757D01*
X81891777Y-83271547D01*
X82109555Y-83173534D01*
X82123769Y-83168142D01*
X82396474Y-83083164D01*
X82411240Y-83079525D01*
X82620214Y-83041229D01*
X82692186Y-83028040D01*
X82707290Y-83026206D01*
X82957904Y-83011047D01*
X82984716Y-83012308D01*
X82984852Y-83012310D01*
X82993724Y-83013691D01*
X83002626Y-83012527D01*
X83002628Y-83012527D01*
X83017677Y-83010559D01*
X83025286Y-83009564D01*
X83041621Y-83008500D01*
X141950633Y-83008500D01*
X141970018Y-83010000D01*
G37*
G04 #@! TD.AperFunction*
M02*
