G04 #@! TF.GenerationSoftware,KiCad,Pcbnew,(6.0.4)*
G04 #@! TF.CreationDate,2022-03-24T17:43:32+01:00*
G04 #@! TF.ProjectId,MT32pi-MiSTer,4d543332-7069-42d4-9d69-535465722e6b,rev?*
G04 #@! TF.SameCoordinates,Original*
G04 #@! TF.FileFunction,Profile,NP*
%FSLAX46Y46*%
G04 Gerber Fmt 4.6, Leading zero omitted, Abs format (unit mm)*
G04 Created by KiCad (PCBNEW (6.0.4)) date 2022-03-24 17:43:32*
%MOMM*%
%LPD*%
G01*
G04 APERTURE LIST*
G04 #@! TA.AperFunction,Profile*
%ADD10C,0.100000*%
G04 #@! TD*
G04 APERTURE END LIST*
D10*
X145000000Y-85500000D02*
X145000000Y-87100000D01*
X104700000Y-115500000D02*
X104700000Y-112500000D01*
X134500000Y-82500000D02*
X142000000Y-82500000D01*
X80000000Y-85500000D02*
X80000000Y-112500000D01*
X80000000Y-112500000D02*
G75*
G03*
X83000000Y-115500000I3000000J0D01*
G01*
X145000000Y-85500000D02*
G75*
G03*
X142000000Y-82500000I-3000000J0D01*
G01*
X83000000Y-82500000D02*
G75*
G03*
X80000000Y-85500000I0J-3000000D01*
G01*
X142000000Y-115500000D02*
G75*
G03*
X145000000Y-112500000I0J3000000D01*
G01*
X145000000Y-107500000D02*
X145000000Y-112500000D01*
X106700000Y-110500000D02*
X119200000Y-110500000D01*
X121200000Y-115500000D02*
X142000000Y-115500000D01*
X106700000Y-110500000D02*
G75*
G03*
X104700000Y-112500000I0J-2000000D01*
G01*
X121200000Y-112500000D02*
G75*
G03*
X119200000Y-110500000I-2000000J0D01*
G01*
X104700000Y-115500000D02*
X83000000Y-115500000D01*
X114500000Y-82500000D02*
X130500000Y-82500000D01*
X121200000Y-112500000D02*
X121200000Y-115500000D01*
X145000000Y-91100000D02*
X145000000Y-103500000D01*
X83000000Y-82500000D02*
X90750000Y-82500000D01*
X94750000Y-82500000D02*
X110500000Y-82500000D01*
X145000000Y-103500000D02*
X145000000Y-107500000D01*
X145000000Y-87100000D02*
X145000000Y-91100000D01*
X130500000Y-82500000D02*
X134500000Y-82500000D01*
X110500000Y-82500000D02*
X114500000Y-82500000D01*
X90750000Y-82500000D02*
X94750000Y-82500000D01*
M02*
