G04 #@! TF.GenerationSoftware,KiCad,Pcbnew,(6.0.4)*
G04 #@! TF.CreationDate,2022-03-24T17:43:32+01:00*
G04 #@! TF.ProjectId,MT32pi-MiSTer,4d543332-7069-42d4-9d69-535465722e6b,rev?*
G04 #@! TF.SameCoordinates,Original*
G04 #@! TF.FileFunction,Legend,Bot*
G04 #@! TF.FilePolarity,Positive*
%FSLAX46Y46*%
G04 Gerber Fmt 4.6, Leading zero omitted, Abs format (unit mm)*
G04 Created by KiCad (PCBNEW (6.0.4)) date 2022-03-24 17:43:32*
%MOMM*%
%LPD*%
G01*
G04 APERTURE LIST*
%ADD10C,0.150000*%
%ADD11C,0.120000*%
G04 APERTURE END LIST*
D10*
X135373333Y-99504761D02*
X135230476Y-99552380D01*
X134992380Y-99552380D01*
X134897142Y-99504761D01*
X134849523Y-99457142D01*
X134801904Y-99361904D01*
X134801904Y-99266666D01*
X134849523Y-99171428D01*
X134897142Y-99123809D01*
X134992380Y-99076190D01*
X135182857Y-99028571D01*
X135278095Y-98980952D01*
X135325714Y-98933333D01*
X135373333Y-98838095D01*
X135373333Y-98742857D01*
X135325714Y-98647619D01*
X135278095Y-98600000D01*
X135182857Y-98552380D01*
X134944761Y-98552380D01*
X134801904Y-98600000D01*
X134468571Y-98552380D02*
X134230476Y-99552380D01*
X134040000Y-98838095D01*
X133849523Y-99552380D01*
X133611428Y-98552380D01*
X132706666Y-99552380D02*
X133278095Y-99552380D01*
X132992380Y-99552380D02*
X132992380Y-98552380D01*
X133087619Y-98695238D01*
X133182857Y-98790476D01*
X133278095Y-98838095D01*
X114916666Y-93337142D02*
X114964285Y-93384761D01*
X115107142Y-93432380D01*
X115202380Y-93432380D01*
X115345238Y-93384761D01*
X115440476Y-93289523D01*
X115488095Y-93194285D01*
X115535714Y-93003809D01*
X115535714Y-92860952D01*
X115488095Y-92670476D01*
X115440476Y-92575238D01*
X115345238Y-92480000D01*
X115202380Y-92432380D01*
X115107142Y-92432380D01*
X114964285Y-92480000D01*
X114916666Y-92527619D01*
X113964285Y-93432380D02*
X114535714Y-93432380D01*
X114250000Y-93432380D02*
X114250000Y-92432380D01*
X114345238Y-92575238D01*
X114440476Y-92670476D01*
X114535714Y-92718095D01*
X92293333Y-99304761D02*
X92150476Y-99352380D01*
X91912380Y-99352380D01*
X91817142Y-99304761D01*
X91769523Y-99257142D01*
X91721904Y-99161904D01*
X91721904Y-99066666D01*
X91769523Y-98971428D01*
X91817142Y-98923809D01*
X91912380Y-98876190D01*
X92102857Y-98828571D01*
X92198095Y-98780952D01*
X92245714Y-98733333D01*
X92293333Y-98638095D01*
X92293333Y-98542857D01*
X92245714Y-98447619D01*
X92198095Y-98400000D01*
X92102857Y-98352380D01*
X91864761Y-98352380D01*
X91721904Y-98400000D01*
X91388571Y-98352380D02*
X91150476Y-99352380D01*
X90960000Y-98638095D01*
X90769523Y-99352380D01*
X90531428Y-98352380D01*
X90198095Y-98447619D02*
X90150476Y-98400000D01*
X90055238Y-98352380D01*
X89817142Y-98352380D01*
X89721904Y-98400000D01*
X89674285Y-98447619D01*
X89626666Y-98542857D01*
X89626666Y-98638095D01*
X89674285Y-98780952D01*
X90245714Y-99352380D01*
X89626666Y-99352380D01*
X112833333Y-85452380D02*
X112833333Y-86166666D01*
X112880952Y-86309523D01*
X112976190Y-86404761D01*
X113119047Y-86452380D01*
X113214285Y-86452380D01*
X112404761Y-85547619D02*
X112357142Y-85500000D01*
X112261904Y-85452380D01*
X112023809Y-85452380D01*
X111928571Y-85500000D01*
X111880952Y-85547619D01*
X111833333Y-85642857D01*
X111833333Y-85738095D01*
X111880952Y-85880952D01*
X112452380Y-86452380D01*
X111833333Y-86452380D01*
X113333333Y-97452380D02*
X113333333Y-98166666D01*
X113380952Y-98309523D01*
X113476190Y-98404761D01*
X113619047Y-98452380D01*
X113714285Y-98452380D01*
X112952380Y-97452380D02*
X112333333Y-97452380D01*
X112666666Y-97833333D01*
X112523809Y-97833333D01*
X112428571Y-97880952D01*
X112380952Y-97928571D01*
X112333333Y-98023809D01*
X112333333Y-98261904D01*
X112380952Y-98357142D01*
X112428571Y-98404761D01*
X112523809Y-98452380D01*
X112809523Y-98452380D01*
X112904761Y-98404761D01*
X112952380Y-98357142D01*
D11*
X140150000Y-92850000D02*
X138030000Y-92850000D01*
X133030000Y-105150000D02*
X134970000Y-105150000D01*
X127850000Y-92850000D02*
X127850000Y-105150000D01*
X127850000Y-105150000D02*
X129970000Y-105150000D01*
X140150000Y-105150000D02*
X140150000Y-92850000D01*
X134970000Y-92850000D02*
X133030000Y-92850000D01*
X129970000Y-92850000D02*
X127850000Y-92850000D01*
X138030000Y-105150000D02*
X140150000Y-105150000D01*
X138619050Y-99100000D02*
G75*
G03*
X138619050Y-99100000I-4579050J0D01*
G01*
X114488748Y-92035000D02*
X115011252Y-92035000D01*
X114488748Y-90565000D02*
X115011252Y-90565000D01*
X95030000Y-105150000D02*
X97150000Y-105150000D01*
X84850000Y-105150000D02*
X86970000Y-105150000D01*
X91970000Y-92850000D02*
X90030000Y-92850000D01*
X97150000Y-92850000D02*
X95030000Y-92850000D01*
X90030000Y-105150000D02*
X91970000Y-105150000D01*
X97150000Y-105150000D02*
X97150000Y-92850000D01*
X84850000Y-92850000D02*
X84850000Y-105150000D01*
X86970000Y-92850000D02*
X84850000Y-92850000D01*
X95539050Y-98900000D02*
G75*
G03*
X95539050Y-98900000I-4579050J0D01*
G01*
X109960000Y-87160000D02*
X109960000Y-89820000D01*
X107360000Y-89820000D02*
X108690000Y-89820000D01*
X117640000Y-87160000D02*
X117640000Y-89820000D01*
X107360000Y-88490000D02*
X107360000Y-89820000D01*
X109960000Y-87160000D02*
X117640000Y-87160000D01*
X109960000Y-89820000D02*
X117640000Y-89820000D01*
X112020000Y-101910000D02*
X112020000Y-101500000D01*
X105250000Y-110540000D02*
X105250000Y-101910000D01*
X118010000Y-110540000D02*
X118010000Y-101910000D01*
X114560000Y-101910000D02*
X114560000Y-101500000D01*
X118364290Y-110540000D02*
X118364290Y-101910000D01*
X118718575Y-110540000D02*
X118718575Y-101910000D01*
X120017620Y-110540000D02*
X120017620Y-101910000D01*
X119545240Y-110540000D02*
X119545240Y-101910000D01*
X118920000Y-101910000D02*
X118920000Y-101560000D01*
X118600480Y-110540000D02*
X118600480Y-101910000D01*
X113840000Y-101910000D02*
X113840000Y-101500000D01*
X120490000Y-110540000D02*
X120490000Y-101910000D01*
X119663335Y-110540000D02*
X119663335Y-101910000D01*
X119427145Y-110540000D02*
X119427145Y-101910000D01*
X119190955Y-110540000D02*
X119190955Y-101910000D01*
X116380000Y-101910000D02*
X116380000Y-101500000D01*
X120610000Y-99340000D02*
X119280000Y-99340000D01*
X118954765Y-110540000D02*
X118954765Y-101910000D01*
X118482385Y-110540000D02*
X118482385Y-101910000D01*
X120610000Y-100450000D02*
X120610000Y-99340000D01*
X112930000Y-110540000D02*
X112930000Y-101910000D01*
X120610000Y-110540000D02*
X105250000Y-110540000D01*
X109480000Y-101910000D02*
X109480000Y-101500000D01*
X119781430Y-110540000D02*
X119781430Y-101910000D01*
X108760000Y-101910000D02*
X108760000Y-101500000D01*
X106940000Y-101910000D02*
X106940000Y-101500000D01*
X118128100Y-110540000D02*
X118128100Y-101910000D01*
X120610000Y-110540000D02*
X120610000Y-101910000D01*
X120371905Y-110540000D02*
X120371905Y-101910000D01*
X118836670Y-110540000D02*
X118836670Y-101910000D01*
X120610000Y-101910000D02*
X105250000Y-101910000D01*
X118246195Y-110540000D02*
X118246195Y-101910000D01*
X117100000Y-101910000D02*
X117100000Y-101500000D01*
X115470000Y-110540000D02*
X115470000Y-101910000D01*
X119640000Y-101910000D02*
X119640000Y-101560000D01*
X120135715Y-110540000D02*
X120135715Y-101910000D01*
X110390000Y-110540000D02*
X110390000Y-101910000D01*
X119899525Y-110540000D02*
X119899525Y-101910000D01*
X119309050Y-110540000D02*
X119309050Y-101910000D01*
X119072860Y-110540000D02*
X119072860Y-101910000D01*
X111300000Y-101910000D02*
X111300000Y-101500000D01*
X107850000Y-110540000D02*
X107850000Y-101910000D01*
X106220000Y-101910000D02*
X106220000Y-101500000D01*
X120253810Y-110540000D02*
X120253810Y-101910000D01*
M02*
