M48
; DRILL file {KiCad (6.0.4)} date Thu Mar 24 17:43:34 2022
; FORMAT={-:-/ absolute / metric / decimal}
; #@! TF.CreationDate,2022-03-24T17:43:34+01:00
; #@! TF.GenerationSoftware,Kicad,Pcbnew,(6.0.4)
; #@! TF.FileFunction,Plated,1,2,PTH
FMAT,2
METRIC
; #@! TA.AperFunction,Plated,PTH,ViaDrill
T1C0.400
; #@! TA.AperFunction,Plated,PTH,ComponentDrill
T2C1.000
; #@! TA.AperFunction,Plated,PTH,ComponentDrill
T3C1.200
%
G90
G05
T1
X81.0Y-94.0
X81.0Y-99.0
X81.0Y-104.0
X85.0Y-114.5
X90.0Y-83.5
X90.0Y-114.5
X95.0Y-83.5
X95.0Y-114.5
X100.0Y-83.5
X105.0Y-83.5
X107.5Y-109.5
X110.0Y-83.5
X112.5Y-109.5
X115.0Y-83.5
X117.5Y-109.5
X120.0Y-83.5
X125.0Y-83.5
X130.0Y-83.5
X130.0Y-114.5
X135.0Y-83.5
X135.0Y-114.5
X140.0Y-114.5
X144.0Y-94.0
X144.0Y-99.0
X144.0Y-104.0
T2
X106.58Y-100.45
X108.69Y-88.49
X109.12Y-100.45
X111.23Y-88.49
X111.66Y-100.45
X113.77Y-88.49
X114.2Y-100.45
X116.31Y-88.49
X116.74Y-100.45
X119.28Y-100.45
T3
X88.5Y-92.75
X88.5Y-105.25
X93.5Y-92.75
X93.5Y-105.25
X131.5Y-92.75
X131.5Y-105.25
X136.5Y-92.75
X136.5Y-105.25
T0
M30
