G04 #@! TF.GenerationSoftware,KiCad,Pcbnew,(6.0.4)*
G04 #@! TF.CreationDate,2022-03-24T17:43:32+01:00*
G04 #@! TF.ProjectId,MT32pi-MiSTer,4d543332-7069-42d4-9d69-535465722e6b,rev?*
G04 #@! TF.SameCoordinates,Original*
G04 #@! TF.FileFunction,Legend,Top*
G04 #@! TF.FilePolarity,Positive*
%FSLAX46Y46*%
G04 Gerber Fmt 4.6, Leading zero omitted, Abs format (unit mm)*
G04 Created by KiCad (PCBNEW (6.0.4)) date 2022-03-24 17:43:32*
%MOMM*%
%LPD*%
G01*
G04 APERTURE LIST*
%ADD10C,0.300000*%
G04 APERTURE END LIST*
D10*
X105571428Y-93078571D02*
X105571428Y-94150000D01*
X105500000Y-94364285D01*
X105357142Y-94507142D01*
X105142857Y-94578571D01*
X105000000Y-94578571D01*
X107000000Y-94578571D02*
X106285714Y-94578571D01*
X106285714Y-93078571D01*
X108357142Y-94435714D02*
X108285714Y-94507142D01*
X108071428Y-94578571D01*
X107928571Y-94578571D01*
X107714285Y-94507142D01*
X107571428Y-94364285D01*
X107500000Y-94221428D01*
X107428571Y-93935714D01*
X107428571Y-93721428D01*
X107500000Y-93435714D01*
X107571428Y-93292857D01*
X107714285Y-93150000D01*
X107928571Y-93078571D01*
X108071428Y-93078571D01*
X108285714Y-93150000D01*
X108357142Y-93221428D01*
X109428571Y-93078571D02*
X109428571Y-94150000D01*
X109357142Y-94364285D01*
X109214285Y-94507142D01*
X109000000Y-94578571D01*
X108857142Y-94578571D01*
X110857142Y-94578571D02*
X110142857Y-94578571D01*
X110142857Y-93078571D01*
X112214285Y-94435714D02*
X112142857Y-94507142D01*
X111928571Y-94578571D01*
X111785714Y-94578571D01*
X111571428Y-94507142D01*
X111428571Y-94364285D01*
X111357142Y-94221428D01*
X111285714Y-93935714D01*
X111285714Y-93721428D01*
X111357142Y-93435714D01*
X111428571Y-93292857D01*
X111571428Y-93150000D01*
X111785714Y-93078571D01*
X111928571Y-93078571D01*
X112142857Y-93150000D01*
X112214285Y-93221428D01*
X113285714Y-93078571D02*
X113285714Y-94150000D01*
X113214285Y-94364285D01*
X113071428Y-94507142D01*
X112857142Y-94578571D01*
X112714285Y-94578571D01*
X114714285Y-94578571D02*
X114000000Y-94578571D01*
X114000000Y-93078571D01*
X116071428Y-94435714D02*
X116000000Y-94507142D01*
X115785714Y-94578571D01*
X115642857Y-94578571D01*
X115428571Y-94507142D01*
X115285714Y-94364285D01*
X115214285Y-94221428D01*
X115142857Y-93935714D01*
X115142857Y-93721428D01*
X115214285Y-93435714D01*
X115285714Y-93292857D01*
X115428571Y-93150000D01*
X115642857Y-93078571D01*
X115785714Y-93078571D01*
X116000000Y-93150000D01*
X116071428Y-93221428D01*
X117142857Y-93078571D02*
X117142857Y-94150000D01*
X117071428Y-94364285D01*
X116928571Y-94507142D01*
X116714285Y-94578571D01*
X116571428Y-94578571D01*
X118571428Y-94578571D02*
X117857142Y-94578571D01*
X117857142Y-93078571D01*
X119928571Y-94435714D02*
X119857142Y-94507142D01*
X119642857Y-94578571D01*
X119500000Y-94578571D01*
X119285714Y-94507142D01*
X119142857Y-94364285D01*
X119071428Y-94221428D01*
X119000000Y-93935714D01*
X119000000Y-93721428D01*
X119071428Y-93435714D01*
X119142857Y-93292857D01*
X119285714Y-93150000D01*
X119500000Y-93078571D01*
X119642857Y-93078571D01*
X119857142Y-93150000D01*
X119928571Y-93221428D01*
M02*
